<svg xmlns="http://www.w3.org/2000/svg" width="48" height="48" data-name="Layer 1"><path d="M27.72 21.5a1.27 1.27 0 0 0-1.43 1.38c0 .73.4 1.24 1.39 1.24a1.27 1.27 0 0 0 1.4-1.27 1.23 1.23 0 0 0-1.36-1.35zm-1.64 6.86a1.29 1.29 0 0 0-.39.79c0 .6.76.78 1.81.78.86 0 2-.07 2-.87 0-.48-.56-.51-1.28-.55l-2.18-.15zm4.42-6.81a2.35 2.35 0 0 1 .55 1.51c0 1.65-1.3 2.62-3.18 2.62a5 5 0 0 1-1.18-.13l-.49.79 1.46.09c2.58.17 4.11.24 4.11 2.23 0 1.71-1.51 2.68-4.11 2.68s-3.73-.68-3.73-1.86a2 2 0 0 1 .82-1.48 1 1 0 0 1-.66-1 1.36 1.36 0 0 1 .43-.91c.27-.29.57-.57.93-.9a2.38 2.38 0 0 1-1.28-2.24c0-1.72 1.13-2.9 3.42-2.9a5.08 5.08 0 0 1 1.37.15h2.91v1.27l-1.37.11m4-2.75a1.22 1.22 0 0 1-1.34-1.34 1.35 1.35 0 0 1 2.7 0 1.23 1.23 0 0 1-1.36 1.34zm-1.93 9v-1.2l.77-.11c.21 0 .24-.07.24-.29v-4.4a.28.28 0 0 0-.2-.31l-.81-.28.17-1.24h3.09v6.2c0 .23 0 .26.24.29l.76.11v1.18h-4.26m10.17-.55a6 6 0 0 1-2.44.6c-1.77 0-2.45-.72-2.45-2.41v-3.91c0-.09 0-.15-.12-.15h-1V20c1.31-.15 1.84-.81 2-2.43h1.42v2.12c0 .1 0 .15.12.15h2.1v1.49h-2.26v3.57c0 .88.21 1.22 1 1.22a3.39 3.39 0 0 0 1.21-.24l.41 1.32m-22.12-3.89-6.83-6.83a1 1 0 0 0-1.43 0l-1.41 1.42 1.8 1.8A1.21 1.21 0 0 1 14 20a1.22 1.22 0 0 1 .28 1.24L16 23a1.2 1.2 0 0 1 1.24 2 1.21 1.21 0 0 1-1.69 0 1.19 1.19 0 0 1-.26-1.31L13.65 22v4.25a1.36 1.36 0 0 1 .32.23 1.2 1.2 0 0 1-1.7 1.69 1.19 1.19 0 0 1 0-1.69 1.07 1.07 0 0 1 .39-.26v-4.3a1.2 1.2 0 0 1-.66-1.55l-1.76-1.77-4.68 4.68a1 1 0 0 0 0 1.42l6.83 6.83a1 1 0 0 0 1.42 0l6.8-6.79a1 1 0 0 0 0-1.43"/></svg>