<svg xmlns="http://www.w3.org/2000/svg" width="48" height="48" data-name="Layer 1"><path d="M14.32 34.41h-1.44q-.08-3.64-.42-6.85l-2.19 6.85H9.16L7 27.56q-.24 3.07-.3 6.85H5.36c.08-3.06.29-5.92.63-8.6h1.79l2.07 6.32L12 25.81h1.71q.55 4.7.66 8.6m6.19-6.34A19.35 19.35 0 0 1 18.24 35a3.06 3.06 0 0 1-2.45 1.66 2.41 2.41 0 0 1-.88-.21v-.77a3.54 3.54 0 0 0 .6 0 1.48 1.48 0 0 0 1-.34 1.25 1.25 0 0 0 .46-1 6.3 6.3 0 0 0-.36-1.34L15 28.07h1.42l1.13 3.66a5 5 0 0 1 .32 1.75 24.2 24.2 0 0 0 1.3-5.41zM39.71 34.41h-4.08v-8.6H37v7.54h2.71v1.06z"/><path fillRule="evenodd" d="M34.56 34.62 33 33.84a2.87 2.87 0 0 0 .39-.39 5.28 5.28 0 0 0 1-3.5c0-2.84-1.12-4.27-3.35-4.27a3.14 3.14 0 0 0-2.56 1.09 5.26 5.26 0 0 0-1 3.49 5.11 5.11 0 0 0 .89 3.32 3.06 3.06 0 0 0 2.46 1 4 4 0 0 0 1.13-.15L34 35.58Zm-5.12-1.93a5.27 5.27 0 0 1-.53-2.7c0-2.17.66-3.25 2-3.25a1.64 1.64 0 0 1 1.51.78 5.19 5.19 0 0 1 .53 2.67c0 2.18-.66 3.28-2 3.28a1.64 1.64 0 0 1-1.51-.78"/><path d="M26.86 32a2.27 2.27 0 0 1-.8 1.79 3.13 3.13 0 0 1-2.15.7 4.3 4.3 0 0 1-2.44-.8l.36-.74a4.21 4.21 0 0 0 1.85.51 2 2 0 0 0 1.22-.34 1.18 1.18 0 0 0 .46-1c0-.51-.35-.95-1-1.31l-1.81-1a2.05 2.05 0 0 1-1-1.83 2.13 2.13 0 0 1 .73-1.69 2.76 2.76 0 0 1 1.89-.64 4 4 0 0 1 2.18.63l-.33.74a4.2 4.2 0 0 0-1.66-.35 1.5 1.5 0 0 0-1 .31 1.08 1.08 0 0 0-.38.82c0 .51.36.95 1 1.32s1.85 1 1.85 1a2 2 0 0 1 1 1.82"/><path fillRule="evenodd" d="M41.44 22.93a4.82 4.82 0 0 0-2 .29c-.15.07-.4.07-.42.26s.09.22.16.34a3 3 0 0 0 .54.63c.22.17.44.33.67.48.4.25.86.39 1.26.64l.68.49c.12.08.19.22.33.27-.07-.1-.09-.23-.16-.34s-.21-.19-.31-.3a5.32 5.32 0 0 0-1.08-1c-.34-.23-1.06-.55-1.2-.93a3.59 3.59 0 0 0 .72-.17c.35-.09.67-.07 1-.16l.49-.15v-.18c-.18-.19-.32-.44-.51-.61a13.46 13.46 0 0 0-1.72-1.28c-.32-.21-.74-.34-1.08-.52-.12-.06-.33-.09-.4-.2a3.84 3.84 0 0 1-.43-.8c-.3-.57-.59-1.2-.85-1.81a11.44 11.44 0 0 0-.53-1.18 10.41 10.41 0 0 0-4-3.88 4.83 4.83 0 0 0-1.33-.43h-.78A4.29 4.29 0 0 1 30 12c-.59-.38-2.12-1.19-2.55-.12-.28.68.41 1.34.65 1.68a4.47 4.47 0 0 1 .53.78c.07.18.1.37.17.55a11.25 11.25 0 0 0 .54 1.4 6 6 0 0 0 .38.64c.09.11.23.16.26.35a3.56 3.56 0 0 0-.24.78 4.59 4.59 0 0 0 .3 3.49c.17.26.57.83 1.1.61s.36-.78.49-1.29c0-.13 0-.21.08-.3.14.29.29.57.42.86a6 6 0 0 0 1.35 1.39c.25.19.45.51.76.62-.06-.09-.16-.13-.24-.21a4.53 4.53 0 0 1-.54-.62 12.92 12.92 0 0 1-1.16-1.89c-.17-.32-.31-.68-.45-1-.06-.12-.06-.31-.17-.37a4 4 0 0 0-.49.7 5.7 5.7 0 0 0-.29 1.57h-.05c-.33-.08-.44-.42-.57-.71a4.53 4.53 0 0 1-.09-2.78c.07-.21.38-.9.26-1.11s-.27-.31-.39-.46a4.38 4.38 0 0 1-.37-.67c-.25-.58-.37-1.22-.64-1.81a6.84 6.84 0 0 0-.52-.8 4.35 4.35 0 0 1-.57-.81c-.06-.11-.13-.3-.05-.42a.19.19 0 0 1 .15-.14c.14-.11.52 0 .65.1a4.73 4.73 0 0 1 1 .52c.15.1.3.3.49.35h.22c.33.07.71 0 1 .11a6.64 6.64 0 0 1 1.49.72 9.24 9.24 0 0 1 3.24 3.55c.13.24.18.46.29.71.22.51.49 1 .71 1.53a7.38 7.38 0 0 0 .74 1.39c.15.21.78.33 1.06.44s.53.18.71.29c.36.22.71.47 1 .71.17.13.69.38.72.59"/><path fillRule="evenodd" d="M30.84 13.91a1.67 1.67 0 0 0-.42.05 3.5 3.5 0 0 0 .33.43c.09.16.16.33.24.49a.57.57 0 0 0 .22-.52 2.25 2.25 0 0 1-.12-.21c-.07-.11-.2-.16-.29-.24"/><path d="M42.43 34.41h.21v-1.06h-.32l-.26.72-.29-.72h-.31v1.06h.2v-.8l.3.8h.16l.3-.8Zm-1.74 0h.23v-.88h.3v-.18h-.84v.18h.31Z"/></svg>