<svg xmlns="http://www.w3.org/2000/svg" width="48" height="48" data-name="Layer 1"><path d="M20.08 23.41h7.54a5 5 0 0 0 4.84-4.05V10.2s-1.81-4-9.11-4-8.54 3.35-8.54 3.35v4.71h8.83V16H11.88a6.21 6.21 0 0 0-6.25 6.22v5.16a5.45 5.45 0 0 0 5.45 5.46H14v-3.36a6.06 6.06 0 0 1 6.08-6.07ZM18.72 12a1.51 1.51 0 1 1 1.51-1.51A1.52 1.52 0 0 1 18.72 12Z"/><path d="M36.92 15.17H34v3.35a6.06 6.06 0 0 1-6.06 6.07h-7.56a5 5 0 0 0-4.84 4.05v9.16s1.81 4 9.11 4 8.54-3.35 8.54-3.35v-4.68h-8.83V32h11.76a6.21 6.21 0 0 0 6.25-6.22v-5.15a5.45 5.45 0 0 0-5.45-5.46ZM29.28 36a1.51 1.51 0 1 1-1.51 1.51A1.52 1.52 0 0 1 29.28 36Z"/></svg>