<svg width="483" height="502" viewBox="0 0 483 502" fill="none" xmlns="http://www.w3.org/2000/svg">
<path d="M241.18 501.36C374.38 501.36 482.36 393.38 482.36 260.18C482.36 126.98 374.38 19 241.18 19C107.98 19 0 126.98 0 260.18C0 393.38 107.98 501.36 241.18 501.36Z" fill="url(#paint0_radial_862_12524)"/>
<g style="mix-blend-mode:soft-light">
<path d="M241.18 501.36C374.38 501.36 482.36 393.38 482.36 260.18C482.36 126.98 374.38 19 241.18 19C107.98 19 0 126.98 0 260.18C0 393.38 107.98 501.36 241.18 501.36Z" fill="url(#paint1_radial_862_12524)"/>
</g>
<g style="mix-blend-mode:soft-light">
<path d="M241.18 501.36C374.38 501.36 482.36 393.38 482.36 260.18C482.36 126.98 374.38 19 241.18 19C107.98 19 0 126.98 0 260.18C0 393.38 107.98 501.36 241.18 501.36Z" fill="url(#paint2_radial_862_12524)"/>
</g>
<g style="mix-blend-mode:overlay">
<path d="M241.18 501.36C374.38 501.36 482.36 393.38 482.36 260.18C482.36 126.98 374.38 19 241.18 19C107.98 19 0 126.98 0 260.18C0 393.38 107.98 501.36 241.18 501.36Z" fill="url(#paint3_radial_862_12524)" fill-opacity="0.7"/>
</g>
<mask id="mask0_862_12524" style="mask-type:alpha" maskUnits="userSpaceOnUse" x="0" y="19" width="483" height="483">
<path d="M241.18 501.36C374.38 501.36 482.36 393.38 482.36 260.18C482.36 126.98 374.38 19 241.18 19C107.98 19 0 126.98 0 260.18C0 393.38 107.98 501.36 241.18 501.36Z" fill="white"/>
</mask>
<g mask="url(#mask0_862_12524)">
<g filter="url(#filter0_f_862_12524)">
<path d="M-1.3759 253.299C-1.11402 249.872 0.0137008 249.529 0.342619 253.009C0.708055 256.875 -0.00231624 264.647 0.16871 269.335C0.621554 281.748 2.52441 292.542 4.48605 301.321C10.8075 329.613 19.5617 347.843 27.7268 363.289C54.5663 414.061 83.9667 439.771 112.648 459.147C154.689 487.55 197.072 496.584 239.49 498.5C240.56 498.549 240.738 505.518 239.686 506.425C237.788 508.062 235.436 506.438 233.494 506.37C227.915 506.174 222.335 505.791 216.756 505.211C200.213 503.492 183.67 499.991 167.162 494.359C122.275 479.044 73.8765 452.821 31.6092 378.962C28.9502 374.316 26.3124 369.424 23.7118 364.168C21.6321 359.964 19.5726 355.557 17.5493 350.844C10.8946 335.342 -4.61323 295.659 -1.3759 253.299ZM239.52 506.5C238.499 506.532 238.241 500.035 239.214 498.686C240.684 496.647 242.888 498.326 244.439 498.229C250.877 497.827 257.314 497.23 263.75 496.422C281.395 494.206 299.028 490.423 316.621 484.596C360.257 470.146 407.17 448.116 448.305 380.431C450.923 376.124 453.518 371.554 456.079 366.641C463.86 351.713 483.361 312.085 481.107 262.821C480.917 258.669 482.181 256.181 482.747 259.744C483.467 264.28 483.175 273.736 482.977 278.768C482.341 294.884 479.866 308.512 477.257 319.518C468.987 354.399 457.376 374.623 446.744 391.51C412.184 446.397 374.648 468.524 338.155 484.425C305.424 498.686 272.444 505.484 239.52 506.5Z" fill="#401C02"/>
</g>
<g filter="url(#filter1_f_862_12524)">
<path d="M-1.3759 253.299C-1.11402 249.872 0.0137008 249.529 0.342619 253.009C0.708055 256.875 -0.00231624 264.647 0.16871 269.335C0.621554 281.748 2.52441 292.542 4.48605 301.321C10.8075 329.613 19.5617 347.843 27.7268 363.289C54.5663 414.061 83.9667 439.771 112.648 459.147C154.689 487.55 197.072 496.584 239.49 498.5C240.56 498.549 240.738 505.518 239.686 506.425C237.788 508.062 235.436 506.438 233.494 506.37C227.915 506.174 222.335 505.791 216.756 505.211C200.213 503.492 183.67 499.991 167.162 494.359C122.275 479.044 73.8765 452.821 31.6092 378.962C28.9502 374.316 26.3124 369.424 23.7118 364.168C21.6321 359.964 19.5726 355.557 17.5493 350.844C10.8946 335.342 -4.61323 295.659 -1.3759 253.299ZM239.52 506.5C238.499 506.532 238.241 500.035 239.214 498.686C240.684 496.647 242.888 498.326 244.439 498.229C250.877 497.827 257.314 497.23 263.75 496.422C281.395 494.206 299.028 490.423 316.621 484.596C360.257 470.146 407.17 448.116 448.305 380.431C450.923 376.124 453.518 371.554 456.079 366.641C463.86 351.713 483.361 312.085 481.107 262.821C480.917 258.669 482.181 256.181 482.747 259.744C483.467 264.28 483.175 273.736 482.977 278.768C482.341 294.884 479.866 308.512 477.257 319.518C468.987 354.399 457.376 374.623 446.744 391.51C412.184 446.397 374.648 468.524 338.155 484.425C305.424 498.686 272.444 505.484 239.52 506.5Z" fill="#401C02"/>
</g>
</g>
<path d="M379.944 316.8C320.654 407.68 160.814 407.73 101.664 316.711C101.142 315.911 100.917 314.953 101.027 314.005C101.138 313.056 101.576 312.176 102.267 311.517C102.959 310.858 103.858 310.461 104.811 310.396C105.764 310.331 106.71 310.602 107.484 311.16C184.804 366.9 296.804 367 374.114 311.25C374.888 310.685 375.836 310.409 376.792 310.471C377.748 310.534 378.653 310.93 379.347 311.591C380.041 312.251 380.481 313.135 380.59 314.087C380.699 315.039 380.471 316 379.944 316.8Z" fill="url(#paint4_radial_862_12524)"/>
<path d="M379.944 316.8C320.654 407.68 160.814 407.731 101.664 316.711C101.142 315.911 100.917 314.953 101.027 314.005C101.138 313.056 101.576 312.176 102.267 311.517C102.959 310.858 103.858 310.461 104.811 310.396C105.764 310.331 106.71 310.602 107.484 311.16C184.804 366.9 296.804 367 374.114 311.25C374.888 310.685 375.836 310.409 376.792 310.471C377.748 310.534 378.653 310.93 379.347 311.591C380.041 312.251 380.481 313.135 380.59 314.087C380.699 315.039 380.471 316 379.944 316.8V316.8Z" stroke="url(#paint5_linear_862_12524)" stroke-width="2.5" stroke-miterlimit="10"/>
<path d="M206.601 228.479C206.637 237.221 205.27 245.911 202.551 254.219C202.269 255.158 201.697 255.984 200.917 256.578C200.138 257.173 199.191 257.505 198.211 257.529C197.092 257.494 196.023 257.062 195.193 256.311C194.363 255.56 193.827 254.539 193.681 253.429C190.601 234.979 178.621 221.219 164.301 221.219C149.981 221.219 138.001 234.979 134.921 253.429C134.774 254.539 134.238 255.56 133.409 256.311C132.579 257.062 131.509 257.494 130.391 257.529C129.411 257.504 128.465 257.17 127.685 256.576C126.906 255.982 126.334 255.157 126.051 254.219C123.332 245.911 121.964 237.221 122.001 228.479C122.001 195.229 140.941 168.279 164.301 168.279C187.661 168.279 206.601 195.229 206.601 228.479Z" fill="url(#paint6_radial_862_12524)"/>
<path d="M206.601 228.479C206.637 237.221 205.27 245.911 202.551 254.219C202.269 255.158 201.697 255.984 200.917 256.578C200.138 257.173 199.191 257.505 198.211 257.529C197.092 257.494 196.023 257.062 195.193 256.311C194.363 255.56 193.827 254.539 193.681 253.429C190.601 234.979 178.621 221.219 164.301 221.219C149.981 221.219 138.001 234.979 134.921 253.429C134.774 254.539 134.238 255.56 133.409 256.311C132.579 257.062 131.509 257.494 130.391 257.529V257.529C129.411 257.504 128.465 257.17 127.685 256.576C126.906 255.982 126.334 255.157 126.051 254.219C123.332 245.911 121.964 237.221 122.001 228.479C122.001 195.229 140.941 168.279 164.301 168.279C187.661 168.279 206.601 195.229 206.601 228.479Z" stroke="url(#paint7_linear_862_12524)" stroke-width="2" stroke-miterlimit="10"/>
<path d="M360.98 228.479C361.033 237.218 359.683 245.909 356.98 254.219C356.698 255.158 356.127 255.984 355.347 256.578C354.568 257.173 353.62 257.505 352.64 257.529C351.522 257.494 350.452 257.062 349.622 256.311C348.793 255.56 348.257 254.539 348.11 253.429C345.03 234.979 333.05 221.219 318.73 221.219C304.41 221.219 292.43 234.979 289.35 253.429C289.204 254.539 288.668 255.56 287.838 256.311C287.009 257.062 285.939 257.494 284.82 257.529C283.84 257.505 282.893 257.173 282.114 256.578C281.334 255.984 280.763 255.158 280.48 254.219C277.761 245.911 276.394 237.221 276.43 228.479C276.43 195.229 295.37 168.279 318.73 168.279C342.09 168.279 360.98 195.229 360.98 228.479Z" fill="url(#paint8_radial_862_12524)"/>
<path d="M360.98 228.479C361.033 237.218 359.683 245.909 356.98 254.219C356.698 255.158 356.127 255.984 355.347 256.578C354.568 257.173 353.62 257.505 352.64 257.529C351.522 257.494 350.452 257.062 349.622 256.311C348.793 255.56 348.257 254.539 348.11 253.429C345.03 234.979 333.05 221.219 318.73 221.219C304.41 221.219 292.43 234.979 289.35 253.429C289.204 254.539 288.668 255.56 287.838 256.311C287.009 257.062 285.939 257.494 284.82 257.529C283.84 257.505 282.893 257.173 282.114 256.578C281.334 255.984 280.763 255.158 280.48 254.219C277.761 245.911 276.394 237.221 276.43 228.479C276.43 195.229 295.37 168.279 318.73 168.279C342.09 168.279 360.98 195.229 360.98 228.479Z" fill="url(#paint9_radial_862_12524)"/>
<path d="M360.98 228.479C361.033 237.218 359.683 245.909 356.98 254.219C356.698 255.158 356.127 255.984 355.347 256.578C354.568 257.173 353.62 257.505 352.64 257.529C351.522 257.494 350.452 257.062 349.622 256.311C348.793 255.56 348.257 254.539 348.11 253.429C345.03 234.979 333.05 221.219 318.73 221.219C304.41 221.219 292.43 234.979 289.35 253.429C289.204 254.539 288.668 255.56 287.838 256.311C287.009 257.062 285.939 257.494 284.82 257.529V257.529C283.84 257.505 282.893 257.173 282.114 256.578C281.334 255.984 280.763 255.158 280.48 254.219C277.761 245.911 276.394 237.221 276.43 228.479C276.43 195.229 295.37 168.279 318.73 168.279C342.09 168.279 360.98 195.229 360.98 228.479Z" stroke="url(#paint10_linear_862_12524)" stroke-width="2" stroke-miterlimit="10"/>
<path d="M241.21 0C107.99 0 0 31.32 0 70C0 108.68 108 140 241.21 140C374.42 140 482.42 108.68 482.42 70C482.42 31.32 374.43 0 241.21 0ZM241.21 89.25C135.21 89.25 49.34 72.25 49.34 51.25C49.34 30.25 135.24 13.25 241.21 13.25C347.18 13.25 433.08 30.25 433.08 51.25C433.08 72.25 347.21 89.28 241.21 89.28V89.25Z" fill="url(#paint11_linear_862_12524)"/>
<mask id="mask1_862_12524" style="mask-type:alpha" maskUnits="userSpaceOnUse" x="0" y="0" width="483" height="140">
<path d="M241.21 0C107.99 0 0 31.32 0 70C0 108.68 108 140 241.21 140C374.42 140 482.42 108.68 482.42 70C482.42 31.32 374.43 0 241.21 0ZM241.21 89.25C135.21 89.25 49.34 72.25 49.34 51.25C49.34 30.25 135.24 13.25 241.21 13.25C347.18 13.25 433.08 30.25 433.08 51.25C433.08 72.25 347.21 89.28 241.21 89.28V89.25Z" fill="url(#paint12_linear_862_12524)"/>
</mask>
<g mask="url(#mask1_862_12524)">
<g filter="url(#filter2_f_862_12524)">
<path d="M22 62C22.5602 63.067 23.2305 64.0725 24 65C24.37 65.47 24.78 65.91 25.17 66.37C25.56 66.83 26 67.22 26.4 67.65C28.1033 69.3167 29.9283 70.8543 31.86 72.25C35.7084 75.0477 39.7939 77.5037 44.07 79.59C48.31 81.73 52.73 83.52 57.15 85.26C59.4 86.05 61.63 86.86 63.89 87.61C66.15 88.36 68.43 89.06 70.72 89.7C79.8704 92.3838 89.1568 94.5802 98.54 96.28C103.22 97.21 107.95 97.92 112.65 98.73L119.74 99.73C122.1 100.07 124.46 100.42 126.84 100.73C145.84 103.1 164.91 104.58 184.05 105.51L191.23 105.86L198.41 106.11C203.2 106.26 207.99 106.48 212.79 106.53L227.17 106.81L241.57 106.88C279.95 106.88 318.37 105.88 356.34 101.4C365.85 100.34 375.27 98.83 384.68 97.21C394.059 95.5229 403.345 93.3533 412.5 90.71C421.668 88.1936 430.564 84.777 439.06 80.51C443.317 78.3985 447.339 75.8444 451.06 72.89C452.922 71.4028 454.661 69.7675 456.26 68C457.889 66.2399 459.198 64.2095 460.13 62C459.506 64.3663 458.445 66.5947 457 68.57C455.582 70.5772 453.999 72.4636 452.27 74.21C448.765 77.6603 444.899 80.7245 440.74 83.35C436.624 86.0276 432.327 88.4166 427.88 90.5L424.56 92.08L421.18 93.53C420.05 94 418.93 94.53 417.79 94.96L414.37 96.27C405.197 99.6344 395.85 102.505 386.37 104.87C381.62 105.98 376.88 107.15 372.09 108.06L364.92 109.48L357.71 110.71C338.499 113.847 319.141 116 299.71 117.16C290.02 117.75 280.32 118.21 270.63 118.47L263.35 118.67L256.08 118.75C251.24 118.75 246.39 118.9 241.54 118.85C222.153 118.81 202.763 118.143 183.37 116.85C163.957 115.54 144.623 113.254 125.44 110C123.04 109.62 120.64 109.16 118.25 108.68L111.08 107.26C106.32 106.18 101.55 105.26 96.84 103.92C87.3542 101.551 78.0067 98.6603 68.84 95.26C59.6466 91.8616 50.8051 87.5782 42.44 82.47C38.2736 79.8798 34.3479 76.9213 30.71 73.63C28.9088 71.9737 27.2373 70.1818 25.71 68.27C24.1408 66.3955 22.8877 64.2777 22 62V62Z" fill="white"/>
</g>
</g>
<mask id="mask2_862_12524" style="mask-type:alpha" maskUnits="userSpaceOnUse" x="0" y="0" width="483" height="140">
<path d="M241.21 0C107.99 0 0 31.32 0 70C0 108.68 108 140 241.21 140C374.42 140 482.42 108.68 482.42 70C482.42 31.32 374.43 0 241.21 0ZM241.21 89.25C135.21 89.25 49.34 72.25 49.34 51.25C49.34 30.25 135.24 13.25 241.21 13.25C347.18 13.25 433.08 30.25 433.08 51.25C433.08 72.25 347.21 89.28 241.21 89.28V89.25Z" fill="black"/>
</mask>
<g mask="url(#mask2_862_12524)">
<g filter="url(#filter3_f_862_12524)">
<g style="mix-blend-mode:multiply">
<path style="mix-blend-mode:multiply" d="M289.669 14.0988C296.989 13.9388 304.229 13.9988 311.509 14.0988C318.789 14.1988 326.079 14.5488 333.359 14.9488C347.939 15.7488 362.499 17.1588 377.039 19.3988C384.309 20.5388 391.559 21.9188 398.809 23.6688C402.429 24.5288 406.046 25.5288 409.659 26.6688C413.333 27.8107 416.945 29.1459 420.479 30.6688C424.317 32.2819 427.938 34.3681 431.259 36.8788C433.229 38.4043 434.959 40.218 436.389 42.2588C437.224 43.5012 437.896 44.8455 438.389 46.2588C438.93 47.869 439.19 49.5603 439.159 51.2588C439.121 52.9345 438.81 54.5928 438.239 56.1688C437.712 57.5548 437.024 58.8739 436.189 60.0988C434.785 62.1402 433.102 63.9748 431.189 65.5488C427.912 68.1866 424.338 70.4319 420.539 72.2388C413.588 75.5511 406.381 78.2967 398.989 80.4488C391.779 82.6188 384.529 84.3488 377.279 85.9288C362.769 89.0588 348.169 91.2488 333.569 93.0388C318.969 94.8288 304.289 95.9988 289.649 96.8688C275.009 97.7388 260.339 98.1088 245.649 98.2388C230.959 98.3688 216.329 97.9988 201.649 97.3688C186.969 96.7388 172.359 95.6588 157.739 94.1088C143.119 92.5588 128.589 90.6188 114.059 87.8488C99.5288 85.0788 85.0588 81.7688 70.6988 76.4488C67.0452 75.099 63.4697 73.5466 59.9888 71.7988C56.2118 69.9587 52.6669 67.676 49.4288 64.9988C47.5086 63.3619 45.8435 61.4475 44.4888 59.3188C42.767 56.6404 41.9019 53.5011 42.0088 50.3188C42.0889 48.6866 42.4474 47.0801 43.0688 45.5688C43.6111 44.2265 44.3236 42.9594 45.1888 41.7988C46.6596 39.876 48.3932 38.1693 50.3388 36.7288C53.6726 34.3224 57.2731 32.309 61.0688 30.7288C64.5938 29.2239 68.1993 27.9152 71.8688 26.8088C79.0025 24.6725 86.2464 22.9233 93.5688 21.5688C107.995 18.9432 122.558 17.1336 137.189 16.1488C144.482 15.6288 151.766 15.2454 159.039 14.9988C166.319 14.8088 173.599 14.6488 180.879 14.7388C173.669 15.7388 166.469 16.7388 159.299 17.8688C152.129 18.9988 144.989 20.0688 137.849 21.3688C123.619 23.9988 109.459 26.8688 95.6688 30.6788C88.8314 32.512 82.0926 34.6949 75.4788 37.2188C72.2288 38.4988 69.0488 39.8588 66.0688 41.3888C63.235 42.7876 60.5682 44.5018 58.1188 46.4988C57.1845 47.2786 56.3663 48.1877 55.6888 49.1988C55.1988 50.0288 55.1088 50.5388 55.1788 50.7588C55.2945 51.2136 55.5096 51.6372 55.8088 51.9988C56.5078 52.8829 57.3217 53.6699 58.2288 54.3388C60.7159 56.1268 63.4002 57.6233 66.2288 58.7988C69.3174 60.1397 72.4713 61.3246 75.6788 62.3488C82.3365 64.4556 89.103 66.2015 95.9488 67.5788C102.849 69.0388 109.849 70.2788 116.889 71.3388C130.989 73.4288 145.199 74.9988 159.489 76.1688C173.779 77.3388 188.119 78.1688 202.489 78.6188C216.859 79.0688 231.229 79.3488 245.609 79.2388C259.989 79.1288 274.349 78.8288 288.699 78.1588C303.049 77.4888 317.359 76.5088 331.619 75.1588C345.879 73.8088 360.039 71.9988 373.989 69.5388C380.989 68.2988 387.899 66.8488 394.669 65.1388C401.313 63.5399 407.82 61.4166 414.129 58.7888C416.944 57.5976 419.625 56.1127 422.129 54.3588C423.067 53.703 423.914 52.9263 424.649 52.0488C424.864 51.7904 425.055 51.5125 425.219 51.2188C425.279 51.0288 425.379 50.9088 425.379 50.8188C425.413 50.691 425.413 50.5566 425.379 50.4288C425.304 50.1315 425.19 49.8456 425.039 49.5788C424.451 48.6162 423.723 47.7467 422.879 46.9988C420.502 44.9997 417.897 43.2878 415.119 41.8988C408.915 38.8188 402.47 36.2502 395.849 34.2188C389.119 32.0388 382.209 30.2188 375.239 28.5188C361.289 25.1388 347.079 22.5188 332.789 20.1488C325.649 18.9988 318.479 17.9188 311.289 16.9388C304.099 15.9588 296.889 14.9988 289.669 14.0988Z" fill="url(#paint13_linear_862_12524)"/>
</g>
</g>
</g>
<mask id="mask3_862_12524" style="mask-type:alpha" maskUnits="userSpaceOnUse" x="0" y="0" width="483" height="140">
<path d="M241.21 0C107.99 0 0 31.32 0 70C0 108.68 108 140 241.21 140C374.42 140 482.42 108.68 482.42 70C482.42 31.32 374.43 0 241.21 0ZM241.21 89.25C135.21 89.25 49.34 72.25 49.34 51.25C49.34 30.25 135.24 13.25 241.21 13.25C347.18 13.25 433.08 30.25 433.08 51.25C433.08 72.25 347.21 89.28 241.21 89.28V89.25Z" fill="black"/>
</mask>
<g mask="url(#mask3_862_12524)">
<g filter="url(#filter4_f_862_12524)">
<g style="mix-blend-mode:screen">
<g style="mix-blend-mode:screen">
<path d="M112.995 10C104.995 12 96.915 14 88.995 16.32C81.075 18.64 73.135 21.06 65.395 23.85C57.655 26.64 49.995 29.63 42.665 33.14C35.3456 36.4945 28.3609 40.5359 21.805 45.21C18.6485 47.4693 15.7001 50.006 12.995 52.79C10.4787 55.3746 8.41346 58.3626 6.88502 61.63C6.69567 62.0049 6.54167 62.3966 6.42502 62.8L5.99502 64L5.71502 65.18L5.57502 65.76L5.49502 66.35L5.33502 67.52V68.69V69.28L5.38502 69.86C5.40406 70.2424 5.44748 70.6232 5.51502 71C6.06395 74.233 7.4037 77.28 9.41502 79.87C13.585 85.45 19.905 90.09 26.605 94C33.5215 97.8941 40.7338 101.238 48.175 104C55.665 106.86 63.385 109.29 71.175 111.44C78.965 113.59 86.885 115.52 94.845 117.2C110.785 120.53 126.935 123.12 143.165 125.09C159.395 127.06 175.725 128.49 192.085 129.37C208.445 130.25 224.835 130.78 241.235 130.74C257.635 130.7 274.025 130.32 290.385 129.38C306.745 128.44 323.065 127.05 339.305 125.1C355.545 123.15 371.685 120.55 387.625 117.23C395.625 115.55 403.505 113.65 411.305 111.48C419.105 109.31 426.835 106.91 434.305 104.07C441.749 101.306 448.964 97.9625 455.885 94.07C459.224 92.1702 462.42 90.0278 465.445 87.66C468.345 85.4479 470.949 82.8736 473.195 80C475.227 77.4221 476.6 74.3879 477.195 71.16L477.295 70.59V70.01C477.336 69.6248 477.353 69.2373 477.345 68.85V67.68C477.345 67.29 477.235 66.9 477.195 66.51C477.093 65.716 476.932 64.9305 476.715 64.16C476.635 63.77 476.445 63.39 476.325 62.99C476.2 62.5921 476.053 62.2015 475.885 61.82C474.399 58.5524 472.37 55.5601 469.885 52.97C467.206 50.1758 464.281 47.6288 461.145 45.36C457.926 42.9966 454.571 40.8261 451.095 38.86C447.595 36.86 444.005 34.98 440.315 33.25C432.965 29.74 425.315 26.77 417.595 23.94C409.875 21.11 401.995 18.66 393.995 16.38C385.995 14.1 378.045 12 369.995 10C378.235 11 386.435 12.34 394.615 13.84C402.795 15.34 410.895 17.29 418.995 19.44C427.11 21.5621 435.097 24.1497 442.915 27.19C446.842 28.71 450.725 30.3767 454.565 32.19C458.443 34.0416 462.21 36.1185 465.845 38.41C469.59 40.757 473.099 43.4595 476.325 46.48C479.783 49.6613 482.666 53.4166 484.845 57.58C487.174 62.1517 488.152 67.2924 487.665 72.4C487.065 77.4053 485.256 82.1895 482.395 86.34C479.763 90.1803 476.632 93.654 473.085 96.67C469.713 99.5642 466.133 102.208 462.375 104.58C455.049 109.147 447.355 113.097 439.375 116.39C423.689 122.823 407.51 127.979 390.995 131.81C374.615 135.81 358.065 138.68 341.465 141.04C324.865 143.4 308.175 144.97 291.465 146.1C274.755 147.23 258.035 147.67 241.305 147.69C224.575 147.71 207.845 147.15 191.135 146.07C174.425 144.99 157.755 143.34 141.135 141C124.515 138.66 107.985 135.7 91.615 131.73C75.1026 127.91 58.9265 122.76 43.245 116.33C35.2624 113.026 27.5691 109.062 20.245 104.48C16.4898 102.097 12.9136 99.4436 9.54502 96.54C8.68502 95.81 7.86502 95.01 7.03502 94.24C6.20502 93.47 5.40502 92.62 4.64502 91.73C3.04688 89.9904 1.59214 88.1243 0.295017 86.15C-1.08447 84.0987 -2.23468 81.9022 -3.13498 79.6C-4.08134 77.2185 -4.67754 74.7125 -4.90498 72.16C-5.33594 67.0544 -4.29485 61.9323 -1.90498 57.4C0.311296 53.2765 3.2088 49.5574 6.66502 46.4C9.90729 43.4067 13.4264 40.7281 17.175 38.4C24.4298 33.9159 32.0983 30.1385 40.075 27.12C47.8938 24.0848 55.8803 21.5005 63.995 19.38C72.065 17.23 80.195 15.38 88.355 13.84C96.515 12.3 104.745 11 112.995 10Z" fill="#00FFFF"/>
</g>
</g>
</g>
</g>
<mask id="mask4_862_12524" style="mask-type:alpha" maskUnits="userSpaceOnUse" x="0" y="0" width="483" height="140">
<path d="M241.21 0C107.99 0 0 31.32 0 70C0 108.68 108 140 241.21 140C374.42 140 482.42 108.68 482.42 70C482.42 31.32 374.43 0 241.21 0ZM241.21 89.25C135.21 89.25 49.34 72.25 49.34 51.25C49.34 30.25 135.24 13.25 241.21 13.25C347.18 13.25 433.08 30.25 433.08 51.25C433.08 72.25 347.21 89.28 241.21 89.28V89.25Z" fill="url(#paint14_linear_862_12524)"/>
</mask>
<g mask="url(#mask4_862_12524)">
<g filter="url(#filter5_f_862_12524)">
<path d="M112.206 8C104.096 9.69 95.9956 11.56 87.9956 13.66C79.9956 15.76 71.9956 18.05 64.2156 20.66C56.4356 23.27 48.6556 26.15 41.2156 29.53C33.7204 32.7984 26.5517 36.7695 19.8056 41.39C16.4984 43.671 13.4056 46.2483 10.5656 49.09C7.78886 51.82 5.49622 55.0019 3.78559 58.5C2.17845 61.8579 1.55771 65.6031 1.99559 69.3C2.22269 71.1293 2.71801 72.9151 3.46559 74.6C4.20734 76.3378 5.13971 77.9879 6.24559 79.52C8.55888 82.6681 11.2754 85.499 14.3256 87.94C17.4329 90.459 20.7218 92.7452 24.1656 94.78C31.2024 98.8644 38.5601 102.369 46.1656 105.26C53.7556 108.26 61.5556 110.77 69.4356 113.02C77.3156 115.27 85.2756 117.27 93.3056 119.02C109.306 122.54 125.616 125.2 141.946 127.26C174.661 131.318 207.6 133.295 240.566 133.18C273.531 133.308 306.471 131.334 339.186 127.27C355.526 125.22 371.786 122.58 387.836 119.06C395.836 117.3 403.792 115.3 411.706 113.06C419.586 110.81 427.386 108.29 434.986 105.32C442.59 102.442 449.947 98.9508 456.986 94.88C460.435 92.8508 463.73 90.5714 466.846 88.06C469.9 85.6258 472.629 82.8095 474.966 79.68C477.18 76.6797 478.632 73.1861 479.196 69.5C479.668 65.8126 479.082 62.0669 477.506 58.7C475.818 55.1916 473.545 51.996 470.786 49.25C467.959 46.3994 464.876 43.8152 461.576 41.53C458.251 39.1806 454.788 37.0334 451.206 35.1C447.616 33.1 443.946 31.31 440.206 29.64C432.726 26.25 424.986 23.39 417.206 20.74C409.426 18.09 401.446 15.81 393.446 13.74C385.446 11.67 377.376 9.74 369.266 8.06C377.456 9.36 385.606 10.84 393.726 12.57C401.846 14.3 409.886 16.33 417.876 18.65C425.886 20.9382 433.765 23.6657 441.476 26.82C445.346 28.38 449.146 30.13 452.896 32.01C456.666 33.8938 460.322 35.9974 463.846 38.31C467.424 40.6545 470.773 43.3332 473.846 46.31C477.037 49.345 479.691 52.8986 481.696 56.82C483.749 60.9513 484.585 65.5815 484.106 70.17C483.518 74.7055 481.829 79.0281 479.186 82.76C476.672 86.3517 473.689 89.5905 470.316 92.39C467.032 95.1436 463.549 97.6504 459.896 99.89C452.669 104.27 445.098 108.052 437.256 111.2C421.703 117.412 405.674 122.358 389.326 125.99C373.066 129.75 356.626 132.61 340.116 134.88C307.089 139.163 273.819 141.294 240.516 141.26C207.211 141.286 173.941 139.142 140.916 134.84C124.406 132.56 107.976 129.69 91.7056 125.93C75.3493 122.254 59.3171 117.261 43.7656 111C35.9282 107.85 28.3599 104.067 21.1356 99.69C17.488 97.4399 14.0119 94.923 10.7356 92.16C9.90559 91.47 9.12559 90.72 8.32559 89.99C7.52559 89.26 6.75559 88.48 5.99559 87.65C4.49002 86.0363 3.11251 84.3078 1.87559 82.48C0.606915 80.601 -0.452703 78.5891 -1.28441 76.48C-2.14224 74.3606 -2.68468 72.1268 -2.89441 69.85C-3.3235 65.2581 -2.43917 60.6387 -0.344407 56.53C1.68781 52.6249 4.36169 49.089 7.56559 46.07C10.6446 43.1268 13.9926 40.4786 17.5656 38.16C24.6637 33.6433 32.174 29.8095 39.9956 26.71C47.7129 23.5695 55.5944 20.8489 63.6056 18.56C71.6056 16.2467 79.6556 14.2267 87.7556 12.5C95.8556 10.7733 104.006 9.27333 112.206 8Z" fill="white"/>
</g>
</g>
<defs>
<filter id="filter0_f_862_12524" x="-26.8149" y="225.559" width="535.022" height="306.595" filterUnits="userSpaceOnUse" color-interpolation-filters="sRGB">
<feFlood flood-opacity="0" result="BackgroundImageFix"/>
<feBlend mode="normal" in="SourceGraphic" in2="BackgroundImageFix" result="shape"/>
<feGaussianBlur stdDeviation="12.5" result="effect1_foregroundBlur_862_12524"/>
</filter>
<filter id="filter1_f_862_12524" x="-41.8149" y="210.559" width="565.022" height="336.595" filterUnits="userSpaceOnUse" color-interpolation-filters="sRGB">
<feFlood flood-opacity="0" result="BackgroundImageFix"/>
<feBlend mode="normal" in="SourceGraphic" in2="BackgroundImageFix" result="shape"/>
<feGaussianBlur stdDeviation="20" result="effect1_foregroundBlur_862_12524"/>
</filter>
<filter id="filter2_f_862_12524" x="6" y="46" width="470.13" height="88.8604" filterUnits="userSpaceOnUse" color-interpolation-filters="sRGB">
<feFlood flood-opacity="0" result="BackgroundImageFix"/>
<feBlend mode="normal" in="SourceGraphic" in2="BackgroundImageFix" result="shape"/>
<feGaussianBlur stdDeviation="8" result="effect1_foregroundBlur_862_12524"/>
</filter>
<filter id="filter3_f_862_12524" x="22" y="-6" width="437.162" height="124.265" filterUnits="userSpaceOnUse" color-interpolation-filters="sRGB">
<feFlood flood-opacity="0" result="BackgroundImageFix"/>
<feBlend mode="normal" in="SourceGraphic" in2="BackgroundImageFix" result="shape"/>
<feGaussianBlur stdDeviation="10" result="effect1_foregroundBlur_862_12524"/>
</filter>
<filter id="filter4_f_862_12524" x="-35" y="-20" width="552.787" height="197.69" filterUnits="userSpaceOnUse" color-interpolation-filters="sRGB">
<feFlood flood-opacity="0" result="BackgroundImageFix"/>
<feBlend mode="normal" in="SourceGraphic" in2="BackgroundImageFix" result="shape"/>
<feGaussianBlur stdDeviation="15" result="effect1_foregroundBlur_862_12524"/>
</filter>
<filter id="filter5_f_862_12524" x="-23" y="-12" width="527.237" height="173.261" filterUnits="userSpaceOnUse" color-interpolation-filters="sRGB">
<feFlood flood-opacity="0" result="BackgroundImageFix"/>
<feBlend mode="normal" in="SourceGraphic" in2="BackgroundImageFix" result="shape"/>
<feGaussianBlur stdDeviation="10" result="effect1_foregroundBlur_862_12524"/>
</filter>
<radialGradient id="paint0_radial_862_12524" cx="0" cy="0" r="1" gradientUnits="userSpaceOnUse" gradientTransform="translate(241 19) rotate(90) scale(482)">
<stop stop-color="#FFDE43"/>
<stop offset="1" stop-color="#FFBC00"/>
</radialGradient>
<radialGradient id="paint1_radial_862_12524" cx="0" cy="0" r="1" gradientUnits="userSpaceOnUse" gradientTransform="translate(241 83.5) rotate(90) scale(417.5)">
<stop stop-color="white" stop-opacity="0.5"/>
<stop offset="0.782278"/>
</radialGradient>
<radialGradient id="paint2_radial_862_12524" cx="0" cy="0" r="1" gradientUnits="userSpaceOnUse" gradientTransform="translate(241 83.5) rotate(90) scale(417.5)">
<stop stop-color="white" stop-opacity="0.5"/>
<stop offset="0.782278"/>
</radialGradient>
<radialGradient id="paint3_radial_862_12524" cx="0" cy="0" r="1" gradientUnits="userSpaceOnUse" gradientTransform="translate(241 -33.5) rotate(90) scale(534.5 722.835)">
<stop offset="0.0922635" stop-color="white"/>
<stop offset="0.670207" stop-color="white" stop-opacity="0"/>
</radialGradient>
<radialGradient id="paint4_radial_862_12524" cx="0" cy="0" r="1" gradientUnits="userSpaceOnUse" gradientTransform="translate(240.808 347.527) scale(105.531 75.3312)">
<stop stop-color="#743C1C"/>
<stop offset="1" stop-color="#401C02"/>
</radialGradient>
<linearGradient id="paint5_linear_862_12524" x1="240.808" y1="387.067" x2="240.808" y2="307.987" gradientUnits="userSpaceOnUse">
<stop offset="0.265625" stop-color="#FFDE43"/>
<stop offset="1" stop-color="#F79D14"/>
</linearGradient>
<radialGradient id="paint6_radial_862_12524" cx="0" cy="0" r="1" gradientUnits="userSpaceOnUse" gradientTransform="translate(164.242 212.875) scale(53.9231 44.7024)">
<stop stop-color="#743C1C"/>
<stop offset="1" stop-color="#401C02"/>
</radialGradient>
<linearGradient id="paint7_linear_862_12524" x1="164.301" y1="260.041" x2="164.301" y2="165.407" gradientUnits="userSpaceOnUse">
<stop stop-color="#FFDE43"/>
<stop offset="0.22" stop-color="#FED93F"/>
<stop offset="0.51" stop-color="#FCC934"/>
<stop offset="0.82" stop-color="#F9AF21"/>
<stop offset="1" stop-color="#F79D14"/>
</linearGradient>
<radialGradient id="paint8_radial_862_12524" cx="0" cy="0" r="1" gradientUnits="userSpaceOnUse" gradientTransform="translate(49079.1 63714.9) scale(3521.6 4051.82)">
<stop stop-color="#743C1C"/>
<stop offset="1" stop-color="#401C02"/>
</radialGradient>
<radialGradient id="paint9_radial_862_12524" cx="0" cy="0" r="1" gradientUnits="userSpaceOnUse" gradientTransform="translate(318.647 212.875) scale(53.8917 44.7024)">
<stop stop-color="#743C1C"/>
<stop offset="1" stop-color="#401C02"/>
</radialGradient>
<linearGradient id="paint10_linear_862_12524" x1="318.706" y1="260.041" x2="318.706" y2="165.407" gradientUnits="userSpaceOnUse">
<stop stop-color="#FFDE43"/>
<stop offset="0.22" stop-color="#FED93F"/>
<stop offset="0.51" stop-color="#FCC934"/>
<stop offset="0.82" stop-color="#F9AF21"/>
<stop offset="1" stop-color="#F79D14"/>
</linearGradient>
<linearGradient id="paint11_linear_862_12524" x1="241.21" y1="139.94" x2="241.21" y2="0.0300048" gradientUnits="userSpaceOnUse">
<stop stop-color="#00CFFE"/>
<stop offset="0.11" stop-color="#00C6FA"/>
<stop offset="0.28" stop-color="#00AEEF"/>
<stop offset="0.5" stop-color="#0086DE"/>
<stop offset="0.75" stop-color="#004FC5"/>
<stop offset="1" stop-color="#0014AB"/>
</linearGradient>
<linearGradient id="paint12_linear_862_12524" x1="241.21" y1="139.94" x2="241.21" y2="0.0300048" gradientUnits="userSpaceOnUse">
<stop stop-color="#00CFFE"/>
<stop offset="0.11" stop-color="#00C6FA"/>
<stop offset="0.28" stop-color="#00AEEF"/>
<stop offset="0.5" stop-color="#0086DE"/>
<stop offset="0.75" stop-color="#004FC5"/>
<stop offset="1" stop-color="#0014AB"/>
</linearGradient>
<linearGradient id="paint13_linear_862_12524" x1="240.579" y1="98.2388" x2="240.579" y2="4.59876" gradientUnits="userSpaceOnUse">
<stop stop-color="#002480"/>
<stop offset="1" stop-color="#002480"/>
</linearGradient>
<linearGradient id="paint14_linear_862_12524" x1="241.21" y1="139.94" x2="241.21" y2="0.0300048" gradientUnits="userSpaceOnUse">
<stop stop-color="#00CFFE"/>
<stop offset="0.11" stop-color="#00C6FA"/>
<stop offset="0.28" stop-color="#00AEEF"/>
<stop offset="0.5" stop-color="#0086DE"/>
<stop offset="0.75" stop-color="#004FC5"/>
<stop offset="1" stop-color="#0014AB"/>
</linearGradient>
</defs>
</svg>
