<svg width="483" height="501" viewBox="0 0 483 501" fill="none" xmlns="http://www.w3.org/2000/svg">
<path d="M241.18 482.36C374.38 482.36 482.36 374.38 482.36 241.18C482.36 107.98 374.38 0 241.18 0C107.98 0 0 107.98 0 241.18C0 374.38 107.98 482.36 241.18 482.36Z" fill="url(#paint0_radial_862_12520)"/>
<g style="mix-blend-mode:soft-light">
<path d="M241.18 482.36C374.38 482.36 482.36 374.38 482.36 241.18C482.36 107.98 374.38 0 241.18 0C107.98 0 0 107.98 0 241.18C0 374.38 107.98 482.36 241.18 482.36Z" fill="url(#paint1_radial_862_12520)"/>
</g>
<g style="mix-blend-mode:soft-light">
<path d="M241.18 482.36C374.38 482.36 482.36 374.38 482.36 241.18C482.36 107.98 374.38 0 241.18 0C107.98 0 0 107.98 0 241.18C0 374.38 107.98 482.36 241.18 482.36Z" fill="url(#paint2_radial_862_12520)"/>
</g>
<g style="mix-blend-mode:overlay">
<path d="M241.18 482.36C374.38 482.36 482.36 374.38 482.36 241.18C482.36 107.98 374.38 0 241.18 0C107.98 0 0 107.98 0 241.18C0 374.38 107.98 482.36 241.18 482.36Z" fill="url(#paint3_radial_862_12520)" fill-opacity="0.7"/>
</g>
<mask id="mask0_862_12520" style="mask-type:alpha" maskUnits="userSpaceOnUse" x="0" y="0" width="483" height="483">
<path d="M241.18 482.36C374.38 482.36 482.36 374.38 482.36 241.18C482.36 107.98 374.38 0 241.18 0C107.98 0 0 107.98 0 241.18C0 374.38 107.98 482.36 241.18 482.36Z" fill="white"/>
</mask>
<g mask="url(#mask0_862_12520)">
<g filter="url(#filter0_f_862_12520)">
<path d="M-1.37541 234.299C-1.11353 230.872 0.0141891 230.529 0.343108 234.008C0.708543 237.874 -0.00182796 245.646 0.169198 250.335C0.622042 262.748 2.5249 273.541 4.48654 282.32C10.808 310.612 19.5622 328.843 27.7273 344.288C54.5668 395.06 83.9672 420.77 112.648 440.147C154.69 468.549 197.073 477.584 239.491 479.5C240.561 479.548 240.739 486.518 239.686 487.425C237.788 489.061 235.437 487.437 233.495 487.369C227.915 487.174 222.336 486.791 216.756 486.211C200.213 484.492 183.671 480.991 167.162 475.358C122.275 460.044 73.877 433.821 31.6097 359.962C28.9507 355.316 26.3128 350.424 23.7123 345.167C21.6325 340.963 19.573 336.556 17.5498 331.843C10.895 316.342 -4.61274 276.658 -1.37541 234.299ZM239.52 487.5C238.5 487.531 238.241 481.034 239.214 479.685C240.685 477.647 242.889 479.326 244.439 479.229C250.878 478.826 257.315 478.229 263.75 477.421C281.396 475.205 299.028 471.422 316.621 465.596C360.257 451.145 407.17 429.115 448.305 361.431C450.923 357.123 453.519 352.553 456.079 347.641C463.86 332.712 483.362 293.084 481.107 243.821C480.917 239.668 482.182 237.181 482.748 240.743C483.468 245.279 483.176 254.736 482.977 259.768C482.342 275.883 479.867 289.512 477.257 300.518C468.987 335.399 457.377 355.623 446.744 372.51C412.184 427.397 374.649 449.524 338.156 465.424C305.425 479.686 272.445 486.484 239.52 487.5Z" fill="#401C02"/>
</g>
<g filter="url(#filter1_f_862_12520)">
<path d="M-1.37541 234.299C-1.11353 230.872 0.0141891 230.529 0.343108 234.008C0.708543 237.874 -0.00182796 245.646 0.169198 250.335C0.622042 262.748 2.5249 273.541 4.48654 282.32C10.808 310.612 19.5622 328.843 27.7273 344.288C54.5668 395.06 83.9672 420.77 112.648 440.147C154.69 468.549 197.073 477.584 239.491 479.5C240.561 479.548 240.739 486.518 239.686 487.425C237.788 489.061 235.437 487.437 233.495 487.369C227.915 487.174 222.336 486.791 216.756 486.211C200.213 484.492 183.671 480.991 167.162 475.358C122.275 460.044 73.877 433.821 31.6097 359.962C28.9507 355.316 26.3128 350.424 23.7123 345.167C21.6325 340.963 19.573 336.556 17.5498 331.843C10.895 316.342 -4.61274 276.658 -1.37541 234.299ZM239.52 487.5C238.5 487.531 238.241 481.034 239.214 479.685C240.685 477.647 242.889 479.326 244.439 479.229C250.878 478.826 257.315 478.229 263.75 477.421C281.396 475.205 299.028 471.422 316.621 465.596C360.257 451.145 407.17 429.115 448.305 361.431C450.923 357.123 453.519 352.553 456.079 347.641C463.86 332.712 483.362 293.084 481.107 243.821C480.917 239.668 482.182 237.181 482.748 240.743C483.468 245.279 483.176 254.736 482.977 259.768C482.342 275.883 479.867 289.512 477.257 300.518C468.987 335.399 457.377 355.623 446.744 372.51C412.184 427.397 374.649 449.524 338.156 465.424C305.425 479.686 272.445 486.484 239.52 487.5Z" fill="#401C02"/>
</g>
</g>
<path d="M275.595 341.43H208.635C202.261 341.43 197.095 346.594 197.095 352.965C197.095 359.335 202.261 364.5 208.635 364.5H275.595C281.968 364.5 287.135 359.335 287.135 352.965C287.135 346.594 281.968 341.43 275.595 341.43Z" fill="url(#paint4_radial_862_12520)"/>
<path d="M275.595 341.43H208.635C202.261 341.43 197.095 346.594 197.095 352.965C197.095 359.335 202.261 364.5 208.635 364.5H275.595C281.968 364.5 287.135 359.335 287.135 352.965C287.135 346.594 281.968 341.43 275.595 341.43Z" stroke="url(#paint5_linear_862_12520)" stroke-width="2.5" stroke-miterlimit="10"/>
<path d="M120.895 178.02C129.665 173.78 183.375 150.02 217.285 186.84C218.366 187.971 219.029 189.436 219.165 190.993C219.301 192.551 218.903 194.109 218.035 195.41C216.905 196.99 215.035 198.13 212.035 197.58C198.885 195.16 178.965 175.19 135.965 184.09C132.225 184.87 128.555 185.96 124.905 187.09C122.285 187.91 118.265 188.65 116.645 186.09C115.255 183.93 116.355 181.86 117.645 180.44C118.56 179.429 119.664 178.607 120.895 178.02Z" fill="#42210B"/>
<path d="M360.325 99.0201C350.725 97.3501 292.545 89.2301 270.065 133.96C269.331 135.343 269.093 136.935 269.39 138.472C269.686 140.01 270.5 141.399 271.695 142.41C273.215 143.62 275.305 144.21 278.075 142.84C290.075 136.91 303.735 112.23 347.525 108.99C351.335 108.71 355.155 108.75 358.975 108.85C361.725 108.93 365.795 108.53 366.655 105.65C367.395 103.19 365.775 101.49 364.185 100.47C363.007 99.7352 361.695 99.2423 360.325 99.0201Z" fill="#42210B"/>
<path d="M321.555 266.34C337.555 266.34 350.525 246.735 350.525 222.55C350.525 198.366 337.555 178.76 321.555 178.76C305.555 178.76 292.585 198.366 292.585 222.55C292.585 246.735 305.555 266.34 321.555 266.34Z" fill="url(#paint6_radial_862_12520)"/>
<path d="M321.555 266.34C337.555 266.34 350.525 246.735 350.525 222.55C350.525 198.366 337.555 178.76 321.555 178.76C305.555 178.76 292.585 198.366 292.585 222.55C292.585 246.735 305.555 266.34 321.555 266.34Z" stroke="url(#paint7_linear_862_12520)" stroke-width="2" stroke-miterlimit="10"/>
<path d="M162.285 266.35C178.285 266.35 191.255 253.259 191.255 237.11C191.255 220.961 178.285 207.87 162.285 207.87C146.286 207.87 133.315 220.961 133.315 237.11C133.315 253.259 146.286 266.35 162.285 266.35Z" fill="url(#paint8_radial_862_12520)"/>
<path d="M162.285 266.35C178.285 266.35 191.255 253.259 191.255 237.11C191.255 220.961 178.285 207.87 162.285 207.87C146.286 207.87 133.315 220.961 133.315 237.11C133.315 253.259 146.286 266.35 162.285 266.35Z" stroke="url(#paint9_linear_862_12520)" stroke-width="2" stroke-miterlimit="10"/>
<path d="M331 318C377.944 318 416 279.944 416 233C416 186.056 377.944 148 331 148C284.056 148 246 186.056 246 233C246 279.944 284.056 318 331 318Z" fill="url(#paint10_linear_862_12520)"/>
<path d="M419 207.4H416.2C405.2 170.7 371.2 144 331 144C281.9 144 242 183.9 242 233C242 282.1 281.9 322 331 322C370.9 322 404.7 295.6 416 259.4H419C422.8 259.4 425.9 256.3 425.9 252.5V214.3C425.9 210.5 422.8 207.4 419 207.4ZM331 314C286.3 314 250 277.7 250 233C250 188.3 286.3 152 331 152C368.1 152 399.5 177.2 409 211.3C411 218.2 412 225.5 412 233C412 240.5 411 247.8 409.1 254.7C399.5 288.9 368.1 314 331 314Z" fill="black"/>
<path d="M420.9 500.2C418.2 500.2 415.9 498 415.9 495.2V230.2C415.9 227.5 418.1 225.2 420.9 225.2C423.6 225.2 425.9 227.4 425.9 230.2V495.3C425.9 498 423.7 500.2 420.9 500.2Z" fill="black"/>
<defs>
<filter id="filter0_f_862_12520" x="-26.8145" y="206.558" width="535.021" height="306.595" filterUnits="userSpaceOnUse" color-interpolation-filters="sRGB">
<feFlood flood-opacity="0" result="BackgroundImageFix"/>
<feBlend mode="normal" in="SourceGraphic" in2="BackgroundImageFix" result="shape"/>
<feGaussianBlur stdDeviation="12.5" result="effect1_foregroundBlur_862_12520"/>
</filter>
<filter id="filter1_f_862_12520" x="-41.8145" y="191.558" width="565.021" height="336.595" filterUnits="userSpaceOnUse" color-interpolation-filters="sRGB">
<feFlood flood-opacity="0" result="BackgroundImageFix"/>
<feBlend mode="normal" in="SourceGraphic" in2="BackgroundImageFix" result="shape"/>
<feGaussianBlur stdDeviation="20" result="effect1_foregroundBlur_862_12520"/>
</filter>
<radialGradient id="paint0_radial_862_12520" cx="0" cy="0" r="1" gradientUnits="userSpaceOnUse" gradientTransform="translate(241 -4.53898e-06) rotate(90) scale(482)">
<stop stop-color="#FFDE43"/>
<stop offset="1" stop-color="#FFBC00"/>
</radialGradient>
<radialGradient id="paint1_radial_862_12520" cx="0" cy="0" r="1" gradientUnits="userSpaceOnUse" gradientTransform="translate(241 64.5) rotate(90) scale(417.5)">
<stop stop-color="white" stop-opacity="0.5"/>
<stop offset="0.782278"/>
</radialGradient>
<radialGradient id="paint2_radial_862_12520" cx="0" cy="0" r="1" gradientUnits="userSpaceOnUse" gradientTransform="translate(241 64.5) rotate(90) scale(417.5)">
<stop stop-color="white" stop-opacity="0.5"/>
<stop offset="0.782278"/>
</radialGradient>
<radialGradient id="paint3_radial_862_12520" cx="0" cy="0" r="1" gradientUnits="userSpaceOnUse" gradientTransform="translate(241 -52.5) rotate(90) scale(534.5 722.835)">
<stop offset="0.0922635" stop-color="white"/>
<stop offset="0.670207" stop-color="white" stop-opacity="0"/>
</radialGradient>
<radialGradient id="paint4_radial_862_12520" cx="0" cy="0" r="1" gradientUnits="userSpaceOnUse" gradientTransform="translate(242.115 352.918) scale(33.9822 23.302)">
<stop stop-color="#743C1C"/>
<stop offset="1" stop-color="#401C02"/>
</radialGradient>
<linearGradient id="paint5_linear_862_12520" x1="242.115" y1="365.39" x2="242.115" y2="340.55" gradientUnits="userSpaceOnUse">
<stop stop-color="#FFDE43"/>
<stop offset="0.22" stop-color="#FED93F"/>
<stop offset="0.51" stop-color="#FCC934"/>
<stop offset="0.82" stop-color="#F9AF21"/>
<stop offset="1" stop-color="#F79D14"/>
</linearGradient>
<radialGradient id="paint6_radial_862_12520" cx="0" cy="0" r="1" gradientUnits="userSpaceOnUse" gradientTransform="translate(321.515 222.521) scale(36.9297 43.866)">
<stop stop-color="#743C1C"/>
<stop offset="1" stop-color="#401C02"/>
</radialGradient>
<linearGradient id="paint7_linear_862_12520" x1="321.555" y1="268.805" x2="321.555" y2="175.942" gradientUnits="userSpaceOnUse">
<stop stop-color="#FFDE43"/>
<stop offset="0.22" stop-color="#FED93F"/>
<stop offset="0.51" stop-color="#FCC934"/>
<stop offset="0.82" stop-color="#F9AF21"/>
<stop offset="1" stop-color="#F79D14"/>
</linearGradient>
<radialGradient id="paint8_radial_862_12520" cx="0" cy="0" r="1" gradientUnits="userSpaceOnUse" gradientTransform="translate(162.245 237.091) scale(36.9297 29.2907)">
<stop stop-color="#743C1C"/>
<stop offset="1" stop-color="#401C02"/>
</radialGradient>
<linearGradient id="paint9_linear_862_12520" x1="162.285" y1="267.996" x2="162.285" y2="205.988" gradientUnits="userSpaceOnUse">
<stop stop-color="#FFDE43"/>
<stop offset="0.22" stop-color="#FED93F"/>
<stop offset="0.51" stop-color="#FCC934"/>
<stop offset="0.82" stop-color="#F9AF21"/>
<stop offset="1" stop-color="#F79D14"/>
</linearGradient>
<linearGradient id="paint10_linear_862_12520" x1="330.992" y1="317.987" x2="330.992" y2="148.005" gradientUnits="userSpaceOnUse">
<stop offset="0.0303327" stop-color="white" stop-opacity="0"/>
<stop offset="1" stop-color="white" stop-opacity="0.8"/>
</linearGradient>
</defs>
</svg>
