<svg width="483" height="483" viewBox="0 0 483 483" fill="none" xmlns="http://www.w3.org/2000/svg">
<path d="M241.18 482.36C374.38 482.36 482.36 374.38 482.36 241.18C482.36 107.98 374.38 0 241.18 0C107.98 0 0 107.98 0 241.18C0 374.38 107.98 482.36 241.18 482.36Z" fill="url(#paint0_radial_862_12478)"/>
<g style="mix-blend-mode:soft-light">
<path d="M241.18 482.36C374.38 482.36 482.36 374.38 482.36 241.18C482.36 107.98 374.38 0 241.18 0C107.98 0 0 107.98 0 241.18C0 374.38 107.98 482.36 241.18 482.36Z" fill="url(#paint1_radial_862_12478)"/>
</g>
<g style="mix-blend-mode:soft-light">
<path d="M241.18 482.36C374.38 482.36 482.36 374.38 482.36 241.18C482.36 107.98 374.38 0 241.18 0C107.98 0 0 107.98 0 241.18C0 374.38 107.98 482.36 241.18 482.36Z" fill="url(#paint2_radial_862_12478)"/>
</g>
<g style="mix-blend-mode:overlay">
<path d="M241.18 482.36C374.38 482.36 482.36 374.38 482.36 241.18C482.36 107.98 374.38 0 241.18 0C107.98 0 0 107.98 0 241.18C0 374.38 107.98 482.36 241.18 482.36Z" fill="url(#paint3_radial_862_12478)" fill-opacity="0.7"/>
</g>
<mask id="mask0_862_12478" style="mask-type:alpha" maskUnits="userSpaceOnUse" x="0" y="0" width="483" height="483">
<path d="M241.18 482.36C374.38 482.36 482.36 374.38 482.36 241.18C482.36 107.98 374.38 0 241.18 0C107.98 0 0 107.98 0 241.18C0 374.38 107.98 482.36 241.18 482.36Z" fill="white"/>
</mask>
<g mask="url(#mask0_862_12478)">
<g filter="url(#filter0_f_862_12478)">
<path d="M-1.3759 234.299C-1.11402 230.872 0.0137008 230.529 0.342619 234.009C0.708055 237.875 -0.00231624 245.647 0.16871 250.335C0.621554 262.748 2.52441 273.542 4.48605 282.321C10.8075 310.613 19.5617 328.843 27.7268 344.289C54.5663 395.061 83.9667 420.771 112.648 440.147C154.689 468.55 197.072 477.584 239.49 479.5C240.56 479.549 240.738 486.518 239.686 487.425C237.788 489.062 235.436 487.438 233.494 487.37C227.915 487.174 222.335 486.791 216.756 486.211C200.213 484.492 183.67 480.991 167.162 475.359C122.275 460.044 73.8765 433.821 31.6092 359.962C28.9502 355.316 26.3124 350.424 23.7118 345.168C21.6321 340.964 19.5726 336.557 17.5493 331.844C10.8946 316.342 -4.61323 276.659 -1.3759 234.299ZM239.52 487.5C238.499 487.532 238.241 481.035 239.214 479.686C240.684 477.647 242.888 479.326 244.439 479.229C250.877 478.827 257.314 478.23 263.75 477.422C281.395 475.206 299.028 471.423 316.621 465.596C360.257 451.146 407.17 429.116 448.305 361.431C450.923 357.124 453.518 352.554 456.079 347.641C463.86 332.713 483.361 293.085 481.107 243.821C480.917 239.669 482.181 237.181 482.747 240.744C483.467 245.28 483.175 254.736 482.977 259.768C482.341 275.884 479.866 289.512 477.257 300.518C468.987 335.399 457.376 355.623 446.744 372.51C412.184 427.397 374.648 449.524 338.155 465.425C305.424 479.686 272.444 486.484 239.52 487.5Z" fill="#401C02"/>
</g>
<g filter="url(#filter1_f_862_12478)">
<path d="M-1.3759 234.299C-1.11402 230.872 0.0137008 230.529 0.342619 234.009C0.708055 237.875 -0.00231624 245.647 0.16871 250.335C0.621554 262.748 2.52441 273.542 4.48605 282.321C10.8075 310.613 19.5617 328.843 27.7268 344.289C54.5663 395.061 83.9667 420.771 112.648 440.147C154.689 468.55 197.072 477.584 239.49 479.5C240.56 479.549 240.738 486.518 239.686 487.425C237.788 489.062 235.436 487.438 233.494 487.37C227.915 487.174 222.335 486.791 216.756 486.211C200.213 484.492 183.67 480.991 167.162 475.359C122.275 460.044 73.8765 433.821 31.6092 359.962C28.9502 355.316 26.3124 350.424 23.7118 345.168C21.6321 340.964 19.5726 336.557 17.5493 331.844C10.8946 316.342 -4.61323 276.659 -1.3759 234.299ZM239.52 487.5C238.499 487.532 238.241 481.035 239.214 479.686C240.684 477.647 242.888 479.326 244.439 479.229C250.877 478.827 257.314 478.23 263.75 477.422C281.395 475.206 299.028 471.423 316.621 465.596C360.257 451.146 407.17 429.116 448.305 361.431C450.923 357.124 453.518 352.554 456.079 347.641C463.86 332.713 483.361 293.085 481.107 243.821C480.917 239.669 482.181 237.181 482.747 240.744C483.467 245.28 483.175 254.736 482.977 259.768C482.341 275.884 479.866 289.512 477.257 300.518C468.987 335.399 457.376 355.623 446.744 372.51C412.184 427.397 374.648 449.524 338.155 465.425C305.424 479.686 272.444 486.484 239.52 487.5Z" fill="#401C02"/>
</g>
</g>
<path d="M337.546 350.64C340.077 347.976 342.448 345.165 344.646 342.22C345.756 340.731 346.777 339.179 347.706 337.57C348.136 336.82 348.546 336.05 348.916 335.26C349.096 334.87 349.526 333.16 349.846 332.98C335.356 340.79 320.636 348.55 305.236 354.42C291.451 359.713 277.125 363.469 262.516 365.62C251.071 367.267 239.501 367.872 227.946 367.43C220.686 367.15 213.506 366.05 206.326 365.06C200.216 364.22 191.916 361.91 186.216 365.26C182.616 367.37 180.716 371.58 180.216 375.72C179.784 378.457 180.113 381.259 181.166 383.82C182.696 387.21 185.856 389.66 189.286 391.12C200.486 395.86 214.626 395.62 226.556 395.8C243.198 396.071 259.773 393.64 275.636 388.6C290.644 383.681 304.836 376.556 317.746 367.46C324.897 362.536 331.531 356.901 337.546 350.64Z" fill="url(#paint4_radial_862_12478)"/>
<path d="M337.546 350.64C340.077 347.976 342.448 345.165 344.646 342.22C345.756 340.731 346.777 339.179 347.706 337.57C348.136 336.82 348.546 336.05 348.916 335.26C349.096 334.87 349.526 333.16 349.846 332.98C335.356 340.79 320.636 348.55 305.236 354.42C291.451 359.713 277.125 363.469 262.516 365.62C251.071 367.267 239.501 367.872 227.946 367.43C220.686 367.15 213.506 366.05 206.326 365.06C200.216 364.22 191.916 361.91 186.216 365.26C182.616 367.37 180.716 371.58 180.216 375.72C179.784 378.457 180.113 381.259 181.166 383.82C182.696 387.21 185.856 389.66 189.286 391.12C200.486 395.86 214.626 395.62 226.556 395.8C243.198 396.071 259.773 393.64 275.636 388.6C290.644 383.681 304.836 376.556 317.746 367.46C324.897 362.536 331.531 356.901 337.546 350.64V350.64Z" stroke="url(#paint5_linear_862_12478)" stroke-width="2.5" stroke-miterlimit="10"/>
<path d="M81.6661 193.02C85.2661 182.83 109.026 122.17 164.496 124.73C166.231 124.776 167.898 125.412 169.222 126.534C170.545 127.656 171.447 129.196 171.776 130.9C172.116 133.02 171.556 135.37 168.726 137.31C156.476 145.67 125.196 145.48 98.2661 186.06C95.976 189.604 93.8666 193.263 91.9461 197.02C90.5261 199.72 87.9461 203.44 84.6761 202.71C81.8961 202.08 81.1361 199.59 81.0161 197.51C80.9357 195.985 81.1566 194.46 81.6661 193.02Z" fill="#42210B"/>
<path d="M399.376 215.94C393.326 206.99 355.006 154.31 301.976 170.8C300.309 171.283 298.857 172.32 297.859 173.74C296.861 175.16 296.376 176.877 296.486 178.61C296.696 180.75 297.836 182.88 301.066 184.03C315.066 189.03 345.246 180.95 381.556 213.4C384.683 216.246 387.664 219.25 390.486 222.4C392.546 224.65 395.996 227.59 398.966 226.06C401.496 224.76 401.596 222.16 401.186 220.06C400.857 218.581 400.242 217.182 399.376 215.94Z" fill="#42210B"/>
<path d="M174.126 285.63C191.048 285.63 204.766 268.281 204.766 246.88C204.766 225.479 191.048 208.13 174.126 208.13C157.204 208.13 143.486 225.479 143.486 246.88C143.486 268.281 157.204 285.63 174.126 285.63Z" fill="url(#paint6_radial_862_12478)"/>
<path d="M174.126 285.63C191.048 285.63 204.766 268.281 204.766 246.88C204.766 225.479 191.048 208.13 174.126 208.13C157.204 208.13 143.486 225.479 143.486 246.88C143.486 268.281 157.204 285.63 174.126 285.63Z" stroke="url(#paint7_linear_862_12478)" stroke-width="2" stroke-miterlimit="10"/>
<path d="M282.516 266.35C281.829 265.657 281.366 264.773 281.187 263.814C281.009 262.854 281.124 261.863 281.516 260.97C290.446 240.43 311.406 225.97 335.836 225.97C360.266 225.97 381.206 240.39 390.136 260.97C390.53 261.865 390.645 262.857 390.467 263.819C390.289 264.78 389.825 265.666 389.136 266.36C388.245 267.239 387.048 267.74 385.797 267.759C384.545 267.777 383.334 267.312 382.416 266.46C371.246 256.37 354.526 250.02 335.826 250.02C317.126 250.02 300.396 256.42 289.246 266.51C288.327 267.363 287.115 267.828 285.861 267.809C284.608 267.791 283.41 267.289 282.516 266.41V266.35Z" fill="url(#paint8_radial_862_12478)"/>
<path d="M282.516 266.35C281.829 265.657 281.366 264.773 281.187 263.814C281.009 262.854 281.124 261.863 281.516 260.97C290.446 240.43 311.406 225.97 335.836 225.97C360.266 225.97 381.206 240.39 390.136 260.97C390.53 261.865 390.645 262.857 390.467 263.819C390.289 264.78 389.825 265.666 389.136 266.36V266.36C388.245 267.239 387.048 267.74 385.797 267.759C384.545 267.777 383.334 267.312 382.416 266.46C371.246 256.37 354.526 250.02 335.826 250.02C317.126 250.02 300.396 256.42 289.246 266.51C288.327 267.363 287.115 267.828 285.861 267.809C284.608 267.791 283.41 267.289 282.516 266.41V266.35Z" stroke="url(#paint9_linear_862_12478)" stroke-width="2" stroke-miterlimit="10"/>
<defs>
<filter id="filter0_f_862_12478" x="-26.8149" y="206.559" width="535.022" height="306.595" filterUnits="userSpaceOnUse" color-interpolation-filters="sRGB">
<feFlood flood-opacity="0" result="BackgroundImageFix"/>
<feBlend mode="normal" in="SourceGraphic" in2="BackgroundImageFix" result="shape"/>
<feGaussianBlur stdDeviation="12.5" result="effect1_foregroundBlur_862_12478"/>
</filter>
<filter id="filter1_f_862_12478" x="-41.8149" y="191.559" width="565.022" height="336.595" filterUnits="userSpaceOnUse" color-interpolation-filters="sRGB">
<feFlood flood-opacity="0" result="BackgroundImageFix"/>
<feBlend mode="normal" in="SourceGraphic" in2="BackgroundImageFix" result="shape"/>
<feGaussianBlur stdDeviation="20" result="effect1_foregroundBlur_862_12478"/>
</filter>
<radialGradient id="paint0_radial_862_12478" cx="0" cy="0" r="1" gradientUnits="userSpaceOnUse" gradientTransform="translate(241 -4.53898e-06) rotate(90) scale(482)">
<stop stop-color="#FFDE43"/>
<stop offset="1" stop-color="#FFBC00"/>
</radialGradient>
<radialGradient id="paint1_radial_862_12478" cx="0" cy="0" r="1" gradientUnits="userSpaceOnUse" gradientTransform="translate(241 64.5) rotate(90) scale(417.5)">
<stop stop-color="white" stop-opacity="0.5"/>
<stop offset="0.782278"/>
</radialGradient>
<radialGradient id="paint2_radial_862_12478" cx="0" cy="0" r="1" gradientUnits="userSpaceOnUse" gradientTransform="translate(241 64.5) rotate(90) scale(417.5)">
<stop stop-color="white" stop-opacity="0.5"/>
<stop offset="0.782278"/>
</radialGradient>
<radialGradient id="paint3_radial_862_12478" cx="0" cy="0" r="1" gradientUnits="userSpaceOnUse" gradientTransform="translate(241 -52.5) rotate(90) scale(534.5 722.835)">
<stop offset="0.0922635" stop-color="white"/>
<stop offset="0.670207" stop-color="white" stop-opacity="0"/>
</radialGradient>
<radialGradient id="paint4_radial_862_12478" cx="0" cy="0" r="1" gradientUnits="userSpaceOnUse" gradientTransform="translate(264.939 364.274) scale(64.0902 63.4723)">
<stop stop-color="#743C1C"/>
<stop offset="1" stop-color="#401C02"/>
</radialGradient>
<linearGradient id="paint5_linear_862_12478" x1="264.939" y1="397.589" x2="264.939" y2="330.958" gradientUnits="userSpaceOnUse">
<stop offset="0.265625" stop-color="#FFDE43"/>
<stop offset="1" stop-color="#F79D14"/>
</linearGradient>
<radialGradient id="paint6_radial_862_12478" cx="0" cy="0" r="1" gradientUnits="userSpaceOnUse" gradientTransform="translate(174.084 246.854) scale(39.0585 38.8172)">
<stop stop-color="#743C1C"/>
<stop offset="1" stop-color="#401C02"/>
</radialGradient>
<linearGradient id="paint7_linear_862_12478" x1="174.126" y1="287.811" x2="174.126" y2="205.636" gradientUnits="userSpaceOnUse">
<stop stop-color="#FFDE43"/>
<stop offset="0.22" stop-color="#FED93F"/>
<stop offset="0.51" stop-color="#FCC934"/>
<stop offset="0.82" stop-color="#F9AF21"/>
<stop offset="1" stop-color="#F79D14"/>
</linearGradient>
<radialGradient id="paint8_radial_862_12478" cx="0" cy="0" r="1" gradientUnits="userSpaceOnUse" gradientTransform="translate(335.751 246.876) scale(69.7567 20.9564)">
<stop stop-color="#743C1C"/>
<stop offset="1" stop-color="#401C02"/>
</radialGradient>
<linearGradient id="paint9_linear_862_12478" x1="335.827" y1="268.987" x2="335.827" y2="224.623" gradientUnits="userSpaceOnUse">
<stop stop-color="#FFDE43"/>
<stop offset="0.22" stop-color="#FED93F"/>
<stop offset="0.51" stop-color="#FCC934"/>
<stop offset="0.82" stop-color="#F9AF21"/>
<stop offset="1" stop-color="#F79D14"/>
</linearGradient>
</defs>
</svg>
