<svg width="483" height="483" viewBox="0 0 483 483" fill="none" xmlns="http://www.w3.org/2000/svg">
<path d="M241.82 483C108.62 483 0.640047 375.02 0.640036 241.82C0.640024 108.62 108.62 0.639681 241.82 0.63967C375.02 0.639658 483 108.62 483 241.82C483 375.02 375.02 483 241.82 483Z" fill="url(#paint0_radial_862_12507)"/>
<g style="mix-blend-mode:soft-light">
<path d="M241.82 483C108.62 483 0.640047 375.02 0.640036 241.82C0.640024 108.62 108.62 0.639681 241.82 0.63967C375.02 0.639658 483 108.62 483 241.82C483 375.02 375.02 483 241.82 483Z" fill="url(#paint1_radial_862_12507)"/>
</g>
<g style="mix-blend-mode:soft-light">
<path d="M241.82 483C108.62 483 0.640047 375.02 0.640036 241.82C0.640024 108.62 108.62 0.639681 241.82 0.63967C375.02 0.639658 483 108.62 483 241.82C483 375.02 375.02 483 241.82 483Z" fill="url(#paint2_radial_862_12507)"/>
</g>
<g style="mix-blend-mode:overlay">
<path d="M241.82 483C108.62 483 0.640047 375.02 0.640036 241.82C0.640024 108.62 108.62 0.639681 241.82 0.63967C375.02 0.639658 483 108.62 483 241.82C483 375.02 375.02 483 241.82 483Z" fill="url(#paint3_radial_862_12507)" fill-opacity="0.7"/>
</g>
<mask id="mask0_862_12507" style="mask-type:alpha" maskUnits="userSpaceOnUse" x="0" y="0" width="483" height="483">
<path d="M241.82 483C108.62 483 0.640047 375.02 0.640036 241.82C0.640024 108.62 108.62 0.639681 241.82 0.63967C375.02 0.639658 483 108.62 483 241.82C483 375.02 375.02 483 241.82 483Z" fill="white"/>
</mask>
<g mask="url(#mask0_862_12507)">
<g filter="url(#filter0_f_862_12507)">
<path d="M484.376 234.938C484.114 231.511 482.986 231.168 482.657 234.647C482.292 238.513 483.002 246.285 482.831 250.974C482.378 263.387 480.476 274.18 478.514 282.96C472.193 311.251 463.438 329.482 455.273 344.928C428.434 395.7 399.033 421.41 370.352 440.786C328.311 469.188 285.928 478.223 243.51 480.139C242.44 480.188 242.262 487.157 243.314 488.064C245.212 489.7 247.564 488.076 249.506 488.008C255.085 487.813 260.665 487.43 266.244 486.85C282.787 485.131 299.33 481.63 315.838 475.997C360.726 460.683 409.124 434.46 451.391 360.601C454.05 355.955 456.688 351.063 459.288 345.806C461.368 341.602 463.427 337.196 465.451 332.483C472.105 316.981 487.613 277.297 484.376 234.938ZM243.48 488.139C244.501 488.17 244.759 481.673 243.786 480.325C242.316 478.286 240.112 479.965 238.561 479.868C232.123 479.466 225.686 478.868 219.25 478.06C201.605 475.845 183.972 472.061 166.379 466.235C122.743 451.785 75.83 429.754 34.6952 362.07C32.0772 357.762 29.4818 353.193 26.9213 348.28C19.1403 333.351 -0.361414 293.723 1.8931 244.46C2.08316 240.307 0.818573 237.82 0.252808 241.383C-0.467467 245.918 -0.175077 255.375 0.0233179 260.407C0.658695 276.522 3.1337 290.151 5.74323 301.157C14.0133 336.038 25.6238 356.262 36.2564 373.149C70.8161 428.036 108.352 450.163 144.845 466.063C177.576 480.325 210.556 487.123 243.48 488.139Z" fill="#401C02"/>
</g>
<g filter="url(#filter1_f_862_12507)">
<path d="M484.376 234.938C484.114 231.511 482.986 231.168 482.657 234.647C482.292 238.513 483.002 246.285 482.831 250.974C482.378 263.387 480.476 274.18 478.514 282.96C472.193 311.251 463.438 329.482 455.273 344.928C428.434 395.7 399.033 421.41 370.352 440.786C328.311 469.188 285.928 478.223 243.51 480.139C242.44 480.188 242.262 487.157 243.314 488.064C245.212 489.7 247.564 488.076 249.506 488.008C255.085 487.813 260.665 487.43 266.244 486.85C282.787 485.131 299.33 481.63 315.838 475.997C360.726 460.683 409.124 434.46 451.391 360.601C454.05 355.955 456.688 351.063 459.288 345.806C461.368 341.602 463.427 337.196 465.451 332.483C472.105 316.981 487.613 277.297 484.376 234.938ZM243.48 488.139C244.501 488.17 244.759 481.673 243.786 480.325C242.316 478.286 240.112 479.965 238.561 479.868C232.123 479.466 225.686 478.868 219.25 478.06C201.605 475.845 183.972 472.061 166.379 466.235C122.743 451.785 75.83 429.754 34.6952 362.07C32.0772 357.762 29.4818 353.193 26.9213 348.28C19.1403 333.351 -0.361414 293.723 1.8931 244.46C2.08316 240.307 0.818573 237.82 0.252808 241.383C-0.467467 245.918 -0.175077 255.375 0.0233179 260.407C0.658695 276.522 3.1337 290.151 5.74323 301.157C14.0133 336.038 25.6238 356.262 36.2564 373.149C70.8161 428.036 108.352 450.163 144.845 466.063C177.576 480.325 210.556 487.123 243.48 488.139Z" fill="#401C02"/>
</g>
</g>
<path d="M145.383 159.14C145.189 159.259 144.961 159.308 144.735 159.28C144.51 159.252 144.3 159.147 144.142 158.984C143.984 158.821 143.886 158.609 143.864 158.383C143.842 158.157 143.898 157.93 144.023 157.74C145.895 155.065 147.96 152.532 150.203 150.16C151.023 149.3 151.843 148.44 152.683 147.6C153.523 146.76 154.423 145.99 155.293 145.18C156.163 144.37 157.063 143.56 157.983 142.81L160.783 140.59C168.431 134.78 176.772 129.943 185.613 126.19C221.712 111.783 261.964 111.783 298.063 126.19C306.886 129.939 315.21 134.769 322.843 140.57L325.643 142.79C326.563 143.55 327.453 144.36 328.333 145.16C329.213 145.96 330.093 146.74 330.943 147.58C331.793 148.42 332.603 149.29 333.423 150.14C335.669 152.526 337.738 155.072 339.613 157.76C339.737 157.95 339.793 158.177 339.772 158.403C339.75 158.629 339.652 158.841 339.494 159.004C339.335 159.167 339.126 159.272 338.901 159.3C338.675 159.328 338.447 159.279 338.253 159.16C331.745 155.257 324.933 151.886 317.883 149.08C309.795 145.831 301.488 143.157 293.023 141.08C259.281 133.493 224.275 133.493 190.533 141.08C182.066 143.151 173.759 145.825 165.673 149.08C158.649 151.881 151.864 155.245 145.383 159.14Z" fill="url(#paint4_radial_862_12507)"/>
<path d="M145.593 159.14C145.399 159.254 145.173 159.299 144.95 159.269C144.728 159.238 144.522 159.134 144.366 158.972C144.21 158.81 144.113 158.601 144.091 158.377C144.068 158.154 144.122 157.929 144.243 157.74C146.115 155.065 148.18 152.532 150.423 150.16C151.243 149.3 152.053 148.44 152.903 147.6C153.753 146.76 154.643 145.99 155.513 145.18C156.383 144.37 157.273 143.56 158.203 142.81L161.003 140.59C168.653 134.777 176.997 129.94 185.843 126.19C221.945 111.784 262.2 111.784 298.303 126.19C307.144 129.947 315.484 134.787 323.133 140.6L325.933 142.82C326.853 143.58 327.733 144.39 328.613 145.19C329.493 145.99 330.383 146.77 331.223 147.61C332.063 148.45 332.883 149.32 333.703 150.17C335.933 152.545 337.986 155.082 339.843 157.76C339.964 157.949 340.017 158.174 339.995 158.397C339.973 158.621 339.876 158.83 339.72 158.992C339.564 159.154 339.358 159.258 339.135 159.289C338.913 159.319 338.686 159.274 338.493 159.16C331.982 155.257 325.166 151.886 318.113 149.08C310.029 145.829 301.725 143.156 293.263 141.08C259.521 133.493 224.515 133.493 190.773 141.08C182.306 143.15 173.998 145.823 165.913 149.08C158.879 151.88 152.084 155.244 145.593 159.14Z" stroke="url(#paint5_linear_862_12507)" stroke-width="2.5" stroke-miterlimit="10"/>
<path d="M170.96 247.69C156.545 247.69 144.86 265.218 144.86 286.84C144.86 308.462 156.545 325.99 170.96 325.99C185.374 325.99 197.06 308.462 197.06 286.84C197.06 265.218 185.374 247.69 170.96 247.69Z" fill="url(#paint6_radial_862_12507)"/>
<path d="M170.96 247.69C156.545 247.69 144.86 265.218 144.86 286.84C144.86 308.462 156.545 325.99 170.96 325.99C185.374 325.99 197.06 308.462 197.06 286.84C197.06 265.218 185.374 247.69 170.96 247.69Z" stroke="url(#paint7_linear_862_12507)" stroke-width="2" stroke-miterlimit="10"/>
<path d="M311.9 247.69C297.485 247.69 285.8 265.218 285.8 286.84C285.8 308.462 297.485 325.99 311.9 325.99C326.315 325.99 338 308.462 338 286.84C338 265.218 326.315 247.69 311.9 247.69Z" fill="url(#paint8_radial_862_12507)"/>
<path d="M311.9 247.69C297.485 247.69 285.8 265.218 285.8 286.84C285.8 308.462 297.485 325.99 311.9 325.99C326.315 325.99 338 308.462 338 286.84C338 265.218 326.315 247.69 311.9 247.69Z" stroke="url(#paint9_linear_862_12507)" stroke-width="2" stroke-miterlimit="10"/>
<defs>
<filter id="filter0_f_862_12507" x="-25.2068" y="207.197" width="535.022" height="306.595" filterUnits="userSpaceOnUse" color-interpolation-filters="sRGB">
<feFlood flood-opacity="0" result="BackgroundImageFix"/>
<feBlend mode="normal" in="SourceGraphic" in2="BackgroundImageFix" result="shape"/>
<feGaussianBlur stdDeviation="12.5" result="effect1_foregroundBlur_862_12507"/>
</filter>
<filter id="filter1_f_862_12507" x="-40.2068" y="192.197" width="565.022" height="336.595" filterUnits="userSpaceOnUse" color-interpolation-filters="sRGB">
<feFlood flood-opacity="0" result="BackgroundImageFix"/>
<feBlend mode="normal" in="SourceGraphic" in2="BackgroundImageFix" result="shape"/>
<feGaussianBlur stdDeviation="20" result="effect1_foregroundBlur_862_12507"/>
</filter>
<radialGradient id="paint0_radial_862_12507" cx="0" cy="0" r="1" gradientUnits="userSpaceOnUse" gradientTransform="translate(242 0.639665) rotate(90) scale(482)">
<stop stop-color="#FFDE43"/>
<stop offset="1" stop-color="#FFBC00"/>
</radialGradient>
<radialGradient id="paint1_radial_862_12507" cx="0" cy="0" r="1" gradientUnits="userSpaceOnUse" gradientTransform="translate(242 65.1397) rotate(90) scale(417.5)">
<stop stop-color="white" stop-opacity="0.5"/>
<stop offset="0.782278"/>
</radialGradient>
<radialGradient id="paint2_radial_862_12507" cx="0" cy="0" r="1" gradientUnits="userSpaceOnUse" gradientTransform="translate(242 65.1397) rotate(90) scale(417.5)">
<stop stop-color="white" stop-opacity="0.5"/>
<stop offset="0.782278"/>
</radialGradient>
<radialGradient id="paint3_radial_862_12507" cx="0" cy="0" r="1" gradientUnits="userSpaceOnUse" gradientTransform="translate(242 -51.8603) rotate(90) scale(534.5 722.835)">
<stop offset="0.0922635" stop-color="white"/>
<stop offset="0.670207" stop-color="white" stop-opacity="0"/>
</radialGradient>
<radialGradient id="paint4_radial_862_12507" cx="0" cy="0" r="1" gradientUnits="userSpaceOnUse" gradientTransform="translate(241.818 137.435) rotate(-180) scale(73.9414 44.3645)">
<stop stop-color="#743C1C"/>
<stop offset="1" stop-color="#401C02"/>
</radialGradient>
<linearGradient id="paint5_linear_862_12507" x1="242.043" y1="114.149" x2="242.043" y2="160.711" gradientUnits="userSpaceOnUse">
<stop offset="0.265625" stop-color="#FFDE43"/>
<stop offset="1" stop-color="#F79D14"/>
</linearGradient>
<radialGradient id="paint6_radial_862_12507" cx="0" cy="0" r="1" gradientUnits="userSpaceOnUse" gradientTransform="translate(170.996 286.866) rotate(-180) scale(33.2712 39.2179)">
<stop stop-color="#743C1C"/>
<stop offset="1" stop-color="#401C02"/>
</radialGradient>
<linearGradient id="paint7_linear_862_12507" x1="170.96" y1="245.487" x2="170.96" y2="328.51" gradientUnits="userSpaceOnUse">
<stop stop-color="#FFDE43"/>
<stop offset="0.22" stop-color="#FED93F"/>
<stop offset="0.51" stop-color="#FCC934"/>
<stop offset="0.82" stop-color="#F9AF21"/>
<stop offset="1" stop-color="#F79D14"/>
</linearGradient>
<radialGradient id="paint8_radial_862_12507" cx="0" cy="0" r="1" gradientUnits="userSpaceOnUse" gradientTransform="translate(311.936 286.866) rotate(-180) scale(33.2712 39.2179)">
<stop stop-color="#743C1C"/>
<stop offset="1" stop-color="#401C02"/>
</radialGradient>
<linearGradient id="paint9_linear_862_12507" x1="311.9" y1="245.487" x2="311.9" y2="328.51" gradientUnits="userSpaceOnUse">
<stop stop-color="#FFDE43"/>
<stop offset="0.22" stop-color="#FED93F"/>
<stop offset="0.51" stop-color="#FCC934"/>
<stop offset="0.82" stop-color="#F9AF21"/>
<stop offset="1" stop-color="#F79D14"/>
</linearGradient>
</defs>
</svg>
