<svg width="484" height="483" viewBox="0 0 484 483" fill="none" xmlns="http://www.w3.org/2000/svg">
<path d="M242.18 482.36C375.38 482.36 483.36 374.38 483.36 241.18C483.36 107.98 375.38 0 242.18 0C108.98 0 1 107.98 1 241.18C1 374.38 108.98 482.36 242.18 482.36Z" fill="url(#paint0_radial_862_12556)"/>
<g style="mix-blend-mode:soft-light">
<path d="M242.18 482.36C375.38 482.36 483.36 374.38 483.36 241.18C483.36 107.98 375.38 0 242.18 0C108.98 0 1 107.98 1 241.18C1 374.38 108.98 482.36 242.18 482.36Z" fill="url(#paint1_radial_862_12556)"/>
</g>
<g style="mix-blend-mode:soft-light">
<path d="M242.18 482.36C375.38 482.36 483.36 374.38 483.36 241.18C483.36 107.98 375.38 0 242.18 0C108.98 0 1 107.98 1 241.18C1 374.38 108.98 482.36 242.18 482.36Z" fill="url(#paint2_radial_862_12556)"/>
</g>
<g style="mix-blend-mode:overlay">
<path d="M242.18 482.36C375.38 482.36 483.36 374.38 483.36 241.18C483.36 107.98 375.38 0 242.18 0C108.98 0 1 107.98 1 241.18C1 374.38 108.98 482.36 242.18 482.36Z" fill="url(#paint3_radial_862_12556)" fill-opacity="0.7"/>
</g>
<mask id="mask0_862_12556" style="mask-type:alpha" maskUnits="userSpaceOnUse" x="0" y="0" width="483" height="483">
<path d="M241.18 482.36C374.38 482.36 482.36 374.38 482.36 241.18C482.36 107.98 374.38 0 241.18 0C107.98 0 0 107.98 0 241.18C0 374.38 107.98 482.36 241.18 482.36Z" fill="white"/>
</mask>
<g mask="url(#mask0_862_12556)">
<g filter="url(#filter0_f_862_12556)">
<path d="M-1.3759 234.299C-1.11402 230.872 0.0137008 230.529 0.342619 234.008C0.708055 237.874 -0.00231624 245.646 0.16871 250.335C0.621554 262.748 2.52441 273.541 4.48605 282.32C10.8075 310.612 19.5617 328.843 27.7268 344.288C54.5663 395.06 83.9667 420.77 112.648 440.147C154.689 468.549 197.072 477.584 239.49 479.5C240.56 479.548 240.738 486.518 239.686 487.425C237.788 489.061 235.436 487.437 233.494 487.369C227.915 487.174 222.335 486.791 216.756 486.211C200.213 484.492 183.67 480.991 167.162 475.358C122.275 460.044 73.8765 433.821 31.6092 359.962C28.9502 355.316 26.3124 350.424 23.7118 345.167C21.6321 340.963 19.5726 336.556 17.5493 331.843C10.8946 316.342 -4.61323 276.658 -1.3759 234.299ZM239.52 487.5C238.499 487.531 238.241 481.034 239.214 479.685C240.684 477.647 242.888 479.326 244.439 479.229C250.877 478.826 257.314 478.229 263.75 477.421C281.395 475.205 299.028 471.422 316.621 465.596C360.257 451.145 407.17 429.115 448.305 361.431C450.923 357.123 453.518 352.553 456.079 347.641C463.86 332.712 483.361 293.084 481.107 243.821C480.917 239.668 482.181 237.181 482.747 240.743C483.467 245.279 483.175 254.736 482.977 259.768C482.341 275.883 479.866 289.512 477.257 300.518C468.987 335.399 457.376 355.623 446.744 372.51C412.184 427.397 374.648 449.524 338.155 465.424C305.424 479.686 272.444 486.484 239.52 487.5Z" fill="#401C02"/>
</g>
<g filter="url(#filter1_f_862_12556)">
<path d="M-1.3759 234.299C-1.11402 230.872 0.0137008 230.529 0.342619 234.008C0.708055 237.874 -0.00231624 245.646 0.16871 250.335C0.621554 262.748 2.52441 273.541 4.48605 282.32C10.8075 310.612 19.5617 328.843 27.7268 344.288C54.5663 395.06 83.9667 420.77 112.648 440.147C154.689 468.549 197.072 477.584 239.49 479.5C240.56 479.548 240.738 486.518 239.686 487.425C237.788 489.061 235.436 487.437 233.494 487.369C227.915 487.174 222.335 486.791 216.756 486.211C200.213 484.492 183.67 480.991 167.162 475.358C122.275 460.044 73.8765 433.821 31.6092 359.962C28.9502 355.316 26.3124 350.424 23.7118 345.167C21.6321 340.963 19.5726 336.556 17.5493 331.843C10.8946 316.342 -4.61323 276.658 -1.3759 234.299ZM239.52 487.5C238.499 487.531 238.241 481.034 239.214 479.685C240.684 477.647 242.888 479.326 244.439 479.229C250.877 478.826 257.314 478.229 263.75 477.421C281.395 475.205 299.028 471.422 316.621 465.596C360.257 451.145 407.17 429.115 448.305 361.431C450.923 357.123 453.518 352.553 456.079 347.641C463.86 332.712 483.361 293.084 481.107 243.821C480.917 239.668 482.181 237.181 482.747 240.743C483.467 245.279 483.175 254.736 482.977 259.768C482.341 275.883 479.866 289.512 477.257 300.518C468.987 335.399 457.376 355.623 446.744 372.51C412.184 427.397 374.648 449.524 338.155 465.424C305.424 479.686 272.444 486.484 239.52 487.5Z" fill="#401C02"/>
</g>
</g>
<path d="M285.37 370H198.54C192.167 370 187 375.164 187 381.535C187 387.906 192.167 393.07 198.54 393.07H285.37C291.743 393.07 296.91 387.906 296.91 381.535C296.91 375.164 291.743 370 285.37 370Z" fill="url(#paint4_radial_862_12556)"/>
<path d="M285.37 370H198.54C192.167 370 187 375.164 187 381.535C187 387.906 192.167 393.07 198.54 393.07H285.37C291.743 393.07 296.91 387.906 296.91 381.535C296.91 375.164 291.743 370 285.37 370Z" stroke="url(#paint5_linear_862_12556)" stroke-width="1.77" stroke-miterlimit="10"/>
<g filter="url(#filter2_f_862_12556)">
<circle cx="118" cy="322" r="50" fill="#E66200"/>
</g>
<g filter="url(#filter3_f_862_12556)">
<circle cx="365" cy="322" r="50" fill="#E66200"/>
</g>
<path d="M91.459 119.13C97.899 111.79 138.199 69.08 183.779 89.91C185.211 90.5357 186.387 91.6302 187.114 93.0133C187.841 94.3964 188.076 95.9858 187.779 97.52C187.349 99.41 186.079 101.18 183.059 101.85C170.009 104.72 143.909 94.03 107.719 118.85C104.569 121.02 101.609 123.45 98.719 125.92C96.629 127.69 93.199 129.92 90.719 128.22C88.599 126.77 88.809 124.43 89.409 122.64C89.8526 121.346 90.5495 120.152 91.459 119.13Z" fill="#42210B"/>
<path d="M137.9 310.8C180.371 310.8 214.8 276.371 214.8 233.9C214.8 191.429 180.371 157 137.9 157C95.4293 157 61 191.429 61 233.9C61 276.371 95.4293 310.8 137.9 310.8Z" fill="url(#paint6_linear_862_12556)"/>
<mask id="mask1_862_12556" style="mask-type:alpha" maskUnits="userSpaceOnUse" x="61" y="157" width="154" height="156">
<path d="M138 312.048C95.4741 312.048 61 277.339 61 234.524C61 191.709 95.4741 157 138 157C180.526 157 215 191.709 215 234.524C215 277.339 180.526 312.048 138 312.048Z" fill="white"/>
</mask>
<g mask="url(#mask1_862_12556)">
<g filter="url(#filter4_f_862_12556)">
<path d="M62 234.524C62 276.793 96.0327 311.048 138 311.048C179.967 311.048 214 276.793 214 234.524C214 192.254 179.967 158 138 158C96.0327 158 62 192.254 62 234.524Z" stroke="#743C1C" stroke-width="2"/>
</g>
</g>
<g filter="url(#filter5_f_862_12556)">
<circle cx="138" cy="234" r="28" fill="black"/>
</g>
<path d="M137.9 310.8C180.371 310.8 214.8 276.371 214.8 233.9C214.8 191.429 180.371 157 137.9 157C95.4293 157 61 191.429 61 233.9C61 276.371 95.4293 310.8 137.9 310.8Z" stroke="url(#paint7_linear_862_12556)" stroke-width="1.64" stroke-miterlimit="10"/>
<path d="M392.541 119.13C386.101 111.79 345.801 69.08 300.221 89.91C298.789 90.5357 297.613 91.6302 296.886 93.0133C296.159 94.3964 295.924 95.9858 296.221 97.52C296.651 99.41 297.921 101.18 300.941 101.85C313.991 104.72 340.091 94.03 376.281 118.85C379.431 121.02 382.391 123.45 385.281 125.92C387.371 127.69 390.801 129.92 393.281 128.22C395.401 126.77 395.191 124.43 394.591 122.64C394.147 121.346 393.451 120.152 392.541 119.13Z" fill="#42210B"/>
<path d="M346.1 310.8C303.629 310.8 269.2 276.371 269.2 233.9C269.2 191.429 303.629 157 346.1 157C388.571 157 423 191.429 423 233.9C423 276.371 388.571 310.8 346.1 310.8Z" fill="url(#paint8_linear_862_12556)"/>
<mask id="mask2_862_12556" style="mask-type:alpha" maskUnits="userSpaceOnUse" x="269" y="157" width="154" height="156">
<path d="M346 312.048C388.526 312.048 423 277.339 423 234.524C423 191.709 388.526 157 346 157C303.474 157 269 191.709 269 234.524C269 277.339 303.474 312.048 346 312.048Z" fill="white"/>
</mask>
<g mask="url(#mask2_862_12556)">
<g filter="url(#filter6_f_862_12556)">
<path d="M422 234.524C422 276.793 387.967 311.048 346 311.048C304.033 311.048 270 276.793 270 234.524C270 192.254 304.033 158 346 158C387.967 158 422 192.254 422 234.524Z" stroke="#743C1C" stroke-width="2"/>
</g>
</g>
<g filter="url(#filter7_f_862_12556)">
<circle r="28" transform="matrix(-1 0 0 1 346 234)" fill="black"/>
</g>
<path d="M346.1 310.8C303.629 310.8 269.2 276.371 269.2 233.9C269.2 191.429 303.629 157 346.1 157C388.571 157 423 191.429 423 233.9C423 276.371 388.571 310.8 346.1 310.8Z" stroke="url(#paint9_linear_862_12556)" stroke-width="2.5" stroke-miterlimit="10"/>
<defs>
<filter id="filter0_f_862_12556" x="-26.8149" y="206.558" width="535.022" height="306.595" filterUnits="userSpaceOnUse" color-interpolation-filters="sRGB">
<feFlood flood-opacity="0" result="BackgroundImageFix"/>
<feBlend mode="normal" in="SourceGraphic" in2="BackgroundImageFix" result="shape"/>
<feGaussianBlur stdDeviation="12.5" result="effect1_foregroundBlur_862_12556"/>
</filter>
<filter id="filter1_f_862_12556" x="-41.8149" y="191.558" width="565.022" height="336.595" filterUnits="userSpaceOnUse" color-interpolation-filters="sRGB">
<feFlood flood-opacity="0" result="BackgroundImageFix"/>
<feBlend mode="normal" in="SourceGraphic" in2="BackgroundImageFix" result="shape"/>
<feGaussianBlur stdDeviation="20" result="effect1_foregroundBlur_862_12556"/>
</filter>
<filter id="filter2_f_862_12556" x="8" y="212" width="220" height="220" filterUnits="userSpaceOnUse" color-interpolation-filters="sRGB">
<feFlood flood-opacity="0" result="BackgroundImageFix"/>
<feBlend mode="normal" in="SourceGraphic" in2="BackgroundImageFix" result="shape"/>
<feGaussianBlur stdDeviation="30" result="effect1_foregroundBlur_862_12556"/>
</filter>
<filter id="filter3_f_862_12556" x="255" y="212" width="220" height="220" filterUnits="userSpaceOnUse" color-interpolation-filters="sRGB">
<feFlood flood-opacity="0" result="BackgroundImageFix"/>
<feBlend mode="normal" in="SourceGraphic" in2="BackgroundImageFix" result="shape"/>
<feGaussianBlur stdDeviation="30" result="effect1_foregroundBlur_862_12556"/>
</filter>
<filter id="filter4_f_862_12556" x="46" y="142" width="184" height="185.048" filterUnits="userSpaceOnUse" color-interpolation-filters="sRGB">
<feFlood flood-opacity="0" result="BackgroundImageFix"/>
<feBlend mode="normal" in="SourceGraphic" in2="BackgroundImageFix" result="shape"/>
<feGaussianBlur stdDeviation="7.5" result="effect1_foregroundBlur_862_12556"/>
</filter>
<filter id="filter5_f_862_12556" x="106" y="202" width="64" height="64" filterUnits="userSpaceOnUse" color-interpolation-filters="sRGB">
<feFlood flood-opacity="0" result="BackgroundImageFix"/>
<feBlend mode="normal" in="SourceGraphic" in2="BackgroundImageFix" result="shape"/>
<feGaussianBlur stdDeviation="2" result="effect1_foregroundBlur_862_12556"/>
</filter>
<filter id="filter6_f_862_12556" x="254" y="142" width="184" height="185.048" filterUnits="userSpaceOnUse" color-interpolation-filters="sRGB">
<feFlood flood-opacity="0" result="BackgroundImageFix"/>
<feBlend mode="normal" in="SourceGraphic" in2="BackgroundImageFix" result="shape"/>
<feGaussianBlur stdDeviation="7.5" result="effect1_foregroundBlur_862_12556"/>
</filter>
<filter id="filter7_f_862_12556" x="314" y="202" width="64" height="64" filterUnits="userSpaceOnUse" color-interpolation-filters="sRGB">
<feFlood flood-opacity="0" result="BackgroundImageFix"/>
<feBlend mode="normal" in="SourceGraphic" in2="BackgroundImageFix" result="shape"/>
<feGaussianBlur stdDeviation="2" result="effect1_foregroundBlur_862_12556"/>
</filter>
<radialGradient id="paint0_radial_862_12556" cx="0" cy="0" r="1" gradientUnits="userSpaceOnUse" gradientTransform="translate(242 -4.53898e-06) rotate(90) scale(482)">
<stop stop-color="#FFDE43"/>
<stop offset="1" stop-color="#FFBC00"/>
</radialGradient>
<radialGradient id="paint1_radial_862_12556" cx="0" cy="0" r="1" gradientUnits="userSpaceOnUse" gradientTransform="translate(242 64.5) rotate(90) scale(417.5)">
<stop stop-color="white" stop-opacity="0.5"/>
<stop offset="0.782278"/>
</radialGradient>
<radialGradient id="paint2_radial_862_12556" cx="0" cy="0" r="1" gradientUnits="userSpaceOnUse" gradientTransform="translate(242 64.5) rotate(90) scale(417.5)">
<stop stop-color="white" stop-opacity="0.5"/>
<stop offset="0.782278"/>
</radialGradient>
<radialGradient id="paint3_radial_862_12556" cx="0" cy="0" r="1" gradientUnits="userSpaceOnUse" gradientTransform="translate(242 -52.5) rotate(90) scale(534.5 722.835)">
<stop offset="0.0922635" stop-color="white"/>
<stop offset="0.670207" stop-color="white" stop-opacity="0"/>
</radialGradient>
<radialGradient id="paint4_radial_862_12556" cx="0" cy="0" r="1" gradientUnits="userSpaceOnUse" gradientTransform="translate(241.955 381.488) scale(41.4813 23.302)">
<stop stop-color="#743C1C"/>
<stop offset="1" stop-color="#401C02"/>
</radialGradient>
<linearGradient id="paint5_linear_862_12556" x1="241.955" y1="393.719" x2="241.955" y2="369.258" gradientUnits="userSpaceOnUse">
<stop offset="0.265625" stop-color="#FFDE43"/>
<stop offset="1" stop-color="#F79D14"/>
</linearGradient>
<linearGradient id="paint6_linear_862_12556" x1="60.9411" y1="233.929" x2="214.8" y2="233.929" gradientUnits="userSpaceOnUse">
<stop stop-color="#CCCCCC"/>
<stop offset="0.05" stop-color="#D5D5D5"/>
<stop offset="0.2" stop-color="#E9E9E9"/>
<stop offset="0.35" stop-color="#F6F6F6"/>
<stop offset="0.5" stop-color="#FAFAFA"/>
<stop offset="0.65" stop-color="#F6F6F6"/>
<stop offset="0.8" stop-color="#E9E9E9"/>
<stop offset="0.95" stop-color="#D5D5D5"/>
<stop offset="1" stop-color="#CCCCCC"/>
</linearGradient>
<linearGradient id="paint7_linear_862_12556" x1="137.9" y1="315.128" x2="137.9" y2="152.051" gradientUnits="userSpaceOnUse">
<stop stop-color="#FFDE43"/>
<stop offset="0.22" stop-color="#FED93F"/>
<stop offset="0.51" stop-color="#FCC934"/>
<stop offset="0.82" stop-color="#F9AF21"/>
<stop offset="1" stop-color="#F79D14"/>
</linearGradient>
<linearGradient id="paint8_linear_862_12556" x1="423.059" y1="233.929" x2="269.2" y2="233.929" gradientUnits="userSpaceOnUse">
<stop stop-color="#CCCCCC"/>
<stop offset="0.05" stop-color="#D5D5D5"/>
<stop offset="0.2" stop-color="#E9E9E9"/>
<stop offset="0.35" stop-color="#F6F6F6"/>
<stop offset="0.5" stop-color="#FAFAFA"/>
<stop offset="0.65" stop-color="#F6F6F6"/>
<stop offset="0.8" stop-color="#E9E9E9"/>
<stop offset="0.95" stop-color="#D5D5D5"/>
<stop offset="1" stop-color="#CCCCCC"/>
</linearGradient>
<linearGradient id="paint9_linear_862_12556" x1="346.1" y1="315.128" x2="346.1" y2="152.051" gradientUnits="userSpaceOnUse">
<stop stop-color="#FFDE43"/>
<stop offset="0.22" stop-color="#FED93F"/>
<stop offset="0.51" stop-color="#FCC934"/>
<stop offset="0.82" stop-color="#F9AF21"/>
<stop offset="1" stop-color="#F79D14"/>
</linearGradient>
</defs>
</svg>
