<svg width="483" height="529" viewBox="0 0 483 529" fill="none" xmlns="http://www.w3.org/2000/svg">
<path d="M241.18 482.36C374.38 482.36 482.36 374.38 482.36 241.18C482.36 107.98 374.38 0 241.18 0C107.98 0 0 107.98 0 241.18C0 374.38 107.98 482.36 241.18 482.36Z" fill="url(#paint0_radial_862_12483)"/>
<g style="mix-blend-mode:soft-light">
<path d="M241.18 482.36C374.38 482.36 482.36 374.38 482.36 241.18C482.36 107.98 374.38 0 241.18 0C107.98 0 0 107.98 0 241.18C0 374.38 107.98 482.36 241.18 482.36Z" fill="url(#paint1_radial_862_12483)"/>
</g>
<g style="mix-blend-mode:soft-light">
<path d="M241.18 482.36C374.38 482.36 482.36 374.38 482.36 241.18C482.36 107.98 374.38 0 241.18 0C107.98 0 0 107.98 0 241.18C0 374.38 107.98 482.36 241.18 482.36Z" fill="url(#paint2_radial_862_12483)"/>
</g>
<g style="mix-blend-mode:overlay">
<path d="M241.18 482.36C374.38 482.36 482.36 374.38 482.36 241.18C482.36 107.98 374.38 0 241.18 0C107.98 0 0 107.98 0 241.18C0 374.38 107.98 482.36 241.18 482.36Z" fill="url(#paint3_radial_862_12483)" fill-opacity="0.7"/>
</g>
<mask id="mask0_862_12483" style="mask-type:alpha" maskUnits="userSpaceOnUse" x="0" y="0" width="483" height="483">
<path d="M241.18 482.36C374.38 482.36 482.36 374.38 482.36 241.18C482.36 107.98 374.38 0 241.18 0C107.98 0 0 107.98 0 241.18C0 374.38 107.98 482.36 241.18 482.36Z" fill="white"/>
</mask>
<g mask="url(#mask0_862_12483)">
<g filter="url(#filter0_f_862_12483)">
<path d="M-1.3759 234.299C-1.11402 230.872 0.0137008 230.529 0.342619 234.008C0.708055 237.874 -0.00231624 245.646 0.16871 250.335C0.621554 262.748 2.52441 273.541 4.48605 282.32C10.8075 310.612 19.5617 328.843 27.7268 344.288C54.5663 395.06 83.9667 420.77 112.648 440.147C154.689 468.549 197.072 477.584 239.49 479.5C240.56 479.548 240.738 486.518 239.686 487.425C237.788 489.061 235.436 487.437 233.494 487.369C227.915 487.174 222.335 486.791 216.756 486.211C200.213 484.492 183.67 480.991 167.162 475.358C122.275 460.044 73.8765 433.821 31.6092 359.962C28.9502 355.316 26.3124 350.424 23.7118 345.167C21.6321 340.963 19.5726 336.556 17.5493 331.843C10.8946 316.342 -4.61323 276.658 -1.3759 234.299ZM239.52 487.5C238.499 487.531 238.241 481.034 239.214 479.685C240.684 477.647 242.888 479.326 244.439 479.229C250.877 478.826 257.314 478.229 263.75 477.421C281.395 475.205 299.028 471.422 316.621 465.596C360.257 451.145 407.17 429.115 448.305 361.431C450.923 357.123 453.518 352.553 456.079 347.641C463.86 332.712 483.361 293.084 481.107 243.821C480.917 239.668 482.181 237.181 482.747 240.743C483.467 245.279 483.175 254.736 482.977 259.768C482.341 275.883 479.866 289.512 477.257 300.518C468.987 335.399 457.376 355.623 446.744 372.51C412.184 427.397 374.648 449.524 338.155 465.424C305.424 479.686 272.444 486.484 239.52 487.5Z" fill="#401C02"/>
</g>
<g filter="url(#filter1_f_862_12483)">
<path d="M-1.3759 234.299C-1.11402 230.872 0.0137008 230.529 0.342619 234.008C0.708055 237.874 -0.00231624 245.646 0.16871 250.335C0.621554 262.748 2.52441 273.541 4.48605 282.32C10.8075 310.612 19.5617 328.843 27.7268 344.288C54.5663 395.06 83.9667 420.77 112.648 440.147C154.689 468.549 197.072 477.584 239.49 479.5C240.56 479.548 240.738 486.518 239.686 487.425C237.788 489.061 235.436 487.437 233.494 487.369C227.915 487.174 222.335 486.791 216.756 486.211C200.213 484.492 183.67 480.991 167.162 475.358C122.275 460.044 73.8765 433.821 31.6092 359.962C28.9502 355.316 26.3124 350.424 23.7118 345.167C21.6321 340.963 19.5726 336.556 17.5493 331.843C10.8946 316.342 -4.61323 276.658 -1.3759 234.299ZM239.52 487.5C238.499 487.531 238.241 481.034 239.214 479.685C240.684 477.647 242.888 479.326 244.439 479.229C250.877 478.826 257.314 478.229 263.75 477.421C281.395 475.205 299.028 471.422 316.621 465.596C360.257 451.145 407.17 429.115 448.305 361.431C450.923 357.123 453.518 352.553 456.079 347.641C463.86 332.712 483.361 293.084 481.107 243.821C480.917 239.668 482.181 237.181 482.747 240.743C483.467 245.279 483.175 254.736 482.977 259.768C482.341 275.883 479.866 289.512 477.257 300.518C468.987 335.399 457.376 355.623 446.744 372.51C412.184 427.397 374.648 449.524 338.155 465.424C305.424 479.686 272.444 486.484 239.52 487.5Z" fill="#401C02"/>
</g>
</g>
<g opacity="0.7">
<g filter="url(#filter2_f_862_12483)">
<circle cx="365" cy="272" r="50" fill="#E66200"/>
</g>
<g filter="url(#filter3_f_862_12483)">
<circle cx="118" cy="272" r="50" fill="#E66200"/>
</g>
</g>
<mask id="mask1_862_12483" style="mask-type:alpha" maskUnits="userSpaceOnUse" x="0" y="0" width="483" height="483">
<path d="M241.18 482.36C374.38 482.36 482.36 374.38 482.36 241.18C482.36 107.98 374.38 0 241.18 0C107.98 0 0 107.98 0 241.18C0 374.38 107.98 482.36 241.18 482.36Z" fill="url(#paint4_radial_862_12483)"/>
</mask>
<g mask="url(#mask1_862_12483)">
<g filter="url(#filter4_f_862_12483)">
<path d="M247.95 425.088C248.35 424.488 248.85 423.988 249.35 423.488C251.85 421.088 255.15 419.488 258.65 419.288C259.85 419.188 261.05 419.288 262.25 419.488L285.05 423.488C279.55 422.488 275.35 418.588 273.65 413.688C272.85 411.388 272.65 408.988 273.15 406.488C274.15 400.988 278.05 396.788 282.95 395.088C285.25 394.288 287.65 394.088 290.25 394.488L368.95 408.388C370.75 408.688 371.65 406.388 370.25 405.388L355.55 395.088C347.85 389.688 346.15 378.488 351.95 370.188C357.75 361.888 368.85 359.488 376.55 364.888L411.65 389.388C436.45 402.588 451.25 430.788 446.15 459.988L443.75 473.488C437.65 507.788 406.05 531.488 371.85 528.388C370.95 528.388 370.15 528.288 369.25 528.188L282.65 512.888C274.65 511.488 268.85 503.688 270.15 495.788C270.95 491.088 273.95 487.388 277.85 485.288C280.65 483.788 283.85 483.188 287.15 483.788L271.75 480.888C267.55 480.188 264.15 477.688 261.95 474.388C260.05 471.388 259.15 467.688 259.75 463.888C260.45 460.088 262.55 456.888 265.45 454.688C268.55 452.288 272.65 451.188 276.75 451.888L257.15 448.388C249.15 446.988 243.75 439.288 245.25 431.288C245.55 428.988 246.55 426.888 247.95 425.088Z" fill="#A43C00"/>
<mask id="mask2_862_12483" style="mask-type:alpha" maskUnits="userSpaceOnUse" x="245" y="362" width="203" height="167">
<path d="M247.95 425.088C248.35 424.488 248.85 423.988 249.35 423.488C251.85 421.088 255.15 419.488 258.65 419.288C259.85 419.188 261.05 419.288 262.25 419.488L285.05 423.488C279.55 422.488 275.35 418.588 273.65 413.688C272.85 411.388 272.65 408.988 273.15 406.488C274.15 400.988 278.05 396.788 282.95 395.088C285.25 394.288 287.65 394.088 290.25 394.488L368.95 408.388C370.75 408.688 371.65 406.388 370.25 405.388L355.55 395.088C347.85 389.688 346.15 378.488 351.95 370.188C357.75 361.888 368.85 359.488 376.55 364.888L411.65 389.388C436.45 402.588 451.25 430.788 446.15 459.988L443.75 473.488C437.65 507.788 406.05 531.488 371.85 528.388C370.95 528.388 370.15 528.288 369.25 528.188L282.65 512.888C274.65 511.488 268.85 503.688 270.15 495.788C270.95 491.088 273.95 487.388 277.85 485.288C280.65 483.788 283.85 483.188 287.15 483.788L271.75 480.888C267.55 480.188 264.15 477.688 261.95 474.388C260.05 471.388 259.15 467.688 259.75 463.888C260.45 460.088 262.55 456.888 265.45 454.688C268.55 452.288 272.65 451.188 276.75 451.888L257.15 448.388C249.15 446.988 243.75 439.288 245.25 431.288C245.55 428.988 246.55 426.888 247.95 425.088Z" fill="url(#paint5_radial_862_12483)"/>
</mask>
<g mask="url(#mask2_862_12483)">
<g style="mix-blend-mode:color-burn" filter="url(#filter5_f_862_12483)">
<path d="M417.904 394.073C408.904 388.173 400.004 382.273 391.104 376.273L377.804 367.173C376.704 366.373 375.704 365.773 374.504 365.173C373.304 364.673 372.104 364.273 370.904 364.073C368.404 363.673 365.804 363.873 363.404 364.573C358.504 365.973 354.404 369.673 352.204 374.273C350.004 378.873 349.804 384.373 351.904 389.073C352.904 391.373 354.504 393.473 356.604 394.973C358.704 396.573 360.804 398.273 362.904 399.973C367.104 403.373 371.204 406.773 375.304 410.273C370.804 407.273 366.404 404.273 362.004 401.073C359.804 399.473 357.704 397.973 355.504 396.373C353.204 394.673 351.404 392.373 350.204 389.873C347.804 384.673 348.004 378.573 350.504 373.473C352.904 368.373 357.504 364.373 363.004 362.773C365.704 361.973 368.604 361.773 371.404 362.273C372.804 362.573 374.204 362.973 375.404 363.573C376.704 364.173 377.904 364.973 379.004 365.773L392.104 375.073C400.604 381.373 409.304 387.673 417.904 394.073Z" fill="#A43C00"/>
<path d="M378.204 410.873C369.004 409.473 359.804 407.973 350.704 406.473L323.204 401.873C314.004 400.373 304.904 398.773 295.704 397.173L292.304 396.573C291.104 396.373 290.104 396.173 289.004 396.173C286.804 396.173 284.604 396.573 282.704 397.573C280.804 398.573 279.004 399.873 277.704 401.673C276.404 403.373 275.504 405.473 275.104 407.573C274.704 409.673 274.904 411.873 275.504 413.973C276.104 416.073 277.304 417.973 278.804 419.573C280.304 421.173 282.204 422.373 284.204 423.073C285.204 423.473 286.304 423.573 287.504 423.873L290.904 424.473C300.004 426.173 309.204 427.673 318.304 429.473L345.704 434.573C354.804 436.373 364.004 438.073 373.104 439.873C363.904 438.473 354.704 436.973 345.604 435.473L318.104 430.873C308.904 429.373 299.804 427.773 290.604 426.173L287.204 425.573C286.104 425.373 284.804 425.173 283.704 424.773C281.404 423.973 279.204 422.673 277.504 420.873C275.804 419.073 274.404 416.973 273.704 414.573C273.004 412.173 272.804 409.673 273.204 407.173C273.604 404.773 274.704 402.373 276.204 400.473C277.704 398.473 279.704 396.973 281.904 395.873C284.104 394.773 286.604 394.273 289.104 394.373C290.304 394.373 291.604 394.673 292.704 394.773L296.104 395.373C305.204 397.073 314.404 398.573 323.504 400.373L350.904 405.473C359.904 407.373 369.104 409.073 378.204 410.873Z" fill="#A43C00"/>
<path d="M345.104 464.873C340.904 464.273 336.704 463.573 332.604 462.973C328.404 462.273 324.204 461.673 320.104 460.973L295.104 456.873L282.604 454.673L279.504 454.173L277.904 453.873C277.404 453.773 276.904 453.773 276.404 453.673C274.404 453.473 272.404 453.773 270.604 454.473C266.904 455.873 263.804 458.873 262.504 462.573C261.804 464.473 261.504 466.373 261.704 468.373C261.804 470.373 262.404 472.273 263.404 473.973C265.304 477.473 268.704 480.073 272.604 480.873L285.104 483.073L297.604 485.273L310.104 487.573L335.004 492.273C343.304 493.873 351.604 495.473 359.904 497.073C351.504 495.773 343.204 494.473 334.804 493.073L309.804 488.973L297.304 486.873L284.604 485.073L272.104 482.873C267.704 481.973 263.704 479.073 261.504 475.173C259.304 471.273 258.904 466.373 260.504 462.073C262.104 457.873 265.604 454.373 269.804 452.873C271.904 452.073 274.204 451.773 276.404 451.973C277.004 451.973 277.504 452.073 278.104 452.173L279.704 452.473L282.804 453.073L295.304 455.373L320.204 460.073C324.404 460.873 328.504 461.673 332.704 462.473C336.804 463.173 341.004 464.073 345.104 464.873Z" fill="#A43C00"/>
<path d="M350.204 435.873C341.004 434.473 331.804 432.973 322.704 431.473L295.204 426.873C286.004 425.373 276.904 423.773 267.704 422.173L264.304 421.573C263.104 421.373 262.104 421.173 261.004 421.173C258.804 421.173 256.604 421.573 254.704 422.573C252.804 423.573 251.004 424.873 249.704 426.673C248.404 428.373 247.504 430.473 247.104 432.573C246.704 434.773 246.904 436.973 247.504 439.073C248.104 441.173 249.304 443.073 250.804 444.673C252.304 446.273 254.204 447.473 256.204 448.173C257.204 448.573 258.304 448.673 259.504 448.973L262.904 449.573C272.004 451.273 281.204 452.773 290.304 454.573L317.704 459.673C326.804 461.473 336.004 463.173 345.104 464.973C335.904 463.573 326.704 462.073 317.604 460.573L290.104 455.973C280.904 454.473 271.804 452.873 262.604 451.273L259.204 450.673C258.104 450.473 256.804 450.273 255.704 449.873C253.404 449.073 251.204 447.773 249.504 445.973C247.804 444.173 246.404 442.073 245.704 439.673C245.004 437.273 244.804 434.773 245.204 432.273C245.604 429.873 246.704 427.473 248.204 425.573C249.704 423.573 251.704 422.073 253.904 420.973C256.104 419.873 258.604 419.373 261.104 419.473C262.304 419.473 263.604 419.773 264.704 419.873L268.104 420.473C277.204 422.173 286.404 423.673 295.504 425.473L322.904 430.573C332.004 432.373 341.104 434.073 350.204 435.873Z" fill="#A43C00"/>
</g>
</g>
<path d="M234.202 425.088C233.802 424.488 233.302 423.988 232.802 423.488C230.302 421.088 227.002 419.488 223.502 419.288C222.302 419.188 221.102 419.288 219.902 419.488L197.102 423.488C202.602 422.488 206.802 418.588 208.502 413.688C209.302 411.388 209.502 408.988 209.002 406.488C208.002 400.988 204.102 396.788 199.202 395.088C196.902 394.288 194.502 394.088 191.902 394.488L113.202 408.388C111.402 408.688 110.502 406.388 111.902 405.388L126.602 395.088C134.302 389.688 136.002 378.488 130.202 370.188C124.402 361.888 113.302 359.488 105.602 364.888L70.502 389.388C45.702 402.588 30.9019 430.788 36.002 459.988L38.4019 473.488C44.502 507.788 76.102 531.488 110.302 528.388C111.202 528.388 112.002 528.288 112.902 528.188L199.502 512.888C207.502 511.488 213.302 503.688 212.002 495.788C211.202 491.088 208.202 487.388 204.302 485.288C201.502 483.788 198.302 483.188 195.002 483.788L210.402 480.888C214.602 480.188 218.002 477.688 220.202 474.388C222.102 471.388 223.002 467.688 222.402 463.888C221.702 460.088 219.602 456.888 216.702 454.688C213.602 452.288 209.502 451.188 205.402 451.888L225.002 448.388C233.002 446.988 238.402 439.288 236.902 431.288C236.602 428.988 235.602 426.888 234.202 425.088Z" fill="#A43C00"/>
<mask id="mask3_862_12483" style="mask-type:alpha" maskUnits="userSpaceOnUse" x="35" y="362" width="203" height="167">
<path d="M234.202 425.088C233.802 424.488 233.302 423.988 232.802 423.488C230.302 421.088 227.002 419.488 223.502 419.288C222.302 419.188 221.102 419.288 219.902 419.488L197.102 423.488C202.602 422.488 206.802 418.588 208.502 413.688C209.302 411.388 209.502 408.988 209.002 406.488C208.002 400.988 204.102 396.788 199.202 395.088C196.902 394.288 194.502 394.088 191.902 394.488L113.202 408.388C111.402 408.688 110.502 406.388 111.902 405.388L126.602 395.088C134.302 389.688 136.002 378.488 130.202 370.188C124.402 361.888 113.302 359.488 105.602 364.888L70.502 389.388C45.702 402.588 30.9019 430.788 36.002 459.988L38.4019 473.488C44.502 507.788 76.102 531.488 110.302 528.388C111.202 528.388 112.002 528.288 112.902 528.188L199.502 512.888C207.502 511.488 213.302 503.688 212.002 495.788C211.202 491.088 208.202 487.388 204.302 485.288C201.502 483.788 198.302 483.188 195.002 483.788L210.402 480.888C214.602 480.188 218.002 477.688 220.202 474.388C222.102 471.388 223.002 467.688 222.402 463.888C221.702 460.088 219.602 456.888 216.702 454.688C213.602 452.288 209.502 451.188 205.402 451.888L225.002 448.388C233.002 446.988 238.402 439.288 236.902 431.288C236.602 428.988 235.602 426.888 234.202 425.088Z" fill="url(#paint6_radial_862_12483)"/>
</mask>
<g mask="url(#mask3_862_12483)">
<g style="mix-blend-mode:color-burn" filter="url(#filter6_f_862_12483)">
<path d="M64.2483 394.073C73.2483 388.173 82.1484 382.273 91.0484 376.273L104.348 367.173C105.448 366.373 106.448 365.773 107.648 365.173C108.848 364.673 110.048 364.273 111.248 364.073C113.748 363.673 116.348 363.873 118.748 364.573C123.648 365.973 127.748 369.673 129.948 374.273C132.148 378.873 132.348 384.373 130.248 389.073C129.248 391.373 127.648 393.473 125.548 394.973C123.448 396.573 121.348 398.273 119.248 399.973C115.048 403.373 110.948 406.773 106.848 410.273C111.348 407.273 115.748 404.273 120.148 401.073C122.348 399.473 124.448 397.973 126.648 396.373C128.948 394.673 130.748 392.373 131.948 389.873C134.348 384.673 134.148 378.573 131.648 373.473C129.248 368.373 124.648 364.373 119.148 362.773C116.448 361.973 113.548 361.773 110.748 362.273C109.348 362.573 107.948 362.973 106.748 363.573C105.448 364.173 104.248 364.973 103.148 365.773L90.0484 375.073C81.5484 381.373 72.8483 387.673 64.2483 394.073Z" fill="#A43C00"/>
<path d="M103.948 410.873C113.148 409.473 122.348 407.973 131.448 406.473L158.948 401.873C168.148 400.373 177.248 398.773 186.448 397.173L189.848 396.573C191.048 396.373 192.048 396.173 193.148 396.173C195.348 396.173 197.548 396.573 199.448 397.573C201.348 398.573 203.148 399.873 204.448 401.673C205.748 403.373 206.648 405.473 207.048 407.573C207.448 409.673 207.248 411.873 206.648 413.973C206.048 416.073 204.848 417.973 203.348 419.573C201.848 421.173 199.948 422.373 197.948 423.073C196.948 423.473 195.848 423.573 194.648 423.873L191.248 424.473C182.148 426.173 172.948 427.673 163.848 429.473L136.448 434.573C127.348 436.373 118.148 438.073 109.048 439.873C118.248 438.473 127.448 436.973 136.548 435.473L164.048 430.873C173.248 429.373 182.348 427.773 191.548 426.173L194.948 425.573C196.048 425.373 197.348 425.173 198.448 424.773C200.748 423.973 202.948 422.673 204.648 420.873C206.348 419.073 207.748 416.973 208.448 414.573C209.148 412.173 209.348 409.673 208.948 407.173C208.548 404.773 207.448 402.373 205.948 400.473C204.448 398.473 202.448 396.973 200.248 395.873C198.048 394.773 195.548 394.273 193.048 394.373C191.848 394.373 190.548 394.673 189.448 394.773L186.048 395.373C176.948 397.073 167.748 398.573 158.648 400.373L131.248 405.473C122.248 407.373 113.048 409.073 103.948 410.873Z" fill="#A43C00"/>
<path d="M137.048 464.873C141.248 464.273 145.448 463.573 149.548 462.973C153.748 462.273 157.948 461.673 162.048 460.973L187.048 456.873L199.548 454.673L202.648 454.173L204.248 453.873C204.748 453.773 205.248 453.773 205.748 453.673C207.748 453.473 209.748 453.773 211.548 454.473C215.248 455.873 218.348 458.873 219.648 462.573C220.348 464.473 220.648 466.373 220.448 468.373C220.348 470.373 219.748 472.273 218.748 473.973C216.848 477.473 213.448 480.073 209.548 480.873L197.048 483.073L184.548 485.273L172.048 487.573L147.148 492.273C138.848 493.873 130.548 495.473 122.248 497.073C130.648 495.773 138.948 494.473 147.348 493.073L172.348 488.973L184.848 486.873L197.548 485.073L210.048 482.873C214.448 481.973 218.448 479.073 220.648 475.173C222.848 471.273 223.248 466.373 221.648 462.073C220.048 457.873 216.548 454.373 212.348 452.873C210.248 452.073 207.948 451.773 205.748 451.973C205.148 451.973 204.648 452.073 204.048 452.173L202.448 452.473L199.348 453.073L186.848 455.373L161.948 460.073C157.748 460.873 153.648 461.673 149.448 462.473C145.348 463.173 141.148 464.073 137.048 464.873Z" fill="#A43C00"/>
<path d="M131.948 435.873C141.148 434.473 150.348 432.973 159.448 431.473L186.948 426.873C196.148 425.373 205.248 423.773 214.448 422.173L217.848 421.573C219.048 421.373 220.048 421.173 221.148 421.173C223.348 421.173 225.548 421.573 227.448 422.573C229.348 423.573 231.148 424.873 232.448 426.673C233.748 428.373 234.648 430.473 235.048 432.573C235.448 434.773 235.248 436.973 234.648 439.073C234.048 441.173 232.848 443.073 231.348 444.673C229.848 446.273 227.948 447.473 225.948 448.173C224.948 448.573 223.848 448.673 222.648 448.973L219.248 449.573C210.148 451.273 200.948 452.773 191.848 454.573L164.448 459.673C155.348 461.473 146.148 463.173 137.048 464.973C146.248 463.573 155.448 462.073 164.548 460.573L192.048 455.973C201.248 454.473 210.348 452.873 219.548 451.273L222.948 450.673C224.048 450.473 225.348 450.273 226.448 449.873C228.748 449.073 230.948 447.773 232.648 445.973C234.348 444.173 235.748 442.073 236.448 439.673C237.148 437.273 237.348 434.773 236.948 432.273C236.548 429.873 235.448 427.473 233.948 425.573C232.448 423.573 230.448 422.073 228.248 420.973C226.048 419.873 223.548 419.373 221.048 419.473C219.848 419.473 218.548 419.773 217.448 419.873L214.048 420.473C204.948 422.173 195.748 423.673 186.648 425.473L159.248 430.573C150.148 432.373 141.048 434.073 131.948 435.873Z" fill="#A43C00"/>
</g>
</g>
</g>
</g>
<path d="M247.95 425.088C248.35 424.488 248.85 423.988 249.35 423.488C251.85 421.088 255.15 419.488 258.65 419.288C259.85 419.188 261.05 419.288 262.25 419.488L285.05 423.488C279.55 422.488 275.35 418.588 273.65 413.688C272.85 411.388 272.65 408.988 273.15 406.488C274.15 400.988 278.05 396.788 282.95 395.088C285.25 394.288 287.65 394.088 290.25 394.488L368.95 408.388C370.75 408.688 371.65 406.388 370.25 405.388L355.55 395.088C347.85 389.688 346.15 378.488 351.95 370.188C357.75 361.888 368.85 359.488 376.55 364.888L411.65 389.388C436.45 402.588 451.25 430.788 446.15 459.988L443.75 473.488C437.65 507.788 406.05 531.488 371.85 528.388C370.95 528.388 370.15 528.288 369.25 528.188L282.65 512.888C274.65 511.488 268.85 503.688 270.15 495.788C270.95 491.088 273.95 487.388 277.85 485.288C280.65 483.788 283.85 483.188 287.15 483.788L271.75 480.888C267.55 480.188 264.15 477.688 261.95 474.388C260.05 471.388 259.15 467.688 259.75 463.888C260.45 460.088 262.55 456.888 265.45 454.688C268.55 452.288 272.65 451.188 276.75 451.888L257.15 448.388C249.15 446.988 243.75 439.288 245.25 431.288C245.55 428.988 246.55 426.888 247.95 425.088Z" fill="url(#paint7_radial_862_12483)"/>
<g style="mix-blend-mode:color-burn">
<mask id="mask4_862_12483" style="mask-type:alpha" maskUnits="userSpaceOnUse" x="245" y="362" width="203" height="167">
<path d="M247.95 425.088C248.35 424.488 248.85 423.988 249.35 423.488C251.85 421.088 255.15 419.488 258.65 419.288C259.85 419.188 261.05 419.288 262.25 419.488L285.05 423.488C279.55 422.488 275.35 418.588 273.65 413.688C272.85 411.388 272.65 408.988 273.15 406.488C274.15 400.988 278.05 396.788 282.95 395.088C285.25 394.288 287.65 394.088 290.25 394.488L368.95 408.388C370.75 408.688 371.65 406.388 370.25 405.388L355.55 395.088C347.85 389.688 346.15 378.488 351.95 370.188C357.75 361.888 368.85 359.488 376.55 364.888L411.65 389.388C436.45 402.588 451.25 430.788 446.15 459.988L443.75 473.488C437.65 507.788 406.05 531.488 371.85 528.388C370.95 528.388 370.15 528.288 369.25 528.188L282.65 512.888C274.65 511.488 268.85 503.688 270.15 495.788C270.95 491.088 273.95 487.388 277.85 485.288C280.65 483.788 283.85 483.188 287.15 483.788L271.75 480.888C267.55 480.188 264.15 477.688 261.95 474.388C260.05 471.388 259.15 467.688 259.75 463.888C260.45 460.088 262.55 456.888 265.45 454.688C268.55 452.288 272.65 451.188 276.75 451.888L257.15 448.388C249.15 446.988 243.75 439.288 245.25 431.288C245.55 428.988 246.55 426.888 247.95 425.088Z" fill="url(#paint8_radial_862_12483)"/>
</mask>
<g mask="url(#mask4_862_12483)">
<g style="mix-blend-mode:color-burn" filter="url(#filter7_f_862_12483)">
<path d="M417.904 394.073C408.904 388.173 400.004 382.273 391.104 376.273L377.804 367.173C376.704 366.373 375.704 365.773 374.504 365.173C373.304 364.673 372.104 364.273 370.904 364.073C368.404 363.673 365.804 363.873 363.404 364.573C358.504 365.973 354.404 369.673 352.204 374.273C350.004 378.873 349.804 384.373 351.904 389.073C352.904 391.373 354.504 393.473 356.604 394.973C358.704 396.573 360.804 398.273 362.904 399.973C367.104 403.373 371.204 406.773 375.304 410.273C370.804 407.273 366.404 404.273 362.004 401.073C359.804 399.473 357.704 397.973 355.504 396.373C353.204 394.673 351.404 392.373 350.204 389.873C347.804 384.673 348.004 378.573 350.504 373.473C352.904 368.373 357.504 364.373 363.004 362.773C365.704 361.973 368.604 361.773 371.404 362.273C372.804 362.573 374.204 362.973 375.404 363.573C376.704 364.173 377.904 364.973 379.004 365.773L392.104 375.073C400.604 381.373 409.304 387.673 417.904 394.073Z" fill="#633617"/>
<path d="M378.204 410.873C369.004 409.473 359.804 407.973 350.704 406.473L323.204 401.873C314.004 400.373 304.904 398.773 295.704 397.173L292.304 396.573C291.104 396.373 290.104 396.173 289.004 396.173C286.804 396.173 284.604 396.573 282.704 397.573C280.804 398.573 279.004 399.873 277.704 401.673C276.404 403.373 275.504 405.473 275.104 407.573C274.704 409.673 274.904 411.873 275.504 413.973C276.104 416.073 277.304 417.973 278.804 419.573C280.304 421.173 282.204 422.373 284.204 423.073C285.204 423.473 286.304 423.573 287.504 423.873L290.904 424.473C300.004 426.173 309.204 427.673 318.304 429.473L345.704 434.573C354.804 436.373 364.004 438.073 373.104 439.873C363.904 438.473 354.704 436.973 345.604 435.473L318.104 430.873C308.904 429.373 299.804 427.773 290.604 426.173L287.204 425.573C286.104 425.373 284.804 425.173 283.704 424.773C281.404 423.973 279.204 422.673 277.504 420.873C275.804 419.073 274.404 416.973 273.704 414.573C273.004 412.173 272.804 409.673 273.204 407.173C273.604 404.773 274.704 402.373 276.204 400.473C277.704 398.473 279.704 396.973 281.904 395.873C284.104 394.773 286.604 394.273 289.104 394.373C290.304 394.373 291.604 394.673 292.704 394.773L296.104 395.373C305.204 397.073 314.404 398.573 323.504 400.373L350.904 405.473C359.904 407.373 369.104 409.073 378.204 410.873Z" fill="#42210B"/>
<path d="M345.104 464.873C340.904 464.273 336.704 463.573 332.604 462.973C328.404 462.273 324.204 461.673 320.104 460.973L295.104 456.873L282.604 454.673L279.504 454.173L277.904 453.873C277.404 453.773 276.904 453.773 276.404 453.673C274.404 453.473 272.404 453.773 270.604 454.473C266.904 455.873 263.804 458.873 262.504 462.573C261.804 464.473 261.504 466.373 261.704 468.373C261.804 470.373 262.404 472.273 263.404 473.973C265.304 477.473 268.704 480.073 272.604 480.873L285.104 483.073L297.604 485.273L310.104 487.573L335.004 492.273C343.304 493.873 351.604 495.473 359.904 497.073C351.504 495.773 343.204 494.473 334.804 493.073L309.804 488.973L297.304 486.873L284.604 485.073L272.104 482.873C267.704 481.973 263.704 479.073 261.504 475.173C259.304 471.273 258.904 466.373 260.504 462.073C262.104 457.873 265.604 454.373 269.804 452.873C271.904 452.073 274.204 451.773 276.404 451.973C277.004 451.973 277.504 452.073 278.104 452.173L279.704 452.473L282.804 453.073L295.304 455.373L320.204 460.073C324.404 460.873 328.504 461.673 332.704 462.473C336.804 463.173 341.004 464.073 345.104 464.873Z" fill="#42210B"/>
<path d="M336.104 493.273C328.504 492.273 321.004 491.173 313.404 489.873L302.104 488.073L290.804 486.173L288.004 485.673C287.104 485.473 286.204 485.473 285.304 485.473C283.504 485.473 281.704 485.873 280.104 486.673C276.804 488.073 274.104 490.873 272.804 494.173C271.504 497.473 271.504 501.273 272.904 504.573C274.304 507.873 277.004 510.573 280.304 511.973C281.104 512.273 282.004 512.573 282.904 512.773C283.804 512.973 284.804 513.073 285.704 513.273L291.304 514.273L302.604 516.273C310.104 517.573 317.604 519.073 325.104 520.473C340.104 523.273 355.104 526.073 370.104 529.073C355.004 526.773 339.904 524.273 324.804 521.773C317.304 520.473 309.704 519.273 302.204 517.973L290.904 516.073L285.304 515.073C284.304 514.873 283.404 514.773 282.504 514.573C281.504 514.373 280.504 514.073 279.604 513.673C275.804 512.073 272.804 509.073 271.204 505.273C269.604 501.573 269.504 497.173 271.104 493.373C272.604 489.573 275.704 486.473 279.404 484.873C281.304 484.073 283.304 483.573 285.304 483.573C286.304 483.573 287.304 483.673 288.304 483.773L291.104 484.273L302.404 486.373L313.604 488.573C321.104 490.073 328.604 491.573 336.104 493.273Z" fill="#42210B"/>
<path d="M350.204 435.873C341.004 434.473 331.804 432.973 322.704 431.473L295.204 426.873C286.004 425.373 276.904 423.773 267.704 422.173L264.304 421.573C263.104 421.373 262.104 421.173 261.004 421.173C258.804 421.173 256.604 421.573 254.704 422.573C252.804 423.573 251.004 424.873 249.704 426.673C248.404 428.373 247.504 430.473 247.104 432.573C246.704 434.773 246.904 436.973 247.504 439.073C248.104 441.173 249.304 443.073 250.804 444.673C252.304 446.273 254.204 447.473 256.204 448.173C257.204 448.573 258.304 448.673 259.504 448.973L262.904 449.573C272.004 451.273 281.204 452.773 290.304 454.573L317.704 459.673C326.804 461.473 336.004 463.173 345.104 464.973C335.904 463.573 326.704 462.073 317.604 460.573L290.104 455.973C280.904 454.473 271.804 452.873 262.604 451.273L259.204 450.673C258.104 450.473 256.804 450.273 255.704 449.873C253.404 449.073 251.204 447.773 249.504 445.973C247.804 444.173 246.404 442.073 245.704 439.673C245.004 437.273 244.804 434.773 245.204 432.273C245.604 429.873 246.704 427.473 248.204 425.573C249.704 423.573 251.704 422.073 253.904 420.973C256.104 419.873 258.604 419.373 261.104 419.473C262.304 419.473 263.604 419.773 264.704 419.873L268.104 420.473C277.204 422.173 286.404 423.673 295.504 425.473L322.904 430.573C332.004 432.373 341.104 434.073 350.204 435.873Z" fill="#42210B"/>
</g>
</g>
</g>
<path d="M234.202 425.088C233.802 424.488 233.302 423.988 232.802 423.488C230.302 421.088 227.002 419.488 223.502 419.288C222.302 419.188 221.102 419.288 219.902 419.488L197.102 423.488C202.602 422.488 206.802 418.588 208.502 413.688C209.302 411.388 209.502 408.988 209.002 406.488C208.002 400.988 204.102 396.788 199.202 395.088C196.902 394.288 194.502 394.088 191.902 394.488L113.202 408.388C111.402 408.688 110.502 406.388 111.902 405.388L126.602 395.088C134.302 389.688 136.002 378.488 130.202 370.188C124.402 361.888 113.302 359.488 105.602 364.888L70.502 389.388C45.702 402.588 30.9019 430.788 36.002 459.988L38.4019 473.488C44.502 507.788 76.102 531.488 110.302 528.388C111.202 528.388 112.002 528.288 112.902 528.188L199.502 512.888C207.502 511.488 213.302 503.688 212.002 495.788C211.202 491.088 208.202 487.388 204.302 485.288C201.502 483.788 198.302 483.188 195.002 483.788L210.402 480.888C214.602 480.188 218.002 477.688 220.202 474.388C222.102 471.388 223.002 467.688 222.402 463.888C221.702 460.088 219.602 456.888 216.702 454.688C213.602 452.288 209.502 451.188 205.402 451.888L225.002 448.388C233.002 446.988 238.402 439.288 236.902 431.288C236.602 428.988 235.602 426.888 234.202 425.088Z" fill="url(#paint9_radial_862_12483)"/>
<g style="mix-blend-mode:color-burn">
<mask id="mask5_862_12483" style="mask-type:alpha" maskUnits="userSpaceOnUse" x="35" y="362" width="203" height="167">
<path d="M234.202 425.088C233.802 424.488 233.302 423.988 232.802 423.488C230.302 421.088 227.002 419.488 223.502 419.288C222.302 419.188 221.102 419.288 219.902 419.488L197.102 423.488C202.602 422.488 206.802 418.588 208.502 413.688C209.302 411.388 209.502 408.988 209.002 406.488C208.002 400.988 204.102 396.788 199.202 395.088C196.902 394.288 194.502 394.088 191.902 394.488L113.202 408.388C111.402 408.688 110.502 406.388 111.902 405.388L126.602 395.088C134.302 389.688 136.002 378.488 130.202 370.188C124.402 361.888 113.302 359.488 105.602 364.888L70.502 389.388C45.702 402.588 30.9019 430.788 36.002 459.988L38.4019 473.488C44.502 507.788 76.102 531.488 110.302 528.388C111.202 528.388 112.002 528.288 112.902 528.188L199.502 512.888C207.502 511.488 213.302 503.688 212.002 495.788C211.202 491.088 208.202 487.388 204.302 485.288C201.502 483.788 198.302 483.188 195.002 483.788L210.402 480.888C214.602 480.188 218.002 477.688 220.202 474.388C222.102 471.388 223.002 467.688 222.402 463.888C221.702 460.088 219.602 456.888 216.702 454.688C213.602 452.288 209.502 451.188 205.402 451.888L225.002 448.388C233.002 446.988 238.402 439.288 236.902 431.288C236.602 428.988 235.602 426.888 234.202 425.088Z" fill="url(#paint10_radial_862_12483)"/>
</mask>
<g mask="url(#mask5_862_12483)">
<g style="mix-blend-mode:color-burn" filter="url(#filter8_f_862_12483)">
<path d="M64.2483 394.073C73.2483 388.173 82.1484 382.273 91.0484 376.273L104.348 367.173C105.448 366.373 106.448 365.773 107.648 365.173C108.848 364.673 110.048 364.273 111.248 364.073C113.748 363.673 116.348 363.873 118.748 364.573C123.648 365.973 127.748 369.673 129.948 374.273C132.148 378.873 132.348 384.373 130.248 389.073C129.248 391.373 127.648 393.473 125.548 394.973C123.448 396.573 121.348 398.273 119.248 399.973C115.048 403.373 110.948 406.773 106.848 410.273C111.348 407.273 115.748 404.273 120.148 401.073C122.348 399.473 124.448 397.973 126.648 396.373C128.948 394.673 130.748 392.373 131.948 389.873C134.348 384.673 134.148 378.573 131.648 373.473C129.248 368.373 124.648 364.373 119.148 362.773C116.448 361.973 113.548 361.773 110.748 362.273C109.348 362.573 107.948 362.973 106.748 363.573C105.448 364.173 104.248 364.973 103.148 365.773L90.0484 375.073C81.5484 381.373 72.8483 387.673 64.2483 394.073Z" fill="#633617"/>
<path d="M103.948 410.873C113.148 409.473 122.348 407.973 131.448 406.473L158.948 401.873C168.148 400.373 177.248 398.773 186.448 397.173L189.848 396.573C191.048 396.373 192.048 396.173 193.148 396.173C195.348 396.173 197.548 396.573 199.448 397.573C201.348 398.573 203.148 399.873 204.448 401.673C205.748 403.373 206.648 405.473 207.048 407.573C207.448 409.673 207.248 411.873 206.648 413.973C206.048 416.073 204.848 417.973 203.348 419.573C201.848 421.173 199.948 422.373 197.948 423.073C196.948 423.473 195.848 423.573 194.648 423.873L191.248 424.473C182.148 426.173 172.948 427.673 163.848 429.473L136.448 434.573C127.348 436.373 118.148 438.073 109.048 439.873C118.248 438.473 127.448 436.973 136.548 435.473L164.048 430.873C173.248 429.373 182.348 427.773 191.548 426.173L194.948 425.573C196.048 425.373 197.348 425.173 198.448 424.773C200.748 423.973 202.948 422.673 204.648 420.873C206.348 419.073 207.748 416.973 208.448 414.573C209.148 412.173 209.348 409.673 208.948 407.173C208.548 404.773 207.448 402.373 205.948 400.473C204.448 398.473 202.448 396.973 200.248 395.873C198.048 394.773 195.548 394.273 193.048 394.373C191.848 394.373 190.548 394.673 189.448 394.773L186.048 395.373C176.948 397.073 167.748 398.573 158.648 400.373L131.248 405.473C122.248 407.373 113.048 409.073 103.948 410.873Z" fill="#42210B"/>
<path d="M137.048 464.873C141.248 464.273 145.448 463.573 149.548 462.973C153.748 462.273 157.948 461.673 162.048 460.973L187.048 456.873L199.548 454.673L202.648 454.173L204.248 453.873C204.748 453.773 205.248 453.773 205.748 453.673C207.748 453.473 209.748 453.773 211.548 454.473C215.248 455.873 218.348 458.873 219.648 462.573C220.348 464.473 220.648 466.373 220.448 468.373C220.348 470.373 219.748 472.273 218.748 473.973C216.848 477.473 213.448 480.073 209.548 480.873L197.048 483.073L184.548 485.273L172.048 487.573L147.148 492.273C138.848 493.873 130.548 495.473 122.248 497.073C130.648 495.773 138.948 494.473 147.348 493.073L172.348 488.973L184.848 486.873L197.548 485.073L210.048 482.873C214.448 481.973 218.448 479.073 220.648 475.173C222.848 471.273 223.248 466.373 221.648 462.073C220.048 457.873 216.548 454.373 212.348 452.873C210.248 452.073 207.948 451.773 205.748 451.973C205.148 451.973 204.648 452.073 204.048 452.173L202.448 452.473L199.348 453.073L186.848 455.373L161.948 460.073C157.748 460.873 153.648 461.673 149.448 462.473C145.348 463.173 141.148 464.073 137.048 464.873Z" fill="#42210B"/>
<path d="M146.048 493.273C153.648 492.273 161.148 491.173 168.748 489.873L180.048 488.073L191.348 486.173L194.148 485.673C195.048 485.473 195.948 485.473 196.848 485.473C198.648 485.473 200.448 485.873 202.048 486.673C205.348 488.073 208.048 490.873 209.348 494.173C210.648 497.473 210.648 501.273 209.248 504.573C207.848 507.873 205.148 510.573 201.848 511.973C201.048 512.273 200.148 512.573 199.248 512.773C198.348 512.973 197.348 513.073 196.448 513.273L190.848 514.273L179.548 516.273C172.048 517.573 164.548 519.073 157.048 520.473C142.048 523.273 127.048 526.073 112.048 529.073C127.148 526.773 142.248 524.273 157.348 521.773C164.848 520.473 172.448 519.273 179.948 517.973L191.248 516.073L196.848 515.073C197.848 514.873 198.748 514.773 199.648 514.573C200.648 514.373 201.648 514.073 202.548 513.673C206.348 512.073 209.348 509.073 210.948 505.273C212.548 501.573 212.648 497.173 211.048 493.373C209.548 489.573 206.448 486.473 202.748 484.873C200.848 484.073 198.848 483.573 196.848 483.573C195.848 483.573 194.848 483.673 193.848 483.773L191.048 484.273L179.748 486.373L168.548 488.573C161.048 490.073 153.548 491.573 146.048 493.273Z" fill="#42210B"/>
<path d="M131.948 435.873C141.148 434.473 150.348 432.973 159.448 431.473L186.948 426.873C196.148 425.373 205.248 423.773 214.448 422.173L217.848 421.573C219.048 421.373 220.048 421.173 221.148 421.173C223.348 421.173 225.548 421.573 227.448 422.573C229.348 423.573 231.148 424.873 232.448 426.673C233.748 428.373 234.648 430.473 235.048 432.573C235.448 434.773 235.248 436.973 234.648 439.073C234.048 441.173 232.848 443.073 231.348 444.673C229.848 446.273 227.948 447.473 225.948 448.173C224.948 448.573 223.848 448.673 222.648 448.973L219.248 449.573C210.148 451.273 200.948 452.773 191.848 454.573L164.448 459.673C155.348 461.473 146.148 463.173 137.048 464.973C146.248 463.573 155.448 462.073 164.548 460.573L192.048 455.973C201.248 454.473 210.348 452.873 219.548 451.273L222.948 450.673C224.048 450.473 225.348 450.273 226.448 449.873C228.748 449.073 230.948 447.773 232.648 445.973C234.348 444.173 235.748 442.073 236.448 439.673C237.148 437.273 237.348 434.773 236.948 432.273C236.548 429.873 235.448 427.473 233.948 425.573C232.448 423.573 230.448 422.073 228.248 420.973C226.048 419.873 223.548 419.373 221.048 419.473C219.848 419.473 218.548 419.773 217.448 419.873L214.048 420.473C204.948 422.173 195.748 423.673 186.648 425.473L159.248 430.573C150.148 432.373 141.048 434.073 131.948 435.873Z" fill="#42210B"/>
</g>
</g>
</g>
<path d="M348.958 281.73C303.058 362.14 179.328 362.19 133.548 281.65C131.618 278.26 135.188 274.38 138.048 276.73C167.108 300.669 203.583 313.765 241.233 313.78C278.884 313.794 315.369 300.726 344.448 276.81C347.308 274.45 350.888 278.34 348.958 281.73Z" fill="url(#paint11_radial_862_12483)"/>
<path d="M348.958 281.73C303.058 362.14 179.328 362.19 133.548 281.65C131.618 278.26 135.188 274.38 138.048 276.73C167.108 300.669 203.583 313.765 241.233 313.78C278.884 313.794 315.369 300.726 344.448 276.81C347.308 274.45 350.888 278.34 348.958 281.73Z" stroke="url(#paint12_linear_862_12483)" stroke-width="2.5" stroke-miterlimit="10"/>
<path d="M206.58 198.27C206.604 205.376 205.228 212.416 202.53 218.99C202.149 219.809 201.535 220.498 200.765 220.971C199.995 221.443 199.103 221.68 198.2 221.65C197.184 221.698 196.181 221.398 195.358 220.8C194.535 220.202 193.939 219.341 193.67 218.36C190.59 203.5 178.61 192.43 164.3 192.43C149.99 192.43 137.99 203.5 134.91 218.36C134.643 219.342 134.048 220.204 133.224 220.802C132.4 221.4 131.397 221.7 130.38 221.65C129.477 221.68 128.585 221.443 127.816 220.971C127.046 220.498 126.432 219.809 126.05 218.99C123.354 212.419 121.978 205.382 122 198.28C122 171.52 140.93 149.83 164.3 149.83C187.67 149.83 206.58 171.51 206.58 198.27Z" fill="url(#paint13_radial_862_12483)"/>
<path d="M206.58 198.27C206.604 205.376 205.228 212.416 202.53 218.99C202.149 219.809 201.535 220.498 200.765 220.971C199.995 221.443 199.103 221.68 198.2 221.65C197.184 221.698 196.181 221.398 195.358 220.8C194.535 220.202 193.939 219.341 193.67 218.36C190.59 203.5 178.61 192.43 164.3 192.43C149.99 192.43 137.99 203.5 134.91 218.36C134.643 219.342 134.048 220.204 133.224 220.802C132.4 221.4 131.397 221.7 130.38 221.65V221.65C129.477 221.68 128.585 221.443 127.816 220.971C127.046 220.498 126.432 219.809 126.05 218.99C123.354 212.419 121.978 205.382 122 198.28C122 171.52 140.93 149.83 164.3 149.83C187.67 149.83 206.58 171.51 206.58 198.27Z" stroke="url(#paint14_linear_862_12483)" stroke-width="2" stroke-miterlimit="10"/>
<path d="M360.961 198.27C360.984 205.376 359.608 212.416 356.911 218.99C356.527 219.81 355.911 220.499 355.14 220.972C354.368 221.445 353.475 221.68 352.571 221.65C351.554 221.698 350.552 221.398 349.728 220.8C348.905 220.202 348.31 219.341 348.041 218.36C344.961 203.5 332.981 192.43 318.661 192.43C304.341 192.43 292.361 203.5 289.281 218.36C289.013 219.342 288.418 220.204 287.594 220.802C286.771 221.4 285.767 221.7 284.751 221.65C283.848 221.68 282.956 221.443 282.186 220.971C281.416 220.498 280.802 219.809 280.421 218.99C277.721 212.42 276.341 205.383 276.361 198.28C276.361 171.52 295.301 149.83 318.661 149.83C342.021 149.83 360.961 171.51 360.961 198.27Z" fill="url(#paint15_radial_862_12483)"/>
<path d="M360.961 198.27C360.984 205.376 359.608 212.416 356.911 218.99C356.527 219.81 355.911 220.499 355.14 220.972C354.368 221.445 353.475 221.68 352.571 221.65C351.554 221.698 350.552 221.398 349.728 220.8C348.905 220.202 348.31 219.341 348.041 218.36C344.961 203.5 332.981 192.43 318.661 192.43C304.341 192.43 292.361 203.5 289.281 218.36C289.013 219.342 288.418 220.204 287.594 220.802C286.771 221.4 285.767 221.7 284.751 221.65C283.848 221.68 282.956 221.443 282.186 220.971C281.416 220.498 280.802 219.809 280.421 218.99C277.721 212.42 276.341 205.383 276.361 198.28C276.361 171.52 295.301 149.83 318.661 149.83C342.021 149.83 360.961 171.51 360.961 198.27Z" fill="url(#paint16_radial_862_12483)"/>
<path d="M360.961 198.27C360.984 205.376 359.608 212.416 356.911 218.99C356.527 219.81 355.911 220.499 355.14 220.972C354.368 221.445 353.475 221.68 352.571 221.65V221.65C351.554 221.698 350.552 221.398 349.728 220.8C348.905 220.202 348.31 219.341 348.041 218.36C344.961 203.5 332.981 192.43 318.661 192.43C304.341 192.43 292.361 203.5 289.281 218.36C289.013 219.342 288.418 220.204 287.594 220.802C286.771 221.4 285.767 221.7 284.751 221.65V221.65C283.848 221.68 282.956 221.443 282.186 220.971C281.416 220.498 280.802 219.809 280.421 218.99C277.721 212.42 276.341 205.383 276.361 198.28C276.361 171.52 295.301 149.83 318.661 149.83C342.021 149.83 360.961 171.51 360.961 198.27Z" stroke="url(#paint17_linear_862_12483)" stroke-width="2" stroke-miterlimit="10"/>
<defs>
<filter id="filter0_f_862_12483" x="-26.8149" y="206.558" width="535.022" height="306.595" filterUnits="userSpaceOnUse" color-interpolation-filters="sRGB">
<feFlood flood-opacity="0" result="BackgroundImageFix"/>
<feBlend mode="normal" in="SourceGraphic" in2="BackgroundImageFix" result="shape"/>
<feGaussianBlur stdDeviation="12.5" result="effect1_foregroundBlur_862_12483"/>
</filter>
<filter id="filter1_f_862_12483" x="-41.8149" y="191.558" width="565.022" height="336.595" filterUnits="userSpaceOnUse" color-interpolation-filters="sRGB">
<feFlood flood-opacity="0" result="BackgroundImageFix"/>
<feBlend mode="normal" in="SourceGraphic" in2="BackgroundImageFix" result="shape"/>
<feGaussianBlur stdDeviation="20" result="effect1_foregroundBlur_862_12483"/>
</filter>
<filter id="filter2_f_862_12483" x="255" y="162" width="220" height="220" filterUnits="userSpaceOnUse" color-interpolation-filters="sRGB">
<feFlood flood-opacity="0" result="BackgroundImageFix"/>
<feBlend mode="normal" in="SourceGraphic" in2="BackgroundImageFix" result="shape"/>
<feGaussianBlur stdDeviation="30" result="effect1_foregroundBlur_862_12483"/>
</filter>
<filter id="filter3_f_862_12483" x="8" y="162" width="220" height="220" filterUnits="userSpaceOnUse" color-interpolation-filters="sRGB">
<feFlood flood-opacity="0" result="BackgroundImageFix"/>
<feBlend mode="normal" in="SourceGraphic" in2="BackgroundImageFix" result="shape"/>
<feGaussianBlur stdDeviation="30" result="effect1_foregroundBlur_862_12483"/>
</filter>
<filter id="filter4_f_862_12483" x="-20" y="307" width="522.152" height="276.66" filterUnits="userSpaceOnUse" color-interpolation-filters="sRGB">
<feFlood flood-opacity="0" result="BackgroundImageFix"/>
<feBlend mode="normal" in="SourceGraphic" in2="BackgroundImageFix" result="shape"/>
<feGaussianBlur stdDeviation="27.5" result="effect1_foregroundBlur_862_12483"/>
</filter>
<filter id="filter5_f_862_12483" x="237" y="354" width="188.904" height="183.073" filterUnits="userSpaceOnUse" color-interpolation-filters="sRGB">
<feFlood flood-opacity="0" result="BackgroundImageFix"/>
<feBlend mode="normal" in="SourceGraphic" in2="BackgroundImageFix" result="shape"/>
<feGaussianBlur stdDeviation="4" result="effect1_foregroundBlur_862_12483"/>
</filter>
<filter id="filter6_f_862_12483" x="56.2485" y="354" width="188.904" height="183.073" filterUnits="userSpaceOnUse" color-interpolation-filters="sRGB">
<feFlood flood-opacity="0" result="BackgroundImageFix"/>
<feBlend mode="normal" in="SourceGraphic" in2="BackgroundImageFix" result="shape"/>
<feGaussianBlur stdDeviation="4" result="effect1_foregroundBlur_862_12483"/>
</filter>
<filter id="filter7_f_862_12483" x="237" y="354" width="188.904" height="183.073" filterUnits="userSpaceOnUse" color-interpolation-filters="sRGB">
<feFlood flood-opacity="0" result="BackgroundImageFix"/>
<feBlend mode="normal" in="SourceGraphic" in2="BackgroundImageFix" result="shape"/>
<feGaussianBlur stdDeviation="4" result="effect1_foregroundBlur_862_12483"/>
</filter>
<filter id="filter8_f_862_12483" x="56.2485" y="354" width="188.904" height="183.073" filterUnits="userSpaceOnUse" color-interpolation-filters="sRGB">
<feFlood flood-opacity="0" result="BackgroundImageFix"/>
<feBlend mode="normal" in="SourceGraphic" in2="BackgroundImageFix" result="shape"/>
<feGaussianBlur stdDeviation="4" result="effect1_foregroundBlur_862_12483"/>
</filter>
<radialGradient id="paint0_radial_862_12483" cx="0" cy="0" r="1" gradientUnits="userSpaceOnUse" gradientTransform="translate(241 -4.53898e-06) rotate(90) scale(482)">
<stop stop-color="#FFDE43"/>
<stop offset="1" stop-color="#FFBC00"/>
</radialGradient>
<radialGradient id="paint1_radial_862_12483" cx="0" cy="0" r="1" gradientUnits="userSpaceOnUse" gradientTransform="translate(241 64.5) rotate(90) scale(417.5)">
<stop stop-color="white" stop-opacity="0.5"/>
<stop offset="0.782278"/>
</radialGradient>
<radialGradient id="paint2_radial_862_12483" cx="0" cy="0" r="1" gradientUnits="userSpaceOnUse" gradientTransform="translate(241 64.5) rotate(90) scale(417.5)">
<stop stop-color="white" stop-opacity="0.5"/>
<stop offset="0.782278"/>
</radialGradient>
<radialGradient id="paint3_radial_862_12483" cx="0" cy="0" r="1" gradientUnits="userSpaceOnUse" gradientTransform="translate(241 -52.5) rotate(90) scale(534.5 722.835)">
<stop offset="0.0922635" stop-color="white"/>
<stop offset="0.670207" stop-color="white" stop-opacity="0"/>
</radialGradient>
<radialGradient id="paint4_radial_862_12483" cx="0" cy="0" r="1" gradientUnits="userSpaceOnUse" gradientTransform="translate(241 -4.53898e-06) rotate(90) scale(482)">
<stop stop-color="#FFDE43"/>
<stop offset="1" stop-color="#FFBC00"/>
</radialGradient>
<radialGradient id="paint5_radial_862_12483" cx="0" cy="0" r="1" gradientUnits="userSpaceOnUse" gradientTransform="translate(346.463 441.18) rotate(-170.003) scale(92.0842 92.0842)">
<stop offset="0.0139674" stop-color="#FFDE43"/>
<stop offset="0.3975" stop-color="#FFDC41"/>
<stop offset="0.6038" stop-color="#FFD43B"/>
<stop offset="0.7679" stop-color="#FFC631"/>
<stop offset="0.9089" stop-color="#FFB323"/>
<stop offset="1" stop-color="#FFA216"/>
</radialGradient>
<radialGradient id="paint6_radial_862_12483" cx="0" cy="0" r="1" gradientUnits="userSpaceOnUse" gradientTransform="translate(135.689 441.18) rotate(-9.99736) scale(92.0842 92.0842)">
<stop offset="0.0139674" stop-color="#FFDE43"/>
<stop offset="0.3975" stop-color="#FFDC41"/>
<stop offset="0.6038" stop-color="#FFD43B"/>
<stop offset="0.7679" stop-color="#FFC631"/>
<stop offset="0.9089" stop-color="#FFB323"/>
<stop offset="1" stop-color="#FFA216"/>
</radialGradient>
<radialGradient id="paint7_radial_862_12483" cx="0" cy="0" r="1" gradientUnits="userSpaceOnUse" gradientTransform="translate(346.463 441.18) rotate(-170.003) scale(92.0842 92.0842)">
<stop offset="0.0139674" stop-color="#FFDE43"/>
<stop offset="0.3975" stop-color="#FFDC41"/>
<stop offset="0.6038" stop-color="#FFD43B"/>
<stop offset="0.7679" stop-color="#FFC631"/>
<stop offset="0.9089" stop-color="#FFB323"/>
<stop offset="1" stop-color="#FFA216"/>
</radialGradient>
<radialGradient id="paint8_radial_862_12483" cx="0" cy="0" r="1" gradientUnits="userSpaceOnUse" gradientTransform="translate(346.463 441.18) rotate(-170.003) scale(92.0842 92.0842)">
<stop offset="0.0139674" stop-color="#FFDE43"/>
<stop offset="0.3975" stop-color="#FFDC41"/>
<stop offset="0.6038" stop-color="#FFD43B"/>
<stop offset="0.7679" stop-color="#FFC631"/>
<stop offset="0.9089" stop-color="#FFB323"/>
<stop offset="1" stop-color="#FFA216"/>
</radialGradient>
<radialGradient id="paint9_radial_862_12483" cx="0" cy="0" r="1" gradientUnits="userSpaceOnUse" gradientTransform="translate(135.689 441.18) rotate(-9.99736) scale(92.0842 92.0842)">
<stop offset="0.0139674" stop-color="#FFDE43"/>
<stop offset="0.3975" stop-color="#FFDC41"/>
<stop offset="0.6038" stop-color="#FFD43B"/>
<stop offset="0.7679" stop-color="#FFC631"/>
<stop offset="0.9089" stop-color="#FFB323"/>
<stop offset="1" stop-color="#FFA216"/>
</radialGradient>
<radialGradient id="paint10_radial_862_12483" cx="0" cy="0" r="1" gradientUnits="userSpaceOnUse" gradientTransform="translate(135.689 441.18) rotate(-9.99736) scale(92.0842 92.0842)">
<stop offset="0.0139674" stop-color="#FFDE43"/>
<stop offset="0.3975" stop-color="#FFDC41"/>
<stop offset="0.6038" stop-color="#FFD43B"/>
<stop offset="0.7679" stop-color="#FFC631"/>
<stop offset="0.9089" stop-color="#FFB323"/>
<stop offset="1" stop-color="#FFA216"/>
</radialGradient>
<radialGradient id="paint11_radial_862_12483" cx="0" cy="0" r="1" gradientUnits="userSpaceOnUse" gradientTransform="translate(241.252 308.896) scale(81.7114 66.6989)">
<stop stop-color="#743C1C"/>
<stop offset="1" stop-color="#401C02"/>
</radialGradient>
<linearGradient id="paint12_linear_862_12483" x1="241.252" y1="343.905" x2="241.252" y2="273.887" gradientUnits="userSpaceOnUse">
<stop offset="0.265625" stop-color="#FFDE43"/>
<stop offset="1" stop-color="#F79D14"/>
</linearGradient>
<radialGradient id="paint13_radial_862_12483" cx="0" cy="0" r="1" gradientUnits="userSpaceOnUse" gradientTransform="translate(164.232 185.719) scale(53.9098 35.9749)">
<stop stop-color="#743C1C"/>
<stop offset="1" stop-color="#401C02"/>
</radialGradient>
<linearGradient id="paint14_linear_862_12483" x1="164.29" y1="223.676" x2="164.29" y2="147.519" gradientUnits="userSpaceOnUse">
<stop stop-color="#FFDE43"/>
<stop offset="0.22" stop-color="#FED93F"/>
<stop offset="0.51" stop-color="#FCC934"/>
<stop offset="0.82" stop-color="#F9AF21"/>
<stop offset="1" stop-color="#F79D14"/>
</linearGradient>
<radialGradient id="paint15_radial_862_12483" cx="0" cy="0" r="1" gradientUnits="userSpaceOnUse" gradientTransform="translate(27902.7 -41847) scale(3523.61 2632.54)">
<stop stop-color="#743C1C"/>
<stop offset="1" stop-color="#401C02"/>
</radialGradient>
<radialGradient id="paint16_radial_862_12483" cx="0" cy="0" r="1" gradientUnits="userSpaceOnUse" gradientTransform="translate(318.602 185.719) scale(53.9225 35.9749)">
<stop stop-color="#743C1C"/>
<stop offset="1" stop-color="#401C02"/>
</radialGradient>
<linearGradient id="paint17_linear_862_12483" x1="318.661" y1="223.676" x2="318.661" y2="147.519" gradientUnits="userSpaceOnUse">
<stop stop-color="#FFDE43"/>
<stop offset="0.22" stop-color="#FED93F"/>
<stop offset="0.51" stop-color="#FCC934"/>
<stop offset="0.82" stop-color="#F9AF21"/>
<stop offset="1" stop-color="#F79D14"/>
</linearGradient>
</defs>
</svg>
