<svg width="643" height="563" viewBox="0 0 643 563" fill="none" xmlns="http://www.w3.org/2000/svg">
<path d="M301.18 538.36C434.38 538.36 542.36 430.38 542.36 297.18C542.36 163.98 434.38 56 301.18 56C167.98 56 60 163.98 60 297.18C60 430.38 167.98 538.36 301.18 538.36Z" fill="url(#paint0_radial_862_12567)"/>
<g style="mix-blend-mode:soft-light">
<path d="M301.18 538.36C434.38 538.36 542.36 430.38 542.36 297.18C542.36 163.98 434.38 56 301.18 56C167.98 56 60 163.98 60 297.18C60 430.38 167.98 538.36 301.18 538.36Z" fill="url(#paint1_radial_862_12567)"/>
</g>
<g style="mix-blend-mode:soft-light">
<path d="M301.18 538.36C434.38 538.36 542.36 430.38 542.36 297.18C542.36 163.98 434.38 56 301.18 56C167.98 56 60 163.98 60 297.18C60 430.38 167.98 538.36 301.18 538.36Z" fill="url(#paint2_radial_862_12567)"/>
</g>
<g style="mix-blend-mode:overlay">
<path d="M301.18 538.36C434.38 538.36 542.36 430.38 542.36 297.18C542.36 163.98 434.38 56 301.18 56C167.98 56 60 163.98 60 297.18C60 430.38 167.98 538.36 301.18 538.36Z" fill="url(#paint3_radial_862_12567)" fill-opacity="0.7"/>
</g>
<mask id="mask0_862_12567" style="mask-type:alpha" maskUnits="userSpaceOnUse" x="60" y="56" width="483" height="483">
<path d="M301.18 538.36C434.38 538.36 542.36 430.38 542.36 297.18C542.36 163.98 434.38 56 301.18 56C167.98 56 60 163.98 60 297.18C60 430.38 167.98 538.36 301.18 538.36Z" fill="white"/>
</mask>
<g mask="url(#mask0_862_12567)">
<g filter="url(#filter0_f_862_12567)">
<path d="M58.6241 290.299C58.886 286.872 60.0137 286.529 60.3426 290.008C60.7081 293.874 59.9977 301.646 60.1687 306.335C60.6216 318.748 62.5244 329.541 64.486 338.32C70.8075 366.612 79.5617 384.843 87.7268 400.288C114.566 451.06 143.967 476.77 172.648 496.147C214.689 524.549 257.072 533.584 299.49 535.5C300.56 535.548 300.738 542.518 299.686 543.425C297.788 545.061 295.436 543.437 293.494 543.369C287.915 543.174 282.335 542.791 276.756 542.211C260.213 540.492 243.67 536.991 227.162 531.358C182.275 516.044 133.877 489.821 91.6092 415.962C88.9502 411.316 86.3124 406.424 83.7118 401.167C81.6321 396.963 79.5726 392.556 77.5493 387.843C70.8946 372.342 55.3868 332.658 58.6241 290.299ZM299.52 543.5C298.499 543.531 298.241 537.034 299.214 535.685C300.684 533.647 302.888 535.326 304.439 535.229C310.877 534.826 317.314 534.229 323.75 533.421C341.395 531.205 359.028 527.422 376.621 521.596C420.257 507.145 467.17 485.115 508.305 417.431C510.923 413.123 513.518 408.553 516.079 403.641C523.86 388.712 543.361 349.084 541.107 299.821C540.917 295.668 542.181 293.181 542.747 296.743C543.467 301.279 543.175 310.736 542.977 315.768C542.341 331.883 539.866 345.512 537.257 356.518C528.987 391.399 517.376 411.623 506.744 428.51C472.184 483.397 434.648 505.524 398.155 521.424C365.424 535.686 332.444 542.484 299.52 543.5Z" fill="#401C02"/>
</g>
<g filter="url(#filter1_f_862_12567)">
<path d="M58.6241 290.299C58.886 286.872 60.0137 286.529 60.3426 290.008C60.7081 293.874 59.9977 301.646 60.1687 306.335C60.6216 318.748 62.5244 329.541 64.486 338.32C70.8075 366.612 79.5617 384.843 87.7268 400.288C114.566 451.06 143.967 476.77 172.648 496.147C214.689 524.549 257.072 533.584 299.49 535.5C300.56 535.548 300.738 542.518 299.686 543.425C297.788 545.061 295.436 543.437 293.494 543.369C287.915 543.174 282.335 542.791 276.756 542.211C260.213 540.492 243.67 536.991 227.162 531.358C182.275 516.044 133.877 489.821 91.6092 415.962C88.9502 411.316 86.3124 406.424 83.7118 401.167C81.6321 396.963 79.5726 392.556 77.5493 387.843C70.8946 372.342 55.3868 332.658 58.6241 290.299ZM299.52 543.5C298.499 543.531 298.241 537.034 299.214 535.685C300.684 533.647 302.888 535.326 304.439 535.229C310.877 534.826 317.314 534.229 323.75 533.421C341.395 531.205 359.028 527.422 376.621 521.596C420.257 507.145 467.17 485.115 508.305 417.431C510.923 413.123 513.518 408.553 516.079 403.641C523.86 388.712 543.361 349.084 541.107 299.821C540.917 295.668 542.181 293.181 542.747 296.743C543.467 301.279 543.175 310.736 542.977 315.768C542.341 331.883 539.866 345.512 537.257 356.518C528.987 391.399 517.376 411.623 506.744 428.51C472.184 483.397 434.648 505.524 398.155 521.424C365.424 535.686 332.444 542.484 299.52 543.5Z" fill="#401C02"/>
</g>
</g>
<g filter="url(#filter2_f_862_12567)">
<circle cx="366.021" cy="409" r="50" fill="#E66200" fill-opacity="0.75"/>
</g>
<path d="M364.539 379.6C364.439 379.3 364.239 379 364.139 378.7L363.739 378C363.539 377.7 363.439 377.4 363.239 377.2L363.139 377.1C363.039 376.9 362.839 376.7 362.739 376.5C361.539 375 360.239 373.6 358.839 372.3C356.339 370.2 353.639 368.3 350.839 366.6C345.639 363.5 340.139 360.8 334.539 358.5C331.739 357.4 328.939 356.3 326.139 355.3L325.239 355C324.139 354.6 323.039 354.2 321.939 353.9C320.539 353.4 319.139 353 317.639 352.6C314.339 351.6 311.539 350.9 308.939 350.3C306.639 349.8 304.839 349.4 303.139 349C302.539 348.9 301.939 349 301.439 349.3C300.939 349.6 300.539 350 300.239 350.6C300.039 351.1 300.039 351.7 300.139 352.3C300.339 352.9 300.739 353.3 301.239 353.6C302.839 354.6 304.439 355.6 306.139 356.6C308.339 357.9 310.539 359.2 312.739 360.5L328.339 369.6C333.139 372.5 337.939 375.3 342.239 378.3C344.239 379.7 346.139 381.2 347.939 382.8C348.439 383.2 348.839 383.7 349.339 384.2L349.439 384.4L349.339 384.5C348.939 385 348.439 385.5 347.939 386C346.139 387.6 344.239 389.1 342.239 390.5C337.739 393.6 332.939 396.5 328.339 399.2L311.839 408.8C311.339 409.1 310.939 409.5 310.639 410C310.339 410.5 310.239 411.1 310.239 411.7C310.239 412.3 310.439 412.9 310.639 413.4C310.939 413.9 311.339 414.3 311.839 414.6L314.739 416.3L328.839 424.5C333.039 427 337.139 429.5 340.939 432.1C342.739 433.3 344.339 434.6 345.939 436C346.339 436.4 346.739 436.8 347.139 437.2C346.739 437.6 346.339 438 345.939 438.4C344.339 439.8 342.739 441.1 340.939 442.3C337.039 445 332.839 447.5 328.839 449.9L315.139 457.9C313.239 459 311.339 460.1 309.439 461.3C308.039 462.1 306.639 463 305.239 463.9C304.739 464.2 304.339 464.6 304.239 465.2C304.039 465.7 304.039 466.3 304.239 466.8C304.439 467.3 304.739 467.6 305.139 467.9C305.539 468.2 306.039 468.3 306.539 468.3C306.739 468.3 306.839 468.3 307.039 468.2C308.539 467.9 310.139 467.5 312.039 467.1C314.339 466.6 316.739 465.9 319.639 465.1C322.539 464.3 324.839 463.5 327.139 462.7C329.339 461.9 331.839 461 334.539 459.9C339.539 457.9 344.239 455.6 348.839 452.9C351.339 451.4 353.639 449.8 355.839 447.9C357.139 446.8 358.239 445.6 359.339 444.2C359.539 444 359.639 443.8 359.839 443.5C360.039 443.2 360.139 443.1 360.239 442.9L360.639 442.2C360.739 442 360.839 441.7 361.039 441.4C361.639 440.1 361.939 438.7 361.939 437.2C361.939 435.8 361.639 434.3 361.039 433C360.939 432.8 360.839 432.5 360.639 432.2L360.239 431.5C359.839 431.2 359.739 431 359.539 430.7L359.439 430.5C359.339 430.3 359.239 430.2 359.139 430C358.139 428.7 356.939 427.4 355.639 426.3C353.439 424.4 351.139 422.8 348.639 421.3C344.039 418.6 339.239 416.3 334.339 414.3C332.439 413.5 330.539 412.8 328.739 412.1C330.539 411.4 332.439 410.7 334.539 409.9C340.139 407.6 345.639 405 350.939 401.9C353.739 400.3 356.439 398.4 358.939 396.2C360.439 395 361.739 393.6 362.839 392C362.939 391.8 363.039 391.7 363.239 391.5L363.339 391.3C363.339 391.2 363.539 391 363.639 390.7L364.139 389.9C364.239 389.6 364.439 389.3 364.539 389C365.139 387.5 365.539 385.9 365.539 384.3C365.539 382.7 365.239 381.1 364.539 379.6Z" fill="url(#paint4_radial_862_12567)"/>
<path d="M306.339 469.2C306.539 469.2 306.839 469.2 307.039 469.1C308.739 468.8 310.339 468.4 312.139 468C314.439 467.5 316.739 466.8 319.839 466C322.439 465.3 324.639 464.5 326.639 463.8L327.339 463.5C330.039 462.6 332.439 461.6 334.739 460.7C339.739 458.7 344.639 456.3 349.239 453.6C351.739 452.1 354.139 450.4 356.339 448.5C357.639 447.4 358.939 446.1 359.939 444.7C360.139 444.5 360.239 444.2 360.439 443.9L360.539 443.7C360.639 443.5 360.739 443.4 360.839 443.2L361.239 442.5C361.339 442.3 361.539 442 361.639 441.7C362.339 440.2 362.639 438.7 362.639 437.1C362.639 435.5 362.339 433.9 361.639 432.5L361.539 432.2C361.439 432 361.339 431.9 361.339 431.7L360.839 431C360.639 430.7 360.539 430.5 360.339 430.2L360.239 430C360.139 429.8 360.039 429.6 359.839 429.5C358.739 428.1 357.539 426.8 356.239 425.7C354.039 423.8 351.639 422.1 349.139 420.6C344.539 417.9 339.639 415.5 334.639 413.5C333.539 413 332.539 412.6 331.539 412.2C332.539 411.8 333.639 411.4 334.839 410.9C340.539 408.6 346.039 405.9 351.339 402.8C354.239 401.1 356.939 399.2 359.439 397.1C360.939 395.8 362.339 394.4 363.539 392.8C363.639 392.7 363.739 392.6 363.839 392.4L364.039 392C364.239 391.7 364.439 391.4 364.539 391.2L365.039 390.4C365.239 390.1 365.339 389.8 365.539 389.4C366.139 387.8 366.539 386.1 366.539 384.3C366.539 382.5 366.139 380.8 365.439 379.2C365.339 378.9 365.139 378.6 365.039 378.3L364.639 377.5C364.439 377.2 364.239 376.9 364.039 376.6L363.939 376.5C363.839 376.4 363.739 376.2 363.639 376L363.539 375.9C362.339 374.3 360.939 372.8 359.439 371.5C356.939 369.4 354.139 367.4 351.339 365.7C346.039 362.6 340.539 359.9 334.839 357.6C332.039 356.5 329.239 355.4 326.339 354.4L325.439 354.1C324.339 353.7 323.239 353.3 322.039 353C320.639 352.5 319.239 352.1 317.739 351.7C314.639 350.8 311.939 350 309.039 349.4C306.739 348.9 304.939 348.5 303.239 348.1C302.439 347.9 301.639 348.1 300.839 348.5C300.139 348.9 299.539 349.5 299.239 350.3C298.939 351.1 298.939 351.9 299.139 352.7C299.439 353.5 299.939 354.1 300.639 354.6C302.239 355.6 303.839 356.6 305.539 357.5C307.739 358.8 309.939 360.1 312.139 361.4L327.739 370.5C332.339 373.2 337.239 376.1 341.539 379.2C343.539 380.5 345.439 382 347.139 383.6C347.439 383.9 347.739 384.1 347.939 384.4C347.639 384.7 347.439 385 347.139 385.2C345.339 386.8 343.439 388.3 341.539 389.6C337.139 392.6 332.539 395.4 327.639 398.3L311.139 407.9C310.439 408.3 309.939 408.8 309.539 409.5C309.139 410.2 308.939 410.9 308.939 411.7C308.939 412.5 309.139 413.2 309.539 413.9C309.939 414.6 310.439 415.1 311.139 415.5L314.139 417L328.239 425.2C331.939 427.4 336.339 430 340.339 432.8C342.039 434 343.739 435.2 345.239 436.6C345.439 436.7 345.539 436.9 345.739 437.1C345.539 437.3 345.439 437.4 345.239 437.6C343.739 439 342.039 440.3 340.339 441.4C336.539 444 332.439 446.5 328.239 449L314.539 457C312.639 458.1 310.739 459.2 308.839 460.4L308.139 460.8C306.939 461.5 305.839 462.2 304.639 462.9C303.939 463.3 303.439 463.9 303.139 464.7C302.839 465.5 302.939 466.3 303.239 467C303.539 467.6 303.939 468.2 304.539 468.6C304.939 469 305.639 469.2 306.339 469.2ZM363.639 380C364.239 381.4 364.539 382.8 364.539 384.3C364.539 385.8 364.239 387.2 363.639 388.6C363.539 388.9 363.339 389.2 363.239 389.4L362.839 390.2C362.739 390.5 362.539 390.7 362.439 390.9L362.139 391.3C362.039 391.4 362.039 391.5 361.939 391.6C360.839 393.1 359.539 394.4 358.139 395.6C355.739 397.7 353.039 399.5 350.239 401.1C345.039 404.1 339.639 406.8 334.039 409C331.939 409.8 330.139 410.6 328.339 411.2L325.739 412.1L328.339 413C330.139 413.6 332.039 414.4 333.939 415.2C338.839 417.1 343.639 419.5 348.139 422.1C350.539 423.5 352.839 425.2 355.039 427C356.239 428.1 357.439 429.2 358.339 430.5C358.439 430.6 358.539 430.8 358.639 430.9L358.739 431.1C358.939 431.4 359.039 431.6 359.139 431.8L359.539 432.6C359.539 432.7 359.639 432.9 359.739 433L359.839 433.3C360.339 434.5 360.639 435.7 360.639 437.1C360.639 438.5 360.339 439.7 359.839 440.9C359.739 441.2 359.639 441.4 359.439 441.7L359.039 442.4C358.939 442.5 358.939 442.6 358.839 442.7L358.639 443C358.439 443.3 358.339 443.5 358.239 443.6C357.239 444.9 356.139 446.1 354.939 447.1C352.839 448.9 350.539 450.6 348.039 452C343.539 454.7 338.739 457 333.839 458.9C331.539 459.8 329.139 460.7 326.539 461.7L325.839 462C323.839 462.7 321.739 463.4 319.239 464.1C316.239 464.9 313.839 465.6 311.639 466.1C309.839 466.5 308.339 466.9 306.639 467.2C306.539 467.2 306.439 467.2 306.339 467.2C306.039 467.2 305.739 467.1 305.539 467C305.339 466.8 305.139 466.6 305.039 466.3C304.939 466 304.939 465.7 305.039 465.4C305.139 465.1 305.339 464.8 305.639 464.7C306.839 464 307.939 463.3 309.139 462.6L309.839 462.2C311.739 461.1 313.639 459.9 315.539 458.8L329.239 450.8C333.439 448.3 337.639 445.8 341.439 443.1C343.239 441.9 344.939 440.6 346.539 439.1C346.939 438.7 347.439 438.3 347.739 437.8L348.339 437.2L347.739 436.5C347.339 436 346.939 435.6 346.439 435.2C344.839 433.8 343.139 432.4 341.339 431.2C337.339 428.4 332.939 425.8 329.139 423.5L312.139 413.6C311.739 413.4 311.539 413.1 311.339 412.7C311.139 412.3 311.039 411.9 311.039 411.5C311.039 411.1 311.139 410.7 311.339 410.3C311.539 409.9 311.839 409.7 312.139 409.4L328.639 399.8C333.539 396.9 338.239 394.1 342.639 391C344.639 389.6 346.639 388.1 348.439 386.4C348.939 385.9 349.439 385.4 349.939 384.8L350.539 384.1L349.839 383.3C349.439 382.8 348.939 382.3 348.439 381.8C346.639 380.1 344.639 378.6 342.639 377.2C338.239 374.1 333.339 371.2 328.639 368.5L313.039 359.4C310.839 358.1 308.639 356.8 306.439 355.5C304.839 354.5 303.239 353.6 301.539 352.6C301.239 352.4 301.039 352.1 300.939 351.8C300.839 351.5 300.839 351.1 300.939 350.8C301.039 350.5 301.339 350.2 301.639 350C302.139 350 302.439 350 302.839 350C304.539 350.4 306.339 350.7 308.539 351.3C311.439 352 314.139 352.7 317.139 353.6C318.539 354 319.939 354.5 321.439 354.9C322.539 355.3 323.639 355.7 324.739 356L325.639 356.3C328.439 357.3 331.239 358.3 334.039 359.5C339.639 361.7 345.039 364.4 350.239 367.5C353.039 369.1 355.639 371 358.139 373.1C359.539 374.3 360.839 375.7 361.939 377.1L362.039 377.2C362.139 377.3 362.239 377.5 362.339 377.6L362.439 377.8C362.539 378 362.739 378.2 362.839 378.5L363.239 379.3C363.439 379.5 363.539 379.7 363.639 380Z" fill="url(#paint5_linear_862_12567)"/>
<g opacity="0.7">
<g filter="url(#filter3_f_862_12567)">
<circle cx="435" cy="309" r="50" fill="#E66200"/>
</g>
<g filter="url(#filter4_f_862_12567)">
<circle cx="168" cy="309" r="50" fill="#E66200"/>
</g>
</g>
<path d="M121.565 217.22C129.495 209.16 178.775 162.51 224.745 195.86C226.253 197.02 227.37 198.612 227.949 200.424C228.528 202.236 228.541 204.181 227.985 206C227.648 207.27 226.918 208.4 225.9 209.23C224.881 210.059 223.627 210.546 222.315 210.62C207.885 212.06 181.365 194.5 139.015 219.57C135.325 221.814 131.759 224.258 128.335 226.89C125.835 228.76 121.845 230.99 119.425 228.46C117.355 226.3 117.905 223.46 118.795 221.3C119.45 219.776 120.39 218.391 121.565 217.22Z" fill="#42210B"/>
<path d="M480.585 217.22C472.645 209.16 423.365 162.51 377.405 195.86C375.895 197.018 374.776 198.61 374.197 200.423C373.617 202.235 373.606 204.181 374.165 206C374.501 207.27 375.23 208.401 376.249 209.231C377.267 210.061 378.523 210.548 379.835 210.62C394.255 212.06 420.785 194.5 463.135 219.57C466.822 221.819 470.387 224.262 473.815 226.89C476.315 228.76 480.305 230.99 482.725 228.46C484.795 226.3 484.245 223.46 483.345 221.3C482.693 219.777 481.756 218.392 480.585 217.22Z" fill="#42210B"/>
<path d="M241.585 303.56C238.054 301.548 234.271 300.014 230.335 299C215.255 295 200.655 299.31 187.505 306.95C172.795 315.49 159.505 292.71 174.195 284.18C201.575 268.28 237.025 265.43 262.755 286.24C275.615 296.64 258.125 314.53 245.115 305.64C243.976 304.876 242.798 304.171 241.585 303.53V303.56Z" fill="url(#paint6_radial_862_12567)"/>
<path d="M241.585 303.56C238.054 301.548 234.271 300.014 230.335 299C215.255 295 200.655 299.31 187.505 306.95C172.795 315.49 159.505 292.71 174.195 284.18C201.575 268.28 237.025 265.43 262.755 286.24C275.615 296.64 258.125 314.53 245.115 305.64C243.976 304.876 242.798 304.171 241.585 303.53V303.56Z" stroke="url(#paint7_linear_862_12567)" stroke-width="2" stroke-miterlimit="10"/>
<path d="M408.674 303.56C405.142 301.551 401.359 300.018 397.424 299C382.344 295 367.744 299.31 354.584 306.95C339.884 315.49 326.584 292.71 341.274 284.18C368.664 268.28 404.104 265.43 429.834 286.24C442.704 296.64 425.214 314.53 412.194 305.64C411.058 304.878 409.883 304.174 408.674 303.53V303.56Z" fill="url(#paint8_radial_862_12567)"/>
<path d="M408.674 303.56C405.142 301.551 401.359 300.018 397.424 299C382.344 295 367.744 299.31 354.584 306.95C339.884 315.49 326.584 292.71 341.274 284.18C368.664 268.28 404.104 265.43 429.834 286.24C442.704 296.64 425.214 314.53 412.194 305.64C411.058 304.878 409.883 304.174 408.674 303.53V303.56Z" stroke="url(#paint9_linear_862_12567)" stroke-width="2" stroke-miterlimit="10"/>
<mask id="mask1_862_12567" style="mask-type:alpha" maskUnits="userSpaceOnUse" x="60" y="56" width="483" height="483">
<path d="M301.18 538.36C434.38 538.36 542.36 430.38 542.36 297.18C542.36 163.98 434.38 56 301.18 56C167.98 56 60 163.98 60 297.18C60 430.38 167.98 538.36 301.18 538.36Z" fill="url(#paint10_radial_862_12567)"/>
</mask>
<g mask="url(#mask1_862_12567)">
<g filter="url(#filter5_f_862_12567)">
<path d="M491.839 440.249L353.515 411.8L348.418 436.581L486.743 465.03L491.839 440.249Z" fill="#712900"/>
</g>
</g>
<mask id="mask2_862_12567" style="mask-type:alpha" maskUnits="userSpaceOnUse" x="299" y="253" width="344" height="216">
<path fill-rule="evenodd" clip-rule="evenodd" d="M337.12 360H470V253H643V444H359.385C359.278 444.16 359.177 444.302 359.072 444.44C358.05 445.784 356.887 447.014 355.602 448.11C353.417 449.975 351.075 451.648 348.602 453.11C344.002 455.802 339.205 458.142 334.252 460.11C331.582 461.2 329.072 462.12 326.872 462.89C326.632 462.974 326.389 463.06 326.145 463.146C324.153 463.845 322.014 464.598 319.422 465.31C316.512 466.11 314.092 466.76 311.792 467.31C309.922 467.77 308.322 468.12 306.792 468.42C306.631 468.451 306.467 468.468 306.302 468.47C305.813 468.471 305.335 468.324 304.93 468.049C304.526 467.775 304.213 467.385 304.032 466.93C303.825 466.41 303.812 465.833 303.996 465.304C304.179 464.775 304.547 464.33 305.032 464.05C306.211 463.318 307.403 462.6 308.592 461.884C308.816 461.749 309.039 461.615 309.262 461.48C311.162 460.33 313.082 459.21 314.992 458.1L328.702 450.1C332.722 447.72 336.982 445.17 340.852 442.48C342.609 441.296 344.28 439.99 345.852 438.57C346.26 438.194 346.647 437.797 347.012 437.38C346.652 436.955 346.265 436.554 345.852 436.18C344.281 434.759 342.61 433.452 340.852 432.27C337.052 429.65 332.942 427.15 328.702 424.65L314.602 416.44L311.732 414.75C311.23 414.457 310.814 414.037 310.524 413.532C310.235 413.028 310.082 412.457 310.082 411.875C310.082 411.294 310.235 410.722 310.524 410.218C310.814 409.713 311.23 409.294 311.732 409L328.242 399.39C332.832 396.67 337.682 393.77 342.152 390.67C344.164 389.304 346.078 387.801 347.882 386.17C348.384 385.712 348.855 385.221 349.292 384.7L349.372 384.61L349.242 384.46C348.821 383.963 348.367 383.496 347.882 383.06C346.074 381.427 344.156 379.921 342.142 378.55C337.792 375.54 333.082 372.71 328.232 369.84L312.602 360.74C310.412 359.46 308.222 358.17 306.032 356.85C304.412 355.883 302.792 354.9 301.172 353.9C300.673 353.603 300.298 353.137 300.114 352.586C299.931 352.035 299.951 351.437 300.172 350.9C300.394 350.35 300.801 349.894 301.324 349.613C301.846 349.332 302.451 349.242 303.032 349.36C304.722 349.68 306.512 350.07 308.802 350.62C311.382 351.23 314.142 351.95 317.492 352.95C318.932 353.38 320.352 353.82 321.772 354.28C322.892 354.63 324.001 355.01 325.11 355.39L325.112 355.39L326.012 355.7C328.822 356.67 331.652 357.74 334.432 358.88C335.333 359.243 336.229 359.616 337.12 360Z" fill="white"/>
</mask>
<g mask="url(#mask2_862_12567)">
<path d="M636.72 337.876C636.72 339.186 636.65 340.486 636.61 341.786C636.592 344.395 636.408 347 636.06 349.586C634.853 360.023 631.741 370.151 626.88 379.466C620.728 391.174 612.025 401.351 601.414 409.245C590.802 417.14 578.553 422.55 565.57 425.076C560.358 426.086 555.068 426.644 549.76 426.746H439.5V401.446H549.76C565.166 401.602 580.112 396.203 591.86 386.236C597.754 381.246 602.711 375.245 606.5 368.516C610.27 361.747 612.755 354.339 613.83 346.666C614.977 339.046 614.661 331.277 612.9 323.776C611.084 316.304 607.782 309.274 603.19 303.106C598.559 296.862 592.72 291.613 586.021 287.67C579.321 283.728 571.897 281.172 564.19 280.156C556.518 279.028 548.69 279.632 541.282 281.925C533.874 284.218 527.074 288.141 521.38 293.406C509.75 303.746 503.5 319.746 504.5 335.346C505.042 343.108 507.498 350.615 511.65 357.196C515.881 363.8 521.64 369.288 528.44 373.196C535.355 377.003 543.079 379.108 550.97 379.336C551.97 379.336 552.92 379.256 553.89 379.246C554.861 379.25 555.831 379.173 556.79 379.016L559.69 378.626L562.52 377.946L563.94 377.616L565.32 377.116C566.23 376.776 567.16 376.506 568.07 376.116C569.862 375.342 571.605 374.461 573.29 373.476C574.989 372.493 576.623 371.401 578.18 370.206C578.96 369.616 579.64 368.916 580.4 368.276L581.51 367.276C581.86 366.926 582.18 366.556 582.51 366.206C585.273 363.379 587.629 360.182 589.51 356.706C591.353 353.229 592.747 349.533 593.66 345.706L594.15 342.766L594.4 341.296L594.5 339.816L594.69 336.816L594.59 333.876C594.361 329.958 593.528 326.099 592.12 322.436C590.676 318.764 588.713 315.319 586.29 312.206C583.776 309.147 580.848 306.455 577.59 304.206C574.291 301.982 570.673 300.272 566.86 299.136C563.031 297.987 559.047 297.441 555.05 297.516C554.05 297.586 553.05 297.516 552.11 297.676L549.17 298.086L546.29 298.766C545.29 298.996 544.42 299.406 543.48 299.706C535.943 302.504 529.591 307.797 525.48 314.706C523.437 318.165 521.984 321.94 521.18 325.876C520.362 329.809 520.26 333.857 520.88 337.826C522.17 345.836 526.46 353.055 532.88 358.016C536.045 360.503 539.647 362.379 543.5 363.546C547.39 364.691 551.464 365.078 555.5 364.686C563.663 363.547 571.047 359.235 576.05 352.686C578.557 349.503 580.302 345.788 581.15 341.826C581.962 337.897 581.727 333.825 580.47 330.016C579.106 326.155 576.833 322.679 573.843 319.882C570.853 317.085 567.233 315.049 563.29 313.946C561.33 313.428 559.317 313.139 557.29 313.086C555.283 313.087 553.286 313.373 551.36 313.936C547.452 315.152 544.019 317.554 541.536 320.807C539.053 324.061 537.643 328.005 537.5 332.096C537.332 336.17 538.764 340.149 541.49 343.181C544.217 346.214 548.021 348.06 552.09 348.326C554.086 348.498 556.094 348.182 557.941 347.405C559.787 346.628 561.417 345.413 562.69 343.866C563.987 342.329 564.874 340.488 565.269 338.516C565.665 336.544 565.555 334.504 564.95 332.586C564.251 330.706 563.002 329.08 561.367 327.92C559.732 326.759 557.785 326.116 555.78 326.076C555.451 326.047 555.145 325.896 554.922 325.653C554.699 325.409 554.575 325.091 554.575 324.761C554.575 324.431 554.699 324.112 554.922 323.869C555.145 323.625 555.451 323.474 555.78 323.446C558.361 323.423 560.888 324.182 563.03 325.622C565.172 327.062 566.828 329.117 567.78 331.516C568.638 333.93 568.863 336.524 568.434 339.05C568.006 341.576 566.937 343.95 565.33 345.946C563.734 347.967 561.677 349.575 559.33 350.636C556.989 351.696 554.426 352.173 551.86 352.026C546.757 351.813 541.941 349.605 538.45 345.876C534.917 342.127 532.99 337.146 533.08 331.996C533.123 326.935 534.757 322.016 537.75 317.936C540.734 313.811 544.928 310.718 549.75 309.086C552.175 308.297 554.701 307.863 557.25 307.796C563.571 307.768 569.747 309.69 574.937 313.299C580.126 316.909 584.077 322.03 586.25 327.966C587.993 332.793 588.438 337.993 587.54 343.046C586.613 348.035 584.561 352.748 581.54 356.826C578.568 360.865 574.855 364.303 570.6 366.956C566.316 369.668 561.514 371.456 556.5 372.206C546.332 373.474 536.066 370.782 527.83 364.686C519.535 358.577 513.873 349.544 511.99 339.416C510.197 329.297 511.964 318.869 516.99 309.906C522.04 300.891 530.022 293.876 539.61 290.026C540.81 289.596 541.99 289.026 543.24 288.716L546.97 287.716L550.79 287.086C552.05 286.876 553.35 286.886 554.62 286.776C559.736 286.547 564.857 287.114 569.8 288.456C574.753 289.795 579.473 291.878 583.8 294.636C588.134 297.437 592.047 300.841 595.42 304.746C598.715 308.733 601.41 313.18 603.42 317.946C605.405 322.728 606.642 327.787 607.09 332.946L607.32 336.836L607.19 340.676L607.1 342.586L606.84 344.496C606.66 345.776 606.49 347.046 606.28 348.316C605.252 353.365 603.571 358.26 601.28 362.876C598.949 367.49 595.987 371.758 592.48 375.556C592.04 376.026 591.63 376.556 591.18 376.996L589.77 378.316C588.77 379.186 587.89 380.106 586.88 380.916C584.876 382.557 582.764 384.064 580.56 385.426C578.359 386.804 576.067 388.03 573.7 389.096C572.51 389.626 571.28 390.046 570.07 390.516L568.24 391.206L566.35 391.726C565.1 392.056 563.83 392.416 562.57 392.726L558.72 393.366C557.435 393.597 556.135 393.734 554.83 393.776C553.53 393.846 552.23 393.966 550.93 393.986C540.511 394.055 530.239 391.532 521.038 386.644C511.837 381.757 503.995 374.657 498.22 365.986C492.364 357.256 488.767 347.209 487.75 336.746C486.853 326.356 488.263 315.897 491.88 306.116C492.777 303.669 493.819 301.278 495 298.956C495.55 297.777 496.175 296.635 496.87 295.536L498.87 292.186C500.39 290.076 501.87 287.916 503.53 285.896L506.12 282.976L507.43 281.516L508.85 280.186C516.405 272.852 525.499 267.295 535.472 263.919C545.444 260.542 556.044 259.431 566.5 260.666C576.915 261.754 587.001 264.942 596.15 270.036C605.351 275.159 613.435 282.07 619.927 290.363C626.418 298.656 631.186 308.163 633.95 318.326L634.95 322.156L635.61 326.056L636.24 329.976C636.36 331.286 636.43 332.606 636.51 333.926L636.72 337.876Z" fill="url(#paint11_linear_862_12567)"/>
<path d="M445.22 401.436H304V426.736H445.22V401.436Z" fill="url(#paint12_linear_862_12567)"/>
<g style="mix-blend-mode:soft-light">
<path style="mix-blend-mode:soft-light" d="M329.89 426.736H312.86L304 417.876V401.436H304.59L329.89 426.736Z" fill="url(#paint13_linear_862_12567)"/>
<path style="mix-blend-mode:soft-light" d="M365.99 426.736H348.96L323.67 401.436H340.7L365.99 426.736Z" fill="url(#paint14_linear_862_12567)"/>
<path style="mix-blend-mode:soft-light" d="M402.09 426.736H385.07L359.77 401.436H376.8L402.09 426.736Z" fill="url(#paint15_linear_862_12567)"/>
<path style="mix-blend-mode:soft-light" d="M438.2 426.736H421.17L395.87 401.436H412.9L438.2 426.736Z" fill="url(#paint16_linear_862_12567)"/>
</g>
<path d="M431.41 398.946H425.95V429.226H431.41V398.946Z" fill="url(#paint17_linear_862_12567)"/>
<path d="M451.24 405.196V422.966C451.24 424.626 450.581 426.218 449.407 427.392C448.233 428.566 446.64 429.226 444.98 429.226H431.41V398.946H444.98C445.802 398.944 446.616 399.105 447.375 399.419C448.134 399.732 448.825 400.192 449.406 400.773C449.987 401.353 450.449 402.043 450.763 402.802C451.078 403.561 451.24 404.374 451.24 405.196Z" fill="url(#paint18_linear_862_12567)"/>
<mask id="mask3_862_12567" style="mask-type:alpha" maskUnits="userSpaceOnUse" x="439" y="260" width="198" height="167">
<path d="M636.22 337.699C636.22 339.009 636.15 340.309 636.11 341.609C636.092 344.218 635.908 346.823 635.56 349.409C634.353 359.847 631.241 369.974 626.38 379.289C620.228 390.997 611.525 401.174 600.914 409.069C590.302 416.963 578.053 422.373 565.07 424.899C559.858 425.909 554.568 426.468 549.26 426.569H439V401.269H549.26C564.666 401.426 579.612 396.026 591.36 386.059C597.254 381.069 602.211 375.068 606 368.339C609.77 361.57 612.255 354.162 613.33 346.489C614.477 338.869 614.161 331.101 612.4 323.599C610.584 316.127 607.282 309.097 602.69 302.929C598.059 296.685 592.22 291.436 585.521 287.494C578.821 283.551 571.397 280.996 563.69 279.979C556.018 278.851 548.19 279.456 540.782 281.748C533.374 284.041 526.574 287.964 520.88 293.229C509.25 303.569 503 319.569 504 335.169C504.542 342.931 506.998 350.438 511.15 357.019C515.381 363.623 521.14 369.111 527.94 373.019C534.855 376.827 542.579 378.931 550.47 379.159C551.47 379.159 552.42 379.079 553.39 379.069C554.361 379.073 555.331 378.996 556.29 378.839L559.19 378.449L562.02 377.769L563.44 377.439L564.82 376.939C565.73 376.599 566.66 376.329 567.57 375.939C569.362 375.166 571.105 374.284 572.79 373.299C574.489 372.316 576.123 371.224 577.68 370.029C578.46 369.439 579.14 368.739 579.9 368.099L581.01 367.099C581.36 366.749 581.68 366.379 582.01 366.029C584.773 363.202 587.129 360.005 589.01 356.529C590.853 353.053 592.247 349.356 593.16 345.529L593.65 342.589L593.9 341.119L594 339.639L594.19 336.639L594.09 333.699C593.861 329.781 593.028 325.922 591.62 322.259C590.176 318.587 588.213 315.142 585.79 312.029C583.276 308.971 580.348 306.278 577.09 304.029C573.791 301.805 570.173 300.095 566.36 298.959C562.531 297.811 558.547 297.264 554.55 297.339C553.55 297.409 552.55 297.339 551.61 297.499L548.67 297.909L545.79 298.589C544.79 298.819 543.92 299.229 542.98 299.529C535.443 302.327 529.091 307.62 524.98 314.529C522.937 317.988 521.484 321.763 520.68 325.699C519.862 329.632 519.76 333.68 520.38 337.649C521.67 345.659 525.96 352.878 532.38 357.839C535.545 360.326 539.147 362.202 543 363.369C546.89 364.514 550.964 364.901 555 364.509C563.163 363.371 570.547 359.059 575.55 352.509C578.057 349.326 579.802 345.611 580.65 341.649C581.462 337.721 581.227 333.648 579.97 329.839C578.606 325.978 576.333 322.503 573.343 319.705C570.353 316.908 566.733 314.872 562.79 313.769C560.83 313.251 558.817 312.963 556.79 312.909C554.783 312.91 552.786 313.196 550.86 313.759C546.952 314.976 543.519 317.377 541.036 320.63C538.553 323.884 537.143 327.829 537 331.919C536.832 335.993 538.264 339.972 540.99 343.005C543.717 346.037 547.521 347.884 551.59 348.149C553.586 348.321 555.594 348.005 557.441 347.228C559.287 346.451 560.917 345.236 562.19 343.689C563.487 342.152 564.374 340.312 564.769 338.339C565.165 336.367 565.055 334.327 564.45 332.409C563.751 330.53 562.502 328.904 560.867 327.743C559.232 326.582 557.285 325.939 555.28 325.899C554.951 325.87 554.645 325.719 554.422 325.476C554.199 325.232 554.075 324.914 554.075 324.584C554.075 324.254 554.199 323.936 554.422 323.692C554.645 323.449 554.951 323.298 555.28 323.269C557.861 323.246 560.388 324.005 562.53 325.445C564.672 326.886 566.328 328.94 567.28 331.339C568.138 333.753 568.363 336.347 567.934 338.873C567.506 341.399 566.437 343.773 564.83 345.769C563.234 347.79 561.177 349.399 558.83 350.459C556.489 351.519 553.926 351.996 551.36 351.849C546.257 351.636 541.441 349.428 537.95 345.699C534.417 341.951 532.49 336.969 532.58 331.819C532.623 326.758 534.257 321.84 537.25 317.759C540.234 313.634 544.428 310.541 549.25 308.909C551.675 308.121 554.201 307.686 556.75 307.619C563.071 307.591 569.247 309.513 574.437 313.122C579.626 316.732 583.577 321.853 585.75 327.789C587.493 332.616 587.938 337.816 587.04 342.869C586.113 347.858 584.061 352.571 581.04 356.649C578.068 360.688 574.355 364.126 570.1 366.779C565.816 369.491 561.014 371.279 556 372.029C545.832 373.298 535.566 370.605 527.33 364.509C519.035 358.4 513.373 349.367 511.49 339.239C509.697 329.12 511.464 318.692 516.49 309.729C521.54 300.715 529.522 293.699 539.11 289.849C540.31 289.419 541.49 288.849 542.74 288.539L546.47 287.539L550.29 286.909C551.55 286.699 552.85 286.709 554.12 286.599C559.236 286.37 564.357 286.937 569.3 288.279C574.253 289.618 578.973 291.702 583.3 294.459C587.634 297.26 591.547 300.664 594.92 304.569C598.215 308.556 600.91 313.003 602.92 317.769C604.905 322.551 606.142 327.611 606.59 332.769L606.82 336.659L606.69 340.499L606.6 342.409L606.34 344.319C606.16 345.599 605.99 346.869 605.78 348.139C604.752 353.189 603.071 358.083 600.78 362.699C598.449 367.313 595.487 371.581 591.98 375.379C591.54 375.849 591.13 376.379 590.68 376.819L589.27 378.139C588.27 379.009 587.39 379.929 586.38 380.739C584.376 382.381 582.264 383.887 580.06 385.249C577.859 386.627 575.567 387.853 573.2 388.919C572.01 389.449 570.78 389.869 569.57 390.339L567.74 391.029L565.85 391.549C564.6 391.879 563.33 392.239 562.07 392.549L558.22 393.189C556.935 393.42 555.635 393.557 554.33 393.599C553.03 393.669 551.73 393.789 550.43 393.809C540.011 393.878 529.739 391.355 520.538 386.467C511.337 381.58 503.495 374.481 497.72 365.809C491.864 357.079 488.267 347.032 487.25 336.569C486.353 326.179 487.763 315.72 491.38 305.939C492.277 303.493 493.319 301.102 494.5 298.779C495.05 297.601 495.675 296.458 496.37 295.359L498.37 292.009C499.89 289.899 501.37 287.739 503.03 285.719L505.62 282.799L506.93 281.339L508.35 280.009C515.905 272.676 524.999 267.119 534.972 263.742C544.944 260.365 555.544 259.254 566 260.489C576.415 261.577 586.501 264.765 595.65 269.859C604.851 274.982 612.935 281.894 619.427 290.186C625.918 298.479 630.686 307.987 633.45 318.149L634.45 321.979L635.11 325.879L635.74 329.799C635.86 331.109 635.93 332.429 636.01 333.749L636.22 337.699Z" fill="url(#paint19_linear_862_12567)"/>
</mask>
<g mask="url(#mask3_862_12567)">
<g filter="url(#filter6_f_862_12567)">
<path d="M451 409.312L509.1 409.412H538.2C547.8 409.512 557.3 408.312 566.5 405.412C575.6 402.612 584.3 398.212 591.9 392.512C599.6 386.812 606.2 379.812 611.1 371.612C613.5 367.512 615.3 363.112 616.7 358.612L617.6 355.212C617.8 354.612 617.9 354.012 618 353.512L618.3 351.712C618.8 349.412 618.8 347.012 619.1 344.612C619.5 335.112 617.7 325.512 614.8 316.512C614.2 314.212 613.2 312.012 612.3 309.812C611.9 308.712 611.3 307.612 610.8 306.612C610.3 305.512 609.8 304.512 609.2 303.412L607.4 300.312C607.1 299.812 606.8 299.312 606.5 298.812L605.5 297.412C604.8 296.412 604.1 295.512 603.4 294.512L601.1 291.812C597.9 288.412 594.2 285.212 590.1 282.812C586 280.412 581.6 278.612 577 277.412C572.4 276.212 567.6 275.712 562.9 275.812C558.1 275.912 553.4 276.512 548.7 277.512C544 278.612 539.5 280.112 535.2 282.112C530.9 284.112 526.7 286.512 522.9 289.412C521.9 290.112 521 290.912 520.2 291.712C519.3 292.512 518.5 293.312 517.6 294.212C517.2 294.612 516.8 295.112 516.4 295.512L515 296.812C514.6 297.312 514.3 297.812 514 298.212C513.7 298.712 513.3 299.212 513 299.712L512.2 301.212C511.9 301.712 511.7 302.312 511.4 302.812L510 306.212C509.1 308.412 508.1 310.612 507.3 312.912C505.6 317.412 504.1 322.012 503.2 326.712C502.7 329.012 502.4 331.412 502.1 333.812C501.9 336.212 501.9 338.612 502 340.912C502.2 343.312 502.5 345.612 503.1 347.912C503.7 350.212 504.4 352.512 505.4 354.612C507.3 358.912 510.1 362.812 513.3 366.312C516.5 369.812 520.2 372.912 524.1 375.612C528 378.412 532.1 380.812 536.6 382.512C545.5 386.012 555.4 386.512 564.6 384.112C573.8 381.712 582.3 376.512 588.7 369.412C595 362.312 599.2 353.112 599.5 343.612C599.7 338.812 598.9 334.112 597.4 329.612L596.1 326.312L594.6 323.012L592.9 319.812L591.1 316.712C588.6 312.612 585.5 308.912 581.9 305.712C581 304.912 580.1 304.212 579.1 303.412C578.1 302.712 577.2 302.012 576.1 301.412C574.1 300.112 571.9 299.112 569.7 298.312C567.5 297.512 565.2 296.912 562.8 296.512C560.4 296.112 558.1 295.912 555.7 296.012C550.9 296.112 546.2 296.912 541.6 298.412C539.3 299.112 537.1 300.012 534.9 301.112C532.7 302.112 530.7 303.312 528.9 304.912C525.3 308.012 522.6 312.112 520.7 316.412C518.8 320.812 517.5 325.512 517.3 330.212C517 335.012 517.7 339.812 519.5 344.212C521.3 348.612 524.1 352.612 527.6 355.812C531.1 359.112 535.3 361.512 539.7 363.412C544.1 365.312 548.8 366.512 553.6 366.612C558.4 366.712 563.2 365.512 567.3 363.112C571.5 360.712 575 357.312 577.7 353.412C579 351.412 580.2 349.312 581 347.112C581.8 344.912 581.9 342.412 581.9 340.112C581.9 335.312 581 330.512 579 326.112C578 323.912 576.6 321.912 575 320.212C573.3 318.512 571.3 317.112 569.2 316.212C567 315.212 564.7 314.612 562.3 314.312C559.9 314.012 557.5 314.012 555.1 314.212C553.9 314.312 552.7 314.512 551.5 314.612C550.3 314.712 549.1 315.012 548 315.412C545.7 316.112 543.5 317.012 541.5 318.312C539.5 319.612 537.7 321.312 536.5 323.312C535.2 325.312 534.5 327.612 534.3 330.012C534.1 332.412 534.4 334.812 535 337.112C535.6 339.412 536.5 341.712 537.7 343.712C538.9 345.712 540.6 347.512 542.7 348.712C544.8 349.912 547.1 350.512 549.5 350.612C554.2 350.612 559.3 349.512 562.7 346.112C564.4 344.412 565.6 342.312 566.2 340.012C566.5 338.812 566.6 337.612 566.5 336.512C566.4 335.312 566.2 334.112 565.8 333.012C565 330.712 563.5 328.812 561.6 327.312C559.7 325.812 557.5 324.812 555.2 324.112L555.3 323.812C557.6 324.512 559.9 325.512 561.8 327.012C563.7 328.512 565.3 330.512 566.1 332.812C566.5 334.012 566.7 335.212 566.8 336.412C566.8 337.612 566.8 338.912 566.5 340.112C565.9 342.512 564.7 344.712 562.9 346.412C561.2 348.212 559 349.412 556.6 350.112C554.3 350.812 551.8 351.212 549.4 351.112C547 351.012 544.5 350.412 542.4 349.212C540.3 348.012 538.5 346.112 537.3 344.012C536.1 341.912 535.1 339.612 534.5 337.212C533.9 334.812 533.5 332.412 533.7 329.912C533.9 327.512 534.6 325.012 535.9 322.912C537.2 320.812 539.1 319.112 541.1 317.712C543.2 316.412 545.4 315.412 547.8 314.712C549 314.412 550.2 314.112 551.4 313.912C552.6 313.712 553.8 313.512 555 313.512C557.4 313.312 559.9 313.312 562.3 313.612C564.7 313.912 567.1 314.512 569.4 315.512C571.6 316.512 573.7 317.912 575.4 319.712C577.1 321.512 578.5 323.512 579.6 325.712C581.7 330.112 582.6 335.112 582.6 340.012C582.6 341.212 582.5 342.412 582.4 343.712C582.3 344.912 582.1 346.212 581.6 347.312C580.8 349.612 579.6 351.812 578.2 353.812C575.4 357.812 571.8 361.312 567.6 363.812C563.3 366.312 558.4 367.512 553.5 367.412C548.6 367.412 543.7 366.112 539.3 364.212C534.8 362.312 530.5 359.812 526.9 356.512C523.2 353.212 520.3 349.112 518.5 344.512C516.7 339.912 515.9 334.912 516.2 330.012C516.4 325.112 517.7 320.312 519.6 315.812C521.6 311.312 524.4 307.212 528.1 303.912C529.9 302.212 532.1 300.912 534.3 299.912C536.5 298.812 538.8 297.912 541.1 297.112C545.7 295.612 550.6 294.712 555.5 294.612C558 294.512 560.4 294.712 562.8 295.112C565.2 295.512 567.6 296.112 569.9 296.912C572.2 297.712 574.5 298.812 576.6 300.112C577.7 300.712 578.7 301.412 579.7 302.112C580.7 302.912 581.7 303.612 582.6 304.412C586.3 307.712 589.4 311.512 592 315.612L593.9 318.812L595.6 322.012L597.1 325.312L598.4 328.712C600 333.412 600.8 338.312 600.6 343.212C600.3 353.112 596 362.612 589.5 369.912C583 377.312 574.2 382.612 564.7 385.112C555.2 387.612 544.9 387.112 535.7 383.512C531.1 381.712 526.8 379.212 522.8 376.412C518.8 373.612 515 370.512 511.7 366.812C508.4 363.212 505.4 359.112 503.4 354.612C502.3 352.412 501.6 350.012 500.9 347.612C500.3 345.212 499.9 342.712 499.7 340.312C499.6 337.812 499.6 335.412 499.8 332.912C500 330.412 500.3 328.012 500.9 325.612C501.9 320.812 503.4 316.112 505.1 311.512C506 309.212 506.9 307.012 507.8 304.712L509.3 301.412C509.6 300.812 509.8 300.312 510.1 299.712L511 298.012C511.3 297.412 511.7 296.912 512 296.412C512.4 295.912 512.7 295.412 513.1 294.912L514.3 293.512C514.7 293.012 515.1 292.512 515.5 292.112C516.4 291.212 517.2 290.312 518.2 289.512C519.1 288.712 520 287.912 521 287.112C524.9 284.112 529.2 281.612 533.6 279.612C538.1 277.612 542.7 275.912 547.5 274.812C552.3 273.712 557.2 273.112 562.1 273.012C567 272.912 572 273.412 576.8 274.612C581.6 275.812 586.2 277.712 590.5 280.212C594.8 282.712 598.6 286.012 602 289.512L604.4 292.312C605.2 293.312 605.9 294.312 606.6 295.312L607.7 296.812C608 297.312 608.3 297.912 608.7 298.412L610.6 301.612C611.2 302.712 611.7 303.812 612.2 304.912C612.7 306.012 613.3 307.112 613.7 308.212C614.6 310.512 615.6 312.712 616.3 315.112C619.3 324.412 621.2 334.212 620.8 344.112C620.6 346.612 620.5 349.012 620 351.512L619.7 353.312C619.6 353.912 619.5 354.512 619.3 355.112L618.4 358.712C617 363.412 615.1 368.012 612.6 372.312C607.6 380.812 600.7 388.112 592.8 394.012C584.9 399.912 576 404.412 566.7 407.312C557.3 410.312 547.4 411.612 537.7 411.512H508.6L451 412.312V409.312Z" fill="white"/>
</g>
</g>
<mask id="mask4_862_12567" style="mask-type:alpha" maskUnits="userSpaceOnUse" x="304" y="401" width="147" height="26">
<path d="M451 401H304V427H451V401Z" fill="url(#paint20_linear_862_12567)"/>
</mask>
<g mask="url(#mask4_862_12567)">
<g filter="url(#filter7_f_862_12567)">
<path d="M448 411H295" stroke="white" stroke-width="3"/>
</g>
</g>
</g>
<mask id="mask5_862_12567" style="mask-type:alpha" maskUnits="userSpaceOnUse" x="299" y="349" width="160" height="120">
<path fill-rule="evenodd" clip-rule="evenodd" d="M350.782 366.941C351.704 367.482 352.61 368.048 353.5 368.639V364H447.5L459 453.5H347.93C343.536 456.029 338.965 458.238 334.252 460.111C331.582 461.201 329.072 462.121 326.872 462.891C326.631 462.975 326.389 463.06 326.144 463.146C324.153 463.846 322.014 464.598 319.422 465.311C316.512 466.111 314.092 466.761 311.792 467.311C309.922 467.771 308.322 468.121 306.792 468.421C306.631 468.452 306.467 468.468 306.302 468.471C305.813 468.471 305.335 468.324 304.93 468.05C304.526 467.775 304.213 467.385 304.032 466.931C303.825 466.41 303.812 465.833 303.996 465.304C304.179 464.775 304.547 464.33 305.032 464.051C306.211 463.318 307.404 462.6 308.593 461.884L308.593 461.884L309.262 461.481C311.162 460.331 313.082 459.211 314.992 458.101L328.702 450.101C332.722 447.721 336.982 445.171 340.852 442.481C342.609 441.297 344.28 439.99 345.852 438.571C346.26 438.195 346.647 437.797 347.012 437.381C346.652 436.955 346.265 436.555 345.852 436.181C344.281 434.759 342.61 433.453 340.852 432.271C337.052 429.651 332.942 427.151 328.702 424.651L314.602 416.441L311.732 414.751C311.23 414.457 310.814 414.037 310.524 413.533C310.235 413.029 310.082 412.457 310.082 411.876C310.082 411.294 310.235 410.723 310.524 410.218C310.814 409.714 311.23 409.294 311.732 409.001L328.242 399.391C332.832 396.671 337.682 393.771 342.152 390.671C344.164 389.305 346.078 387.801 347.882 386.171C348.384 385.712 348.855 385.221 349.292 384.701L349.372 384.611L349.242 384.461C348.821 383.964 348.367 383.496 347.882 383.061C346.074 381.428 344.156 379.921 342.142 378.551C337.792 375.541 333.082 372.711 328.232 369.841L312.602 360.741C310.412 359.461 308.222 358.171 306.032 356.851C304.412 355.884 302.792 354.901 301.172 353.901C300.673 353.604 300.298 353.137 300.114 352.587C299.931 352.036 299.951 351.437 300.172 350.901C300.394 350.35 300.801 349.895 301.324 349.614C301.846 349.332 302.451 349.243 303.032 349.361C304.722 349.681 306.512 350.071 308.802 350.621C311.382 351.231 314.142 351.951 317.492 352.951C318.932 353.381 320.352 353.821 321.772 354.281C322.892 354.63 324.001 355.01 325.11 355.39L325.112 355.391L326.012 355.701C328.822 356.671 331.652 357.741 334.432 358.881C340.077 361.153 345.542 363.848 350.782 366.941Z" fill="black"/>
</mask>
<g mask="url(#mask5_862_12567)">
<g filter="url(#filter8_f_862_12567)">
<path d="M342.152 390.67C337.682 393.77 332.832 396.67 328.242 399.39L311.732 409C311.23 409.294 310.813 409.714 310.524 410.218C310.234 410.722 310.082 411.294 310.082 411.875C310.082 412.457 310.234 413.028 310.524 413.533C310.813 414.037 311.23 414.457 311.732 414.75L314.602 416.44L328.702 424.65C332.942 427.15 337.052 429.65 340.852 432.27" stroke="url(#paint21_radial_862_12567)" stroke-width="8"/>
</g>
</g>
<mask id="mask6_862_12567" style="mask-type:alpha" maskUnits="userSpaceOnUse" x="299" y="349" width="160" height="120">
<path fill-rule="evenodd" clip-rule="evenodd" d="M350.782 366.941C351.704 367.482 352.61 368.048 353.5 368.639V364H447.5L459 453.5H347.93C343.536 456.029 338.965 458.238 334.252 460.111C331.582 461.201 329.072 462.121 326.872 462.891C326.631 462.975 326.389 463.06 326.144 463.146C324.153 463.846 322.014 464.598 319.422 465.311C316.512 466.111 314.092 466.761 311.792 467.311C309.922 467.771 308.322 468.121 306.792 468.421C306.631 468.452 306.467 468.468 306.302 468.471C305.813 468.471 305.335 468.324 304.93 468.05C304.526 467.775 304.213 467.385 304.032 466.931C303.825 466.41 303.812 465.833 303.996 465.304C304.179 464.775 304.547 464.33 305.032 464.051C306.211 463.318 307.404 462.6 308.593 461.884L308.593 461.884L309.262 461.481C311.162 460.331 313.082 459.211 314.992 458.101L328.702 450.101C332.722 447.721 336.982 445.171 340.852 442.481C342.609 441.297 344.28 439.99 345.852 438.571C346.26 438.195 346.647 437.797 347.012 437.381C346.652 436.955 346.265 436.555 345.852 436.181C344.281 434.759 342.61 433.453 340.852 432.271C337.052 429.651 332.942 427.151 328.702 424.651L314.602 416.441L311.732 414.751C311.23 414.457 310.814 414.037 310.524 413.533C310.235 413.029 310.082 412.457 310.082 411.876C310.082 411.294 310.235 410.723 310.524 410.218C310.814 409.714 311.23 409.294 311.732 409.001L328.242 399.391C332.832 396.671 337.682 393.771 342.152 390.671C344.164 389.305 346.078 387.801 347.882 386.171C348.384 385.712 348.855 385.221 349.292 384.701L349.372 384.611L349.242 384.461C348.821 383.964 348.367 383.496 347.882 383.061C346.074 381.428 344.156 379.921 342.142 378.551C337.792 375.541 333.082 372.711 328.232 369.841L312.602 360.741C310.412 359.461 308.222 358.171 306.032 356.851C304.412 355.884 302.792 354.901 301.172 353.901C300.673 353.604 300.298 353.137 300.114 352.587C299.931 352.036 299.951 351.437 300.172 350.901C300.394 350.35 300.801 349.895 301.324 349.614C301.846 349.332 302.451 349.243 303.032 349.361C304.722 349.681 306.512 350.071 308.802 350.621C311.382 351.231 314.142 351.951 317.492 352.951C318.932 353.381 320.352 353.821 321.772 354.281C322.892 354.63 324.001 355.01 325.11 355.39L325.112 355.391L326.012 355.701C328.822 356.671 331.652 357.741 334.432 358.881C340.077 361.153 345.542 363.848 350.782 366.941Z" fill="black"/>
</mask>
<g mask="url(#mask6_862_12567)">
<g filter="url(#filter9_f_862_12567)">
<path d="M342.152 390.67C337.682 393.77 332.832 396.67 328.242 399.39L311.732 409C311.23 409.294 310.813 409.714 310.524 410.218C310.234 410.722 310.082 411.294 310.082 411.875C310.082 412.457 310.234 413.028 310.524 413.533C310.813 414.037 311.23 414.457 311.732 414.75L314.602 416.44L328.702 424.65C332.942 427.15 337.052 429.65 340.852 432.27" stroke="url(#paint22_radial_862_12567)" stroke-width="12"/>
</g>
</g>
<path d="M228.26 67.8458V68.0658C194.22 78.7219 162.973 96.8103 136.781 121.023C110.588 145.235 90.1041 174.966 76.8103 208.066C74.9036 212.799 73.157 217.556 71.5703 222.336L66.8303 208.466L63.9303 199.946L54.9303 173.396L46.4803 148.626L34.4703 113.546L33.6703 111.196L26.0003 88.7458L18.0003 65.2658L14.0403 53.6658L6.80028 32.4258L5.58028 28.8458L0.580284 14.2458C-0.065373 12.3603 -0.174664 10.3325 0.264593 8.3885C0.70385 6.44451 1.67439 4.66071 3.06802 3.23597C4.46165 1.81123 6.2236 0.801552 8.15743 0.319494C10.0913 -0.162565 12.121 -0.0980591 14.0203 0.505822L25.7703 4.19583L34.5203 6.94583L48.7003 11.3858L70.3403 18.1858L81.0403 21.5558L103.89 28.7458L116.33 32.6558L136.24 38.9158L157.29 45.5258L159.13 46.1058L191.47 56.2758L204.91 60.5058L214.36 63.5058L228.26 67.8458Z" fill="url(#paint23_linear_862_12567)"/>
<path d="M228.261 67.8454L228.081 68.1254C194.073 78.8046 162.862 96.9035 136.702 121.115C110.542 145.326 90.0857 175.045 76.8107 208.125C74.904 212.859 73.1573 217.615 71.5707 222.395L66.8307 208.525L63.9307 200.005C89.4493 138.016 138.402 88.6026 200.151 62.5054C201.731 61.8387 203.317 61.172 204.911 60.5054L214.361 63.5054L228.261 67.8454Z" fill="#42C5E9"/>
<path d="M46.4202 148.616C70.3968 102.506 109.561 66.0902 157.29 45.5258L136.24 38.9158L116.33 32.6558C83.177 52.2173 54.9181 79.0774 33.7002 111.196L34.5002 113.546L46.4202 148.616Z" fill="#42C5E9"/>
<path d="M17.9908 65.2458C32.8296 46.8921 50.4856 31.0081 70.3008 18.1858L48.7008 11.3858L34.5208 6.9458C24.6573 14.7348 15.3913 23.252 6.80078 32.4258L14.0408 53.6658L17.9908 65.2458Z" fill="#42C5E9"/>
<mask id="mask7_862_12567" style="mask-type:alpha" maskUnits="userSpaceOnUse" x="0" y="0" width="229" height="223">
<path d="M228.26 67.8458V68.0658C194.22 78.7219 162.973 96.8103 136.781 121.023C110.588 145.235 90.1041 174.966 76.8103 208.066C74.9036 212.799 73.157 217.556 71.5703 222.336L66.8303 208.466L63.9303 199.946L54.9303 173.396L46.4803 148.626L34.4703 113.546L33.6703 111.196L26.0003 88.7458L18.0003 65.2658L14.0403 53.6658L6.80028 32.4258L5.58028 28.8458L0.580284 14.2458C-0.065373 12.3603 -0.174664 10.3325 0.264593 8.3885C0.70385 6.44451 1.67439 4.66071 3.06802 3.23597C4.46165 1.81123 6.2236 0.801552 8.15743 0.319494C10.0913 -0.162565 12.121 -0.0980591 14.0203 0.505822L25.7703 4.19583L34.5203 6.94583L48.7003 11.3858L70.3403 18.1858L81.0403 21.5558L103.89 28.7458L116.33 32.6558L136.24 38.9158L157.29 45.5258L159.13 46.1058L191.47 56.2758L204.91 60.5058L214.36 63.5058L228.26 67.8458Z" fill="url(#paint24_linear_862_12567)"/>
<path d="M228.261 67.8454L228.081 68.1254C194.073 78.8046 162.862 96.9035 136.702 121.115C110.542 145.326 90.0857 175.045 76.8107 208.125C74.904 212.859 73.1573 217.615 71.5707 222.395L66.8307 208.525L63.9307 200.005C89.4493 138.016 138.402 88.6026 200.151 62.5054C201.731 61.8387 203.317 61.172 204.911 60.5054L214.361 63.5054L228.261 67.8454Z" fill="#42C5E9"/>
<path d="M46.4202 148.616C70.3968 102.506 109.561 66.0902 157.29 45.5258L136.24 38.9158L116.33 32.6558C83.177 52.2173 54.9181 79.0774 33.7002 111.196L34.5002 113.546L46.4202 148.616Z" fill="#42C5E9"/>
<path d="M17.9908 65.2458C32.8296 46.8921 50.4856 31.0081 70.3008 18.1858L48.7008 11.3858L34.5208 6.9458C24.6573 14.7348 15.3913 23.252 6.80078 32.4258L14.0408 53.6658L17.9908 65.2458Z" fill="#42C5E9"/>
</mask>
<g mask="url(#mask7_862_12567)">
<g filter="url(#filter10_f_862_12567)">
<path d="M-14 -16L166 142" stroke="white" stroke-width="8"/>
</g>
</g>
<path d="M112.37 265.146C104.79 276.616 127.91 291.885 120.37 303.355C112.83 314.825 89.6801 299.556 82.1001 311.016C74.5201 322.476 97.6401 337.766 90.1001 349.236C82.5601 360.706 59.4101 345.436 51.8301 356.906" stroke="#DD0044" stroke-width="8" stroke-miterlimit="10" stroke-linecap="round"/>
<path d="M505.28 124.416C509.82 137.416 535.97 128.226 540.52 141.206C545.07 154.186 518.91 163.336 523.45 176.306C527.99 189.276 554.15 180.126 558.69 193.096C563.23 206.066 537.09 215.236 541.63 228.206" stroke="#F15A24" stroke-width="8" stroke-miterlimit="10" stroke-linecap="round"/>
<path d="M433.22 455.366L416.3 482.286L450.16 501.996L462.22 470.436L433.22 455.366Z" fill="#42C5E9"/>
<path d="M65.4806 432.986L48.5605 459.916L82.4205 479.616L94.4806 448.056L65.4806 432.986Z" fill="#DD0044"/>
<path d="M345.16 101.105L328.25 128.025L362.11 147.725L374.16 116.165L345.16 101.105Z" fill="#3066D9"/>
<path d="M182.35 417.236L165.43 444.166L199.3 463.866L211.35 432.306L182.35 417.236Z" fill="#2E67DE"/>
<path d="M420.931 9.3457L404.021 36.2657L437.881 55.9657L449.931 24.4057L420.931 9.3457Z" fill="#42C5E9"/>
<path d="M56.92 221.556L40 248.476L73.86 268.176L85.92 236.616L56.92 221.556Z" fill="#F15A24"/>
<path d="M205.311 36.0957L188.391 63.0157L222.261 82.7157L234.311 51.1557L205.311 36.0957Z" fill="#DD0044"/>
<path d="M289.14 516L272.22 542.92L306.09 562.63L318.14 531.06L289.14 516Z" fill="#F15A24"/>
<defs>
<filter id="filter0_f_862_12567" x="33.1851" y="262.558" width="535.022" height="306.595" filterUnits="userSpaceOnUse" color-interpolation-filters="sRGB">
<feFlood flood-opacity="0" result="BackgroundImageFix"/>
<feBlend mode="normal" in="SourceGraphic" in2="BackgroundImageFix" result="shape"/>
<feGaussianBlur stdDeviation="12.5" result="effect1_foregroundBlur_862_12567"/>
</filter>
<filter id="filter1_f_862_12567" x="18.1851" y="247.558" width="565.022" height="336.595" filterUnits="userSpaceOnUse" color-interpolation-filters="sRGB">
<feFlood flood-opacity="0" result="BackgroundImageFix"/>
<feBlend mode="normal" in="SourceGraphic" in2="BackgroundImageFix" result="shape"/>
<feGaussianBlur stdDeviation="20" result="effect1_foregroundBlur_862_12567"/>
</filter>
<filter id="filter2_f_862_12567" x="256.021" y="299" width="220" height="220" filterUnits="userSpaceOnUse" color-interpolation-filters="sRGB">
<feFlood flood-opacity="0" result="BackgroundImageFix"/>
<feBlend mode="normal" in="SourceGraphic" in2="BackgroundImageFix" result="shape"/>
<feGaussianBlur stdDeviation="30" result="effect1_foregroundBlur_862_12567"/>
</filter>
<filter id="filter3_f_862_12567" x="325" y="199" width="220" height="220" filterUnits="userSpaceOnUse" color-interpolation-filters="sRGB">
<feFlood flood-opacity="0" result="BackgroundImageFix"/>
<feBlend mode="normal" in="SourceGraphic" in2="BackgroundImageFix" result="shape"/>
<feGaussianBlur stdDeviation="30" result="effect1_foregroundBlur_862_12567"/>
</filter>
<filter id="filter4_f_862_12567" x="58" y="199" width="220" height="220" filterUnits="userSpaceOnUse" color-interpolation-filters="sRGB">
<feFlood flood-opacity="0" result="BackgroundImageFix"/>
<feBlend mode="normal" in="SourceGraphic" in2="BackgroundImageFix" result="shape"/>
<feGaussianBlur stdDeviation="30" result="effect1_foregroundBlur_862_12567"/>
</filter>
<filter id="filter5_f_862_12567" x="318.418" y="381.8" width="203.421" height="113.23" filterUnits="userSpaceOnUse" color-interpolation-filters="sRGB">
<feFlood flood-opacity="0" result="BackgroundImageFix"/>
<feBlend mode="normal" in="SourceGraphic" in2="BackgroundImageFix" result="shape"/>
<feGaussianBlur stdDeviation="15" result="effect1_foregroundBlur_862_12567"/>
</filter>
<filter id="filter6_f_862_12567" x="441" y="263" width="189.853" height="159.312" filterUnits="userSpaceOnUse" color-interpolation-filters="sRGB">
<feFlood flood-opacity="0" result="BackgroundImageFix"/>
<feBlend mode="normal" in="SourceGraphic" in2="BackgroundImageFix" result="shape"/>
<feGaussianBlur stdDeviation="5" result="effect1_foregroundBlur_862_12567"/>
</filter>
<filter id="filter7_f_862_12567" x="287" y="401.5" width="169" height="19" filterUnits="userSpaceOnUse" color-interpolation-filters="sRGB">
<feFlood flood-opacity="0" result="BackgroundImageFix"/>
<feBlend mode="normal" in="SourceGraphic" in2="BackgroundImageFix" result="shape"/>
<feGaussianBlur stdDeviation="4" result="effect1_foregroundBlur_862_12567"/>
</filter>
<filter id="filter8_f_862_12567" x="294.082" y="375.383" width="62.3491" height="72.1802" filterUnits="userSpaceOnUse" color-interpolation-filters="sRGB">
<feFlood flood-opacity="0" result="BackgroundImageFix"/>
<feBlend mode="normal" in="SourceGraphic" in2="BackgroundImageFix" result="shape"/>
<feGaussianBlur stdDeviation="6" result="effect1_foregroundBlur_862_12567"/>
</filter>
<filter id="filter9_f_862_12567" x="290.082" y="371.74" width="69.4893" height="79.4697" filterUnits="userSpaceOnUse" color-interpolation-filters="sRGB">
<feFlood flood-opacity="0" result="BackgroundImageFix"/>
<feBlend mode="normal" in="SourceGraphic" in2="BackgroundImageFix" result="shape"/>
<feGaussianBlur stdDeviation="7" result="effect1_foregroundBlur_862_12567"/>
</filter>
<filter id="filter10_f_862_12567" x="-46.6387" y="-49.0063" width="245.277" height="224.013" filterUnits="userSpaceOnUse" color-interpolation-filters="sRGB">
<feFlood flood-opacity="0" result="BackgroundImageFix"/>
<feBlend mode="normal" in="SourceGraphic" in2="BackgroundImageFix" result="shape"/>
<feGaussianBlur stdDeviation="15" result="effect1_foregroundBlur_862_12567"/>
</filter>
<radialGradient id="paint0_radial_862_12567" cx="0" cy="0" r="1" gradientUnits="userSpaceOnUse" gradientTransform="translate(301 56) rotate(90) scale(482)">
<stop stop-color="#FFDE43"/>
<stop offset="1" stop-color="#FFBC00"/>
</radialGradient>
<radialGradient id="paint1_radial_862_12567" cx="0" cy="0" r="1" gradientUnits="userSpaceOnUse" gradientTransform="translate(301 120.5) rotate(90) scale(417.5)">
<stop stop-color="white" stop-opacity="0.5"/>
<stop offset="0.782278"/>
</radialGradient>
<radialGradient id="paint2_radial_862_12567" cx="0" cy="0" r="1" gradientUnits="userSpaceOnUse" gradientTransform="translate(301 120.5) rotate(90) scale(417.5)">
<stop stop-color="white" stop-opacity="0.5"/>
<stop offset="0.782278"/>
</radialGradient>
<radialGradient id="paint3_radial_862_12567" cx="0" cy="0" r="1" gradientUnits="userSpaceOnUse" gradientTransform="translate(301 3.50001) rotate(90) scale(534.5 722.835)">
<stop offset="0.0922635" stop-color="white"/>
<stop offset="0.670207" stop-color="white" stop-opacity="0"/>
</radialGradient>
<radialGradient id="paint4_radial_862_12567" cx="0" cy="0" r="1" gradientUnits="userSpaceOnUse" gradientTransform="translate(332.762 408.336) scale(24.7525 120.419)">
<stop stop-color="#743C1C"/>
<stop offset="1" stop-color="#401C02"/>
</radialGradient>
<linearGradient id="paint5_linear_862_12567" x1="366.539" y1="408.581" x2="298.987" y2="408.581" gradientUnits="userSpaceOnUse">
<stop stop-color="#FFDE43"/>
<stop offset="0.22" stop-color="#FED93F"/>
<stop offset="0.51" stop-color="#FCC934"/>
<stop offset="0.82" stop-color="#F9AF21"/>
<stop offset="1" stop-color="#F79D14"/>
</linearGradient>
<radialGradient id="paint6_radial_862_12567" cx="0" cy="0" r="1" gradientUnits="userSpaceOnUse" gradientTransform="translate(217.463 290.126) scale(63.3847 18.7281)">
<stop stop-color="#743C1C"/>
<stop offset="1" stop-color="#401C02"/>
</radialGradient>
<linearGradient id="paint7_linear_862_12567" x1="217.532" y1="309.886" x2="217.532" y2="270.239" gradientUnits="userSpaceOnUse">
<stop stop-color="#FFDE43"/>
<stop offset="0.22" stop-color="#FED93F"/>
<stop offset="0.51" stop-color="#FCC934"/>
<stop offset="0.82" stop-color="#F9AF21"/>
<stop offset="1" stop-color="#F79D14"/>
</linearGradient>
<radialGradient id="paint8_radial_862_12567" cx="0" cy="0" r="1" gradientUnits="userSpaceOnUse" gradientTransform="translate(384.546 290.126) scale(63.387 18.7281)">
<stop stop-color="#743C1C"/>
<stop offset="1" stop-color="#401C02"/>
</radialGradient>
<linearGradient id="paint9_linear_862_12567" x1="384.614" y1="309.886" x2="384.614" y2="270.239" gradientUnits="userSpaceOnUse">
<stop stop-color="#FFDE43"/>
<stop offset="0.22" stop-color="#FED93F"/>
<stop offset="0.51" stop-color="#FCC934"/>
<stop offset="0.82" stop-color="#F9AF21"/>
<stop offset="1" stop-color="#F79D14"/>
</linearGradient>
<radialGradient id="paint10_radial_862_12567" cx="0" cy="0" r="1" gradientUnits="userSpaceOnUse" gradientTransform="translate(301 56) rotate(90) scale(482)">
<stop stop-color="#FFDE43"/>
<stop offset="1" stop-color="#FFBC00"/>
</radialGradient>
<linearGradient id="paint11_linear_862_12567" x1="546.72" y1="428.406" x2="518.11" y2="266.156" gradientUnits="userSpaceOnUse">
<stop stop-color="#005269"/>
<stop offset="0.7" stop-color="#42C5E9"/>
</linearGradient>
<linearGradient id="paint12_linear_862_12567" x1="374.61" y1="426.736" x2="374.61" y2="401.436" gradientUnits="userSpaceOnUse">
<stop stop-color="#053584"/>
<stop offset="0.7" stop-color="#1D60D1"/>
</linearGradient>
<linearGradient id="paint13_linear_862_12567" x1="325.63" y1="430.986" x2="300.04" y2="405.396" gradientUnits="userSpaceOnUse">
<stop stop-color="#17A7CF"/>
<stop offset="0.7" stop-color="#42C5E9"/>
</linearGradient>
<linearGradient id="paint14_linear_862_12567" x1="18225" y1="12349.1" x2="17471.6" y2="11088.8" gradientUnits="userSpaceOnUse">
<stop stop-color="#17A7CF"/>
<stop offset="0.7" stop-color="#42C5E9"/>
</linearGradient>
<linearGradient id="paint15_linear_862_12567" x1="19788.9" y1="12349.1" x2="19035.4" y2="11088.8" gradientUnits="userSpaceOnUse">
<stop stop-color="#17A7CF"/>
<stop offset="0.7" stop-color="#42C5E9"/>
</linearGradient>
<linearGradient id="paint16_linear_862_12567" x1="21357.7" y1="12349.1" x2="20604.3" y2="11088.6" gradientUnits="userSpaceOnUse">
<stop stop-color="#17A7CF"/>
<stop offset="0.7" stop-color="#42C5E9"/>
</linearGradient>
<linearGradient id="paint17_linear_862_12567" x1="428.68" y1="429.226" x2="428.68" y2="398.946" gradientUnits="userSpaceOnUse">
<stop stop-color="#021738"/>
<stop offset="0.7" stop-color="#053584"/>
</linearGradient>
<linearGradient id="paint18_linear_862_12567" x1="9450.68" y1="14645.1" x2="9450.68" y2="13728.2" gradientUnits="userSpaceOnUse">
<stop stop-color="#053584"/>
<stop offset="0.7" stop-color="#1D60D1"/>
</linearGradient>
<linearGradient id="paint19_linear_862_12567" x1="546.22" y1="428.229" x2="517.61" y2="265.979" gradientUnits="userSpaceOnUse">
<stop stop-color="#005269"/>
<stop offset="0.7" stop-color="#42C5E9"/>
</linearGradient>
<linearGradient id="paint20_linear_862_12567" x1="377.5" y1="427" x2="377.5" y2="401" gradientUnits="userSpaceOnUse">
<stop stop-color="#053584"/>
<stop offset="0.7" stop-color="#1D60D1"/>
</linearGradient>
<radialGradient id="paint21_radial_862_12567" cx="0" cy="0" r="1" gradientUnits="userSpaceOnUse" gradientTransform="translate(326.117 411.386) scale(12.1035 42.0183)">
<stop stop-color="#743C1C"/>
<stop offset="1" stop-color="#401C02"/>
</radialGradient>
<radialGradient id="paint22_radial_862_12567" cx="0" cy="0" r="1" gradientUnits="userSpaceOnUse" gradientTransform="translate(326.117 411.386) scale(12.1035 42.0183)">
<stop stop-color="#743C1C"/>
<stop offset="1" stop-color="#401C02"/>
</radialGradient>
<linearGradient id="paint23_linear_862_12567" x1="155.59" y1="151.866" x2="19.3603" y2="-10.4742" gradientUnits="userSpaceOnUse">
<stop stop-color="#04265E"/>
<stop offset="0.7" stop-color="#1D60D1"/>
</linearGradient>
<linearGradient id="paint24_linear_862_12567" x1="155.59" y1="151.866" x2="19.3603" y2="-10.4742" gradientUnits="userSpaceOnUse">
<stop stop-color="#04265E"/>
<stop offset="0.7" stop-color="#1D60D1"/>
</linearGradient>
</defs>
</svg>
