<svg width="483" height="483" viewBox="0 0 483 483" fill="none" xmlns="http://www.w3.org/2000/svg">
<path d="M241.18 482.36C374.38 482.36 482.36 374.38 482.36 241.18C482.36 107.98 374.38 0 241.18 0C107.98 0 0 107.98 0 241.18C0 374.38 107.98 482.36 241.18 482.36Z" fill="url(#paint0_radial_862_12535)"/>
<g style="mix-blend-mode:soft-light">
<path d="M241.18 482.36C374.38 482.36 482.36 374.38 482.36 241.18C482.36 107.98 374.38 0 241.18 0C107.98 0 0 107.98 0 241.18C0 374.38 107.98 482.36 241.18 482.36Z" fill="url(#paint1_radial_862_12535)"/>
</g>
<g style="mix-blend-mode:soft-light">
<path d="M241.18 482.36C374.38 482.36 482.36 374.38 482.36 241.18C482.36 107.98 374.38 0 241.18 0C107.98 0 0 107.98 0 241.18C0 374.38 107.98 482.36 241.18 482.36Z" fill="url(#paint2_radial_862_12535)"/>
</g>
<g style="mix-blend-mode:overlay">
<path d="M241.18 482.36C374.38 482.36 482.36 374.38 482.36 241.18C482.36 107.98 374.38 0 241.18 0C107.98 0 0 107.98 0 241.18C0 374.38 107.98 482.36 241.18 482.36Z" fill="url(#paint3_radial_862_12535)" fill-opacity="0.7"/>
</g>
<mask id="mask0_862_12535" style="mask-type:alpha" maskUnits="userSpaceOnUse" x="0" y="0" width="483" height="483">
<path d="M241.18 482.36C374.38 482.36 482.36 374.38 482.36 241.18C482.36 107.98 374.38 0 241.18 0C107.98 0 0 107.98 0 241.18C0 374.38 107.98 482.36 241.18 482.36Z" fill="white"/>
</mask>
<g mask="url(#mask0_862_12535)">
<g filter="url(#filter0_f_862_12535)">
<path d="M-1.3759 234.299C-1.11402 230.872 0.0137008 230.529 0.342619 234.009C0.708055 237.875 -0.00231624 245.647 0.16871 250.335C0.621554 262.748 2.52441 273.542 4.48605 282.321C10.8075 310.613 19.5617 328.843 27.7268 344.289C54.5663 395.061 83.9667 420.771 112.648 440.147C154.689 468.55 197.072 477.584 239.49 479.5C240.56 479.549 240.738 486.518 239.686 487.425C237.788 489.062 235.436 487.438 233.494 487.37C227.915 487.174 222.335 486.791 216.756 486.211C200.213 484.492 183.67 480.991 167.162 475.359C122.275 460.044 73.8765 433.821 31.6092 359.962C28.9502 355.316 26.3124 350.424 23.7118 345.168C21.6321 340.964 19.5726 336.557 17.5493 331.844C10.8946 316.342 -4.61323 276.659 -1.3759 234.299ZM239.52 487.5C238.499 487.532 238.241 481.035 239.214 479.686C240.684 477.647 242.888 479.326 244.439 479.229C250.877 478.827 257.314 478.23 263.75 477.422C281.395 475.206 299.028 471.423 316.621 465.596C360.257 451.146 407.17 429.116 448.305 361.431C450.923 357.124 453.518 352.554 456.079 347.641C463.86 332.713 483.361 293.085 481.107 243.821C480.917 239.669 482.181 237.181 482.747 240.744C483.467 245.28 483.175 254.736 482.977 259.768C482.341 275.884 479.866 289.512 477.257 300.518C468.987 335.399 457.376 355.623 446.744 372.51C412.184 427.397 374.648 449.524 338.155 465.425C305.424 479.686 272.444 486.484 239.52 487.5Z" fill="#401C02"/>
</g>
<g filter="url(#filter1_f_862_12535)">
<path d="M-1.3759 234.299C-1.11402 230.872 0.0137008 230.529 0.342619 234.009C0.708055 237.875 -0.00231624 245.647 0.16871 250.335C0.621554 262.748 2.52441 273.542 4.48605 282.321C10.8075 310.613 19.5617 328.843 27.7268 344.289C54.5663 395.061 83.9667 420.771 112.648 440.147C154.689 468.55 197.072 477.584 239.49 479.5C240.56 479.549 240.738 486.518 239.686 487.425C237.788 489.062 235.436 487.438 233.494 487.37C227.915 487.174 222.335 486.791 216.756 486.211C200.213 484.492 183.67 480.991 167.162 475.359C122.275 460.044 73.8765 433.821 31.6092 359.962C28.9502 355.316 26.3124 350.424 23.7118 345.168C21.6321 340.964 19.5726 336.557 17.5493 331.844C10.8946 316.342 -4.61323 276.659 -1.3759 234.299ZM239.52 487.5C238.499 487.532 238.241 481.035 239.214 479.686C240.684 477.647 242.888 479.326 244.439 479.229C250.877 478.827 257.314 478.23 263.75 477.422C281.395 475.206 299.028 471.423 316.621 465.596C360.257 451.146 407.17 429.116 448.305 361.431C450.923 357.124 453.518 352.554 456.079 347.641C463.86 332.713 483.361 293.085 481.107 243.821C480.917 239.669 482.181 237.181 482.747 240.744C483.467 245.28 483.175 254.736 482.977 259.768C482.341 275.884 479.866 289.512 477.257 300.518C468.987 335.399 457.376 355.623 446.744 372.51C412.184 427.397 374.648 449.524 338.155 465.425C305.424 479.686 272.444 486.484 239.52 487.5Z" fill="#401C02"/>
</g>
</g>
<path d="M325 323.6C324.9 323.3 324.7 323 324.6 322.7L324.2 322C324 321.7 323.9 321.4 323.7 321.2L323.6 321.1C323.5 320.9 323.3 320.7 323.2 320.5C322 319 320.7 317.6 319.3 316.3C316.8 314.2 314.1 312.3 311.3 310.6C306.1 307.5 300.6 304.8 295 302.5C292.2 301.4 289.4 300.3 286.6 299.3L285.7 299C284.6 298.6 283.5 298.2 282.4 297.9C281 297.4 279.6 297 278.1 296.6C274.8 295.6 272 294.9 269.4 294.3C267.1 293.8 265.3 293.4 263.6 293C263 292.9 262.4 293 261.9 293.3C261.4 293.6 261 294 260.7 294.6C260.5 295.1 260.5 295.7 260.6 296.3C260.8 296.9 261.2 297.3 261.7 297.6C263.3 298.6 264.9 299.6 266.6 300.6C268.8 301.9 271 303.2 273.2 304.5L288.8 313.6C293.6 316.5 298.4 319.3 302.7 322.3C304.7 323.7 306.6 325.2 308.4 326.8C308.9 327.2 309.3 327.7 309.8 328.2L309.9 328.4L309.8 328.5C309.4 329 308.9 329.5 308.4 330C306.6 331.6 304.7 333.1 302.7 334.5C298.2 337.6 293.4 340.5 288.8 343.2L272.3 352.8C271.8 353.1 271.4 353.5 271.1 354C270.8 354.5 270.7 355.1 270.7 355.7C270.7 356.3 270.9 356.9 271.1 357.4C271.4 357.9 271.8 358.3 272.3 358.6L275.2 360.3L289.3 368.5C293.5 371 297.6 373.5 301.4 376.1C303.2 377.3 304.8 378.6 306.4 380C306.8 380.4 307.2 380.8 307.6 381.2C307.2 381.6 306.8 382 306.4 382.4C304.8 383.8 303.2 385.1 301.4 386.3C297.5 389 293.3 391.5 289.3 393.9L275.6 401.9C273.7 403 271.8 404.1 269.9 405.3C268.5 406.1 267.1 407 265.7 407.9C265.2 408.2 264.8 408.6 264.7 409.2C264.5 409.7 264.5 410.3 264.7 410.8C264.9 411.3 265.2 411.6 265.6 411.9C266 412.2 266.5 412.3 267 412.3C267.2 412.3 267.3 412.3 267.5 412.2C269 411.9 270.6 411.5 272.5 411.1C274.8 410.6 277.2 409.9 280.1 409.1C283 408.3 285.3 407.5 287.6 406.7C289.8 405.9 292.3 405 295 403.9C300 401.9 304.7 399.6 309.3 396.9C311.8 395.4 314.1 393.8 316.3 391.9C317.6 390.8 318.7 389.6 319.8 388.2C320 388 320.1 387.8 320.3 387.5C320.5 387.2 320.6 387.1 320.7 386.9L321.1 386.2C321.2 386 321.3 385.7 321.5 385.4C322.1 384.1 322.4 382.7 322.4 381.2C322.4 379.8 322.1 378.3 321.5 377C321.4 376.8 321.3 376.5 321.1 376.2L320.7 375.5C320.3 375.2 320.2 375 320 374.7L319.9 374.5C319.8 374.3 319.7 374.2 319.6 374C318.6 372.7 317.4 371.4 316.1 370.3C313.9 368.4 311.6 366.8 309.1 365.3C304.5 362.6 299.7 360.3 294.8 358.3C292.9 357.5 291 356.8 289.2 356.1C291 355.4 292.9 354.7 295 353.9C300.6 351.6 306.1 349 311.4 345.9C314.2 344.3 316.9 342.4 319.4 340.2C320.9 339 322.2 337.6 323.3 336C323.4 335.8 323.5 335.7 323.7 335.5L323.8 335.3C323.8 335.2 324 335 324.1 334.7L324.6 333.9C324.7 333.6 324.9 333.3 325 333C325.6 331.5 326 329.9 326 328.3C326 326.7 325.7 325.1 325 323.6Z" fill="url(#paint4_radial_862_12535)"/>
<path d="M266.8 413.2C267 413.2 267.3 413.2 267.5 413.1C269.2 412.8 270.8 412.4 272.6 412C274.9 411.5 277.2 410.8 280.3 410C282.9 409.3 285.1 408.5 287.1 407.8L287.8 407.5C290.5 406.6 292.9 405.6 295.2 404.7C300.2 402.7 305.1 400.3 309.7 397.6C312.2 396.1 314.6 394.4 316.8 392.5C318.1 391.4 319.4 390.1 320.4 388.7C320.6 388.5 320.7 388.2 320.9 387.9L321 387.7C321.1 387.5 321.2 387.4 321.3 387.2L321.7 386.5C321.8 386.3 322 386 322.1 385.7C322.8 384.2 323.1 382.7 323.1 381.1C323.1 379.5 322.8 377.9 322.1 376.5L322 376.2C321.9 376 321.8 375.9 321.8 375.7L321.3 375C321.1 374.7 321 374.5 320.8 374.2L320.7 374C320.6 373.8 320.5 373.6 320.3 373.5C319.2 372.1 318 370.8 316.7 369.7C314.5 367.8 312.1 366.1 309.6 364.6C305 361.9 300.1 359.5 295.1 357.5C294 357 293 356.6 292 356.2C293 355.8 294.1 355.4 295.3 354.9C301 352.6 306.5 349.9 311.8 346.8C314.7 345.1 317.4 343.2 319.9 341.1C321.4 339.8 322.8 338.4 324 336.8C324.1 336.7 324.2 336.6 324.3 336.4L324.5 336C324.7 335.7 324.9 335.4 325 335.2L325.5 334.4C325.7 334.1 325.8 333.8 326 333.4C326.6 331.8 327 330.1 327 328.3C327 326.5 326.6 324.8 325.9 323.2C325.8 322.9 325.6 322.6 325.5 322.3L325.1 321.5C324.9 321.2 324.7 320.9 324.5 320.6L324.4 320.5C324.3 320.4 324.2 320.2 324.1 320L324 319.9C322.8 318.3 321.4 316.8 319.9 315.5C317.4 313.4 314.6 311.4 311.8 309.7C306.5 306.6 301 303.9 295.3 301.6C292.5 300.5 289.7 299.4 286.8 298.4L285.9 298.1C284.8 297.7 283.7 297.3 282.5 297C281.1 296.5 279.7 296.1 278.2 295.7C275.1 294.8 272.4 294 269.5 293.4C267.2 292.9 265.4 292.5 263.7 292.1C262.9 291.9 262.1 292.1 261.3 292.5C260.6 292.9 260 293.5 259.7 294.3C259.4 295.1 259.4 295.9 259.6 296.7C259.9 297.5 260.4 298.1 261.1 298.6C262.7 299.6 264.3 300.6 266 301.5C268.2 302.8 270.4 304.1 272.6 305.4L288.2 314.5C292.8 317.2 297.7 320.1 302 323.2C304 324.5 305.9 326 307.6 327.6C307.9 327.9 308.2 328.1 308.4 328.4C308.1 328.7 307.9 329 307.6 329.2C305.8 330.8 303.9 332.3 302 333.6C297.6 336.6 293 339.4 288.1 342.3L271.6 351.9C270.9 352.3 270.4 352.8 270 353.5C269.6 354.2 269.4 354.9 269.4 355.7C269.4 356.5 269.6 357.2 270 357.9C270.4 358.6 270.9 359.1 271.6 359.5L274.6 361L288.7 369.2C292.4 371.4 296.8 374 300.8 376.8C302.5 378 304.2 379.2 305.7 380.6C305.9 380.7 306 380.9 306.2 381.1C306 381.3 305.9 381.4 305.7 381.6C304.2 383 302.5 384.3 300.8 385.4C297 388 292.9 390.5 288.7 393L275 401C273.1 402.1 271.2 403.2 269.3 404.4L268.6 404.8C267.4 405.5 266.3 406.2 265.1 406.9C264.4 407.3 263.9 407.9 263.6 408.7C263.3 409.5 263.4 410.3 263.7 411C264 411.6 264.4 412.2 265 412.6C265.4 413 266.1 413.2 266.8 413.2ZM324.1 324C324.7 325.4 325 326.8 325 328.3C325 329.8 324.7 331.2 324.1 332.6C324 332.9 323.8 333.2 323.7 333.4L323.3 334.2C323.2 334.5 323 334.7 322.9 334.9L322.6 335.3C322.5 335.4 322.5 335.5 322.4 335.6C321.3 337.1 320 338.4 318.6 339.6C316.2 341.7 313.5 343.5 310.7 345.1C305.5 348.1 300.1 350.8 294.5 353C292.4 353.8 290.6 354.6 288.8 355.2L286.2 356.1L288.8 357C290.6 357.6 292.5 358.4 294.4 359.2C299.3 361.1 304.1 363.5 308.6 366.1C311 367.5 313.3 369.2 315.5 371C316.7 372.1 317.9 373.2 318.8 374.5C318.9 374.6 319 374.8 319.1 374.9L319.2 375.1C319.4 375.4 319.5 375.6 319.6 375.8L320 376.6C320 376.7 320.1 376.9 320.2 377L320.3 377.3C320.8 378.5 321.1 379.7 321.1 381.1C321.1 382.5 320.8 383.7 320.3 384.9C320.2 385.2 320.1 385.4 319.9 385.7L319.5 386.4C319.4 386.5 319.4 386.6 319.3 386.7L319.1 387C318.9 387.3 318.8 387.5 318.7 387.6C317.7 388.9 316.6 390.1 315.4 391.1C313.3 392.9 311 394.6 308.5 396C304 398.7 299.2 401 294.3 402.9C292 403.8 289.6 404.7 287 405.7L286.3 406C284.3 406.7 282.2 407.4 279.7 408.1C276.7 408.9 274.3 409.6 272.1 410.1C270.3 410.5 268.8 410.9 267.1 411.2C267 411.2 266.9 411.2 266.8 411.2C266.5 411.2 266.2 411.1 266 411C265.8 410.8 265.6 410.6 265.5 410.3C265.4 410 265.4 409.7 265.5 409.4C265.6 409.1 265.8 408.8 266.1 408.7C267.3 408 268.4 407.3 269.6 406.6L270.3 406.2C272.2 405.1 274.1 403.9 276 402.8L289.7 394.8C293.9 392.3 298.1 389.8 301.9 387.1C303.7 385.9 305.4 384.6 307 383.1C307.4 382.7 307.9 382.3 308.2 381.8L308.8 381.2L308.2 380.5C307.8 380 307.4 379.6 306.9 379.2C305.3 377.8 303.6 376.4 301.8 375.2C297.8 372.4 293.4 369.8 289.6 367.5L272.6 357.6C272.2 357.4 272 357.1 271.8 356.7C271.6 356.3 271.5 355.9 271.5 355.5C271.5 355.1 271.6 354.7 271.8 354.3C272 353.9 272.3 353.7 272.6 353.4L289.1 343.8C294 340.9 298.7 338.1 303.1 335C305.1 333.6 307.1 332.1 308.9 330.4C309.4 329.9 309.9 329.4 310.4 328.8L311 328.1L310.3 327.3C309.9 326.8 309.4 326.3 308.9 325.8C307.1 324.1 305.1 322.6 303.1 321.2C298.7 318.1 293.8 315.2 289.1 312.5L273.5 303.4C271.3 302.1 269.1 300.8 266.9 299.5C265.3 298.5 263.7 297.6 262 296.6C261.7 296.4 261.5 296.1 261.4 295.8C261.3 295.5 261.3 295.1 261.4 294.8C261.5 294.5 261.8 294.2 262.1 294C262.6 294 262.9 294 263.3 294C265 294.4 266.8 294.7 269 295.3C271.9 296 274.6 296.7 277.6 297.6C279 298 280.4 298.5 281.9 298.9C283 299.3 284.1 299.7 285.2 300L286.1 300.3C288.9 301.3 291.7 302.3 294.5 303.5C300.1 305.7 305.5 308.4 310.7 311.5C313.5 313.1 316.1 315 318.6 317.1C320 318.3 321.3 319.7 322.4 321.1L322.5 321.2C322.6 321.3 322.7 321.5 322.8 321.6L322.9 321.8C323 322 323.2 322.2 323.3 322.5L323.7 323.3C323.9 323.5 324 323.7 324.1 324Z" fill="url(#paint5_linear_862_12535)"/>
<path d="M182.9 273.8C225.371 273.8 259.8 239.371 259.8 196.9C259.8 154.429 225.371 120 182.9 120C140.429 120 106 154.429 106 196.9C106 239.371 140.429 273.8 182.9 273.8Z" fill="url(#paint6_linear_862_12535)"/>
<mask id="mask1_862_12535" style="mask-type:alpha" maskUnits="userSpaceOnUse" x="106" y="120" width="154" height="154">
<path d="M182.9 273.8C225.371 273.8 259.8 239.371 259.8 196.9C259.8 154.429 225.371 120 182.9 120C140.429 120 106 154.429 106 196.9C106 239.371 140.429 273.8 182.9 273.8Z" fill="url(#paint7_linear_862_12535)"/>
</mask>
<g mask="url(#mask1_862_12535)">
<g filter="url(#filter2_f_862_12535)">
<circle cx="213" cy="169" r="46" fill="black"/>
</g>
</g>
<mask id="mask2_862_12535" style="mask-type:alpha" maskUnits="userSpaceOnUse" x="106" y="120" width="154" height="156">
<path d="M183 275.048C140.474 275.048 106 240.339 106 197.524C106 154.709 140.474 120 183 120C225.526 120 260 154.709 260 197.524C260 240.339 225.526 275.048 183 275.048Z" fill="white"/>
</mask>
<g mask="url(#mask2_862_12535)">
<g filter="url(#filter3_f_862_12535)">
<path d="M107 197.524C107 239.793 141.033 274.048 183 274.048C224.967 274.048 259 239.793 259 197.524C259 155.254 224.967 121 183 121C141.033 121 107 155.254 107 197.524Z" stroke="#743C1C" stroke-width="2"/>
</g>
</g>
<path d="M182.9 273.8C225.371 273.8 259.8 239.371 259.8 196.9C259.8 154.429 225.371 120 182.9 120C140.429 120 106 154.429 106 196.9C106 239.371 140.429 273.8 182.9 273.8Z" stroke="url(#paint8_linear_862_12535)" stroke-width="2" stroke-miterlimit="10"/>
<path d="M363.9 273.8C406.371 273.8 440.8 239.371 440.8 196.9C440.8 154.429 406.371 120 363.9 120C321.429 120 287 154.429 287 196.9C287 239.371 321.429 273.8 363.9 273.8Z" fill="url(#paint9_linear_862_12535)"/>
<mask id="mask3_862_12535" style="mask-type:alpha" maskUnits="userSpaceOnUse" x="287" y="120" width="154" height="154">
<path d="M363.9 273.8C406.371 273.8 440.8 239.371 440.8 196.9C440.8 154.429 406.371 120 363.9 120C321.429 120 287 154.429 287 196.9C287 239.371 321.429 273.8 363.9 273.8Z" fill="url(#paint10_linear_862_12535)"/>
</mask>
<g mask="url(#mask3_862_12535)">
<g filter="url(#filter4_f_862_12535)">
<circle cx="394" cy="169" r="46" fill="black"/>
</g>
</g>
<mask id="mask4_862_12535" style="mask-type:alpha" maskUnits="userSpaceOnUse" x="287" y="120" width="154" height="156">
<path d="M364 275.048C321.474 275.048 287 240.339 287 197.524C287 154.709 321.474 120 364 120C406.526 120 441 154.709 441 197.524C441 240.339 406.526 275.048 364 275.048Z" fill="white"/>
</mask>
<g mask="url(#mask4_862_12535)">
<g filter="url(#filter5_f_862_12535)">
<path d="M288 197.524C288 239.793 322.033 274.048 364 274.048C405.967 274.048 440 239.793 440 197.524C440 155.254 405.967 121 364 121C322.033 121 288 155.254 288 197.524Z" stroke="#743C1C" stroke-width="2"/>
</g>
</g>
<path d="M363.9 273.8C406.371 273.8 440.8 239.371 440.8 196.9C440.8 154.429 406.371 120 363.9 120C321.429 120 287 154.429 287 196.9C287 239.371 321.429 273.8 363.9 273.8Z" stroke="url(#paint11_linear_862_12535)" stroke-width="2" stroke-miterlimit="10"/>
<defs>
<filter id="filter0_f_862_12535" x="-26.8149" y="206.559" width="535.022" height="306.595" filterUnits="userSpaceOnUse" color-interpolation-filters="sRGB">
<feFlood flood-opacity="0" result="BackgroundImageFix"/>
<feBlend mode="normal" in="SourceGraphic" in2="BackgroundImageFix" result="shape"/>
<feGaussianBlur stdDeviation="12.5" result="effect1_foregroundBlur_862_12535"/>
</filter>
<filter id="filter1_f_862_12535" x="-41.8149" y="191.559" width="565.022" height="336.595" filterUnits="userSpaceOnUse" color-interpolation-filters="sRGB">
<feFlood flood-opacity="0" result="BackgroundImageFix"/>
<feBlend mode="normal" in="SourceGraphic" in2="BackgroundImageFix" result="shape"/>
<feGaussianBlur stdDeviation="20" result="effect1_foregroundBlur_862_12535"/>
</filter>
<filter id="filter2_f_862_12535" x="163" y="119" width="100" height="100" filterUnits="userSpaceOnUse" color-interpolation-filters="sRGB">
<feFlood flood-opacity="0" result="BackgroundImageFix"/>
<feBlend mode="normal" in="SourceGraphic" in2="BackgroundImageFix" result="shape"/>
<feGaussianBlur stdDeviation="2" result="effect1_foregroundBlur_862_12535"/>
</filter>
<filter id="filter3_f_862_12535" x="91" y="105" width="184" height="185.048" filterUnits="userSpaceOnUse" color-interpolation-filters="sRGB">
<feFlood flood-opacity="0" result="BackgroundImageFix"/>
<feBlend mode="normal" in="SourceGraphic" in2="BackgroundImageFix" result="shape"/>
<feGaussianBlur stdDeviation="7.5" result="effect1_foregroundBlur_862_12535"/>
</filter>
<filter id="filter4_f_862_12535" x="344" y="119" width="100" height="100" filterUnits="userSpaceOnUse" color-interpolation-filters="sRGB">
<feFlood flood-opacity="0" result="BackgroundImageFix"/>
<feBlend mode="normal" in="SourceGraphic" in2="BackgroundImageFix" result="shape"/>
<feGaussianBlur stdDeviation="2" result="effect1_foregroundBlur_862_12535"/>
</filter>
<filter id="filter5_f_862_12535" x="272" y="105" width="184" height="185.048" filterUnits="userSpaceOnUse" color-interpolation-filters="sRGB">
<feFlood flood-opacity="0" result="BackgroundImageFix"/>
<feBlend mode="normal" in="SourceGraphic" in2="BackgroundImageFix" result="shape"/>
<feGaussianBlur stdDeviation="7.5" result="effect1_foregroundBlur_862_12535"/>
</filter>
<radialGradient id="paint0_radial_862_12535" cx="0" cy="0" r="1" gradientUnits="userSpaceOnUse" gradientTransform="translate(241 -4.53898e-06) rotate(90) scale(482)">
<stop stop-color="#FFDE43"/>
<stop offset="1" stop-color="#FFBC00"/>
</radialGradient>
<radialGradient id="paint1_radial_862_12535" cx="0" cy="0" r="1" gradientUnits="userSpaceOnUse" gradientTransform="translate(241 64.5) rotate(90) scale(417.5)">
<stop stop-color="white" stop-opacity="0.5"/>
<stop offset="0.782278"/>
</radialGradient>
<radialGradient id="paint2_radial_862_12535" cx="0" cy="0" r="1" gradientUnits="userSpaceOnUse" gradientTransform="translate(241 64.5) rotate(90) scale(417.5)">
<stop stop-color="white" stop-opacity="0.5"/>
<stop offset="0.782278"/>
</radialGradient>
<radialGradient id="paint3_radial_862_12535" cx="0" cy="0" r="1" gradientUnits="userSpaceOnUse" gradientTransform="translate(241 -52.5) rotate(90) scale(534.5 722.835)">
<stop offset="0.0922635" stop-color="white"/>
<stop offset="0.670207" stop-color="white" stop-opacity="0"/>
</radialGradient>
<radialGradient id="paint4_radial_862_12535" cx="0" cy="0" r="1" gradientUnits="userSpaceOnUse" gradientTransform="translate(293.224 352.336) scale(24.7525 120.419)">
<stop stop-color="#743C1C"/>
<stop offset="1" stop-color="#401C02"/>
</radialGradient>
<linearGradient id="paint5_linear_862_12535" x1="327" y1="352.581" x2="259.448" y2="352.581" gradientUnits="userSpaceOnUse">
<stop stop-color="#FFDE43"/>
<stop offset="0.22" stop-color="#FED93F"/>
<stop offset="0.51" stop-color="#FCC934"/>
<stop offset="0.82" stop-color="#F9AF21"/>
<stop offset="1" stop-color="#F79D14"/>
</linearGradient>
<linearGradient id="paint6_linear_862_12535" x1="105.941" y1="196.929" x2="259.8" y2="196.929" gradientUnits="userSpaceOnUse">
<stop stop-color="#CCCCCC"/>
<stop offset="0.05" stop-color="#D5D5D5"/>
<stop offset="0.2" stop-color="#E9E9E9"/>
<stop offset="0.35" stop-color="#F6F6F6"/>
<stop offset="0.5" stop-color="#FAFAFA"/>
<stop offset="0.65" stop-color="#F6F6F6"/>
<stop offset="0.8" stop-color="#E9E9E9"/>
<stop offset="0.95" stop-color="#D5D5D5"/>
<stop offset="1" stop-color="#CCCCCC"/>
</linearGradient>
<linearGradient id="paint7_linear_862_12535" x1="182.9" y1="278.128" x2="182.9" y2="115.051" gradientUnits="userSpaceOnUse">
<stop stop-color="#FFDE43"/>
<stop offset="0.22" stop-color="#FED93F"/>
<stop offset="0.51" stop-color="#FCC934"/>
<stop offset="0.82" stop-color="#F9AF21"/>
<stop offset="1" stop-color="#F79D14"/>
</linearGradient>
<linearGradient id="paint8_linear_862_12535" x1="182.9" y1="278.128" x2="182.9" y2="115.051" gradientUnits="userSpaceOnUse">
<stop stop-color="#FFDE43"/>
<stop offset="0.22" stop-color="#FED93F"/>
<stop offset="0.51" stop-color="#FCC934"/>
<stop offset="0.82" stop-color="#F9AF21"/>
<stop offset="1" stop-color="#F79D14"/>
</linearGradient>
<linearGradient id="paint9_linear_862_12535" x1="286.941" y1="196.929" x2="440.8" y2="196.929" gradientUnits="userSpaceOnUse">
<stop stop-color="#CCCCCC"/>
<stop offset="0.05" stop-color="#D5D5D5"/>
<stop offset="0.2" stop-color="#E9E9E9"/>
<stop offset="0.35" stop-color="#F6F6F6"/>
<stop offset="0.5" stop-color="#FAFAFA"/>
<stop offset="0.65" stop-color="#F6F6F6"/>
<stop offset="0.8" stop-color="#E9E9E9"/>
<stop offset="0.95" stop-color="#D5D5D5"/>
<stop offset="1" stop-color="#CCCCCC"/>
</linearGradient>
<linearGradient id="paint10_linear_862_12535" x1="363.9" y1="278.128" x2="363.9" y2="115.051" gradientUnits="userSpaceOnUse">
<stop stop-color="#FFDE43"/>
<stop offset="0.22" stop-color="#FED93F"/>
<stop offset="0.51" stop-color="#FCC934"/>
<stop offset="0.82" stop-color="#F9AF21"/>
<stop offset="1" stop-color="#F79D14"/>
</linearGradient>
<linearGradient id="paint11_linear_862_12535" x1="363.9" y1="278.128" x2="363.9" y2="115.051" gradientUnits="userSpaceOnUse">
<stop stop-color="#FFDE43"/>
<stop offset="0.22" stop-color="#FED93F"/>
<stop offset="0.51" stop-color="#FCC934"/>
<stop offset="0.82" stop-color="#F9AF21"/>
<stop offset="1" stop-color="#F79D14"/>
</linearGradient>
</defs>
</svg>
