<svg width="570" height="515" viewBox="0 0 570 515" fill="none" xmlns="http://www.w3.org/2000/svg">
<path d="M242.171 482.374C375.371 482.374 483.351 374.394 483.351 241.194C483.351 107.994 375.371 0.0136719 242.171 0.0136719C108.971 0.0136719 0.991211 107.994 0.991211 241.194C0.991211 374.394 108.971 482.374 242.171 482.374Z" fill="url(#paint0_radial_862_12569)"/>
<g style="mix-blend-mode:soft-light">
<path d="M242.171 482.374C375.371 482.374 483.351 374.394 483.351 241.194C483.351 107.994 375.371 0.0136719 242.171 0.0136719C108.971 0.0136719 0.991211 107.994 0.991211 241.194C0.991211 374.394 108.971 482.374 242.171 482.374Z" fill="url(#paint1_radial_862_12569)"/>
</g>
<g style="mix-blend-mode:soft-light">
<path d="M242.171 482.374C375.371 482.374 483.351 374.394 483.351 241.194C483.351 107.994 375.371 0.0136719 242.171 0.0136719C108.971 0.0136719 0.991211 107.994 0.991211 241.194C0.991211 374.394 108.971 482.374 242.171 482.374Z" fill="url(#paint2_radial_862_12569)"/>
</g>
<g style="mix-blend-mode:overlay">
<path d="M242.171 482.374C375.371 482.374 483.351 374.394 483.351 241.194C483.351 107.994 375.371 0.0136719 242.171 0.0136719C108.971 0.0136719 0.991211 107.994 0.991211 241.194C0.991211 374.394 108.971 482.374 242.171 482.374Z" fill="url(#paint3_radial_862_12569)" fill-opacity="0.7"/>
</g>
<mask id="mask0_862_12569" style="mask-type:alpha" maskUnits="userSpaceOnUse" x="0" y="0" width="484" height="483">
<path d="M242.171 482.374C375.371 482.374 483.351 374.394 483.351 241.194C483.351 107.994 375.371 0.0136719 242.171 0.0136719C108.971 0.0136719 0.991211 107.994 0.991211 241.194C0.991211 374.394 108.971 482.374 242.171 482.374Z" fill="white"/>
</mask>
<g mask="url(#mask0_862_12569)">
<g filter="url(#filter0_f_862_12569)">
<path d="M-0.38518 234.312C-0.123294 230.886 1.00442 230.542 1.33334 234.022C1.69878 237.888 0.988406 245.66 1.15943 250.348C1.61228 262.762 3.51514 273.555 5.47677 282.334C11.7982 310.626 20.5524 328.856 28.7176 344.302C55.557 395.074 84.9574 420.784 113.638 440.16C155.68 468.563 198.063 477.597 240.481 479.514C241.551 479.562 241.729 486.531 240.676 487.439C238.778 489.075 236.427 487.451 234.485 487.383C228.905 487.187 223.326 486.804 217.747 486.225C201.203 484.505 184.661 481.004 168.152 475.372C123.265 460.057 74.8672 433.834 32.5999 359.976C29.941 355.329 27.3031 350.437 24.7025 345.181C22.6228 340.977 20.5633 336.57 18.54 331.857C11.8853 316.355 -3.62251 276.672 -0.38518 234.312ZM240.511 487.513C239.49 487.545 239.231 481.048 240.204 479.699C241.675 477.66 243.879 479.339 245.429 479.242C251.868 478.84 258.305 478.243 264.741 477.435C282.386 475.219 300.018 471.436 317.611 465.61C361.247 451.159 408.161 429.129 449.296 361.445C451.914 357.137 454.509 352.567 457.069 347.654C464.85 332.726 484.352 293.098 482.098 243.835C481.908 239.682 483.172 237.194 483.738 240.757C484.458 245.293 484.166 254.75 483.967 259.782C483.332 275.897 480.857 289.525 478.247 300.531C469.977 335.412 458.367 355.637 447.734 372.523C413.175 427.411 375.639 449.537 339.146 465.438C306.415 479.699 273.435 486.497 240.511 487.513Z" fill="#401C02"/>
</g>
<g filter="url(#filter1_f_862_12569)">
<path d="M-0.38518 234.312C-0.123294 230.886 1.00442 230.542 1.33334 234.022C1.69878 237.888 0.988406 245.66 1.15943 250.348C1.61228 262.762 3.51514 273.555 5.47677 282.334C11.7982 310.626 20.5524 328.856 28.7176 344.302C55.557 395.074 84.9574 420.784 113.638 440.16C155.68 468.563 198.063 477.597 240.481 479.514C241.551 479.562 241.729 486.531 240.676 487.439C238.778 489.075 236.427 487.451 234.485 487.383C228.905 487.187 223.326 486.804 217.747 486.225C201.203 484.505 184.661 481.004 168.152 475.372C123.265 460.057 74.8672 433.834 32.5999 359.976C29.941 355.329 27.3031 350.437 24.7025 345.181C22.6228 340.977 20.5633 336.57 18.54 331.857C11.8853 316.355 -3.62251 276.672 -0.38518 234.312ZM240.511 487.513C239.49 487.545 239.231 481.048 240.204 479.699C241.675 477.66 243.879 479.339 245.429 479.242C251.868 478.84 258.305 478.243 264.741 477.435C282.386 475.219 300.018 471.436 317.611 465.61C361.247 451.159 408.161 429.129 449.296 361.445C451.914 357.137 454.509 352.567 457.069 347.654C464.85 332.726 484.352 293.098 482.098 243.835C481.908 239.682 483.172 237.194 483.738 240.757C484.458 245.293 484.166 254.75 483.967 259.782C483.332 275.897 480.857 289.525 478.247 300.531C469.977 335.412 458.367 355.637 447.734 372.523C413.175 427.411 375.639 449.537 339.146 465.438C306.415 479.699 273.435 486.497 240.511 487.513Z" fill="#401C02"/>
</g>
</g>
<path d="M114.721 296.144C116.301 293.144 117.911 290.264 119.531 287.354C122.021 282.864 124.531 278.424 127.081 273.994L134.691 260.774L142.181 247.654C147.091 238.934 151.901 230.224 155.951 221.654C157.905 217.618 159.575 213.452 160.951 209.184C161.357 207.897 161.691 206.588 161.951 205.264C162.093 204.857 162.147 204.424 162.111 203.994C162.072 203.568 161.943 203.156 161.731 202.784C161.5 202.389 161.182 202.052 160.801 201.799C160.419 201.546 159.985 201.384 159.531 201.324C158.309 200.881 157.06 200.517 155.791 200.234C151.406 199.302 146.962 198.667 142.491 198.334C133.031 197.554 123.081 197.384 113.081 197.264L97.9713 197.194H82.7313C77.6313 197.194 72.5113 197.194 67.3713 197.044C64.0313 196.994 60.6813 196.924 57.3213 196.814C57.0597 196.798 56.8126 196.689 56.6252 196.506C56.4377 196.323 56.3225 196.078 56.3007 195.817C56.2788 195.556 56.3517 195.296 56.5061 195.084C56.6605 194.872 56.886 194.723 57.1413 194.664C60.4213 193.524 63.7113 192.494 67.0113 191.514C72.0813 190.004 77.1813 188.674 82.3013 187.424C84.8713 186.804 87.4313 186.244 90.0013 185.674C92.5713 185.104 95.1613 184.624 97.7413 184.114C102.901 183.114 108.101 182.264 113.321 181.554C123.859 180.037 134.495 179.302 145.141 179.354C150.752 179.396 156.349 179.914 161.871 180.904C165 181.5 168.059 182.415 171.001 183.634C171.391 183.804 171.811 184.024 172.221 184.214C172.631 184.404 173.031 184.604 173.451 184.864L174.711 185.594C175.131 185.884 175.561 186.184 175.981 186.494C177.961 187.886 179.613 189.694 180.822 191.791C182.032 193.888 182.768 196.223 182.981 198.634C183.031 199.154 183.081 199.684 183.121 200.194V201.534C183.121 202.034 183.121 202.474 183.061 202.924C183.001 203.374 183.001 203.844 182.951 204.274C182.538 207.43 181.794 210.534 180.731 213.534C178.843 218.813 176.501 223.919 173.731 228.794C168.459 238.044 162.506 246.888 155.921 255.254C152.681 259.414 149.371 263.494 145.921 267.464C142.471 271.434 138.921 275.344 135.341 279.174C131.761 283.004 127.991 286.744 124.151 290.384C121.661 292.744 119.151 295.074 116.541 297.384C116.377 297.625 116.123 297.792 115.836 297.846C115.549 297.9 115.253 297.839 115.011 297.674C114.77 297.51 114.604 297.256 114.549 296.969C114.495 296.682 114.557 296.386 114.721 296.144Z" fill="url(#paint4_radial_862_12569)"/>
<path d="M298.842 57.2839C297.262 60.2839 295.652 63.1639 294.032 66.0739C291.542 70.5639 289.032 75.0039 286.482 79.4439L278.872 92.6539L271.382 105.774C266.472 114.494 261.662 123.204 257.612 131.774C255.66 135.811 253.989 139.977 252.612 144.244C252.205 145.534 251.871 146.846 251.612 148.174C251.469 148.578 251.414 149.007 251.452 149.434C251.491 149.86 251.62 150.272 251.832 150.644C252.043 151.004 252.325 151.317 252.662 151.564C253.062 151.856 253.53 152.041 254.022 152.104C255.247 152.546 256.5 152.91 257.772 153.194C262.157 154.127 266.6 154.761 271.072 155.094C280.532 155.874 290.482 156.094 300.482 156.164L315.592 156.234H330.832C335.932 156.234 341.052 156.284 346.192 156.384C349.532 156.434 352.882 156.504 356.192 156.614C356.46 156.62 356.717 156.726 356.913 156.91C357.109 157.095 357.229 157.345 357.252 157.613C357.274 157.881 357.196 158.148 357.034 158.362C356.872 158.576 356.636 158.723 356.372 158.774C353.092 159.904 349.802 160.934 346.502 161.914C341.432 163.424 336.332 164.754 331.212 166.004C328.642 166.624 326.082 167.184 323.512 167.754C320.942 168.324 318.352 168.814 315.772 169.314C310.602 170.314 305.412 171.164 300.192 171.874C289.654 173.396 279.018 174.131 268.372 174.074C262.758 174.037 257.157 173.518 251.632 172.524C248.507 171.926 245.451 171.011 242.512 169.794C242.122 169.634 241.702 169.404 241.292 169.224C240.882 169.044 240.482 168.824 240.062 168.564L238.802 167.834L237.532 166.944C235.55 165.551 233.897 163.742 232.688 161.643C231.478 159.545 230.743 157.207 230.532 154.794C230.482 154.274 230.422 153.794 230.392 153.234V151.784C230.392 151.284 230.392 150.844 230.452 150.394C230.512 149.944 230.512 149.474 230.562 149.044C230.972 145.888 231.712 142.785 232.772 139.784C234.66 134.505 237.002 129.399 239.772 124.524C245.044 115.278 250.997 106.437 257.582 98.0739C260.822 93.9039 264.132 89.8339 267.582 85.8539C271.032 81.8739 274.582 77.9739 278.162 74.1439C281.742 70.3139 285.512 66.5739 289.352 62.9339C291.842 60.5739 294.352 58.2539 296.962 55.9339C297.141 55.6846 297.411 55.5166 297.714 55.4669C298.017 55.4172 298.327 55.4899 298.577 55.6689C298.826 55.848 298.994 56.1187 299.044 56.4215C299.093 56.7244 299.021 57.0346 298.842 57.2839Z" fill="url(#paint5_radial_862_12569)"/>
<path d="M114.721 296.144C116.301 293.144 117.911 290.264 119.531 287.354C122.021 282.864 124.531 278.424 127.081 273.994L134.691 260.774L142.181 247.654C147.091 238.934 151.901 230.224 155.951 221.654C157.905 217.618 159.575 213.452 160.951 209.184C161.357 207.897 161.691 206.588 161.951 205.264C162.093 204.857 162.147 204.424 162.111 203.994V203.994C162.072 203.568 161.943 203.156 161.731 202.784C161.5 202.389 161.182 202.052 160.801 201.799C160.419 201.546 159.985 201.384 159.531 201.324C158.309 200.881 157.06 200.517 155.791 200.234C151.406 199.302 146.962 198.667 142.491 198.334C133.031 197.554 123.081 197.384 113.081 197.264L97.9713 197.194H82.7313C77.6313 197.194 72.5113 197.194 67.3713 197.044C64.0313 196.994 60.6813 196.924 57.3213 196.814C57.0597 196.798 56.8126 196.689 56.6252 196.506C56.4377 196.323 56.3225 196.078 56.3007 195.817C56.2788 195.556 56.3517 195.296 56.5061 195.084C56.6605 194.872 56.886 194.723 57.1413 194.664C60.4213 193.524 63.7113 192.494 67.0113 191.514C72.0813 190.004 77.1813 188.674 82.3013 187.424C84.8713 186.804 87.4313 186.244 90.0013 185.674C92.5713 185.104 95.1613 184.624 97.7413 184.114C102.901 183.114 108.101 182.264 113.321 181.554C123.859 180.037 134.495 179.302 145.141 179.354C150.752 179.396 156.349 179.914 161.871 180.904C165 181.5 168.059 182.415 171.001 183.634C171.391 183.804 171.811 184.024 172.221 184.214C172.631 184.404 173.031 184.604 173.451 184.864L174.711 185.594C175.131 185.884 175.561 186.184 175.981 186.494C177.961 187.886 179.613 189.694 180.822 191.791C182.032 193.888 182.768 196.223 182.981 198.634C183.031 199.154 183.081 199.684 183.121 200.194V201.534C183.121 202.034 183.121 202.474 183.061 202.924C183.001 203.374 183.001 203.844 182.951 204.274C182.538 207.43 181.794 210.534 180.731 213.534C178.843 218.813 176.501 223.919 173.731 228.794C168.459 238.044 162.506 246.888 155.921 255.254C152.681 259.414 149.371 263.494 145.921 267.464C142.471 271.434 138.921 275.344 135.341 279.174C131.761 283.004 127.991 286.744 124.151 290.384C121.661 292.744 119.151 295.074 116.541 297.384C116.377 297.625 116.123 297.792 115.836 297.846C115.549 297.9 115.253 297.839 115.011 297.674C114.77 297.51 114.604 297.256 114.549 296.969C114.495 296.682 114.557 296.386 114.721 296.144V296.144Z" stroke="url(#paint6_linear_862_12569)" stroke-width="2" stroke-miterlimit="10"/>
<path d="M298.842 57.2839C297.262 60.2839 295.652 63.1639 294.032 66.0739C291.542 70.5639 289.032 75.0039 286.482 79.4439L278.872 92.6539L271.382 105.774C266.472 114.494 261.662 123.204 257.612 131.774C255.66 135.811 253.989 139.977 252.612 144.244C252.205 145.534 251.871 146.846 251.612 148.174C251.469 148.578 251.414 149.007 251.452 149.434C251.491 149.86 251.62 150.272 251.832 150.644C252.043 151.004 252.325 151.317 252.662 151.564C253.062 151.856 253.53 152.041 254.022 152.104C255.247 152.546 256.5 152.91 257.772 153.194C262.157 154.127 266.6 154.761 271.072 155.094C280.532 155.874 290.482 156.094 300.482 156.164L315.592 156.234H330.832C335.932 156.234 341.052 156.284 346.192 156.384C349.532 156.434 352.882 156.504 356.192 156.614C356.46 156.62 356.717 156.726 356.913 156.91C357.109 157.095 357.229 157.345 357.252 157.613C357.274 157.881 357.196 158.148 357.034 158.362C356.872 158.576 356.636 158.723 356.372 158.774C353.092 159.904 349.802 160.934 346.502 161.914C341.432 163.424 336.332 164.754 331.212 166.004C328.642 166.624 326.082 167.184 323.512 167.754C320.942 168.324 318.352 168.814 315.772 169.314C310.602 170.314 305.412 171.164 300.192 171.874C289.654 173.396 279.018 174.131 268.372 174.074C262.758 174.037 257.157 173.518 251.632 172.524C248.507 171.926 245.451 171.011 242.512 169.794C242.122 169.634 241.702 169.404 241.292 169.224C240.882 169.044 240.482 168.824 240.062 168.564L238.802 167.834L237.532 166.944C235.55 165.551 233.897 163.742 232.688 161.643C231.478 159.545 230.743 157.207 230.532 154.794C230.482 154.274 230.422 153.794 230.392 153.234V151.784C230.392 151.284 230.392 150.844 230.452 150.394C230.512 149.944 230.512 149.474 230.562 149.044C230.972 145.888 231.712 142.785 232.772 139.784C234.66 134.505 237.002 129.399 239.772 124.524C245.044 115.278 250.997 106.437 257.582 98.0739C260.822 93.9039 264.132 89.8339 267.582 85.8539C271.032 81.8739 274.582 77.9739 278.162 74.1439C281.742 70.3139 285.512 66.5739 289.352 62.9339C291.842 60.5739 294.352 58.2539 296.962 55.9339C297.141 55.6846 297.411 55.5166 297.714 55.4669C298.017 55.4172 298.327 55.4899 298.577 55.6689C298.826 55.848 298.994 56.1187 299.044 56.4215C299.093 56.7244 299.021 57.0346 298.842 57.2839V57.2839Z" stroke="url(#paint7_linear_862_12569)" stroke-width="2" stroke-miterlimit="10"/>
<path d="M402.711 170.584C416.868 209.677 416.815 252.506 402.563 291.564C388.311 330.622 360.768 363.42 324.761 384.208C288.754 404.997 246.579 412.452 205.627 405.265C164.676 398.079 127.559 376.71 100.781 344.904C153.501 337.154 211.271 317.094 267.321 284.734C323.371 252.374 369.631 212.374 402.711 170.584Z" stroke="url(#paint8_linear_862_12569)" stroke-width="15" stroke-miterlimit="10"/>
<path d="M412.851 218.284C415.205 251.419 408.192 284.548 392.612 313.887C377.033 343.225 353.517 367.59 324.748 384.199C295.98 400.808 263.12 408.99 229.923 407.812C196.725 406.633 164.529 396.141 137.011 377.534C185.341 368.354 237.231 349.184 287.711 320.034C338.191 290.884 380.741 255.534 412.851 218.284Z" fill="url(#paint9_linear_862_12569)"/>
<path d="M402.711 170.584C403.061 171.584 403.411 172.534 403.711 173.514C404.011 174.494 404.321 175.284 404.601 176.174C404.661 176.344 404.711 176.514 404.761 176.684C405.061 177.584 405.341 178.484 405.621 179.384C405.901 180.284 406.111 181.034 406.341 181.854C406.491 182.344 406.631 182.854 406.761 183.344C406.831 183.554 406.891 183.784 406.951 184.004C407.101 184.524 407.241 185.004 407.371 185.554C407.431 185.754 407.481 185.954 407.531 186.154C407.721 186.864 407.901 187.584 408.081 188.304C408.321 189.304 408.551 190.244 408.781 191.214C408.781 191.214 408.781 191.214 408.781 191.284C408.991 192.204 409.201 193.124 409.391 194.054C409.841 196.124 410.241 198.174 410.601 200.244C410.771 201.244 410.941 202.244 411.101 203.244C411.261 204.244 411.361 204.944 411.481 205.794C411.671 207.074 411.841 208.354 411.991 209.624C412.091 210.464 412.191 211.314 412.281 212.154V212.264C412.368 213.077 412.448 213.887 412.521 214.694L412.641 215.974C412.701 216.744 412.761 217.514 412.811 218.284C380.741 255.534 338.191 290.904 287.711 320.044C237.231 349.184 185.341 368.364 137.011 377.534L135.101 376.224L134.051 375.484L132.051 374.064L131.961 374.004C131.281 373.504 130.591 373.004 129.961 372.484C128.961 371.724 127.961 370.934 126.891 370.134C126.211 369.604 125.541 369.064 124.891 368.524C124.241 367.984 123.321 367.254 122.531 366.594C120.931 365.244 119.351 363.874 117.781 362.454C117.071 361.824 116.371 361.184 115.681 360.544H115.631C114.901 359.864 114.171 359.174 113.461 358.484C112.921 357.974 112.391 357.484 111.871 356.934C111.721 356.794 111.581 356.644 111.431 356.494C111.061 356.124 110.671 355.744 110.301 355.354L109.821 354.864C109.451 354.504 109.091 354.124 108.741 353.754C108.141 353.144 107.551 352.514 106.961 351.894C106.371 351.274 105.681 350.514 105.051 349.804L104.691 349.404L102.831 347.304C102.161 346.524 101.481 345.744 100.831 344.944C153.551 337.194 211.321 317.134 267.371 284.774C323.421 252.414 369.631 212.374 402.711 170.584Z" fill="url(#paint10_linear_862_12569)"/>
<path d="M402.711 170.584C408.288 185.936 411.701 201.99 412.851 218.284C380.741 255.534 338.191 290.904 287.711 320.044C237.231 349.184 185.341 368.364 137.011 377.534C123.477 368.39 111.283 357.404 100.781 344.894C153.501 337.144 211.271 317.084 267.321 284.724C323.371 252.364 369.631 212.374 402.711 170.584Z" stroke="url(#paint11_radial_862_12569)" stroke-width="6" stroke-miterlimit="10"/>
<path d="M402.711 170.584C416.868 209.677 416.815 252.506 402.563 291.564C388.311 330.622 360.768 363.42 324.761 384.208C288.754 404.997 246.579 412.452 205.627 405.265C164.676 398.079 127.559 376.71 100.781 344.904C153.501 337.154 211.271 317.094 267.321 284.734C323.371 252.374 369.631 212.374 402.711 170.584Z" stroke="url(#paint12_linear_862_12569)" stroke-width="12" stroke-miterlimit="10"/>
<mask id="mask1_862_12569" style="mask-type:alpha" maskUnits="userSpaceOnUse" x="100" y="170" width="314" height="238">
<path d="M402.711 170.584C416.868 209.677 416.815 252.506 402.563 291.564C388.311 330.622 360.768 363.42 324.761 384.208C288.754 404.997 246.579 412.452 205.627 405.265C164.676 398.079 127.559 376.71 100.781 344.904C153.501 337.154 211.271 317.094 267.321 284.734C323.371 252.374 369.631 212.374 402.711 170.584Z" fill="url(#paint13_linear_862_12569)"/>
</mask>
<g mask="url(#mask1_862_12569)">
<g filter="url(#filter2_f_862_12569)">
<path d="M402.711 170.584C416.868 209.677 416.815 252.506 402.563 291.564C388.311 330.622 360.768 363.42 324.761 384.208C288.754 404.997 246.579 412.452 205.627 405.265C164.676 398.079 127.559 376.71 100.781 344.904C153.501 337.154 211.271 317.094 267.321 284.734C323.371 252.374 369.631 212.374 402.711 170.584Z" stroke="url(#paint14_linear_862_12569)" stroke-width="12" stroke-miterlimit="10"/>
</g>
</g>
<mask id="mask2_862_12569" style="mask-type:alpha" maskUnits="userSpaceOnUse" x="1" y="0" width="483" height="483">
<path d="M242.451 482.36C375.651 482.36 483.63 374.38 483.63 241.18C483.63 107.98 375.651 0 242.451 0C109.25 0 1.27051 107.98 1.27051 241.18C1.27051 374.38 109.25 482.36 242.451 482.36Z" fill="url(#paint15_radial_862_12569)"/>
</mask>
<g mask="url(#mask2_862_12569)">
<g opacity="0.8" filter="url(#filter3_f_862_12569)">
<path d="M514.718 149.912C483.321 141.054 382.245 173.903 382.245 173.903C382.245 173.903 451.206 254.726 482.601 263.593C497.606 267.632 513.598 265.595 527.111 257.924C540.625 250.253 550.572 237.566 554.796 222.613C559.021 207.659 557.183 191.643 549.681 178.035C542.18 164.427 529.618 154.323 514.718 149.912Z" fill="#42210B"/>
</g>
<g opacity="0.8" filter="url(#filter4_f_862_12569)">
<path d="M24.0653 442.377C32.0926 410.758 111.079 339.648 111.079 339.648C111.079 339.648 146.592 439.781 138.575 471.404C134.569 486.417 124.809 499.248 111.409 507.116C98.0094 514.984 82.049 517.255 66.9865 513.436C51.9239 509.618 38.9725 500.019 30.9385 486.718C22.9045 473.417 20.4351 457.486 24.0653 442.377Z" fill="#42210B"/>
</g>
</g>
<path d="M14.8934 427.884C22.9208 396.264 101.907 325.154 101.907 325.154C101.907 325.154 137.42 425.288 129.403 456.91C125.397 471.924 115.637 484.755 102.237 492.622C88.8375 500.49 72.8771 502.761 57.8146 498.943C42.7521 495.125 29.8007 485.525 21.7667 472.224C13.7327 458.924 11.2632 442.993 14.8934 427.884Z" fill="url(#paint16_linear_862_12569)"/>
<mask id="mask3_862_12569" style="mask-type:alpha" maskUnits="userSpaceOnUse" x="13" y="325" width="118" height="176">
<path d="M14.8934 427.884C22.9208 396.264 101.907 325.154 101.907 325.154C101.907 325.154 137.42 425.288 129.403 456.91C125.397 471.924 115.637 484.755 102.237 492.622C88.8375 500.49 72.8771 502.761 57.8146 498.943C42.7521 495.125 29.8007 485.525 21.7667 472.224C13.7327 458.924 11.2632 442.993 14.8934 427.884Z" fill="url(#paint17_linear_862_12569)"/>
</mask>
<g mask="url(#mask3_862_12569)">
<g filter="url(#filter5_f_862_12569)">
<path d="M52.7979 506.638C-16.2671 488.132 -4.70911 414.101 19.7509 402.02C15.4804 417.958 9.23163 472.188 58.4919 485.388C101.478 496.906 133.667 457.908 137.594 433.596C157.213 456.97 121.863 525.144 52.7979 506.638Z" fill="#7CD3FF"/>
</g>
</g>
<g filter="url(#filter6_f_862_12569)">
<path d="M52.1769 423.964C56.9527 405.466 93.1855 361.133 93.1855 361.133C93.1855 361.133 103.555 416.983 98.7829 435.482C96.4341 444.274 91.7757 452.072 85.8169 457.186C79.8581 462.3 73.079 464.318 66.9485 462.803C60.8179 461.288 55.8298 456.362 53.0648 449.092C50.2999 441.822 49.9808 432.794 52.1769 423.964Z" fill="white"/>
</g>
<path d="M513.868 138.419C482.471 129.561 381.395 162.41 381.395 162.41C381.395 162.41 450.357 243.232 481.751 252.1C496.756 256.138 512.748 254.101 526.262 246.43C539.775 238.759 549.722 226.073 553.947 211.119C558.171 196.166 556.334 180.15 548.832 166.541C541.33 152.933 528.768 142.829 513.868 138.419Z" fill="url(#paint18_linear_862_12569)"/>
<mask id="mask4_862_12569" style="mask-type:alpha" maskUnits="userSpaceOnUse" x="381" y="136" width="176" height="119">
<path d="M513.868 138.419C482.471 129.561 381.395 162.41 381.395 162.41C381.395 162.41 450.357 243.232 481.751 252.1C496.756 256.138 512.748 254.101 526.262 246.43C539.775 238.759 549.722 226.073 553.947 211.119C558.171 196.166 556.334 180.15 548.832 166.541C541.33 152.933 528.768 142.829 513.868 138.419Z" fill="url(#paint19_linear_862_12569)"/>
</mask>
<g mask="url(#mask4_862_12569)">
<g filter="url(#filter7_f_862_12569)">
<path d="M563.119 210.622C581.625 141.557 511.733 114.551 489.041 129.693C504.978 133.964 555.068 155.667 541.869 204.928C530.351 247.913 480.483 256.292 457.465 247.536C467.898 276.214 544.613 279.687 563.119 210.622Z" fill="#7CD3FF"/>
</g>
</g>
<g filter="url(#filter8_f_862_12569)">
<path d="M491.832 168.747C473.424 163.634 416.915 172.846 416.915 172.846C416.915 172.846 460.097 209.751 478.504 214.868C487.293 217.23 496.375 217.095 503.784 214.492C511.192 211.888 516.329 207.026 518.082 200.959C519.835 194.893 518.063 188.11 513.15 182.08C508.236 176.051 500.577 171.261 491.832 168.747Z" fill="white"/>
</g>
<defs>
<filter id="filter0_f_862_12569" x="-25.8242" y="206.572" width="535.021" height="306.595" filterUnits="userSpaceOnUse" color-interpolation-filters="sRGB">
<feFlood flood-opacity="0" result="BackgroundImageFix"/>
<feBlend mode="normal" in="SourceGraphic" in2="BackgroundImageFix" result="shape"/>
<feGaussianBlur stdDeviation="12.5" result="effect1_foregroundBlur_862_12569"/>
</filter>
<filter id="filter1_f_862_12569" x="-40.8242" y="191.572" width="565.021" height="336.595" filterUnits="userSpaceOnUse" color-interpolation-filters="sRGB">
<feFlood flood-opacity="0" result="BackgroundImageFix"/>
<feBlend mode="normal" in="SourceGraphic" in2="BackgroundImageFix" result="shape"/>
<feGaussianBlur stdDeviation="20" result="effect1_foregroundBlur_862_12569"/>
</filter>
<filter id="filter2_f_862_12569" x="79.2588" y="148.42" width="350.031" height="275.51" filterUnits="userSpaceOnUse" color-interpolation-filters="sRGB">
<feFlood flood-opacity="0" result="BackgroundImageFix"/>
<feBlend mode="normal" in="SourceGraphic" in2="BackgroundImageFix" result="shape"/>
<feGaussianBlur stdDeviation="5" result="effect1_foregroundBlur_862_12569"/>
</filter>
<filter id="filter3_f_862_12569" x="352.245" y="118.396" width="234.776" height="177.227" filterUnits="userSpaceOnUse" color-interpolation-filters="sRGB">
<feFlood flood-opacity="0" result="BackgroundImageFix"/>
<feBlend mode="normal" in="SourceGraphic" in2="BackgroundImageFix" result="shape"/>
<feGaussianBlur stdDeviation="15" result="effect1_foregroundBlur_862_12569"/>
</filter>
<filter id="filter4_f_862_12569" x="-7.56934" y="309.648" width="177.322" height="235.6" filterUnits="userSpaceOnUse" color-interpolation-filters="sRGB">
<feFlood flood-opacity="0" result="BackgroundImageFix"/>
<feBlend mode="normal" in="SourceGraphic" in2="BackgroundImageFix" result="shape"/>
<feGaussianBlur stdDeviation="15" result="effect1_foregroundBlur_862_12569"/>
</filter>
<filter id="filter5_f_862_12569" x="-15.2744" y="386.02" width="174.247" height="139.765" filterUnits="userSpaceOnUse" color-interpolation-filters="sRGB">
<feFlood flood-opacity="0" result="BackgroundImageFix"/>
<feBlend mode="normal" in="SourceGraphic" in2="BackgroundImageFix" result="shape"/>
<feGaussianBlur stdDeviation="8" result="effect1_foregroundBlur_862_12569"/>
</filter>
<filter id="filter6_f_862_12569" x="10.7334" y="321.133" width="129.305" height="182.162" filterUnits="userSpaceOnUse" color-interpolation-filters="sRGB">
<feFlood flood-opacity="0" result="BackgroundImageFix"/>
<feBlend mode="normal" in="SourceGraphic" in2="BackgroundImageFix" result="shape"/>
<feGaussianBlur stdDeviation="20" result="effect1_foregroundBlur_862_12569"/>
</filter>
<filter id="filter7_f_862_12569" x="441.465" y="109.613" width="140.737" height="173.224" filterUnits="userSpaceOnUse" color-interpolation-filters="sRGB">
<feFlood flood-opacity="0" result="BackgroundImageFix"/>
<feBlend mode="normal" in="SourceGraphic" in2="BackgroundImageFix" result="shape"/>
<feGaussianBlur stdDeviation="8" result="effect1_foregroundBlur_862_12569"/>
</filter>
<filter id="filter8_f_862_12569" x="376.914" y="127.202" width="181.828" height="129.345" filterUnits="userSpaceOnUse" color-interpolation-filters="sRGB">
<feFlood flood-opacity="0" result="BackgroundImageFix"/>
<feBlend mode="normal" in="SourceGraphic" in2="BackgroundImageFix" result="shape"/>
<feGaussianBlur stdDeviation="20" result="effect1_foregroundBlur_862_12569"/>
</filter>
<radialGradient id="paint0_radial_862_12569" cx="0" cy="0" r="1" gradientUnits="userSpaceOnUse" gradientTransform="translate(241.991 0.0136673) rotate(90) scale(482)">
<stop stop-color="#FFDE43"/>
<stop offset="1" stop-color="#FFBC00"/>
</radialGradient>
<radialGradient id="paint1_radial_862_12569" cx="0" cy="0" r="1" gradientUnits="userSpaceOnUse" gradientTransform="translate(241.991 64.5137) rotate(90) scale(417.5)">
<stop stop-color="white" stop-opacity="0.5"/>
<stop offset="0.782278"/>
</radialGradient>
<radialGradient id="paint2_radial_862_12569" cx="0" cy="0" r="1" gradientUnits="userSpaceOnUse" gradientTransform="translate(241.991 64.5137) rotate(90) scale(417.5)">
<stop stop-color="white" stop-opacity="0.5"/>
<stop offset="0.782278"/>
</radialGradient>
<radialGradient id="paint3_radial_862_12569" cx="0" cy="0" r="1" gradientUnits="userSpaceOnUse" gradientTransform="translate(241.991 -52.4863) rotate(90) scale(534.5 722.835)">
<stop offset="0.0922635" stop-color="white"/>
<stop offset="0.670207" stop-color="white" stop-opacity="0"/>
</radialGradient>
<radialGradient id="paint4_radial_862_12569" cx="0" cy="0" r="1" gradientUnits="userSpaceOnUse" gradientTransform="translate(119.621 238.569) scale(80.8351 59.3597)">
<stop stop-color="#743C1C"/>
<stop offset="1" stop-color="#401C02"/>
</radialGradient>
<radialGradient id="paint5_radial_862_12569" cx="0" cy="0" r="1" gradientUnits="userSpaceOnUse" gradientTransform="translate(293.736 114.725) scale(80.8602 59.4156)">
<stop stop-color="#743C1C"/>
<stop offset="1" stop-color="#401C02"/>
</radialGradient>
<linearGradient id="paint6_linear_862_12569" x1="119.709" y1="301.2" x2="119.709" y2="175.538" gradientUnits="userSpaceOnUse">
<stop stop-color="#FFDE43"/>
<stop offset="0.22" stop-color="#FED93F"/>
<stop offset="0.51" stop-color="#FCC934"/>
<stop offset="0.82" stop-color="#F9AF21"/>
<stop offset="1" stop-color="#F79D14"/>
</linearGradient>
<linearGradient id="paint7_linear_862_12569" x1="293.824" y1="177.415" x2="293.824" y2="51.6344" gradientUnits="userSpaceOnUse">
<stop stop-color="#FFDE43"/>
<stop offset="0.22" stop-color="#FED93F"/>
<stop offset="0.51" stop-color="#FCC934"/>
<stop offset="0.82" stop-color="#F9AF21"/>
<stop offset="1" stop-color="#F79D14"/>
</linearGradient>
<linearGradient id="paint8_linear_862_12569" x1="257.036" y1="414.609" x2="257.036" y2="162.946" gradientUnits="userSpaceOnUse">
<stop offset="0.265625" stop-color="#FFDE43"/>
<stop offset="1" stop-color="#F79D14"/>
</linearGradient>
<linearGradient id="paint9_linear_862_12569" x1="136.905" y1="313.139" x2="413.296" y2="313.139" gradientUnits="userSpaceOnUse">
<stop stop-color="#CCCCCC"/>
<stop offset="0.05" stop-color="#D5D5D5"/>
<stop offset="0.2" stop-color="#E9E9E9"/>
<stop offset="0.35" stop-color="#F6F6F6"/>
<stop offset="0.5" stop-color="#FAFAFA"/>
<stop offset="0.65" stop-color="#F6F6F6"/>
<stop offset="0.8" stop-color="#E9E9E9"/>
<stop offset="0.95" stop-color="#D5D5D5"/>
<stop offset="1" stop-color="#CCCCCC"/>
</linearGradient>
<linearGradient id="paint10_linear_862_12569" x1="100.711" y1="274.097" x2="412.811" y2="274.097" gradientUnits="userSpaceOnUse">
<stop stop-color="#CCCCCC"/>
<stop offset="0.05" stop-color="#D5D5D5"/>
<stop offset="0.2" stop-color="#E9E9E9"/>
<stop offset="0.35" stop-color="#F6F6F6"/>
<stop offset="0.5" stop-color="#FAFAFA"/>
<stop offset="0.65" stop-color="#F6F6F6"/>
<stop offset="0.8" stop-color="#E9E9E9"/>
<stop offset="0.95" stop-color="#D5D5D5"/>
<stop offset="1" stop-color="#CCCCCC"/>
</linearGradient>
<radialGradient id="paint11_radial_862_12569" cx="0" cy="0" r="1" gradientUnits="userSpaceOnUse" gradientTransform="translate(269.282 288.137) rotate(-30) scale(129.13 129.13)">
<stop stop-color="#401C02"/>
<stop offset="1" stop-color="#401C02"/>
</radialGradient>
<linearGradient id="paint12_linear_862_12569" x1="649476" y1="-1065.91" x2="630303" y2="-34274.3" gradientUnits="userSpaceOnUse">
<stop stop-color="#401C02"/>
<stop offset="1" stop-color="#401C02"/>
</linearGradient>
<linearGradient id="paint13_linear_862_12569" x1="649476" y1="-1065.91" x2="630303" y2="-34274.3" gradientUnits="userSpaceOnUse">
<stop stop-color="#401C02"/>
<stop offset="1" stop-color="#401C02"/>
</linearGradient>
<linearGradient id="paint14_linear_862_12569" x1="649476" y1="-1065.91" x2="630303" y2="-34274.3" gradientUnits="userSpaceOnUse">
<stop stop-color="#401C02"/>
<stop offset="1" stop-color="#401C02"/>
</linearGradient>
<radialGradient id="paint15_radial_862_12569" cx="0" cy="0" r="1" gradientUnits="userSpaceOnUse" gradientTransform="translate(242.271 -4.53898e-06) rotate(90) scale(482)">
<stop stop-color="#FFDE43"/>
<stop offset="1" stop-color="#FFBC00"/>
</radialGradient>
<linearGradient id="paint16_linear_862_12569" x1="59.2065" y1="510.886" x2="104.058" y2="336.544" gradientUnits="userSpaceOnUse">
<stop offset="0.0736292" stop-color="#0048FF"/>
<stop offset="0.223403" stop-color="#006DFF"/>
<stop offset="0.403627" stop-color="#0090FE"/>
<stop offset="0.535088" stop-color="#00ACFE"/>
<stop offset="0.65" stop-color="#00BFFE"/>
<stop offset="0.82" stop-color="#00CBFE"/>
<stop offset="1" stop-color="#00CFFE"/>
</linearGradient>
<linearGradient id="paint17_linear_862_12569" x1="59.2065" y1="510.886" x2="104.058" y2="336.544" gradientUnits="userSpaceOnUse">
<stop stop-color="#0048FF"/>
<stop offset="0.14" stop-color="#006DFF"/>
<stop offset="0.31" stop-color="#0090FE"/>
<stop offset="0.48" stop-color="#00ACFE"/>
<stop offset="0.65" stop-color="#00BFFE"/>
<stop offset="0.82" stop-color="#00CBFE"/>
<stop offset="1" stop-color="#00CFFE"/>
</linearGradient>
<linearGradient id="paint18_linear_862_12569" x1="563.594" y1="218.296" x2="390.184" y2="169.967" gradientUnits="userSpaceOnUse">
<stop offset="0.0736292" stop-color="#0048FF"/>
<stop offset="0.223403" stop-color="#006DFF"/>
<stop offset="0.403627" stop-color="#0090FE"/>
<stop offset="0.535088" stop-color="#00ACFE"/>
<stop offset="0.65" stop-color="#00BFFE"/>
<stop offset="0.82" stop-color="#00CBFE"/>
<stop offset="1" stop-color="#00CFFE"/>
</linearGradient>
<linearGradient id="paint19_linear_862_12569" x1="563.594" y1="218.296" x2="390.184" y2="169.967" gradientUnits="userSpaceOnUse">
<stop stop-color="#0048FF"/>
<stop offset="0.14" stop-color="#006DFF"/>
<stop offset="0.31" stop-color="#0090FE"/>
<stop offset="0.48" stop-color="#00ACFE"/>
<stop offset="0.65" stop-color="#00BFFE"/>
<stop offset="0.82" stop-color="#00CBFE"/>
<stop offset="1" stop-color="#00CFFE"/>
</linearGradient>
</defs>
</svg>
