<svg width="484" height="483" viewBox="0 0 484 483" fill="none" xmlns="http://www.w3.org/2000/svg">
<path d="M242.18 482.36C375.38 482.36 483.36 374.38 483.36 241.18C483.36 107.98 375.38 0 242.18 0C108.98 0 1 107.98 1 241.18C1 374.38 108.98 482.36 242.18 482.36Z" fill="url(#paint0_radial_862_12576)"/>
<g style="mix-blend-mode:soft-light">
<path d="M242.18 482.36C375.38 482.36 483.36 374.38 483.36 241.18C483.36 107.98 375.38 0 242.18 0C108.98 0 1 107.98 1 241.18C1 374.38 108.98 482.36 242.18 482.36Z" fill="url(#paint1_radial_862_12576)"/>
</g>
<g style="mix-blend-mode:soft-light">
<path d="M242.18 482.36C375.38 482.36 483.36 374.38 483.36 241.18C483.36 107.98 375.38 0 242.18 0C108.98 0 1 107.98 1 241.18C1 374.38 108.98 482.36 242.18 482.36Z" fill="url(#paint2_radial_862_12576)"/>
</g>
<g style="mix-blend-mode:overlay">
<path d="M242.18 482.36C375.38 482.36 483.36 374.38 483.36 241.18C483.36 107.98 375.38 0 242.18 0C108.98 0 1 107.98 1 241.18C1 374.38 108.98 482.36 242.18 482.36Z" fill="url(#paint3_radial_862_12576)" fill-opacity="0.7"/>
</g>
<mask id="mask0_862_12576" style="mask-type:alpha" maskUnits="userSpaceOnUse" x="0" y="0" width="483" height="483">
<path d="M241.18 482.36C374.38 482.36 482.36 374.38 482.36 241.18C482.36 107.98 374.38 0 241.18 0C107.98 0 0 107.98 0 241.18C0 374.38 107.98 482.36 241.18 482.36Z" fill="white"/>
</mask>
<g mask="url(#mask0_862_12576)">
<g filter="url(#filter0_f_862_12576)">
<path d="M-1.37541 234.299C-1.11353 230.872 0.0141891 230.529 0.343108 234.008C0.708543 237.874 -0.00182796 245.646 0.169198 250.335C0.622042 262.748 2.5249 273.541 4.48654 282.32C10.808 310.612 19.5622 328.843 27.7273 344.288C54.5668 395.06 83.9672 420.77 112.648 440.147C154.69 468.549 197.073 477.584 239.491 479.5C240.561 479.548 240.739 486.518 239.686 487.425C237.788 489.061 235.437 487.437 233.495 487.369C227.915 487.174 222.336 486.791 216.756 486.211C200.213 484.492 183.671 480.991 167.162 475.358C122.275 460.044 73.877 433.821 31.6097 359.962C28.9507 355.316 26.3128 350.424 23.7123 345.167C21.6325 340.963 19.573 336.556 17.5498 331.843C10.895 316.342 -4.61274 276.658 -1.37541 234.299ZM239.52 487.5C238.5 487.531 238.241 481.034 239.214 479.685C240.685 477.647 242.889 479.326 244.439 479.229C250.878 478.826 257.315 478.229 263.75 477.421C281.396 475.205 299.028 471.422 316.621 465.596C360.257 451.145 407.17 429.115 448.305 361.431C450.923 357.123 453.519 352.553 456.079 347.641C463.86 332.712 483.362 293.084 481.107 243.821C480.917 239.668 482.182 237.181 482.748 240.743C483.468 245.279 483.176 254.736 482.977 259.768C482.342 275.883 479.867 289.512 477.257 300.518C468.987 335.399 457.377 355.623 446.744 372.51C412.184 427.397 374.649 449.524 338.156 465.424C305.425 479.686 272.445 486.484 239.52 487.5Z" fill="#401C02"/>
</g>
<g filter="url(#filter1_f_862_12576)">
<path d="M-1.37541 234.299C-1.11353 230.872 0.0141891 230.529 0.343108 234.008C0.708543 237.874 -0.00182796 245.646 0.169198 250.335C0.622042 262.748 2.5249 273.541 4.48654 282.32C10.808 310.612 19.5622 328.843 27.7273 344.288C54.5668 395.06 83.9672 420.77 112.648 440.147C154.69 468.549 197.073 477.584 239.491 479.5C240.561 479.548 240.739 486.518 239.686 487.425C237.788 489.061 235.437 487.437 233.495 487.369C227.915 487.174 222.336 486.791 216.756 486.211C200.213 484.492 183.671 480.991 167.162 475.358C122.275 460.044 73.877 433.821 31.6097 359.962C28.9507 355.316 26.3128 350.424 23.7123 345.167C21.6325 340.963 19.573 336.556 17.5498 331.843C10.895 316.342 -4.61274 276.658 -1.37541 234.299ZM239.52 487.5C238.5 487.531 238.241 481.034 239.214 479.685C240.685 477.647 242.889 479.326 244.439 479.229C250.878 478.826 257.315 478.229 263.75 477.421C281.396 475.205 299.028 471.422 316.621 465.596C360.257 451.145 407.17 429.115 448.305 361.431C450.923 357.123 453.519 352.553 456.079 347.641C463.86 332.712 483.362 293.084 481.107 243.821C480.917 239.668 482.182 237.181 482.748 240.743C483.468 245.279 483.176 254.736 482.977 259.768C482.342 275.883 479.867 289.512 477.257 300.518C468.987 335.399 457.377 355.623 446.744 372.51C412.184 427.397 374.649 449.524 338.156 465.424C305.425 479.686 272.445 486.484 239.52 487.5Z" fill="#401C02"/>
</g>
</g>
<path d="M285.37 370H198.54C192.167 370 187 375.164 187 381.535C187 387.906 192.167 393.07 198.54 393.07H285.37C291.743 393.07 296.91 387.906 296.91 381.535C296.91 375.164 291.743 370 285.37 370Z" fill="url(#paint4_radial_862_12576)"/>
<path d="M285.37 370H198.54C192.167 370 187 375.164 187 381.535C187 387.906 192.167 393.07 198.54 393.07H285.37C291.743 393.07 296.91 387.906 296.91 381.535C296.91 375.164 291.743 370 285.37 370Z" stroke="url(#paint5_linear_862_12576)" stroke-width="1.77" stroke-miterlimit="10"/>
<path d="M91.459 119.13C97.899 111.79 138.199 69.08 183.779 89.91C185.211 90.5357 186.387 91.6302 187.114 93.0133C187.841 94.3964 188.076 95.9858 187.779 97.52C187.349 99.41 186.079 101.18 183.059 101.85C170.009 104.72 143.909 94.03 107.719 118.85C104.569 121.02 101.609 123.45 98.719 125.92C96.629 127.69 93.199 129.92 90.719 128.22C88.599 126.77 88.809 124.43 89.409 122.64C89.8526 121.346 90.5495 120.152 91.459 119.13Z" fill="#42210B"/>
<path d="M137.9 298.8C180.371 298.8 214.8 264.371 214.8 221.9C214.8 179.43 180.371 145 137.9 145C95.4293 145 61 179.43 61 221.9C61 264.371 95.4293 298.8 137.9 298.8Z" fill="url(#paint6_linear_862_12576)"/>
<mask id="mask1_862_12576" style="mask-type:alpha" maskUnits="userSpaceOnUse" x="61" y="145" width="154" height="156">
<path d="M138 300.048C95.4741 300.048 61 265.34 61 222.524C61 179.709 95.4741 145 138 145C180.526 145 215 179.709 215 222.524C215 265.34 180.526 300.048 138 300.048Z" fill="white"/>
</mask>
<g mask="url(#mask1_862_12576)">
<g filter="url(#filter2_f_862_12576)">
<path d="M62 222.524C62 264.794 96.0327 299.048 138 299.048C179.967 299.048 214 264.794 214 222.524C214 180.255 179.967 146 138 146C96.0327 146 62 180.255 62 222.524Z" stroke="#743C1C" stroke-width="2"/>
</g>
</g>
<g filter="url(#filter3_f_862_12576)">
<circle cx="138" cy="222" r="28" fill="black"/>
</g>
<path d="M137.9 298.8C180.371 298.8 214.8 264.371 214.8 221.9C214.8 179.43 180.371 145 137.9 145C95.4293 145 61 179.43 61 221.9C61 264.371 95.4293 298.8 137.9 298.8Z" stroke="url(#paint7_linear_862_12576)" stroke-width="1.64" stroke-miterlimit="10"/>
<path d="M392.541 119.13C386.101 111.79 345.801 69.08 300.221 89.91C298.789 90.5357 297.613 91.6302 296.886 93.0133C296.159 94.3964 295.924 95.9858 296.221 97.52C296.651 99.41 297.921 101.18 300.941 101.85C313.991 104.72 340.091 94.03 376.281 118.85C379.431 121.02 382.391 123.45 385.281 125.92C387.371 127.69 390.801 129.92 393.281 128.22C395.401 126.77 395.191 124.43 394.591 122.64C394.147 121.346 393.451 120.152 392.541 119.13Z" fill="#42210B"/>
<path d="M346.1 298.8C303.629 298.8 269.2 264.371 269.2 221.9C269.2 179.43 303.629 145 346.1 145C388.571 145 423 179.43 423 221.9C423 264.371 388.571 298.8 346.1 298.8Z" fill="url(#paint8_linear_862_12576)"/>
<mask id="mask2_862_12576" style="mask-type:alpha" maskUnits="userSpaceOnUse" x="269" y="145" width="154" height="156">
<path d="M346 300.048C388.526 300.048 423 265.34 423 222.524C423 179.709 388.526 145 346 145C303.474 145 269 179.709 269 222.524C269 265.34 303.474 300.048 346 300.048Z" fill="white"/>
</mask>
<g mask="url(#mask2_862_12576)">
<g filter="url(#filter4_f_862_12576)">
<path d="M422 222.524C422 264.794 387.967 299.048 346 299.048C304.033 299.048 270 264.794 270 222.524C270 180.255 304.033 146 346 146C387.967 146 422 180.255 422 222.524Z" stroke="#743C1C" stroke-width="2"/>
</g>
</g>
<g filter="url(#filter5_f_862_12576)">
<circle r="28" transform="matrix(-1 0 0 1 346 222)" fill="black"/>
</g>
<path d="M346.1 298.8C303.629 298.8 269.2 264.371 269.2 221.9C269.2 179.43 303.629 145 346.1 145C388.571 145 423 179.43 423 221.9C423 264.371 388.571 298.8 346.1 298.8Z" stroke="url(#paint9_linear_862_12576)" stroke-width="2.5" stroke-miterlimit="10"/>
<mask id="mask3_862_12576" style="mask-type:alpha" maskUnits="userSpaceOnUse" x="0" y="0" width="483" height="483">
<path d="M241.18 482.36C374.38 482.36 482.36 374.38 482.36 241.18C482.36 107.98 374.38 0 241.18 0C107.98 0 0 107.98 0 241.18C0 374.38 107.98 482.36 241.18 482.36Z" fill="black"/>
</mask>
<g mask="url(#mask3_862_12576)">
<g filter="url(#filter6_f_862_12576)">
<path d="M482.38 225.68C482.38 225.68 351.01 202.02 267.12 238.03V238.12C258.601 240.135 249.874 241.142 241.12 241.12C232.412 241.138 223.732 240.131 215.26 238.12V238.02C131.37 202.02 0 225.67 0 225.67V257.37L12.21 267.95C12.21 267.95 6.93 372.81 111.38 372.81C197.6 372.81 217.38 305.25 221.63 281.66C222.212 278.226 223.526 274.957 225.482 272.075C227.439 269.194 229.993 266.767 232.97 264.96C235.427 263.413 238.257 262.56 241.16 262.49C244.067 262.562 246.902 263.411 249.37 264.95C252.364 266.754 254.934 269.183 256.901 272.073C258.869 274.962 260.189 278.243 260.77 281.69C265.06 305.31 284.84 372.81 371.02 372.81C475.47 372.81 470.19 267.95 470.19 267.95L482.38 257.38V225.68Z" fill="#C74800" fill-opacity="0.75"/>
</g>
</g>
<path d="M482.38 219.68C482.38 219.68 351.01 196.02 267.12 232.03V232.12C258.601 234.135 249.874 235.142 241.12 235.12C232.412 235.138 223.732 234.131 215.26 232.12V232.02C131.37 196.02 0 219.67 0 219.67V251.37L12.21 261.95C12.21 261.95 6.93 366.81 111.38 366.81C197.6 366.81 217.38 299.25 221.63 275.66C222.212 272.226 223.526 268.957 225.482 266.075C227.439 263.194 229.993 260.767 232.97 258.96C235.427 257.413 238.257 256.56 241.16 256.49C244.067 256.562 246.902 257.411 249.37 258.95C252.364 260.754 254.934 263.183 256.901 266.073C258.869 268.962 260.189 272.243 260.77 275.69C265.06 299.31 284.84 366.81 371.02 366.81C475.47 366.81 470.19 261.95 470.19 261.95L482.38 251.38V219.68Z" fill="#0B0B0B"/>
<path d="M34.1599 268.45C37.6699 225.9 67.8899 224.56 111.38 224.56C154.87 224.56 198.38 231.87 199.99 261.95C201.3 286.19 193.37 318.34 166.64 340.55C155.083 350.047 140.915 355.811 126.01 357.08C102.45 359.19 62.0099 358.67 45.5399 333.49C45.5399 333.49 30.4999 312.75 34.1599 268.45Z" fill="url(#paint10_radial_862_12576)"/>
<g filter="url(#filter7_f_862_12576)">
<path d="M33.924 266.989C34.465 260.638 33.8668 278.349 33.8568 279.393C33.7771 287.653 34.4239 294.787 35.2867 300.431C37.841 317.141 41.8892 324.627 45.638 331.022C45.7349 331.188 45.8025 331.623 45.8039 332.237C45.8125 335.934 43.3389 330.385 43.1216 329.962C41.3441 326.501 39.6189 322.29 38.0297 316.938C35.1726 307.316 31.968 289.95 33.924 266.989ZM45.4374 333.936C45.0396 333.312 45.4065 330.674 45.7721 331.226C46.2161 331.896 46.6629 332.527 47.1117 333.126C47.7849 334.025 48.4628 334.853 49.1438 335.627C51.7781 338.618 54.4578 340.843 57.1514 342.714C65.1951 348.303 73.3799 350.908 81.5736 352.682C109.549 358.739 138.099 359.723 166.642 338.059C166.816 337.927 166.944 338.78 166.892 339.767C166.811 341.301 163.216 343.68 162.65 344.083C159.676 346.202 156.705 347.996 153.736 349.538C144.861 354.15 136.008 356.567 127.197 357.458C110.335 359.163 93.4864 359.107 76.8046 354.542C66.3108 351.67 55.3148 349.444 45.4374 333.936ZM166.639 341.026C166.524 341.12 166.42 340.776 166.388 340.184C166.173 336.318 169.327 335.741 169.697 335.405C172.082 333.237 174.468 330.842 176.851 328.123C178.513 326.227 180.173 324.173 181.83 321.903C183.139 320.11 184.446 318.182 185.748 316.07C188.811 311.104 201.171 290.743 199.737 261.564C199.553 257.822 200.475 261.176 200.375 267.586C200.277 273.829 199.597 279.602 198.793 284.252C196.291 298.724 192.557 306.404 189.396 312.596C181.949 327.189 174.203 334.872 166.639 341.026Z" fill="#818181"/>
</g>
<path d="M448.782 268.45C445.272 225.9 415.052 224.56 371.562 224.56C328.072 224.56 284.562 231.87 282.952 261.95C281.642 286.19 289.572 318.34 316.302 340.55C327.86 350.047 342.028 355.811 356.932 357.08C380.492 359.19 420.932 358.67 437.402 333.49C437.402 333.49 452.442 312.75 448.782 268.45Z" fill="url(#paint11_radial_862_12576)"/>
<g filter="url(#filter8_f_862_12576)">
<path d="M449.018 266.989C448.477 260.638 449.076 278.349 449.086 279.393C449.165 287.653 448.519 294.787 447.656 300.431C445.101 317.141 441.053 324.627 437.304 331.022C437.207 331.188 437.14 331.623 437.138 332.237C437.13 335.934 439.604 330.385 439.821 329.962C441.598 326.501 443.324 322.29 444.913 316.938C447.77 307.316 450.974 289.95 449.018 266.989ZM437.505 333.936C437.903 333.312 437.536 330.674 437.17 331.226C436.726 331.896 436.28 332.527 435.831 333.126C435.157 334.025 434.48 334.853 433.799 335.627C431.164 338.618 428.485 340.843 425.791 342.714C417.747 348.303 409.563 350.908 401.369 352.682C373.393 358.739 344.843 359.723 316.3 338.059C316.126 337.927 315.998 338.78 316.05 339.767C316.131 341.301 319.726 343.68 320.293 344.083C323.266 346.202 326.238 347.996 329.206 349.538C338.082 354.15 346.934 356.567 355.745 357.458C372.607 359.163 389.456 359.107 406.138 354.542C416.632 351.67 427.628 349.444 437.505 333.936ZM316.303 341.026C316.418 341.12 316.522 340.776 316.555 340.184C316.77 336.318 313.615 335.741 313.246 335.405C310.86 333.237 308.474 330.842 306.091 328.123C304.43 326.227 302.769 324.173 301.112 321.903C299.804 320.11 298.497 318.182 297.194 316.07C294.132 311.104 281.772 290.743 283.206 261.564C283.39 257.822 282.467 261.176 282.568 267.586C282.665 273.829 283.345 279.602 284.149 284.252C286.651 298.724 290.386 306.404 293.546 312.596C300.994 327.189 308.739 334.872 316.303 341.026Z" fill="#818181"/>
</g>
<path d="M11.95 226.34H7.04004V247.31H11.95V226.34Z" fill="url(#paint12_linear_862_12576)"/>
<path d="M470.449 247.31H475.359V226.34H470.449V247.31Z" fill="url(#paint13_linear_862_12576)"/>
<defs>
<filter id="filter0_f_862_12576" x="-26.8145" y="206.558" width="535.021" height="306.595" filterUnits="userSpaceOnUse" color-interpolation-filters="sRGB">
<feFlood flood-opacity="0" result="BackgroundImageFix"/>
<feBlend mode="normal" in="SourceGraphic" in2="BackgroundImageFix" result="shape"/>
<feGaussianBlur stdDeviation="12.5" result="effect1_foregroundBlur_862_12576"/>
</filter>
<filter id="filter1_f_862_12576" x="-41.8145" y="191.558" width="565.021" height="336.595" filterUnits="userSpaceOnUse" color-interpolation-filters="sRGB">
<feFlood flood-opacity="0" result="BackgroundImageFix"/>
<feBlend mode="normal" in="SourceGraphic" in2="BackgroundImageFix" result="shape"/>
<feGaussianBlur stdDeviation="20" result="effect1_foregroundBlur_862_12576"/>
</filter>
<filter id="filter2_f_862_12576" x="46" y="130" width="184" height="185.048" filterUnits="userSpaceOnUse" color-interpolation-filters="sRGB">
<feFlood flood-opacity="0" result="BackgroundImageFix"/>
<feBlend mode="normal" in="SourceGraphic" in2="BackgroundImageFix" result="shape"/>
<feGaussianBlur stdDeviation="7.5" result="effect1_foregroundBlur_862_12576"/>
</filter>
<filter id="filter3_f_862_12576" x="106" y="190" width="64" height="64" filterUnits="userSpaceOnUse" color-interpolation-filters="sRGB">
<feFlood flood-opacity="0" result="BackgroundImageFix"/>
<feBlend mode="normal" in="SourceGraphic" in2="BackgroundImageFix" result="shape"/>
<feGaussianBlur stdDeviation="2" result="effect1_foregroundBlur_862_12576"/>
</filter>
<filter id="filter4_f_862_12576" x="254" y="130" width="184" height="185.048" filterUnits="userSpaceOnUse" color-interpolation-filters="sRGB">
<feFlood flood-opacity="0" result="BackgroundImageFix"/>
<feBlend mode="normal" in="SourceGraphic" in2="BackgroundImageFix" result="shape"/>
<feGaussianBlur stdDeviation="7.5" result="effect1_foregroundBlur_862_12576"/>
</filter>
<filter id="filter5_f_862_12576" x="314" y="190" width="64" height="64" filterUnits="userSpaceOnUse" color-interpolation-filters="sRGB">
<feFlood flood-opacity="0" result="BackgroundImageFix"/>
<feBlend mode="normal" in="SourceGraphic" in2="BackgroundImageFix" result="shape"/>
<feGaussianBlur stdDeviation="2" result="effect1_foregroundBlur_862_12576"/>
</filter>
<filter id="filter6_f_862_12576" x="-15" y="203.044" width="512.38" height="184.766" filterUnits="userSpaceOnUse" color-interpolation-filters="sRGB">
<feFlood flood-opacity="0" result="BackgroundImageFix"/>
<feBlend mode="normal" in="SourceGraphic" in2="BackgroundImageFix" result="shape"/>
<feGaussianBlur stdDeviation="7.5" result="effect1_foregroundBlur_862_12576"/>
</filter>
<filter id="filter7_f_862_12576" x="29.3232" y="256" width="175.06" height="106.488" filterUnits="userSpaceOnUse" color-interpolation-filters="sRGB">
<feFlood flood-opacity="0" result="BackgroundImageFix"/>
<feBlend mode="normal" in="SourceGraphic" in2="BackgroundImageFix" result="shape"/>
<feGaussianBlur stdDeviation="2" result="effect1_foregroundBlur_862_12576"/>
</filter>
<filter id="filter8_f_862_12576" x="278.56" y="256" width="175.06" height="106.488" filterUnits="userSpaceOnUse" color-interpolation-filters="sRGB">
<feFlood flood-opacity="0" result="BackgroundImageFix"/>
<feBlend mode="normal" in="SourceGraphic" in2="BackgroundImageFix" result="shape"/>
<feGaussianBlur stdDeviation="2" result="effect1_foregroundBlur_862_12576"/>
</filter>
<radialGradient id="paint0_radial_862_12576" cx="0" cy="0" r="1" gradientUnits="userSpaceOnUse" gradientTransform="translate(242 -4.53898e-06) rotate(90) scale(482)">
<stop stop-color="#FFDE43"/>
<stop offset="1" stop-color="#FFBC00"/>
</radialGradient>
<radialGradient id="paint1_radial_862_12576" cx="0" cy="0" r="1" gradientUnits="userSpaceOnUse" gradientTransform="translate(242 64.5) rotate(90) scale(417.5)">
<stop stop-color="white" stop-opacity="0.5"/>
<stop offset="0.782278"/>
</radialGradient>
<radialGradient id="paint2_radial_862_12576" cx="0" cy="0" r="1" gradientUnits="userSpaceOnUse" gradientTransform="translate(242 64.5) rotate(90) scale(417.5)">
<stop stop-color="white" stop-opacity="0.5"/>
<stop offset="0.782278"/>
</radialGradient>
<radialGradient id="paint3_radial_862_12576" cx="0" cy="0" r="1" gradientUnits="userSpaceOnUse" gradientTransform="translate(242 -52.5) rotate(90) scale(534.5 722.835)">
<stop offset="0.0922635" stop-color="white"/>
<stop offset="0.670207" stop-color="white" stop-opacity="0"/>
</radialGradient>
<radialGradient id="paint4_radial_862_12576" cx="0" cy="0" r="1" gradientUnits="userSpaceOnUse" gradientTransform="translate(241.955 381.488) scale(41.4813 23.302)">
<stop stop-color="#743C1C"/>
<stop offset="1" stop-color="#401C02"/>
</radialGradient>
<linearGradient id="paint5_linear_862_12576" x1="241.955" y1="393.719" x2="241.955" y2="369.258" gradientUnits="userSpaceOnUse">
<stop offset="0.265625" stop-color="#FFDE43"/>
<stop offset="1" stop-color="#F79D14"/>
</linearGradient>
<linearGradient id="paint6_linear_862_12576" x1="60.9411" y1="221.929" x2="214.8" y2="221.929" gradientUnits="userSpaceOnUse">
<stop stop-color="#CCCCCC"/>
<stop offset="0.05" stop-color="#D5D5D5"/>
<stop offset="0.2" stop-color="#E9E9E9"/>
<stop offset="0.35" stop-color="#F6F6F6"/>
<stop offset="0.5" stop-color="#FAFAFA"/>
<stop offset="0.65" stop-color="#F6F6F6"/>
<stop offset="0.8" stop-color="#E9E9E9"/>
<stop offset="0.95" stop-color="#D5D5D5"/>
<stop offset="1" stop-color="#CCCCCC"/>
</linearGradient>
<linearGradient id="paint7_linear_862_12576" x1="137.9" y1="303.128" x2="137.9" y2="140.051" gradientUnits="userSpaceOnUse">
<stop stop-color="#FFDE43"/>
<stop offset="0.22" stop-color="#FED93F"/>
<stop offset="0.51" stop-color="#FCC934"/>
<stop offset="0.82" stop-color="#F9AF21"/>
<stop offset="1" stop-color="#F79D14"/>
</linearGradient>
<linearGradient id="paint8_linear_862_12576" x1="423.059" y1="221.929" x2="269.2" y2="221.929" gradientUnits="userSpaceOnUse">
<stop stop-color="#CCCCCC"/>
<stop offset="0.05" stop-color="#D5D5D5"/>
<stop offset="0.2" stop-color="#E9E9E9"/>
<stop offset="0.35" stop-color="#F6F6F6"/>
<stop offset="0.5" stop-color="#FAFAFA"/>
<stop offset="0.65" stop-color="#F6F6F6"/>
<stop offset="0.8" stop-color="#E9E9E9"/>
<stop offset="0.95" stop-color="#D5D5D5"/>
<stop offset="1" stop-color="#CCCCCC"/>
</linearGradient>
<linearGradient id="paint9_linear_862_12576" x1="346.1" y1="303.128" x2="346.1" y2="140.051" gradientUnits="userSpaceOnUse">
<stop stop-color="#FFDE43"/>
<stop offset="0.22" stop-color="#FED93F"/>
<stop offset="0.51" stop-color="#FCC934"/>
<stop offset="0.82" stop-color="#F9AF21"/>
<stop offset="1" stop-color="#F79D14"/>
</linearGradient>
<radialGradient id="paint10_radial_862_12576" cx="0" cy="0" r="1" gradientUnits="userSpaceOnUse" gradientTransform="translate(213.51 203.42) scale(189.1 189.1)">
<stop offset="0.14" stop-color="#8A8B88"/>
<stop offset="1" stop-color="#0B0B0B"/>
</radialGradient>
<radialGradient id="paint11_radial_862_12576" cx="0" cy="0" r="1" gradientUnits="userSpaceOnUse" gradientTransform="translate(269.432 203.42) rotate(180) scale(189.1 189.1)">
<stop offset="0.14" stop-color="#8A8B88"/>
<stop offset="1" stop-color="#0B0B0B"/>
</radialGradient>
<linearGradient id="paint12_linear_862_12576" x1="7.03816" y1="236.829" x2="11.95" y2="236.829" gradientUnits="userSpaceOnUse">
<stop stop-color="#CCCCCC"/>
<stop offset="0.05" stop-color="#D5D5D5"/>
<stop offset="0.2" stop-color="#E9E9E9"/>
<stop offset="0.35" stop-color="#F6F6F6"/>
<stop offset="0.5" stop-color="#FAFAFA"/>
<stop offset="0.65" stop-color="#F6F6F6"/>
<stop offset="0.8" stop-color="#E9E9E9"/>
<stop offset="0.95" stop-color="#D5D5D5"/>
<stop offset="1" stop-color="#CCCCCC"/>
</linearGradient>
<linearGradient id="paint13_linear_862_12576" x1="475.361" y1="236.821" x2="470.449" y2="236.821" gradientUnits="userSpaceOnUse">
<stop stop-color="#CCCCCC"/>
<stop offset="0.05" stop-color="#D5D5D5"/>
<stop offset="0.2" stop-color="#E9E9E9"/>
<stop offset="0.35" stop-color="#F6F6F6"/>
<stop offset="0.5" stop-color="#FAFAFA"/>
<stop offset="0.65" stop-color="#F6F6F6"/>
<stop offset="0.8" stop-color="#E9E9E9"/>
<stop offset="0.95" stop-color="#D5D5D5"/>
<stop offset="1" stop-color="#CCCCCC"/>
</linearGradient>
</defs>
</svg>
