<svg width="615" height="559" viewBox="0 0 615 559" fill="none" xmlns="http://www.w3.org/2000/svg">
<path d="M321.277 516.912C452.453 493.782 540.042 368.692 516.912 237.516C493.782 106.339 368.692 18.7503 237.516 41.8803C106.339 65.0102 18.7505 190.1 41.8805 321.277C65.0104 452.453 190.1 540.042 321.277 516.912Z" fill="url(#paint0_radial_862_12488)"/>
<g style="mix-blend-mode:soft-light">
<path d="M321.277 516.912C452.453 493.782 540.042 368.692 516.912 237.516C493.782 106.339 368.692 18.7503 237.516 41.8803C106.339 65.0102 18.7505 190.1 41.8805 321.277C65.0104 452.453 190.1 540.042 321.277 516.912Z" fill="url(#paint1_radial_862_12488)"/>
</g>
<g style="mix-blend-mode:soft-light">
<path d="M321.277 516.912C452.453 493.782 540.042 368.692 516.912 237.516C493.782 106.339 368.692 18.7503 237.516 41.8803C106.339 65.0102 18.7505 190.1 41.8805 321.277C65.0104 452.453 190.1 540.042 321.277 516.912Z" fill="url(#paint2_radial_862_12488)"/>
</g>
<g style="mix-blend-mode:overlay">
<path d="M321.277 516.912C452.453 493.782 540.042 368.692 516.912 237.516C493.782 106.339 368.692 18.7503 237.516 41.8803C106.339 65.0102 18.7505 190.1 41.8805 321.277C65.0104 452.453 190.1 540.042 321.277 516.912Z" fill="url(#paint3_radial_862_12488)" fill-opacity="0.7"/>
</g>
<mask id="mask0_862_12488" style="mask-type:alpha" maskUnits="userSpaceOnUse" x="38" y="38" width="483" height="483">
<path d="M321.277 516.912C452.453 493.782 540.042 368.692 516.912 237.516C493.782 106.339 368.692 18.7503 237.516 41.8803C106.339 65.0102 18.7505 190.1 41.8805 321.277C65.0104 452.453 190.1 540.042 321.277 516.912Z" fill="white"/>
</mask>
<g mask="url(#mask0_862_12488)">
<g filter="url(#filter0_f_862_12488)">
<path d="M39.3306 314.739C38.9935 311.319 40.0445 310.785 40.9726 314.154C42.0038 317.898 42.6538 325.676 43.6364 330.263C46.2379 342.409 49.9861 352.708 53.4424 361.013C64.5806 387.777 76.3675 404.211 87.0908 418.004C122.339 463.344 155.757 483.558 187.367 497.66C233.702 518.33 277.01 519.868 319.116 514.389C320.178 514.251 321.564 521.083 320.685 522.16C319.1 524.101 316.502 522.91 314.578 523.18C309.049 523.956 303.488 524.548 297.893 524.946C281.302 526.125 264.403 525.55 247.167 522.87C200.303 515.583 148.086 498.162 93.6358 432.765C90.2104 428.651 86.7632 424.292 83.2893 419.567C80.5112 415.788 77.7177 411.806 74.9068 407.515C65.6613 393.405 43.4981 357.017 39.3306 314.739ZM320.535 522.262C319.535 522.47 318.152 516.117 318.876 514.62C319.97 512.357 322.432 513.627 323.942 513.263C330.213 511.748 336.449 510.043 342.646 508.129C359.639 502.883 376.346 496.095 392.66 487.303C433.124 465.494 475.499 435.652 504.256 361.853C506.086 357.157 507.849 352.205 509.517 346.923C514.588 330.87 526.912 288.457 516.137 240.334C515.229 236.277 516.042 233.608 517.218 237.019C518.715 241.36 520.069 250.724 520.747 255.714C522.92 271.695 522.849 285.546 522.191 296.838C520.103 332.625 512.181 354.558 504.642 373.035C480.139 433.09 447.016 461.398 413.838 483.394C384.081 503.122 352.782 515.544 320.535 522.262Z" fill="#401C02"/>
</g>
<g filter="url(#filter1_f_862_12488)">
<path d="M39.3306 314.739C38.9935 311.319 40.0445 310.785 40.9726 314.154C42.0038 317.898 42.6538 325.676 43.6364 330.263C46.2379 342.409 49.9861 352.708 53.4424 361.013C64.5806 387.777 76.3675 404.211 87.0908 418.004C122.339 463.344 155.757 483.558 187.367 497.66C233.702 518.33 277.01 519.868 319.116 514.389C320.178 514.251 321.564 521.083 320.685 522.16C319.1 524.101 316.502 522.91 314.578 523.18C309.049 523.956 303.488 524.548 297.893 524.946C281.302 526.125 264.403 525.55 247.167 522.87C200.303 515.583 148.086 498.162 93.6358 432.765C90.2104 428.651 86.7632 424.292 83.2893 419.567C80.5112 415.788 77.7177 411.806 74.9068 407.515C65.6613 393.405 43.4981 357.017 39.3306 314.739ZM320.535 522.262C319.535 522.47 318.152 516.117 318.876 514.62C319.97 512.357 322.432 513.627 323.942 513.263C330.213 511.748 336.449 510.043 342.646 508.129C359.639 502.883 376.346 496.095 392.66 487.303C433.124 465.494 475.499 435.652 504.256 361.853C506.086 357.157 507.849 352.205 509.517 346.923C514.588 330.87 526.912 288.457 516.137 240.334C515.229 236.277 516.042 233.608 517.218 237.019C518.715 241.36 520.069 250.724 520.747 255.714C522.92 271.695 522.849 285.546 522.191 296.838C520.103 332.625 512.181 354.558 504.642 373.035C480.139 433.09 447.016 461.398 413.838 483.394C384.081 503.122 352.782 515.544 320.535 522.262Z" fill="#401C02"/>
</g>
</g>
<path d="M360.832 338.981C361.158 338.613 361.593 338.359 362.073 338.254C362.553 338.15 363.054 338.201 363.504 338.399C363.953 338.598 364.328 338.934 364.574 339.359C364.82 339.785 364.925 340.277 364.873 340.766C362.2 373.345 336.617 401.597 301.292 407.825C265.967 414.054 232.225 396.202 218.588 366.489C218.373 366.046 218.304 365.547 218.39 365.062C218.477 364.578 218.715 364.133 219.069 363.792C219.424 363.451 219.878 363.231 220.365 363.164C220.853 363.097 221.349 363.185 221.783 363.417C241.724 373.772 267.858 377.785 295.147 372.973C322.436 368.161 345.628 355.491 360.832 338.981Z" fill="url(#paint4_radial_862_12488)"/>
<path d="M360.832 338.981C361.158 338.613 361.593 338.359 362.073 338.254C362.553 338.15 363.054 338.201 363.504 338.399C363.953 338.598 364.328 338.934 364.574 339.359C364.82 339.785 364.925 340.277 364.873 340.766C362.2 373.345 336.617 401.597 301.292 407.825C265.967 414.054 232.225 396.202 218.588 366.489C218.373 366.046 218.304 365.547 218.39 365.062C218.477 364.578 218.715 364.133 219.069 363.792C219.424 363.451 219.878 363.231 220.365 363.164C220.853 363.097 221.349 363.185 221.783 363.417C241.724 373.772 267.858 377.785 295.147 372.973C322.436 368.161 345.628 355.491 360.832 338.981Z" stroke="url(#paint5_linear_862_12488)" stroke-width="2.5" stroke-miterlimit="10"/>
<path d="M235.852 285.958L235.824 285.962C234.482 286.155 233.114 285.865 231.966 285.144C230.823 284.425 229.971 283.326 229.56 282.04C223.397 264.624 209.557 253.714 196.154 256.078C182.75 258.441 173.476 273.427 173.641 291.9C173.695 293.248 173.271 294.573 172.442 295.639C171.61 296.71 170.424 297.45 169.097 297.728L169.069 297.734L169.042 297.738C167.864 297.916 166.66 297.718 165.602 297.171C164.547 296.626 163.691 295.762 163.155 294.703C159.004 286.897 156.132 278.476 154.649 269.76C151.731 253.21 153.794 237.356 159.538 225.091C165.281 212.829 174.754 204.073 186.664 201.973C198.575 199.873 210.459 204.863 220.037 214.424C229.617 223.987 236.966 238.182 239.884 254.732M235.852 285.958L238.9 254.907M235.852 285.958L235.879 285.953C237.047 285.717 238.11 285.119 238.917 284.243C239.722 283.371 240.231 282.267 240.373 281.089M235.852 285.958L239.381 280.959M239.884 254.732C239.884 254.732 239.885 254.733 239.885 254.733L238.9 254.907M239.884 254.732C239.884 254.731 239.884 254.73 239.884 254.73L238.9 254.907M239.884 254.732C241.451 263.435 241.616 272.333 240.373 281.089M238.9 254.907C240.449 263.51 240.611 272.305 239.381 280.959M240.373 281.089C240.373 281.085 240.374 281.081 240.374 281.076L239.381 280.959M240.373 281.089C240.372 281.093 240.372 281.096 240.371 281.1L239.381 280.959" stroke="url(#paint6_linear_862_12488)" stroke-width="2"/>
<path d="M387.926 259.144L387.898 259.148C386.556 259.341 385.189 259.051 384.04 258.329C382.897 257.611 382.045 256.511 381.635 255.225C375.471 237.81 361.622 226.902 348.228 229.263C334.834 231.625 325.551 246.613 325.715 265.086C325.77 266.434 325.345 267.759 324.517 268.825C323.684 269.896 322.499 270.636 321.171 270.914L321.144 270.92L321.116 270.924C319.938 271.102 318.735 270.904 317.676 270.357C316.622 269.812 315.766 268.949 315.23 267.89C311.063 260.09 308.174 251.671 306.674 242.955C303.756 226.405 305.82 210.55 311.564 198.286C317.306 186.024 326.779 177.268 338.69 175.168C350.6 173.068 362.484 178.058 372.062 187.619C381.642 197.181 388.991 211.376 391.909 227.925M387.926 259.144L390.925 228.101M387.926 259.144L387.954 259.139C389.121 258.903 390.185 258.305 390.992 257.429C391.796 256.556 392.306 255.452 392.447 254.274M387.926 259.144L391.455 254.145M391.909 227.925C391.909 227.926 391.91 227.927 391.91 227.928L390.925 228.101M391.909 227.925C391.909 227.924 391.909 227.923 391.909 227.922L390.925 228.101M391.909 227.925C393.492 236.623 393.673 245.518 392.447 254.274M390.925 228.101C392.489 236.699 392.669 245.491 391.455 254.145M392.447 254.274C392.448 254.27 392.448 254.266 392.448 254.262L391.455 254.145M392.447 254.274C392.447 254.277 392.446 254.28 392.446 254.284L391.455 254.145" stroke="url(#paint7_linear_862_12488)" stroke-width="2"/>
<path d="M238.984 254.05C240.533 262.652 240.695 271.448 239.465 280.102C239.35 281.075 238.931 281.988 238.266 282.708C237.602 283.429 236.727 283.921 235.766 284.115C234.658 284.274 233.53 284.035 232.582 283.44C231.635 282.844 230.929 281.931 230.593 280.864C224.354 263.219 210.166 251.749 196.064 254.235C181.962 256.722 172.553 272.353 172.725 291.068C172.774 292.186 172.423 293.285 171.737 294.168C171.05 295.052 170.071 295.663 168.976 295.892C168.007 296.039 167.016 295.875 166.145 295.425C165.274 294.975 164.568 294.261 164.127 293.386C160.023 285.671 157.184 277.347 155.718 268.731C149.944 235.987 163.917 206.157 186.922 202.101C209.927 198.044 233.21 221.305 238.984 254.05Z" fill="url(#paint8_radial_862_12488)"/>
<path d="M391.008 227.243C392.573 235.84 392.752 244.633 391.539 253.287C391.424 254.26 391.004 255.172 390.34 255.893C389.676 256.614 388.801 257.106 387.84 257.3C386.732 257.459 385.604 257.22 384.656 256.624C383.708 256.029 383.003 255.116 382.666 254.049C376.428 236.404 362.23 224.935 348.138 227.42C334.045 229.905 324.627 245.538 324.799 264.252C324.848 265.37 324.497 266.469 323.81 267.353C323.124 268.237 322.145 268.848 321.05 269.077C320.081 269.223 319.09 269.06 318.219 268.61C317.348 268.16 316.642 267.446 316.201 266.571C312.081 258.861 309.225 250.54 307.743 241.925C301.969 209.18 315.942 179.351 338.947 175.294C361.952 171.238 385.235 194.498 391.008 227.243Z" fill="url(#paint9_radial_862_12488)"/>
<mask id="mask1_862_12488" style="mask-type:alpha" maskUnits="userSpaceOnUse" x="38" y="38" width="483" height="483">
<path d="M321.277 516.912C452.453 493.782 540.042 368.692 516.912 237.516C493.782 106.339 368.692 18.7503 237.516 41.8803C106.339 65.0102 18.7505 190.1 41.8805 321.277C65.0104 452.453 190.1 540.042 321.277 516.912Z" fill="url(#paint10_radial_862_12488)"/>
</mask>
<g mask="url(#mask1_862_12488)">
<g filter="url(#filter2_f_862_12488)">
<path d="M613.155 261.746C610.055 245.746 601.155 230.746 589.155 219.446C580.055 210.846 569.255 204.146 557.855 199.246C552.055 196.746 546.155 194.646 540.055 192.946C534.055 191.246 527.255 190.746 521.655 187.846C509.955 181.746 505.755 162.146 504.955 150.246C504.155 138.846 505.055 124.846 495.155 119.146C488.355 115.146 479.255 117.746 473.855 123.446C468.455 129.146 466.155 137.046 465.255 144.846C463.555 159.646 466.155 175.046 472.755 188.446C477.255 197.646 493.255 216.346 488.455 227.346C485.755 233.446 472.455 236.046 466.855 238.446C457.855 242.346 449.155 246.746 441.055 252.346C430.855 259.446 420.155 270.146 417.055 282.546C415.255 289.846 417.255 297.546 421.955 303.246C425.855 308.146 435.455 315.946 441.755 311.046C434.555 316.646 433.055 328.146 438.555 335.446C444.055 342.746 455.555 344.446 462.855 339.046C455.555 344.646 454.055 356.346 459.555 363.646C465.055 370.946 476.755 372.646 484.155 367.146C469.655 377.946 455.255 388.646 440.755 399.446C434.955 403.746 428.855 408.546 426.955 415.446C424.255 424.846 432.055 435.746 441.755 436.346C449.355 436.846 456.155 432.046 462.355 427.546C491.555 406.146 520.755 384.646 549.955 363.246C564.755 352.346 579.655 341.346 591.755 327.546C603.855 313.746 613.055 296.646 614.355 278.346C614.555 272.846 614.155 267.246 613.155 261.746Z" fill="#BF5703"/>
</g>
</g>
<path d="M612.971 261.321C609.871 245.321 600.971 230.321 588.971 219.021C579.871 210.421 569.071 203.721 557.671 198.821C551.871 196.321 545.971 194.221 539.871 192.521C533.871 190.821 527.071 190.321 521.471 187.421C509.771 181.321 505.571 161.721 504.771 149.821C503.971 138.421 504.871 124.421 494.971 118.721C488.171 114.721 479.071 117.321 473.671 123.021C468.271 128.721 465.971 136.621 465.071 144.421C463.371 159.221 465.971 174.621 472.571 188.021C477.071 197.221 493.071 215.921 488.271 226.921C485.571 233.021 472.271 235.621 466.671 238.021C457.671 241.921 448.971 246.321 440.871 251.921C430.671 259.021 419.971 269.721 416.871 282.121C415.071 289.421 417.071 297.121 421.771 302.821C425.671 307.721 435.271 315.521 441.571 310.621C434.371 316.221 432.871 327.721 438.371 335.021C443.871 342.321 455.371 344.021 462.671 338.621C455.371 344.221 453.871 355.921 459.371 363.221C464.871 370.521 476.571 372.221 483.971 366.721C469.471 377.521 455.071 388.221 440.571 399.021C434.771 403.321 428.671 408.121 426.771 415.021C424.071 424.421 431.871 435.321 441.571 435.921C449.171 436.421 455.971 431.621 462.171 427.121C491.371 405.721 520.571 384.221 549.771 362.821C564.571 351.921 579.471 340.921 591.571 327.121C603.671 313.321 612.871 296.221 614.171 277.921C614.371 272.421 613.971 266.821 612.971 261.321Z" fill="url(#paint11_linear_862_12488)"/>
<mask id="mask2_862_12488" style="mask-type:alpha" maskUnits="userSpaceOnUse" x="416" y="116" width="199" height="320">
<path d="M612.971 261.321C609.871 245.321 600.971 230.321 588.971 219.021C579.871 210.421 569.071 203.721 557.671 198.821C551.871 196.321 545.971 194.221 539.871 192.521C533.871 190.821 527.071 190.321 521.471 187.421C509.771 181.321 505.571 161.721 504.771 149.821C503.971 138.421 504.871 124.421 494.971 118.721C488.171 114.721 479.071 117.321 473.671 123.021C468.271 128.721 465.971 136.621 465.071 144.421C463.371 159.221 465.971 174.621 472.571 188.021C477.071 197.221 493.071 215.921 488.271 226.921C485.571 233.021 472.271 235.621 466.671 238.021C457.671 241.921 448.971 246.321 440.871 251.921C430.671 259.021 419.971 269.721 416.871 282.121C415.071 289.421 417.071 297.121 421.771 302.821C425.671 307.721 435.271 315.521 441.571 310.621C434.371 316.221 432.871 327.721 438.371 335.021C443.871 342.321 455.371 344.021 462.671 338.621C455.371 344.221 453.871 355.921 459.371 363.221C464.871 370.521 476.571 372.221 483.971 366.721C469.471 377.521 455.071 388.221 440.571 399.021C434.771 403.321 428.671 408.121 426.771 415.021C424.071 424.421 431.871 435.321 441.571 435.921C449.171 436.421 455.971 431.621 462.171 427.121C491.371 405.721 520.571 384.221 549.771 362.821C564.571 351.921 579.471 340.921 591.571 327.121C603.671 313.321 612.871 296.221 614.171 277.921C614.371 272.421 613.971 266.821 612.971 261.321Z" fill="white"/>
</mask>
<g mask="url(#mask2_862_12488)">
<g filter="url(#filter3_f_862_12488)">
<path d="M494.971 118.721C488.171 114.721 479.071 117.321 473.671 123.021C468.271 128.721 465.971 136.621 465.071 144.421C463.371 159.221 465.971 174.621 472.571 188.021C477.071 197.221 493.071 215.921 488.271 226.921C485.571 233.021 472.271 235.621 466.671 238.021C457.671 241.921 448.971 246.321 440.871 251.921C430.671 259.021 419.971 269.721 416.871 282.121C415.071 289.421 417.071 297.121 421.771 302.821C425.671 307.721 435.271 315.521 441.571 310.621C434.371 316.221 432.871 327.721 438.371 335.021C443.871 342.321 455.371 344.021 462.671 338.621C455.371 344.221 453.871 355.921 459.371 363.221C464.871 370.521 476.571 372.221 483.971 366.721C469.471 377.521 455.071 388.221 440.571 399.021C434.771 403.321 428.671 408.121 426.771 415.021C424.071 424.421 431.871 435.321 441.571 435.921C449.171 436.421 455.971 431.621 462.171 427.121" stroke="#FF8500" stroke-width="3" stroke-miterlimit="10"/>
</g>
</g>
<mask id="mask3_862_12488" style="mask-type:alpha" maskUnits="userSpaceOnUse" x="416" y="116" width="199" height="320">
<path d="M612.971 261.321C609.871 245.321 600.971 230.321 588.971 219.021C579.871 210.421 569.071 203.721 557.671 198.821C551.871 196.321 545.971 194.221 539.871 192.521C533.871 190.821 527.071 190.321 521.471 187.421C509.771 181.321 505.571 161.721 504.771 149.821C503.971 138.421 504.871 124.421 494.971 118.721C488.171 114.721 479.071 117.321 473.671 123.021C468.271 128.721 465.971 136.621 465.071 144.421C463.371 159.221 465.971 174.621 472.571 188.021C477.071 197.221 493.071 215.921 488.271 226.921C485.571 233.021 472.271 235.621 466.671 238.021C457.671 241.921 448.971 246.321 440.871 251.921C430.671 259.021 419.971 269.721 416.871 282.121C415.071 289.421 417.071 297.121 421.771 302.821C425.671 307.721 435.271 315.521 441.571 310.621C434.371 316.221 432.871 327.721 438.371 335.021C443.871 342.321 455.371 344.021 462.671 338.621C455.371 344.221 453.871 355.921 459.371 363.221C464.871 370.521 476.571 372.221 483.971 366.721C469.471 377.521 455.071 388.221 440.571 399.021C434.771 403.321 428.671 408.121 426.771 415.021C424.071 424.421 431.871 435.321 441.571 435.921C449.171 436.421 455.971 431.621 462.171 427.121C491.371 405.721 520.571 384.221 549.771 362.821C564.571 351.921 579.471 340.921 591.571 327.121C603.671 313.321 612.871 296.221 614.171 277.921C614.371 272.421 613.971 266.821 612.971 261.321Z" fill="white"/>
</mask>
<g mask="url(#mask3_862_12488)">
<g filter="url(#filter4_f_862_12488)">
<path d="M494.971 118.721C493.671 118.021 492.371 117.621 490.971 117.321C489.571 117.021 488.171 117.021 486.771 117.121C483.971 117.421 481.271 118.321 478.871 119.721C473.971 122.521 470.771 127.321 468.871 132.521C466.971 137.721 466.271 143.321 466.071 148.921C465.871 154.521 466.271 160.121 467.271 165.621C468.271 171.121 469.871 176.521 471.971 181.621C472.471 182.921 473.071 184.221 473.671 185.421C473.971 186.021 474.271 186.721 474.571 187.321C474.871 187.921 475.171 188.521 475.571 189.121C476.971 191.521 478.571 193.821 480.171 196.221C483.271 201.021 486.471 205.921 488.971 211.321C490.171 214.021 491.271 217.021 491.671 220.221C491.871 221.821 491.971 223.521 491.571 225.321C491.371 226.221 491.171 227.021 490.871 227.921C490.771 228.321 490.471 228.821 490.171 229.221C489.971 229.721 489.671 230.021 489.371 230.421C488.771 231.221 488.071 231.721 487.471 232.321C486.771 232.821 486.171 233.421 485.471 233.821C484.071 234.721 482.671 235.321 481.271 236.021C478.471 237.221 475.671 238.221 472.971 239.121C471.671 239.621 470.271 240.021 469.071 240.521C467.971 240.921 466.571 241.621 465.371 242.121C462.771 243.321 460.271 244.521 457.771 245.821C447.871 250.921 438.471 257.021 430.971 264.921C429.071 266.921 427.371 268.921 425.871 271.121C424.371 273.321 422.971 275.621 421.971 277.921C421.671 278.521 421.471 279.121 421.271 279.721C421.071 280.321 420.771 280.921 420.671 281.521C420.471 282.121 420.271 282.721 420.171 283.321L419.971 284.221L419.771 285.121C419.471 287.521 419.571 289.921 420.171 292.321C420.771 294.721 421.771 296.921 423.171 299.021C423.871 300.021 424.571 301.021 425.471 301.921C426.271 302.821 427.271 303.721 428.271 304.521C430.171 306.121 432.371 307.521 434.471 308.321C435.471 308.621 436.471 308.821 437.271 308.821C438.071 308.721 438.671 308.521 439.371 308.021L443.571 313.421C440.771 315.521 438.971 319.021 438.471 322.721C437.971 326.421 438.771 330.221 440.871 333.021C442.971 335.821 446.471 337.721 450.171 338.321C453.871 338.921 457.771 338.121 460.671 336.121L464.571 341.321C461.671 343.521 459.771 347.021 459.271 350.821C458.771 354.621 459.571 358.621 461.771 361.521C463.971 364.521 467.571 366.421 471.371 367.021C475.171 367.621 479.271 366.921 482.271 364.721L485.571 369.121L459.771 387.821L446.771 396.921C442.471 400.021 437.971 402.921 434.271 406.421C432.371 408.121 430.771 410.021 429.571 412.121C428.971 413.221 428.471 414.321 428.071 415.421C427.971 416.021 427.771 416.621 427.671 417.121C427.671 417.721 427.471 418.321 427.571 418.921C427.471 423.821 429.971 428.721 433.871 431.821C435.871 433.421 438.171 434.521 440.671 434.921C443.171 435.321 445.771 435.121 448.271 434.421C453.271 433.021 457.771 430.021 462.171 427.021C457.971 430.321 453.671 433.521 448.571 435.421C445.971 436.321 443.271 436.721 440.471 436.421C437.671 436.121 434.971 435.021 432.771 433.321C428.271 430.021 425.171 424.721 424.971 418.821C424.871 418.121 425.071 417.421 425.071 416.621C425.171 415.921 425.371 415.221 425.471 414.421C425.871 413.021 426.371 411.721 426.971 410.421C428.271 407.921 430.071 405.621 431.971 403.721C433.971 401.721 436.071 400.021 438.171 398.321L444.471 393.421L457.071 383.721L482.371 364.321L485.671 368.721C481.371 372.021 475.771 373.121 470.671 372.421C465.471 371.721 460.471 369.221 457.071 364.821C453.771 360.421 452.571 354.821 453.271 349.621C453.971 344.421 456.471 339.221 460.871 335.821L464.771 341.021C460.371 344.321 454.671 345.421 449.471 344.621C444.271 343.821 439.171 341.221 435.771 336.821C432.371 332.421 431.271 326.721 431.971 321.521C432.671 316.321 435.171 311.121 439.571 307.721L443.771 313.121C442.071 314.421 439.971 315.221 437.971 315.321C435.871 315.421 434.071 315.021 432.371 314.521C429.071 313.321 426.371 311.521 423.971 309.521C422.771 308.521 421.671 307.421 420.571 306.221C419.471 305.021 418.471 303.721 417.571 302.421C415.771 299.721 414.471 296.721 413.671 293.521C412.871 290.321 412.671 287.021 413.171 283.721L413.371 282.521L413.671 281.321C413.871 280.521 414.071 279.821 414.371 279.021C414.571 278.221 414.871 277.521 415.171 276.821C415.471 276.121 415.771 275.421 416.071 274.621C418.671 268.921 422.371 264.021 426.471 259.721C430.571 255.421 435.171 251.621 440.071 248.321C444.971 245.021 450.071 242.221 455.271 239.621C457.871 238.321 460.471 237.121 463.171 235.921C464.471 235.321 465.771 234.721 467.271 234.221C468.671 233.721 470.071 233.321 471.471 232.821C474.171 231.921 476.771 231.121 479.271 230.121C480.471 229.621 481.671 229.021 482.671 228.421C483.271 228.121 483.671 227.721 484.171 227.421C484.571 227.021 484.971 226.721 485.271 226.321C485.471 226.121 485.571 225.921 485.671 225.821C485.771 225.621 485.871 225.521 485.971 225.221C486.171 224.721 486.371 224.221 486.471 223.721C486.671 222.721 486.671 221.521 486.571 220.321C486.371 217.921 485.471 215.321 484.471 212.921C482.371 207.921 479.471 203.121 476.471 198.321C474.971 195.921 473.471 193.521 471.971 190.921C471.571 190.221 471.271 189.621 470.971 188.921C470.671 188.221 470.371 187.621 470.071 186.921C469.471 185.621 468.971 184.221 468.371 182.821C466.371 177.321 464.871 171.621 464.071 165.821C463.271 160.021 463.071 154.221 463.571 148.421C464.071 142.621 465.071 136.821 467.271 131.421C467.871 130.021 468.471 128.721 469.271 127.521C469.971 126.221 470.871 125.021 471.771 123.921C473.671 121.621 475.971 119.721 478.571 118.421C481.171 117.121 484.071 116.321 486.971 116.221C488.471 116.221 489.871 116.321 491.271 116.721C492.471 117.421 493.771 118.021 494.971 118.721Z" fill="#FF4200"/>
</g>
</g>
<mask id="mask4_862_12488" style="mask-type:alpha" maskUnits="userSpaceOnUse" x="416" y="116" width="199" height="320">
<path d="M612.971 261.321C609.871 245.321 600.971 230.321 588.971 219.021C579.871 210.421 569.071 203.721 557.671 198.821C551.871 196.321 545.971 194.221 539.871 192.521C533.871 190.821 527.071 190.321 521.471 187.421C509.771 181.321 505.571 161.721 504.771 149.821C503.971 138.421 504.871 124.421 494.971 118.721C488.171 114.721 479.071 117.321 473.671 123.021C468.271 128.721 465.971 136.621 465.071 144.421C463.371 159.221 465.971 174.621 472.571 188.021C477.071 197.221 493.071 215.921 488.271 226.921C485.571 233.021 472.271 235.621 466.671 238.021C457.671 241.921 448.971 246.321 440.871 251.921C430.671 259.021 419.971 269.721 416.871 282.121C415.071 289.421 417.071 297.121 421.771 302.821C425.671 307.721 435.271 315.521 441.571 310.621C434.371 316.221 432.871 327.721 438.371 335.021C443.871 342.321 455.371 344.021 462.671 338.621C455.371 344.221 453.871 355.921 459.371 363.221C464.871 370.521 476.571 372.221 483.971 366.721C469.471 377.521 455.071 388.221 440.571 399.021C434.771 403.321 428.671 408.121 426.771 415.021C424.071 424.421 431.871 435.321 441.571 435.921C449.171 436.421 455.971 431.621 462.171 427.121C491.371 405.721 520.571 384.221 549.771 362.821C564.571 351.921 579.471 340.921 591.571 327.121C603.671 313.321 612.871 296.221 614.171 277.921C614.371 272.421 613.971 266.821 612.971 261.321Z" fill="white"/>
</mask>
<g mask="url(#mask4_862_12488)">
<g filter="url(#filter5_f_862_12488)">
<path d="M416.871 282.221C415.971 285.921 416.171 289.721 417.171 293.321C418.171 296.921 419.971 300.321 422.371 303.121C424.871 305.921 427.771 308.321 431.071 310.021C432.671 310.821 434.471 311.521 436.271 311.621C438.071 311.821 439.871 311.321 441.171 310.221L441.871 311.121C438.471 313.821 436.371 318.021 435.871 322.321C435.371 326.621 436.371 331.221 438.971 334.621C441.571 338.021 445.671 340.121 449.971 340.821C454.271 341.421 458.771 340.521 462.171 338.021L463.271 339.421C459.871 342.021 457.771 346.221 457.171 350.521C456.571 354.821 457.571 359.321 460.171 362.721C462.771 366.121 466.871 368.321 471.171 368.921C475.471 369.521 479.971 368.621 483.371 366.121L484.571 367.721L458.971 386.621L446.171 396.121C441.971 399.321 437.471 402.221 433.671 405.821C431.771 407.621 430.071 409.621 428.871 411.821C428.271 412.921 427.771 414.121 427.371 415.321C427.271 415.921 427.071 416.521 426.971 417.221C426.971 417.821 426.771 418.521 426.871 419.121C426.871 424.221 429.571 429.221 433.571 432.421C435.571 434.021 438.071 435.121 440.571 435.521C443.171 435.921 445.771 435.621 448.271 434.921C453.371 433.421 457.771 430.321 462.071 427.321C457.871 430.521 453.471 433.721 448.371 435.421C445.871 436.221 443.071 436.621 440.371 436.321C437.671 436.021 435.071 434.921 432.871 433.221C428.571 429.921 425.671 424.721 425.471 419.221C425.371 418.521 425.571 417.821 425.571 417.121C425.671 416.421 425.871 415.721 425.971 415.121C426.371 413.821 426.871 412.521 427.471 411.321C428.771 408.921 430.471 406.821 432.471 404.921C434.371 403.021 436.471 401.321 438.571 399.721L444.971 394.921L457.771 385.121L483.271 366.021L484.471 367.621C480.571 370.521 475.471 371.521 470.771 370.821C466.071 370.121 461.471 367.721 458.571 363.821C455.671 359.921 454.571 354.921 455.271 350.221C455.871 345.521 458.271 340.921 462.071 338.021L463.171 339.421C459.271 342.221 454.271 343.221 449.671 342.521C445.071 341.821 440.571 339.421 437.671 335.621C434.771 331.821 433.871 326.821 434.471 322.221C435.071 317.621 437.371 313.121 441.171 310.321L441.871 311.221C440.271 312.521 438.171 313.021 436.171 312.821C434.171 312.621 432.371 311.921 430.671 311.021C427.271 309.121 424.371 306.621 421.971 303.721C419.571 300.721 417.771 297.321 416.871 293.621C415.871 289.721 415.871 285.821 416.871 282.221Z" fill="#FFF761"/>
</g>
</g>
<mask id="mask5_862_12488" style="mask-type:alpha" maskUnits="userSpaceOnUse" x="416" y="116" width="199" height="320">
<path d="M612.971 261.321C609.871 245.321 600.971 230.321 588.971 219.021C579.871 210.421 569.071 203.721 557.671 198.821C551.871 196.321 545.971 194.221 539.871 192.521C533.871 190.821 527.071 190.321 521.471 187.421C509.771 181.321 505.571 161.721 504.771 149.821C503.971 138.421 504.871 124.421 494.971 118.721C488.171 114.721 479.071 117.321 473.671 123.021C468.271 128.721 465.971 136.621 465.071 144.421C463.371 159.221 465.971 174.621 472.571 188.021C477.071 197.221 493.071 215.921 488.271 226.921C485.571 233.021 472.271 235.621 466.671 238.021C457.671 241.921 448.971 246.321 440.871 251.921C430.671 259.021 419.971 269.721 416.871 282.121C415.071 289.421 417.071 297.121 421.771 302.821C425.671 307.721 435.271 315.521 441.571 310.621C434.371 316.221 432.871 327.721 438.371 335.021C443.871 342.321 455.371 344.021 462.671 338.621C455.371 344.221 453.871 355.921 459.371 363.221C464.871 370.521 476.571 372.221 483.971 366.721C469.471 377.521 455.071 388.221 440.571 399.021C434.771 403.321 428.671 408.121 426.771 415.021C424.071 424.421 431.871 435.321 441.571 435.921C449.171 436.421 455.971 431.621 462.171 427.121C491.371 405.721 520.571 384.221 549.771 362.821C564.571 351.921 579.471 340.921 591.571 327.121C603.671 313.321 612.871 296.221 614.171 277.921C614.371 272.421 613.971 266.821 612.971 261.321Z" fill="white"/>
</mask>
<g mask="url(#mask5_862_12488)">
<g filter="url(#filter6_f_862_12488)">
<path d="M588.971 219.021C576.171 208.421 561.171 201.021 545.571 196.321C543.571 195.721 541.671 195.221 539.671 194.621C537.771 194.121 535.771 193.721 533.771 193.321C529.771 192.521 525.471 191.821 521.271 189.921L520.471 189.521L519.671 189.121L518.171 188.221C517.671 187.921 517.271 187.521 516.771 187.121C516.371 186.721 515.871 186.421 515.471 186.021C514.671 185.221 513.771 184.421 513.171 183.521L512.171 182.121L511.271 180.721C508.871 177.021 507.171 172.921 505.771 168.821C504.471 164.721 503.671 160.521 503.071 156.321C502.771 154.221 502.571 152.121 502.371 149.921C502.271 147.821 502.171 145.721 502.071 143.621C501.871 139.521 501.771 135.421 500.971 131.621C500.571 129.721 499.971 127.921 499.171 126.221C498.771 125.321 498.271 124.621 497.871 123.821C497.271 123.121 496.771 122.421 496.071 121.821C493.471 119.321 489.771 118.221 485.971 118.521C482.171 118.821 478.471 120.421 475.471 122.921C472.471 125.421 470.171 128.921 468.571 132.621C466.871 136.321 465.871 140.321 465.071 144.421C465.271 140.321 465.871 136.121 467.271 132.121C468.571 128.121 470.771 124.221 473.871 121.121C477.071 118.021 481.171 115.921 485.671 115.321C487.871 115.021 490.271 115.121 492.571 115.721C493.671 116.021 494.771 116.421 495.871 117.021C496.371 117.321 496.871 117.621 497.371 117.921C497.471 118.121 497.771 118.221 497.971 118.421L498.671 119.021C499.571 119.721 500.371 120.621 501.071 121.521C501.771 122.521 502.471 123.421 502.971 124.421C504.071 126.421 504.771 128.621 505.271 130.721C506.271 135.021 506.571 139.321 506.871 143.421L507.271 149.621C507.471 151.621 507.671 153.621 507.971 155.621C508.571 159.621 509.471 163.521 510.671 167.321C511.871 171.121 513.371 174.821 515.471 178.021C517.571 181.221 520.171 184.021 523.471 185.521C526.871 187.221 530.771 188.021 534.871 188.921C536.871 189.421 538.971 189.821 541.071 190.521C543.071 191.121 545.071 191.821 547.071 192.521C554.971 195.321 562.671 198.921 569.871 203.221C576.671 207.721 583.271 212.921 588.971 219.021Z" fill="#FFFCBD"/>
</g>
</g>
<mask id="mask6_862_12488" style="mask-type:alpha" maskUnits="userSpaceOnUse" x="416" y="116" width="199" height="320">
<path d="M612.971 261.321C609.871 245.321 600.971 230.321 588.971 219.021C579.871 210.421 569.071 203.721 557.671 198.821C551.871 196.321 545.971 194.221 539.871 192.521C533.871 190.821 527.071 190.321 521.471 187.421C509.771 181.321 505.571 161.721 504.771 149.821C503.971 138.421 504.871 124.421 494.971 118.721C488.171 114.721 479.071 117.321 473.671 123.021C468.271 128.721 465.971 136.621 465.071 144.421C463.371 159.221 465.971 174.621 472.571 188.021C477.071 197.221 493.071 215.921 488.271 226.921C485.571 233.021 472.271 235.621 466.671 238.021C457.671 241.921 448.971 246.321 440.871 251.921C430.671 259.021 419.971 269.721 416.871 282.121C415.071 289.421 417.071 297.121 421.771 302.821C425.671 307.721 435.271 315.521 441.571 310.621C434.371 316.221 432.871 327.721 438.371 335.021C443.871 342.321 455.371 344.021 462.671 338.621C455.371 344.221 453.871 355.921 459.371 363.221C464.871 370.521 476.571 372.221 483.971 366.721C469.471 377.521 455.071 388.221 440.571 399.021C434.771 403.321 428.671 408.121 426.771 415.021C424.071 424.421 431.871 435.321 441.571 435.921C449.171 436.421 455.971 431.621 462.171 427.121C491.371 405.721 520.571 384.221 549.771 362.821C564.571 351.921 579.471 340.921 591.571 327.121C603.671 313.321 612.871 296.221 614.171 277.921C614.371 272.421 613.971 266.821 612.971 261.321Z" fill="white"/>
</mask>
<g mask="url(#mask6_862_12488)">
<mask id="mask7_862_12488" style="mask-type:alpha" maskUnits="userSpaceOnUse" x="416" y="116" width="199" height="320">
<path d="M612.971 261.321C609.871 245.321 600.971 230.321 588.971 219.021C579.871 210.421 569.071 203.721 557.671 198.821C551.871 196.321 545.971 194.221 539.871 192.521C533.871 190.821 527.071 190.321 521.471 187.421C509.771 181.321 505.571 161.721 504.771 149.821C503.971 138.421 504.871 124.421 494.971 118.721C488.171 114.721 479.071 117.321 473.671 123.021C468.271 128.721 465.971 136.621 465.071 144.421C463.371 159.221 465.971 174.621 472.571 188.021C477.071 197.221 493.071 215.921 488.271 226.921C485.571 233.021 472.271 235.621 466.671 238.021C457.671 241.921 448.971 246.321 440.871 251.921C430.671 259.021 419.971 269.721 416.871 282.121C415.071 289.421 417.071 297.121 421.771 302.821C425.671 307.721 435.271 315.521 441.571 310.621C434.371 316.221 432.871 327.721 438.371 335.021C443.871 342.321 455.371 344.021 462.671 338.621C455.371 344.221 453.871 355.921 459.371 363.221C464.871 370.521 476.571 372.221 483.971 366.721C469.471 377.521 455.071 388.221 440.571 399.021C434.771 403.321 428.671 408.121 426.771 415.021C424.071 424.421 431.871 435.321 441.571 435.921C449.171 436.421 455.971 431.621 462.171 427.121C491.371 405.721 520.571 384.221 549.771 362.821C564.571 351.921 579.471 340.921 591.571 327.121C603.671 313.321 612.871 296.221 614.171 277.921C614.371 272.421 613.971 266.821 612.971 261.321Z" fill="#ED5700"/>
</mask>
<g mask="url(#mask7_862_12488)">
<g filter="url(#filter7_f_862_12488)">
<path d="M488.271 226.921C488.071 227.521 487.971 228.121 487.571 228.721C487.371 229.021 487.271 229.321 487.071 229.521L486.471 230.321C486.071 230.821 485.571 231.221 485.171 231.721C484.671 232.121 484.171 232.521 483.671 233.021C481.671 234.621 479.371 235.821 477.171 237.021C474.971 238.121 472.671 239.121 470.571 240.121C470.071 240.321 469.571 240.621 469.071 240.821C468.571 241.121 468.171 241.321 467.671 241.621L464.571 243.321C456.271 247.921 448.271 252.621 440.971 258.121C439.171 259.521 437.371 260.921 435.671 262.421C433.971 263.921 432.371 265.421 430.771 267.021C427.671 270.221 424.871 273.721 422.671 277.421C421.571 279.321 420.671 281.321 419.871 283.321C419.171 285.221 418.671 287.321 418.671 289.521C418.371 293.921 419.471 298.521 421.671 302.921C417.871 299.821 414.971 295.221 413.771 290.021C413.171 287.421 413.071 284.621 413.471 281.821C413.571 281.121 413.671 280.521 413.871 279.821C413.971 279.121 414.171 278.521 414.371 277.921C414.571 277.321 414.671 276.621 414.971 276.021L415.671 274.121C417.571 269.221 420.471 264.721 423.771 260.721C427.071 256.721 430.871 253.321 434.871 250.221C442.971 244.021 452.071 239.621 461.271 236.221C462.371 235.821 463.571 235.421 464.771 235.021C465.271 234.821 466.071 234.621 466.671 234.421C467.271 234.221 467.971 234.121 468.571 233.921C470.971 233.321 473.371 232.921 475.671 232.421C477.971 231.921 480.271 231.421 482.471 230.621C482.971 230.421 483.571 230.221 484.071 230.021C484.571 229.721 485.171 229.521 485.571 229.221C486.571 228.621 487.471 227.921 488.271 226.921Z" fill="#FFFB69"/>
</g>
</g>
<path d="M612.971 261.321C609.871 245.321 600.971 230.321 588.971 219.021C579.871 210.421 569.071 203.721 557.671 198.821C551.871 196.321 545.971 194.221 539.871 192.521C533.871 190.821 527.071 190.321 521.471 187.421C509.771 181.321 505.571 161.721 504.771 149.821C503.971 138.421 504.871 124.421 494.971 118.721C488.171 114.721 479.071 117.321 473.671 123.021C468.271 128.721 465.971 136.621 465.071 144.421C463.371 159.221 465.971 174.621 472.571 188.021C477.071 197.221 493.071 215.921 488.271 226.921C485.571 233.021 472.271 235.621 466.671 238.021C457.671 241.921 448.971 246.321 440.871 251.921C430.671 259.021 419.971 269.721 416.871 282.121C415.071 289.421 417.071 297.121 421.771 302.821C425.671 307.721 435.271 315.521 441.571 310.621C434.371 316.221 432.871 327.721 438.371 335.021C443.871 342.321 455.371 344.021 462.671 338.621C455.371 344.221 453.871 355.921 459.371 363.221C464.871 370.521 476.571 372.221 483.971 366.721C469.471 377.521 455.071 388.221 440.571 399.021C434.771 403.321 428.671 408.121 426.771 415.021C424.071 424.421 431.871 435.321 441.571 435.921C449.171 436.421 455.971 431.621 462.171 427.121C491.371 405.721 520.571 384.221 549.771 362.821C564.571 351.921 579.471 340.921 591.571 327.121C603.671 313.321 612.871 296.221 614.171 277.921C614.371 272.421 613.971 266.821 612.971 261.321Z" fill="url(#paint12_linear_862_12488)"/>
</g>
<mask id="mask8_862_12488" style="mask-type:alpha" maskUnits="userSpaceOnUse" x="416" y="116" width="199" height="320">
<path d="M612.971 261.321C609.871 245.321 600.971 230.321 588.971 219.021C579.871 210.421 569.071 203.721 557.671 198.821C551.871 196.321 545.971 194.221 539.871 192.521C533.871 190.821 527.071 190.321 521.471 187.421C509.771 181.321 505.571 161.721 504.771 149.821C503.971 138.421 504.871 124.421 494.971 118.721C488.171 114.721 479.071 117.321 473.671 123.021C468.271 128.721 465.971 136.621 465.071 144.421C463.371 159.221 465.971 174.621 472.571 188.021C477.071 197.221 493.071 215.921 488.271 226.921C485.571 233.021 472.271 235.621 466.671 238.021C457.671 241.921 448.971 246.321 440.871 251.921C430.671 259.021 419.971 269.721 416.871 282.121C415.071 289.421 417.071 297.121 421.771 302.821C425.671 307.721 435.271 315.521 441.571 310.621C434.371 316.221 432.871 327.721 438.371 335.021C443.871 342.321 455.371 344.021 462.671 338.621C455.371 344.221 453.871 355.921 459.371 363.221C464.871 370.521 476.571 372.221 483.971 366.721C469.471 377.521 455.071 388.221 440.571 399.021C434.771 403.321 428.671 408.121 426.771 415.021C424.071 424.421 431.871 435.321 441.571 435.921C449.171 436.421 455.971 431.621 462.171 427.121C491.371 405.721 520.571 384.221 549.771 362.821C564.571 351.921 579.471 340.921 591.571 327.121C603.671 313.321 612.871 296.221 614.171 277.921C614.371 272.421 613.971 266.821 612.971 261.321Z" fill="white"/>
</mask>
<g mask="url(#mask8_862_12488)">
<g filter="url(#filter8_f_862_12488)">
<path d="M426.671 415.121C426.071 418.021 426.371 421.121 427.471 423.821C428.571 426.521 430.271 428.921 432.371 430.821C434.471 432.721 437.071 433.921 439.771 434.421C442.471 434.821 445.271 434.421 447.871 433.521C453.171 431.621 457.671 427.921 462.471 424.221C467.171 420.521 471.971 416.921 476.671 413.221C486.171 405.921 495.771 398.721 505.271 391.521L534.071 370.121C543.771 363.021 553.471 356.121 562.971 348.921C567.671 345.321 572.371 341.621 576.771 337.821C578.971 335.921 581.171 333.921 583.271 331.821C585.371 329.821 587.471 327.721 589.471 325.521C593.371 321.221 597.071 316.621 600.271 311.721C603.471 306.821 606.271 301.721 608.471 296.221C612.971 285.421 614.571 273.321 612.971 261.421C616.071 273.021 615.471 285.721 611.671 297.321C609.771 303.121 607.171 308.721 604.171 314.021C601.171 319.321 597.471 324.321 593.571 329.021C585.771 338.421 576.471 346.521 567.071 354.021C562.371 357.821 557.471 361.321 552.671 364.921L538.271 375.621L509.171 396.721C499.371 403.621 489.671 410.721 479.871 417.521C474.971 420.921 470.071 424.421 465.171 427.821C462.671 429.521 460.171 431.221 457.571 432.821C454.871 434.421 452.071 435.821 448.971 436.721C445.871 437.521 442.571 437.821 439.271 437.021C436.071 436.221 433.271 434.421 431.071 432.121C428.971 429.821 427.371 427.021 426.471 424.021C425.671 421.121 425.671 417.921 426.671 415.121Z" fill="#FF4324"/>
</g>
</g>
<defs>
<filter id="filter0_f_862_12488" x="14.2661" y="210.459" width="533.331" height="340.069" filterUnits="userSpaceOnUse" color-interpolation-filters="sRGB">
<feFlood flood-opacity="0" result="BackgroundImageFix"/>
<feBlend mode="normal" in="SourceGraphic" in2="BackgroundImageFix" result="shape"/>
<feGaussianBlur stdDeviation="12.5" result="effect1_foregroundBlur_862_12488"/>
</filter>
<filter id="filter1_f_862_12488" x="-0.733887" y="195.459" width="563.331" height="370.069" filterUnits="userSpaceOnUse" color-interpolation-filters="sRGB">
<feFlood flood-opacity="0" result="BackgroundImageFix"/>
<feBlend mode="normal" in="SourceGraphic" in2="BackgroundImageFix" result="shape"/>
<feGaussianBlur stdDeviation="20" result="effect1_foregroundBlur_862_12488"/>
</filter>
<filter id="filter2_f_862_12488" x="376.4" y="77.2168" width="278.005" height="399.166" filterUnits="userSpaceOnUse" color-interpolation-filters="sRGB">
<feFlood flood-opacity="0" result="BackgroundImageFix"/>
<feBlend mode="normal" in="SourceGraphic" in2="BackgroundImageFix" result="shape"/>
<feGaussianBlur stdDeviation="20" result="effect1_foregroundBlur_862_12488"/>
</filter>
<filter id="filter3_f_862_12488" x="402.716" y="103.286" width="105.016" height="346.17" filterUnits="userSpaceOnUse" color-interpolation-filters="sRGB">
<feFlood flood-opacity="0" result="BackgroundImageFix"/>
<feBlend mode="normal" in="SourceGraphic" in2="BackgroundImageFix" result="shape"/>
<feGaussianBlur stdDeviation="6" result="effect1_foregroundBlur_862_12488"/>
</filter>
<filter id="filter4_f_862_12488" x="392.898" y="96.2207" width="122.073" height="360.299" filterUnits="userSpaceOnUse" color-interpolation-filters="sRGB">
<feFlood flood-opacity="0" result="BackgroundImageFix"/>
<feBlend mode="normal" in="SourceGraphic" in2="BackgroundImageFix" result="shape"/>
<feGaussianBlur stdDeviation="10" result="effect1_foregroundBlur_862_12488"/>
</filter>
<filter id="filter5_f_862_12488" x="406.121" y="272.221" width="88.4502" height="174.199" filterUnits="userSpaceOnUse" color-interpolation-filters="sRGB">
<feFlood flood-opacity="0" result="BackgroundImageFix"/>
<feBlend mode="normal" in="SourceGraphic" in2="BackgroundImageFix" result="shape"/>
<feGaussianBlur stdDeviation="5" result="effect1_foregroundBlur_862_12488"/>
</filter>
<filter id="filter6_f_862_12488" x="459.071" y="109.157" width="135.9" height="115.864" filterUnits="userSpaceOnUse" color-interpolation-filters="sRGB">
<feFlood flood-opacity="0" result="BackgroundImageFix"/>
<feBlend mode="normal" in="SourceGraphic" in2="BackgroundImageFix" result="shape"/>
<feGaussianBlur stdDeviation="3" result="effect1_foregroundBlur_862_12488"/>
</filter>
<filter id="filter7_f_862_12488" x="401.231" y="214.921" width="99.04" height="100" filterUnits="userSpaceOnUse" color-interpolation-filters="sRGB">
<feFlood flood-opacity="0" result="BackgroundImageFix"/>
<feBlend mode="normal" in="SourceGraphic" in2="BackgroundImageFix" result="shape"/>
<feGaussianBlur stdDeviation="6" result="effect1_foregroundBlur_862_12488"/>
</filter>
<filter id="filter8_f_862_12488" x="405.894" y="241.421" width="229.063" height="216.07" filterUnits="userSpaceOnUse" color-interpolation-filters="sRGB">
<feFlood flood-opacity="0" result="BackgroundImageFix"/>
<feBlend mode="normal" in="SourceGraphic" in2="BackgroundImageFix" result="shape"/>
<feGaussianBlur stdDeviation="10" result="effect1_foregroundBlur_862_12488"/>
</filter>
<radialGradient id="paint0_radial_862_12488" cx="0" cy="0" r="1" gradientUnits="userSpaceOnUse" gradientTransform="translate(237.339 41.9115) rotate(80) scale(482)">
<stop stop-color="#FFDE43"/>
<stop offset="1" stop-color="#FFBC00"/>
</radialGradient>
<radialGradient id="paint1_radial_862_12488" cx="0" cy="0" r="1" gradientUnits="userSpaceOnUse" gradientTransform="translate(248.539 105.432) rotate(80) scale(417.5)">
<stop stop-color="white" stop-opacity="0.5"/>
<stop offset="0.782278"/>
</radialGradient>
<radialGradient id="paint2_radial_862_12488" cx="0" cy="0" r="1" gradientUnits="userSpaceOnUse" gradientTransform="translate(248.539 105.432) rotate(80) scale(417.5)">
<stop stop-color="white" stop-opacity="0.5"/>
<stop offset="0.782278"/>
</radialGradient>
<radialGradient id="paint3_radial_862_12488" cx="0" cy="0" r="1" gradientUnits="userSpaceOnUse" gradientTransform="translate(228.222 -9.79087) rotate(80) scale(534.5 722.835)">
<stop offset="0.0922635" stop-color="white"/>
<stop offset="0.670207" stop-color="white" stop-opacity="0"/>
</radialGradient>
<radialGradient id="paint4_radial_862_12488" cx="0" cy="0" r="1" gradientUnits="userSpaceOnUse" gradientTransform="translate(296.229 379.133) rotate(-10) scale(56.1246 58.6209)">
<stop stop-color="#743C1C"/>
<stop offset="1" stop-color="#401C02"/>
</radialGradient>
<linearGradient id="paint5_linear_862_12488" x1="301.572" y1="409.434" x2="290.886" y2="348.831" gradientUnits="userSpaceOnUse">
<stop offset="0.265625" stop-color="#FFDE43"/>
<stop offset="1" stop-color="#F79D14"/>
</linearGradient>
<linearGradient id="paint6_linear_862_12488" x1="202.747" y1="293.33" x2="186.314" y2="200.134" gradientUnits="userSpaceOnUse">
<stop stop-color="#FFDE43"/>
<stop offset="0.22" stop-color="#FED93F"/>
<stop offset="0.51" stop-color="#FCC934"/>
<stop offset="0.82" stop-color="#F9AF21"/>
<stop offset="1" stop-color="#F79D14"/>
</linearGradient>
<linearGradient id="paint7_linear_862_12488" x1="354.773" y1="266.524" x2="338.34" y2="173.329" gradientUnits="userSpaceOnUse">
<stop stop-color="#FFDE43"/>
<stop offset="0.22" stop-color="#FED93F"/>
<stop offset="0.51" stop-color="#FCC934"/>
<stop offset="0.82" stop-color="#F9AF21"/>
<stop offset="1" stop-color="#F79D14"/>
</linearGradient>
<radialGradient id="paint8_radial_862_12488" cx="0" cy="0" r="1" gradientUnits="userSpaceOnUse" gradientTransform="translate(194.583 246.033) rotate(-10) scale(53.8916 44.7024)">
<stop stop-color="#743C1C"/>
<stop offset="1" stop-color="#401C02"/>
</radialGradient>
<radialGradient id="paint9_radial_862_12488" cx="0" cy="0" r="1" gradientUnits="userSpaceOnUse" gradientTransform="translate(346.609 219.226) rotate(-10) scale(53.8916 44.7024)">
<stop stop-color="#743C1C"/>
<stop offset="1" stop-color="#401C02"/>
</radialGradient>
<radialGradient id="paint10_radial_862_12488" cx="0" cy="0" r="1" gradientUnits="userSpaceOnUse" gradientTransform="translate(237.339 41.9115) rotate(80) scale(482)">
<stop stop-color="#FFDE43"/>
<stop offset="1" stop-color="#FFBC00"/>
</radialGradient>
<linearGradient id="paint11_linear_862_12488" x1="379.057" y1="378.855" x2="567.449" y2="190.464" gradientUnits="userSpaceOnUse">
<stop offset="0.0825904" stop-color="#E88B00"/>
<stop offset="0.1269" stop-color="#EA9206"/>
<stop offset="0.3512" stop-color="#F3B320"/>
<stop offset="0.5663" stop-color="#FACB34"/>
<stop offset="0.7664" stop-color="#FED93F"/>
<stop offset="0.9366" stop-color="#FFDE43"/>
</linearGradient>
<linearGradient id="paint12_linear_862_12488" x1="638.893" y1="276.417" x2="366.203" y2="276.417" gradientUnits="userSpaceOnUse">
<stop stop-color="#ED5700"/>
<stop offset="0.0354845" stop-color="#EE5F03" stop-opacity="0.9573"/>
<stop offset="0.2673" stop-color="#F58F15" stop-opacity="0.6785"/>
<stop offset="0.4717" stop-color="#FBB223" stop-opacity="0.4326"/>
<stop offset="0.6389" stop-color="#FEC72B" stop-opacity="0.2314"/>
<stop offset="0.7481" stop-color="#FFCF2E" stop-opacity="0.1"/>
</linearGradient>
</defs>
</svg>
