<svg width="483" height="483" viewBox="0 0 483 483" fill="none" xmlns="http://www.w3.org/2000/svg">
<path d="M241.18 482.36C374.38 482.36 482.36 374.38 482.36 241.18C482.36 107.98 374.38 0 241.18 0C107.98 0 0 107.98 0 241.18C0 374.38 107.98 482.36 241.18 482.36Z" fill="url(#paint0_radial_862_12572)"/>
<g style="mix-blend-mode:soft-light">
<path d="M241.18 482.36C374.38 482.36 482.36 374.38 482.36 241.18C482.36 107.98 374.38 0 241.18 0C107.98 0 0 107.98 0 241.18C0 374.38 107.98 482.36 241.18 482.36Z" fill="url(#paint1_radial_862_12572)"/>
</g>
<g style="mix-blend-mode:soft-light">
<path d="M241.18 482.36C374.38 482.36 482.36 374.38 482.36 241.18C482.36 107.98 374.38 0 241.18 0C107.98 0 0 107.98 0 241.18C0 374.38 107.98 482.36 241.18 482.36Z" fill="url(#paint2_radial_862_12572)"/>
</g>
<g style="mix-blend-mode:overlay">
<path d="M241.18 482.36C374.38 482.36 482.36 374.38 482.36 241.18C482.36 107.98 374.38 0 241.18 0C107.98 0 0 107.98 0 241.18C0 374.38 107.98 482.36 241.18 482.36Z" fill="url(#paint3_radial_862_12572)" fill-opacity="0.7"/>
</g>
<mask id="mask0_862_12572" style="mask-type:alpha" maskUnits="userSpaceOnUse" x="0" y="0" width="483" height="483">
<path d="M241.18 482.36C374.38 482.36 482.36 374.38 482.36 241.18C482.36 107.98 374.38 0 241.18 0C107.98 0 0 107.98 0 241.18C0 374.38 107.98 482.36 241.18 482.36Z" fill="white"/>
</mask>
<g mask="url(#mask0_862_12572)">
<g filter="url(#filter0_f_862_12572)">
<path d="M-1.37541 234.299C-1.11353 230.872 0.0141891 230.529 0.343108 234.008C0.708543 237.874 -0.00182796 245.646 0.169198 250.335C0.622042 262.748 2.5249 273.541 4.48654 282.32C10.808 310.612 19.5622 328.843 27.7273 344.288C54.5668 395.06 83.9672 420.77 112.648 440.147C154.69 468.549 197.073 477.584 239.491 479.5C240.561 479.548 240.739 486.518 239.686 487.425C237.788 489.061 235.437 487.437 233.495 487.369C227.915 487.174 222.336 486.791 216.756 486.211C200.213 484.492 183.671 480.991 167.162 475.358C122.275 460.044 73.877 433.821 31.6097 359.962C28.9507 355.316 26.3128 350.424 23.7123 345.167C21.6325 340.963 19.573 336.556 17.5498 331.843C10.895 316.342 -4.61274 276.658 -1.37541 234.299ZM239.52 487.5C238.5 487.531 238.241 481.034 239.214 479.685C240.685 477.647 242.889 479.326 244.439 479.229C250.878 478.826 257.315 478.229 263.75 477.421C281.396 475.205 299.028 471.422 316.621 465.596C360.257 451.145 407.17 429.115 448.305 361.431C450.923 357.123 453.519 352.553 456.079 347.641C463.86 332.712 483.362 293.084 481.107 243.821C480.917 239.668 482.182 237.181 482.748 240.743C483.468 245.279 483.176 254.736 482.977 259.768C482.342 275.883 479.867 289.512 477.257 300.518C468.987 335.399 457.377 355.623 446.744 372.51C412.184 427.397 374.649 449.524 338.156 465.424C305.425 479.686 272.445 486.484 239.52 487.5Z" fill="#401C02"/>
</g>
<g filter="url(#filter1_f_862_12572)">
<path d="M-1.37541 234.299C-1.11353 230.872 0.0141891 230.529 0.343108 234.008C0.708543 237.874 -0.00182796 245.646 0.169198 250.335C0.622042 262.748 2.5249 273.541 4.48654 282.32C10.808 310.612 19.5622 328.843 27.7273 344.288C54.5668 395.06 83.9672 420.77 112.648 440.147C154.69 468.549 197.073 477.584 239.491 479.5C240.561 479.548 240.739 486.518 239.686 487.425C237.788 489.061 235.437 487.437 233.495 487.369C227.915 487.174 222.336 486.791 216.756 486.211C200.213 484.492 183.671 480.991 167.162 475.358C122.275 460.044 73.877 433.821 31.6097 359.962C28.9507 355.316 26.3128 350.424 23.7123 345.167C21.6325 340.963 19.573 336.556 17.5498 331.843C10.895 316.342 -4.61274 276.658 -1.37541 234.299ZM239.52 487.5C238.5 487.531 238.241 481.034 239.214 479.685C240.685 477.647 242.889 479.326 244.439 479.229C250.878 478.826 257.315 478.229 263.75 477.421C281.396 475.205 299.028 471.422 316.621 465.596C360.257 451.145 407.17 429.115 448.305 361.431C450.923 357.123 453.519 352.553 456.079 347.641C463.86 332.712 483.362 293.084 481.107 243.821C480.917 239.668 482.182 237.181 482.748 240.743C483.468 245.279 483.176 254.736 482.977 259.768C482.342 275.883 479.867 289.512 477.257 300.518C468.987 335.399 457.377 355.623 446.744 372.51C412.184 427.397 374.649 449.524 338.156 465.424C305.425 479.686 272.445 486.484 239.52 487.5Z" fill="#401C02"/>
</g>
</g>
<path d="M207.72 144.26C207.43 143.73 207.14 143.2 206.84 142.68C198.84 156.17 177.08 165.81 177.04 128.86C177.217 123.649 176.905 118.433 176.11 113.28C170.73 79.7799 144.19 72.3299 129.02 70.8499C125.466 70.4709 121.886 70.404 118.32 70.6499C119.805 72.1925 121.169 73.8474 122.4 75.5999C126.82 81.7599 132.78 93.0199 129.49 105.78C128 111.57 124.61 117.67 118.3 123.78C104.75 136.79 100.4 150.82 99.4 161.63C94.3228 148.494 93.0035 134.203 95.59 120.36C86.833 127.05 79.6515 135.581 74.5525 145.351C69.4534 155.12 66.5612 165.89 66.08 176.9C66.02 178.02 66 179.14 66 180.27C66.0046 191.753 68.6313 203.083 73.6796 213.397C78.728 223.711 86.0648 232.736 95.1306 239.783C104.196 246.831 114.752 251.716 125.992 254.065C137.232 256.414 148.86 256.165 159.99 253.338C171.119 250.51 181.456 245.179 190.212 237.75C198.969 230.321 205.913 220.991 210.516 210.471C215.119 199.951 217.259 188.518 216.772 177.046C216.286 165.573 213.187 154.363 207.71 144.27L207.72 144.26Z" fill="url(#paint4_linear_862_12572)"/>
<path d="M207.72 144.26C207.43 143.73 207.14 143.2 206.84 142.68C198.84 156.17 177.08 165.81 177.04 128.86C177.217 123.649 176.905 118.433 176.11 113.28C170.73 79.7799 144.19 72.3299 129.02 70.8499C125.466 70.4709 121.886 70.404 118.32 70.6499C119.805 72.1925 121.169 73.8474 122.4 75.5999C126.82 81.7599 132.78 93.0199 129.49 105.78C128 111.57 124.61 117.67 118.3 123.78C104.75 136.79 100.4 150.82 99.4 161.63C94.3228 148.494 93.0035 134.203 95.59 120.36C86.833 127.05 79.6515 135.581 74.5525 145.351C69.4534 155.12 66.5612 165.89 66.08 176.9C66.02 178.02 66 179.14 66 180.27C66.0046 191.753 68.6313 203.083 73.6796 213.397C78.728 223.711 86.0648 232.736 95.1306 239.783C104.196 246.831 114.752 251.716 125.992 254.065C137.232 256.414 148.86 256.165 159.99 253.338C171.119 250.51 181.456 245.179 190.212 237.75C198.969 230.321 205.913 220.991 210.516 210.471C215.119 199.951 217.259 188.518 216.772 177.046C216.286 165.573 213.187 154.363 207.71 144.27L207.72 144.26Z" fill="url(#paint5_linear_862_12572)"/>
<path d="M98.4901 183.51L99.0601 182.51C104.24 191.24 118.34 197.51 118.36 173.51C118.249 170.135 118.45 166.758 118.96 163.42C122.45 141.72 139.64 136.89 149.46 135.93C151.762 135.685 154.081 135.642 156.39 135.8C155.436 136.801 154.557 137.87 153.76 139C150.9 143 147.03 150.29 149.17 158.55C150.431 163.044 152.938 167.09 156.4 170.22C165.19 178.68 168.02 187.76 168.64 194.76C170.836 189.124 171.958 183.128 171.95 177.08C171.951 174.044 171.669 171.014 171.11 168.03C176.782 172.363 181.434 177.889 184.738 184.216C188.042 190.543 189.916 197.519 190.23 204.65C190.23 205.38 190.28 206.1 190.28 206.84C190.274 214.276 188.57 221.613 185.299 228.292C182.027 234.97 177.274 240.813 171.402 245.376C165.53 249.938 158.693 253.1 151.414 254.62C144.134 256.14 136.604 255.978 129.397 254.146C122.189 252.314 115.495 248.861 109.825 244.049C104.155 239.238 99.6575 233.196 96.6766 226.383C93.6956 219.57 92.3094 212.167 92.6237 204.737C92.938 197.307 94.9444 190.047 98.4901 183.51Z" fill="url(#paint6_linear_862_12572)"/>
<path d="M208.943 144.453L208.957 144.438L208.597 143.78L208.593 143.773C208.306 143.247 208.011 142.709 207.706 142.18L206.852 140.699L205.98 142.17C204.049 145.426 201.285 148.451 198.24 150.589C195.181 152.737 191.941 153.924 189.036 153.688C186.203 153.458 183.507 151.863 181.471 148.035C179.411 144.162 178.052 138.029 178.04 128.876C178.218 123.609 177.902 118.336 177.098 113.127L177.097 113.121C174.363 96.0952 166.226 85.6171 156.797 79.2295C147.404 72.8665 136.795 70.6042 129.122 69.8551C125.511 69.4703 121.874 69.4024 118.251 69.6523L116.113 69.7997L117.6 71.3435C119.049 72.849 120.381 74.4642 121.582 76.1746L121.582 76.1746L121.588 76.1829C125.951 82.2638 131.699 93.2059 128.522 105.53L128.522 105.531C127.083 111.119 123.8 117.061 117.606 123.06C105.541 134.645 100.649 147.05 98.943 157.354C95.101 145.495 94.2755 132.841 96.573 120.544L97.051 117.985L94.9829 119.565C86.1096 126.344 78.8327 134.989 73.6659 144.888C68.4999 154.786 65.5694 165.697 65.0812 176.851C65.0201 177.993 65 179.13 65 180.27L65 180.27C65.0047 191.906 67.6661 203.386 72.7815 213.837C77.8968 224.287 85.3308 233.432 94.5168 240.573C103.703 247.714 114.398 252.663 125.787 255.044C137.177 257.424 148.959 257.172 160.236 254.307C171.513 251.442 181.987 246.04 190.859 238.513C199.732 230.985 206.768 221.531 211.432 210.872C216.096 200.212 218.264 188.628 217.771 177.003C217.289 165.628 214.272 154.507 208.943 144.453Z" stroke="url(#paint7_linear_862_12572)" stroke-width="2" stroke-miterlimit="10"/>
<path d="M407.56 144.26C407.27 143.73 406.98 143.2 406.68 142.68C398.68 156.17 376.92 165.81 376.88 128.86C377.057 123.649 376.745 118.433 375.95 113.28C370.57 79.7799 344.03 72.3299 328.86 70.8499C325.306 70.4709 321.726 70.404 318.16 70.6499C319.645 72.1925 321.009 73.8474 322.24 75.5999C326.66 81.7599 332.62 93.0199 329.33 105.78C327.84 111.57 324.45 117.67 318.14 123.78C304.59 136.79 300.24 150.82 299.24 161.63C294.163 148.494 292.843 134.203 295.43 120.36C286.673 127.05 279.491 135.581 274.392 145.351C269.293 155.12 266.401 165.89 265.92 176.9C265.86 178.02 265.84 179.14 265.84 180.27C265.844 191.753 268.471 203.083 273.519 213.397C278.568 223.711 285.905 232.736 294.97 239.783C304.036 246.831 314.592 251.716 325.832 254.065C337.072 256.414 348.7 256.165 359.83 253.338C370.959 250.51 381.296 245.179 390.052 237.75C398.809 230.321 405.753 220.991 410.356 210.471C414.959 199.951 417.098 188.518 416.612 177.046C416.126 165.573 413.026 154.363 407.55 144.27L407.56 144.26Z" fill="url(#paint8_linear_862_12572)"/>
<path d="M407.56 144.26C407.27 143.73 406.98 143.2 406.68 142.68C398.68 156.17 376.92 165.81 376.88 128.86C377.057 123.649 376.745 118.433 375.95 113.28C370.57 79.7799 344.03 72.3299 328.86 70.8499C325.306 70.4709 321.726 70.404 318.16 70.6499C319.645 72.1925 321.009 73.8474 322.24 75.5999C326.66 81.7599 332.62 93.0199 329.33 105.78C327.84 111.57 324.45 117.67 318.14 123.78C304.59 136.79 300.24 150.82 299.24 161.63C294.163 148.494 292.843 134.203 295.43 120.36C286.673 127.05 279.491 135.581 274.392 145.351C269.293 155.12 266.401 165.89 265.92 176.9C265.86 178.02 265.84 179.14 265.84 180.27C265.844 191.753 268.471 203.083 273.519 213.397C278.568 223.711 285.905 232.736 294.97 239.783C304.036 246.831 314.592 251.716 325.832 254.065C337.072 256.414 348.7 256.165 359.83 253.338C370.959 250.51 381.296 245.179 390.052 237.75C398.809 230.321 405.753 220.991 410.356 210.471C414.959 199.951 417.098 188.518 416.612 177.046C416.126 165.573 413.026 154.363 407.55 144.27L407.56 144.26Z" fill="url(#paint9_linear_862_12572)"/>
<path d="M298.33 183.51L298.9 182.51C304.08 191.24 318.18 197.51 318.2 173.51C318.089 170.135 318.29 166.758 318.8 163.42C322.29 141.72 339.48 136.89 349.3 135.93C351.602 135.685 353.921 135.642 356.23 135.8C355.276 136.801 354.397 137.87 353.6 139C350.74 143 346.87 150.29 349.01 158.55C350.271 163.044 352.778 167.09 356.24 170.22C365.03 178.68 367.86 187.76 368.48 194.76C370.676 189.124 371.798 183.128 371.79 177.08C371.791 174.044 371.509 171.014 370.95 168.03C376.622 172.363 381.274 177.889 384.578 184.216C387.882 190.543 389.756 197.519 390.07 204.65C390.07 205.38 390.12 206.1 390.12 206.84C390.114 214.276 388.41 221.613 385.139 228.292C381.867 234.97 377.114 240.813 371.242 245.376C365.37 249.938 358.533 253.1 351.254 254.62C343.974 256.14 336.444 255.978 329.236 254.146C322.029 252.314 315.335 248.861 309.665 244.049C303.994 239.238 299.497 233.196 296.516 226.383C293.535 219.57 292.149 212.167 292.464 204.737C292.778 197.307 294.784 190.047 298.33 183.51Z" fill="url(#paint10_linear_862_12572)"/>
<path d="M408.783 144.453L408.797 144.438L408.437 143.78L408.433 143.773C408.145 143.247 407.851 142.709 407.546 142.18L406.692 140.699L405.82 142.17C403.889 145.426 401.124 148.451 398.079 150.589C395.021 152.737 391.781 153.924 388.876 153.688C386.043 153.458 383.346 151.863 381.311 148.035C379.251 144.162 377.891 138.029 377.88 128.876C378.057 123.609 377.742 118.336 376.938 113.127L376.937 113.121C374.203 96.0952 366.066 85.6171 356.637 79.2295C347.244 72.8665 336.635 70.6042 328.961 69.8551C325.351 69.4703 321.713 69.4024 318.091 69.6523L315.953 69.7997L317.439 71.3435C318.889 72.849 320.22 74.4642 321.421 76.1746L321.421 76.1746L321.427 76.1829C325.791 82.2638 331.539 93.2059 328.362 105.53L328.361 105.531C326.923 111.119 323.64 117.061 317.446 123.06C305.38 134.645 300.488 147.05 298.783 157.354C294.941 145.495 294.115 132.841 296.413 120.544L296.891 117.985L294.823 119.565C285.949 126.344 278.673 134.989 273.506 144.888C268.34 154.786 265.409 165.697 264.921 176.851C264.86 177.993 264.84 179.13 264.84 180.27L264.84 180.27C264.845 191.906 267.506 203.386 272.621 213.837C277.737 224.287 285.171 233.432 294.357 240.573C303.543 247.714 314.238 252.663 325.627 255.044C337.017 257.424 348.799 257.172 360.076 254.307C371.353 251.442 381.827 246.04 390.699 238.513C399.572 230.985 406.608 221.531 411.272 210.872C415.936 200.212 418.104 188.628 417.611 177.003C417.129 165.628 414.111 154.507 408.783 144.453Z" stroke="url(#paint11_linear_862_12572)" stroke-width="2" stroke-miterlimit="10"/>
<path d="M241.409 303.84C180.469 303.84 123.639 294.47 75.7492 278.3C74.4754 277.868 73.1077 277.793 71.7942 278.082C70.4806 278.371 69.2709 279.013 68.296 279.94C67.321 280.866 66.6178 282.042 66.2624 283.339C65.9069 284.636 65.9127 286.006 66.2792 287.3C85.8792 358.82 156.849 411.8 241.409 411.8C325.969 411.8 396.939 358.8 416.539 287.3C416.906 286.006 416.911 284.636 416.556 283.339C416.201 282.042 415.497 280.866 414.522 279.94C413.547 279.013 412.338 278.371 411.024 278.082C409.711 277.793 408.343 277.868 407.069 278.3C359.179 294.47 302.349 303.84 241.409 303.84Z" fill="url(#paint12_radial_862_12572)"/>
<path d="M241.409 302.84C180.568 302.84 123.847 293.485 76.0697 277.353C74.6234 276.862 73.0707 276.777 71.5793 277.105C70.0877 277.433 68.7142 278.163 67.6071 279.215C66.5 280.267 65.7016 281.602 65.2979 283.075C64.8947 284.546 64.9009 286.1 65.3158 287.568C85.0481 359.563 156.446 412.8 241.409 412.8C326.372 412.8 397.769 359.544 417.502 287.57C417.917 286.101 417.924 284.547 417.52 283.075C417.117 281.602 416.318 280.267 415.211 279.215C414.104 278.163 412.731 277.433 411.239 277.105C409.748 276.777 408.195 276.862 406.749 277.352C358.971 293.485 302.25 302.84 241.409 302.84Z" stroke="url(#paint13_linear_862_12572)" stroke-width="2" stroke-miterlimit="10"/>
<mask id="mask1_862_12572" style="mask-type:alpha" maskUnits="userSpaceOnUse" x="66" y="277" width="351" height="135">
<path d="M241.409 303.84C180.469 303.84 123.639 294.47 75.7492 278.3C74.4754 277.868 73.1077 277.793 71.7942 278.082C70.4806 278.371 69.2709 279.013 68.296 279.94C67.321 280.866 66.6178 282.042 66.2624 283.339C65.9069 284.636 65.9127 286.006 66.2792 287.3C85.8792 358.82 156.849 411.8 241.409 411.8C325.969 411.8 396.939 358.8 416.539 287.3C416.906 286.006 416.911 284.636 416.556 283.339C416.201 282.042 415.497 280.866 414.522 279.94C413.547 279.013 412.338 278.371 411.024 278.082C409.711 277.793 408.343 277.868 407.069 278.3C359.179 294.47 302.349 303.84 241.409 303.84Z" fill="url(#paint14_radial_862_12572)"/>
</mask>
<g mask="url(#mask1_862_12572)">
<g style="mix-blend-mode:multiply" filter="url(#filter2_f_862_12572)">
<ellipse cx="239.85" cy="304.5" rx="143" ry="68.5" fill="#743C1C"/>
</g>
</g>
<defs>
<filter id="filter0_f_862_12572" x="-26.8145" y="206.558" width="535.021" height="306.595" filterUnits="userSpaceOnUse" color-interpolation-filters="sRGB">
<feFlood flood-opacity="0" result="BackgroundImageFix"/>
<feBlend mode="normal" in="SourceGraphic" in2="BackgroundImageFix" result="shape"/>
<feGaussianBlur stdDeviation="12.5" result="effect1_foregroundBlur_862_12572"/>
</filter>
<filter id="filter1_f_862_12572" x="-41.8145" y="191.558" width="565.021" height="336.595" filterUnits="userSpaceOnUse" color-interpolation-filters="sRGB">
<feFlood flood-opacity="0" result="BackgroundImageFix"/>
<feBlend mode="normal" in="SourceGraphic" in2="BackgroundImageFix" result="shape"/>
<feGaussianBlur stdDeviation="20" result="effect1_foregroundBlur_862_12572"/>
</filter>
<filter id="filter2_f_862_12572" x="46.8496" y="186" width="386" height="237" filterUnits="userSpaceOnUse" color-interpolation-filters="sRGB">
<feFlood flood-opacity="0" result="BackgroundImageFix"/>
<feBlend mode="normal" in="SourceGraphic" in2="BackgroundImageFix" result="shape"/>
<feGaussianBlur stdDeviation="25" result="effect1_foregroundBlur_862_12572"/>
</filter>
<radialGradient id="paint0_radial_862_12572" cx="0" cy="0" r="1" gradientUnits="userSpaceOnUse" gradientTransform="translate(241 -4.53898e-06) rotate(90) scale(482)">
<stop stop-color="#FFDE43"/>
<stop offset="1" stop-color="#FFBC00"/>
</radialGradient>
<radialGradient id="paint1_radial_862_12572" cx="0" cy="0" r="1" gradientUnits="userSpaceOnUse" gradientTransform="translate(241 64.5) rotate(90) scale(417.5)">
<stop stop-color="white" stop-opacity="0.5"/>
<stop offset="0.782278"/>
</radialGradient>
<radialGradient id="paint2_radial_862_12572" cx="0" cy="0" r="1" gradientUnits="userSpaceOnUse" gradientTransform="translate(241 64.5) rotate(90) scale(417.5)">
<stop stop-color="white" stop-opacity="0.5"/>
<stop offset="0.782278"/>
</radialGradient>
<radialGradient id="paint3_radial_862_12572" cx="0" cy="0" r="1" gradientUnits="userSpaceOnUse" gradientTransform="translate(241 -52.5) rotate(90) scale(534.5 722.835)">
<stop offset="0.0922635" stop-color="white"/>
<stop offset="0.670207" stop-color="white" stop-opacity="0"/>
</radialGradient>
<linearGradient id="paint4_linear_862_12572" x1="141.43" y1="255.69" x2="141.43" y2="70.4899" gradientUnits="userSpaceOnUse">
<stop stop-color="#FF2400"/>
<stop offset="0.16" stop-color="#FF2D00"/>
<stop offset="0.42" stop-color="#FF4500"/>
<stop offset="0.75" stop-color="#FF6D00"/>
<stop offset="1" stop-color="#FF8F00"/>
</linearGradient>
<linearGradient id="paint5_linear_862_12572" x1="141.43" y1="255.69" x2="141.43" y2="70.4899" gradientUnits="userSpaceOnUse">
<stop stop-color="#FFA300"/>
<stop offset="0.17" stop-color="#FF8700" stop-opacity="0.78"/>
<stop offset="0.4" stop-color="#FF6400" stop-opacity="0.5"/>
<stop offset="0.6" stop-color="#FF4800" stop-opacity="0.29"/>
<stop offset="0.78" stop-color="#FF3500" stop-opacity="0.13"/>
<stop offset="0.92" stop-color="#FF2800" stop-opacity="0.04"/>
<stop offset="1" stop-color="#FF2400" stop-opacity="0"/>
</linearGradient>
<linearGradient id="paint6_linear_862_12572" x1="141.43" y1="255.69" x2="141.43" y2="135.73" gradientUnits="userSpaceOnUse">
<stop stop-color="white"/>
<stop offset="0.08" stop-color="#FFFDF6"/>
<stop offset="0.22" stop-color="#FEF8DE"/>
<stop offset="0.4" stop-color="#FEF0B6"/>
<stop offset="0.6" stop-color="#FCE57F"/>
<stop offset="0.83" stop-color="#FBD739"/>
<stop offset="1" stop-color="#FACC00"/>
</linearGradient>
<linearGradient id="paint7_linear_862_12572" x1="141.42" y1="260.869" x2="141.42" y2="64.5468" gradientUnits="userSpaceOnUse">
<stop offset="0.265625" stop-color="#FFDE43"/>
<stop offset="1" stop-color="#F79D14"/>
</linearGradient>
<linearGradient id="paint8_linear_862_12572" x1="341.27" y1="255.69" x2="341.27" y2="70.4899" gradientUnits="userSpaceOnUse">
<stop stop-color="#FF2400"/>
<stop offset="0.16" stop-color="#FF2D00"/>
<stop offset="0.42" stop-color="#FF4500"/>
<stop offset="0.75" stop-color="#FF6D00"/>
<stop offset="1" stop-color="#FF8F00"/>
</linearGradient>
<linearGradient id="paint9_linear_862_12572" x1="341.27" y1="255.69" x2="341.27" y2="70.4899" gradientUnits="userSpaceOnUse">
<stop stop-color="#FFA300"/>
<stop offset="0.17" stop-color="#FF8700" stop-opacity="0.78"/>
<stop offset="0.4" stop-color="#FF6400" stop-opacity="0.5"/>
<stop offset="0.6" stop-color="#FF4800" stop-opacity="0.29"/>
<stop offset="0.78" stop-color="#FF3500" stop-opacity="0.13"/>
<stop offset="0.92" stop-color="#FF2800" stop-opacity="0.04"/>
<stop offset="1" stop-color="#FF2400" stop-opacity="0"/>
</linearGradient>
<linearGradient id="paint10_linear_862_12572" x1="341.27" y1="255.69" x2="341.27" y2="135.73" gradientUnits="userSpaceOnUse">
<stop stop-color="white"/>
<stop offset="0.08" stop-color="#FFFDF6"/>
<stop offset="0.22" stop-color="#FEF8DE"/>
<stop offset="0.4" stop-color="#FEF0B6"/>
<stop offset="0.6" stop-color="#FCE57F"/>
<stop offset="0.83" stop-color="#FBD739"/>
<stop offset="1" stop-color="#FACC00"/>
</linearGradient>
<linearGradient id="paint11_linear_862_12572" x1="341.26" y1="260.869" x2="341.26" y2="64.5468" gradientUnits="userSpaceOnUse">
<stop offset="0.265625" stop-color="#FFDE43"/>
<stop offset="1" stop-color="#F79D14"/>
</linearGradient>
<radialGradient id="paint12_radial_862_12572" cx="0" cy="0" r="1" gradientUnits="userSpaceOnUse" gradientTransform="translate(241.409 344.584) scale(132.403 135.237)">
<stop stop-color="#743C1C"/>
<stop offset="1" stop-color="#401C02"/>
</radialGradient>
<linearGradient id="paint13_linear_862_12572" x1="241.409" y1="412.75" x2="241.409" y2="276.9" gradientUnits="userSpaceOnUse">
<stop offset="0.3" stop-color="#FFDE43"/>
<stop offset="1" stop-color="#F79D14"/>
</linearGradient>
<radialGradient id="paint14_radial_862_12572" cx="0" cy="0" r="1" gradientUnits="userSpaceOnUse" gradientTransform="translate(241.409 344.584) scale(132.403 135.237)">
<stop stop-color="#743C1C"/>
<stop offset="1" stop-color="#401C02"/>
</radialGradient>
</defs>
</svg>
